<svg width="24" height="24" viewBox="0 0 24 24" fill="none" xmlns="http://www.w3.org/2000/svg">
<path fill-rule="evenodd" clip-rule="evenodd" d="M12 20C10.4178 20 8.87104 19.5308 7.55544 18.6518C6.23985 17.7727 5.21447 16.5233 4.60897 15.0615C4.00347 13.5997 3.84504 11.9911 4.15372 10.4393C4.4624 8.88743 5.22433 7.46197 6.34315 6.34315C7.46197 5.22433 8.88743 4.4624 10.4393 4.15372C11.9911 3.84504 13.5997 4.00347 15.0615 4.60897C16.5233 5.21447 17.7727 6.23985 18.6518 7.55544C19.5308 8.87104 20 10.4178 20 12C19.9978 14.1211 19.1543 16.1547 17.6545 17.6545C16.1547 19.1543 14.1211 19.9978 12 20ZM12 5.35594C10.6859 5.35594 9.40137 5.7456 8.30876 6.47566C7.21615 7.20572 6.36456 8.24338 5.86169 9.45743C5.35881 10.6715 5.22724 12.0074 5.4836 13.2962C5.73933 14.5818 6.36961 15.763 7.29502 16.6911C7.68012 16.0028 8.21365 15.4037 8.86143 14.9399C9.77673 14.2845 10.8742 13.9321 12 13.9321C13.1257 13.9321 14.2232 14.2845 15.1385 14.9399C15.7863 15.4037 16.3198 16.0028 16.7049 16.6912C17.0085 16.3868 17.2832 16.0522 17.5243 15.6912C18.2544 14.5986 18.6441 13.3141 18.6441 12C18.6419 10.2385 17.9412 8.54985 16.6957 7.30432C15.4502 6.05878 13.7615 5.35809 12 5.35594ZM9.64963 16.0402C9.09964 16.4343 8.6598 16.9587 8.36743 17.5631C9.07468 18.0249 9.86713 18.35 10.7038 18.5164C11.9926 18.7728 13.3285 18.6412 14.5426 18.1383C14.9247 17.98 15.2894 17.7872 15.6325 17.5631C15.3402 16.9588 14.9003 16.4343 14.3503 16.0402C13.665 15.5492 12.8431 15.2851 12 15.2851C11.1569 15.2851 10.335 15.5492 9.64963 16.0402ZM10.37 12.7448C10.8525 13.0672 11.4198 13.2393 12.0002 13.2393C12.7781 13.2386 13.5241 12.9292 14.0742 12.3791C14.6243 11.829 14.9337 11.0831 14.9344 10.3051C14.9344 9.72475 14.7623 9.15745 14.4399 8.67491C14.1175 8.19238 13.6592 7.81629 13.123 7.59421C12.5869 7.37212 11.9969 7.31401 11.4277 7.42723C10.8585 7.54045 10.3357 7.81991 9.92534 8.23027C9.51498 8.64063 9.23552 9.16346 9.1223 9.73265C9.00908 10.3018 9.06719 10.8918 9.28928 11.428C9.51136 11.9641 9.88745 12.4224 10.37 12.7448ZM11.1233 8.99278C11.3828 8.81935 11.688 8.72678 12.0002 8.72678C12.4185 8.7275 12.8196 8.89402 13.1154 9.18985C13.4112 9.48568 13.5777 9.88672 13.5785 10.3051C13.5785 10.6172 13.4859 10.9224 13.3125 11.1819C13.139 11.4415 12.8925 11.6438 12.6041 11.7633C12.3158 11.8827 11.9984 11.914 11.6922 11.8531C11.3861 11.7922 11.1049 11.6418 10.8841 11.4211C10.6634 11.2004 10.5131 10.9192 10.4522 10.613C10.3913 10.3068 10.4225 9.98949 10.542 9.7011C10.6615 9.4127 10.8637 9.1662 11.1233 8.99278Z" fill="#060606"/>
</svg>
