<svg width="24" height="24" viewBox="0 0 24 24" fill="none" xmlns="http://www.w3.org/2000/svg">
<path fill-rule="evenodd" clip-rule="evenodd" d="M12 20C10.4178 20 8.87104 19.5308 7.55544 18.6518C6.23985 17.7727 5.21447 16.5233 4.60897 15.0615C4.00347 13.5997 3.84504 11.9911 4.15372 10.4393C4.4624 8.88743 5.22433 7.46197 6.34315 6.34315C7.46197 5.22433 8.88743 4.4624 10.4393 4.15372C11.9911 3.84504 13.5997 4.00347 15.0615 4.60897C16.5233 5.21447 17.7727 6.23985 18.6518 7.55544C19.5308 8.87104 20 10.4178 20 12C19.9978 14.1211 19.1543 16.1547 17.6545 17.6545C16.1547 19.1543 14.1211 19.9978 12 20ZM12 5.35594C10.6859 5.35594 9.40137 5.7456 8.30876 6.47566C7.21615 7.20572 6.36456 8.24338 5.86169 9.45743C5.35881 10.6715 5.22724 12.0074 5.4836 13.2962C5.73996 14.585 6.37275 15.7689 7.30194 16.6981C8.23113 17.6273 9.41499 18.26 10.7038 18.5164C11.9926 18.7728 13.3285 18.6412 14.5426 18.1383C15.7566 17.6354 16.7943 16.7839 17.5243 15.6912C18.2544 14.5986 18.6441 13.3141 18.6441 12C18.6419 10.2385 17.9412 8.54985 16.6957 7.30432C15.4502 6.05878 13.7615 5.35809 12 5.35594ZM11.322 12.678H8.20336C8.02355 12.678 7.85111 12.6065 7.72396 12.4794C7.59682 12.3522 7.52539 12.1798 7.52539 12C7.52539 11.8202 7.59682 11.6477 7.72396 11.5206C7.85111 11.3934 8.02355 11.322 8.20336 11.322H11.322V8.20336C11.322 8.02355 11.3934 7.85111 11.5206 7.72396C11.6477 7.59682 11.8202 7.52539 12 7.52539C12.1798 7.52539 12.3522 7.59682 12.4794 7.72396C12.6065 7.85111 12.678 8.02355 12.678 8.20336V11.322H15.7966C15.9764 11.322 16.1488 11.3934 16.276 11.5206C16.4031 11.6477 16.4745 11.8202 16.4745 12C16.4745 12.1798 16.4031 12.3522 16.276 12.4794C16.1488 12.6065 15.9764 12.678 15.7966 12.678H12.678V15.7966C12.678 15.9764 12.6065 16.1488 12.4794 16.276C12.3522 16.4031 12.1798 16.4745 12 16.4745C11.8202 16.4745 11.6477 16.4031 11.5206 16.276C11.3934 16.1488 11.322 15.9764 11.322 15.7966V12.678Z" fill="#060606"/>
</svg>
