<?xml version="1.0" encoding="UTF-8"?><svg id="Calque_3" xmlns="http://www.w3.org/2000/svg" xmlns:xlink="http://www.w3.org/1999/xlink" viewBox="0 0 195.52 155.09"><defs><style>.cls-1,.cls-2,.cls-3{fill:none;}.cls-2,.cls-3,.cls-4,.cls-5,.cls-6,.cls-7,.cls-8{stroke-miterlimit:10;}.cls-2,.cls-3,.cls-8{stroke-linecap:round;}.cls-2,.cls-4,.cls-5,.cls-6,.cls-7,.cls-8{stroke:#1d1d1b;stroke-width:1.5px;}.cls-9,.cls-5,.cls-8{fill:#fff;}.cls-3{stroke:#1e1f1d;}.cls-4{fill:url(#Nouveau_motif);}.cls-6{fill:#fed16b;}.cls-7{fill:#0f8d96;}</style><pattern id="Nouveau_motif" x="0" y="0" width="33.62" height="24.35" patternTransform="translate(-32.96 -52.61)" patternUnits="userSpaceOnUse" viewBox="0 0 33.62 24.35"><g><rect class="cls-1" width="33.62" height="24.35"/><line class="cls-3" x1="33.62" y1="16.76" x2="38.07" y2="14.61"/><g><line class="cls-3" x1="0" y1="16.76" x2="4.44" y2="14.61"/><line class="cls-3" x1="26.57" y1="20.36" x2="27.5" y2="15.51"/><line class="cls-3" x1="8.72" y1="19.06" x2="12.74" y2="21.93"/><line class="cls-3" x1="26.46" y1="11.1" x2="22.02" y2="13.25"/><line class="cls-3" x1="22.95" y1=".5" x2="21.09" y2="5.07"/><line class="cls-3" x1="15.11" y1="6.85" x2="15.68" y2="11.75"/><line class="cls-3" x1="6.26" y1="3.47" x2="11.18" y2="3.86"/><line class="cls-3" x1="33.12" y1="2.74" x2="33.12" y2="4.59"/><line class="cls-3" x1="17.79" y1="17.28" x2="16.49" y2="18.59"/><line class="cls-3" x1="2.34" y1="23.18" x2=".5" y2="23.29"/><line class="cls-3" x1="3.23" y1="7.85" x2="4.02" y2="9.52"/></g></g></pattern></defs><path class="cls-8" d="M51.64,93.53c-4.46,1.38-9.47-2.05-11.21-7.65s.47-11.27,4.93-12.64l6.28,20.3Z"/><g><path class="cls-7" d="M187.19,102.83c-1.17,2.11-13.47,3.97-18.2,1.79s-10.36-3.69-10.89-2.77,2.29,3.62,1.83,4.68-14,4.63-23.6,1.95c-8.95-2.5-16.78-9.24-18.87-13.28-8.01-15.45-17.75-14.72-19.84-15.47-.13-.05-.08-.22,.06-.21,7.62,.31,18.88-7.95,24.67-7.98,5.94-.03,13.58,.48,18.4,3.85,4.82,3.36,9.5,7.61,13.2,7.45s6.12-1.83,9.85,.43,13.61,12.03,17.32,14.07,7.47,2.01,6.07,5.48Z"/><path class="cls-2" d="M111.4,81.54c8.05,1.64,14.37,7.39,23.01,9.12,4.77,.96,13.12,.38,22.42,3.4,3.51,1.14,10.39,5.9,16.81,5.56"/><path class="cls-2" d="M152.72,102c-4.52-2.13-8.76-4.85-12.51-8.05"/><path class="cls-2" d="M140.11,82.71c-2.76-1.08-10.06-1.51-16.81,1.25"/></g><path class="cls-7" d="M101.72,78.29c3.35-3.24,9.77-16.71,15.61-21.35,5.83-4.64,17.73-11.94,23.83-11.99s10.16,2.99,14.05,6.52c3.89,3.53,21.95,12.08,20.09,13.55-2.71,2.15-6.62,1.1-11.28,1.1-5.89,0-9.95,3.76-13.08,4.21-3.12,.45-4.83,.32-3.89,1.21s7.71,3.05,7.36,4.09c-.86,2.58-4.9,1.56-9.1,4.35s-8.55,4.84-15.37,1.96-13.23-4.4-16.66-3.13c-3.42,1.27-9.35,2.26-9.35,2.26l-2.22-2.78Z"/><g><path class="cls-7" d="M96.68,56.16c3.3-1.76,5.82-3.07,7.42-8.49,1.59-5.42,1.72-14.09,8.09-16.44s10.5-3.27,12.87-8.7c2.37-5.43,2.73-11.86,9.22-11.53s10.01,5.22,15.18,2.12S159.23-.87,164.34,.95s6.77,5.52,4.46,11.28-8.26,7.13-7.96,11.87c.3,4.74,4.75,6.7,.63,11.66s-16.08,6.76-16.42,12.11,3.83,6.65,.69,10.85-11.93,5.74-18.54,4.3c-6.61-1.44-23.44-3.58-26.59-2.24-3.15,1.34-4.36,1.22-4.36,1.22l.42-5.84Z"/><path class="cls-2" d="M110.8,52.29c10.9-3.01,21.83-8.5,28.9-16.41,7.07-7.91,16.32-18.19,18.56-19.62"/><path class="cls-2" d="M144.36,18.41c-3.98,7.25-3.68,9.77-3.68,9.77"/><path class="cls-2" d="M127.11,32.31c-3.72,3.74-4.48,12.63-4.48,12.63"/><path class="cls-2" d="M137.44,42.25c2.58,.22,7.46,.01,10.16-2.58"/></g><path class="cls-8" d="M52.56,95.37c-3.42-8.75-6-17.07-6.66-22.61-.08-.67,.32-1.29,.95-1.52,4.6-1.63,22.6-8.03,27.28-10.16,.85-.39,1.87-1.12,2.98-2.08,5.9-5.09,14.46-16.68,15.14-18.52,1.12-3.03,5.09-1.85,6-.06s14.86,45.8,15.18,48.49c.33,2.7-3.79,3.49-6.16,1.18-1.56-1.53-20.32-6.63-25.42-6.88-5.11-.25-24.94,9.71-28.53,11.85l-.77,.3Z"/><path class="cls-8" d="M63.44,89.96c1.26,5.67,13.05,31.39,14.76,34.37,.32,.56,.18,1.28-.34,1.67-1.47,1.12-4.42,3.27-6.36,3.96-.62,.22-1.31,0-1.7-.52-5.31-7.28-12.2-21.15-17.25-34.06l10.89-5.42Z"/><path class="cls-5" d="M51.64,132.8c6.55-6.6,12.58-12.35,12.58-12.35l-7.67-15.54s2.49-4.12,3.5-5.65c1.29-1.94,.25-5.94-3.08-3.61-2.03,1.42-6.76,4.42-8.62,6.72-1.17,1.45-4.02,6.5-7.63,11.31"/><path class="cls-9" d="M40.72,113.69c-1.95,2.32-4.53,5.6-6.99,7.49-5.65,4.33-18.19,3.9-25.44,3.08-2.03-.23-3.91,1.03-4.54,2.97-2.24,6.91-3.02,16.15-3,21.56,.01,2.45,1.75,4.57,4.16,5.01,11.55,2.09,25.71-2.04,34.81-8.35,4.43-3.07,7.59-5.89,11.92-12.64-5-4.39-10.92-10.38-10.92-19.11Z"/><path class="cls-6" d="M40.72,113.69c-1.95,2.32-4.53,5.6-6.99,7.49-5.65,4.33-18.19,3.9-25.44,3.08-2.03-.23-3.91,1.03-4.54,2.97-2.24,6.91-3.02,16.15-3,21.56,.01,2.45,1.75,4.57,4.16,5.01,11.55,2.09,25.71-2.04,34.81-8.35,4.43-3.07,7.59-5.89,11.92-12.64-5-4.39-10.92-10.38-10.92-19.11Z"/><path class="cls-4" d="M40.72,113.69c-1.95,2.32-4.53,5.6-6.99,7.49-5.65,4.33-18.19,3.9-25.44,3.08-2.03-.23-3.91,1.03-4.54,2.97-2.24,6.91-3.02,16.15-3,21.56,.01,2.45,1.75,4.57,4.16,5.01,11.55,2.09,25.71-2.04,34.81-8.35,4.43-3.07,7.59-5.89,11.92-12.64-5-4.39-10.92-10.38-10.92-19.11Z"/><g><rect class="cls-5" x="65.35" y="91.2" width="4.8" height="12.77" rx="2.4" ry="2.4" transform="translate(118.13 -10) rotate(59.86)"/><rect class="cls-5" x="67.2" y="95.98" width="4.8" height="12.77" rx="2.4" ry="2.4" transform="translate(123.19 -9.23) rotate(59.86)"/><rect class="cls-5" x="68.98" y="100.63" width="4.8" height="12.77" rx="2.4" ry="2.4" transform="translate(128.09 -8.45) rotate(59.86)"/><rect class="cls-5" x="71.72" y="106.37" width="4.8" height="9.95" rx="2.4" ry="2.4" transform="translate(133.2 -8.67) rotate(59.86)"/></g><line class="cls-2" x1="113.45" y1="2.11" x2="111.63" y2="19.71"/><line class="cls-2" x1="185.02" y1="50.67" x2="194.77" y2="48.97"/><line class="cls-2" x1="171.63" y1="28.18" x2="180.06" y2="18.41"/><line class="cls-2" x1="173.64" y1="78.42" x2="184.49" y2="81.54"/><line class="cls-2" x1="140.11" y1="115.67" x2="144.36" y2="124.98"/></svg>