<?xml version="1.0" encoding="UTF-8"?>
<svg width="24" height="24" version="1.1" viewBox="0 0 700 500" xmlns="http://www.w3.org/2000/svg">
 <path d="m452.9 205.62h-163.27l-15.227-33.426c18.727-5.6016 36.574-11.727 44.977-16.801 10.324-6.3008 12.949-14.699 12.949-19.773s-2.625-13.648-12.949-19.773c-12.426-7.5234-46.199-17.5-72.801-24.324-12.949-3.3242-26.773-0.35156-37.449 7.875-10.676 8.2266-16.801 21-16.801 34.477v3.8516c0 13.477 6.125 26.074 16.801 34.477 8.75 6.8242 19.773 9.9766 30.801 8.9258l18.199 40.25-39.023 43.926c-22.574-15.574-49.875-24.5-79.273-24.5-77.18-0.18359-139.83 62.465-139.83 139.82s62.648 140 140 140c71.398 0 130.38-53.551 138.95-122.5h21.523c5.7734 16.273 19.426 28.875 36.398 33.25l6.8242 20.301c-6.4766 2.625-11.199 8.9258-11.199 16.273 0 9.625 7.875 17.5 17.5 17.5h35c9.625 0 17.5-7.875 17.5-17.5s-7.875-17.5-17.5-17.5h-4.8984l-7.5234-22.574c17.676-8.3984 29.926-26.426 29.926-47.426 0-9.4492-2.4492-18.199-6.8242-25.898l79.102-105.52 7.5234 14.875c-37.449 25.199-62.301 67.898-62.301 116.38 0 77.352 62.648 140 140 140s140-62.648 140-140c0-77.352-62.648-140-140-140-16.273 0-31.852 2.8008-46.551 7.875l-8.75-17.676c8.9258-1.9258 17.148-6.3008 23.801-12.949 8.9258-8.9258 14-21.176 14-33.773 0-14.875-6.8242-29.051-18.551-38.148-11.727-9.1016-27.125-12.426-41.648-8.75l-21.699 5.4258-1.2266-2.4492c4.1992-3.6758 8.9258-8.3984 12.949-13.125 5.4258-6.4766 9.9766-13.477 12.074-19.773 3.3242-10.148 2.1016-19.426-3.8516-27.125-5.4258-7-17.676-14.352-42.875-14.352h-87.5c-9.625 0-17.5 7.875-17.5 17.5s7.875 17.5 17.5 17.5h87.5c3.5 0 7 0.35156 9.9766 0.875-1.5742 2.2734-3.5 4.8984-5.25 6.4766-7.3516 7.6992-15.227 13.648-15.227 13.648-6.8242 5.0742-8.9258 14.176-5.0742 21.875l31.148 62.125zm-257.25 85.926c-16.102-10.148-35.176-15.926-55.648-15.926-57.926 0-105 47.074-105 105s47.074 105 105 105c51.977 0 95.199-37.801 103.6-87.5h-103.6c-6.8242 0-13.125-4.0234-15.926-10.324s-1.75-13.648 2.8008-18.727l68.773-77.352zm302.4 4.1992c-26.074 19.074-43.051 50.051-43.051 84.699 0 57.926 47.074 105 105 105 57.926 0 105-47.074 105-105s-47.074-105-105-105c-10.676 0-21 1.5742-30.625 4.5508l46.375 92.574c4.375 8.5742 0.875 19.25-7.875 23.449-8.5742 4.375-19.25 0.875-23.449-7.875l-46.375-92.574zm61.949 137.2c-23.977 0-44.102-16.102-50.398-37.977-2.625-9.2734-12.426-14.699-21.699-11.898-9.2734 2.625-14.699 12.426-11.898 21.699 10.5 36.398 44.273 63.176 84 63.176 9.625 0 17.5-7.875 17.5-17.5s-7.875-17.5-17.5-17.5zm-393.23-7.3516c-7.875 4.7266-16.977 7.3516-26.773 7.3516-13.125 0-25.023-4.8984-34.301-12.773-7.3516-6.3008-18.375-5.6016-24.676 1.75-6.3008 7.3516-5.4258 18.375 1.75 24.676 15.398 13.301 35.352 21.352 57.227 21.352 16.273 0 31.676-4.5508 44.801-12.25 8.2266-4.8984 11.023-15.75 6.125-23.977-4.8984-8.2266-15.75-11.023-23.977-6.125zm406-96.074c22.75 5.7734 39.551 26.426 39.551 50.926 0 9.625 7.875 17.5 17.5 17.5s17.5-7.875 17.5-17.5c0-40.949-28.176-75.25-65.977-84.875-9.4492-2.4492-18.898 3.3242-21.176 12.602-2.4492 9.4492 3.3242 18.898 12.602 21.176zm-222.6 68.426c9.625 0 17.324-7.875 17.324-17.5s-7.875-17.5-17.5-17.5-17.5 7.875-17.5 17.5 7.6992 17.324 17.324 17.5h0.52344zm-260.05-33.949c5.4258-16.449 18.898-29.398 35.699-34.125 9.2734-2.625 14.699-12.25 12.074-21.523-2.625-9.2734-12.25-14.699-21.523-12.074-28 7.875-50.398 29.227-59.5 56.699-2.9766 9.1016 1.9258 19.074 11.023 22.051 9.1016 2.9766 19.074-1.9258 22.051-11.023zm223.48-21.352-39.375-86.801-28.875 32.375c18.023 20.477 30.102 46.199 33.602 74.727h21.523c2.8008-7.6992 7.3516-14.699 13.125-20.301zm-134.57 20.301 42.875-48.301c11.023 13.648 18.727 30.102 21.699 48.301zm126.7-122.5 39.898 87.676c1.5742 0 2.9766-0.17578 4.5508-0.17578 6.8242 0 13.301 1.2266 19.25 3.6758l68.25-91.176zm182.18-43.75h7c3.3242 0 6.6484-1.3984 9.1016-3.8516 2.4492-2.4492 3.6758-5.6016 3.6758-9.1016 0-4.1992-1.9258-8.0508-5.25-10.676-3.3242-2.4492-7.5234-3.5-11.551-2.4492l-14.176 3.5 11.199 22.398zm-212.45-61.074c-11.898 3.6758-25.375 7.1758-37.273 10.324-2.625 0.69922-5.25 0-7.3516-1.5742-2.1016-1.5742-3.3242-4.0234-3.3242-6.8242v-3.8516c0-2.625 1.2266-5.0742 3.3242-6.8242 2.1016-1.5742 4.8984-2.2734 7.3516-1.5742 11.898 2.9766 25.375 6.6484 37.273 10.148z" fill-rule="evenodd"/>
</svg>
