<svg viewBox="0 0 40 40" fill="none" xmlns="http://www.w3.org/2000/svg">
<g clip-path="url(#clip0_10_2704)">
<g clip-path="url(#clip1_10_2704)">
<path d="M31.0053 6.3828L26.8905 10.4976L25.3552 8.96233C24.2189 7.826 24.2189 5.98437 25.3552 4.84812C26.4914 3.71179 28.3338 3.71125 29.47 4.84749L31.0053 6.3828Z" fill="#16838F"/>
<path d="M35.1526 10.5301C36.2888 11.6664 36.2883 13.5087 35.152 14.645C34.0157 15.7812 32.1741 15.7812 31.0378 14.645L29.5024 13.1097L33.6173 8.99483L35.1526 10.5301Z" fill="#16838F"/>
<path d="M28.2992 14.313L33.6176 8.99461L31.0056 6.38265L25.6872 11.701L28.2992 14.313Z" fill="#73B5BC"/>
<path d="M29.4309 20.3528L24.9706 24.8131L17.6714 22.3287L15.187 15.0295L19.6473 10.5692C21.6671 8.54944 24.9423 8.54944 26.9621 10.5692L29.4309 13.0379C31.4507 15.0577 31.4507 18.333 29.4309 20.3528Z" fill="#FED169"/>
<path d="M24.9706 24.8131L21.1893 28.5945L14.4919 25.5082L11.4056 18.8109L15.187 15.0295L24.9706 24.8131Z" fill="#16838F"/>
<path d="M21.1892 28.5945L17.4084 32.3752L10.7111 29.289L7.62482 22.5917L11.4056 18.8109L21.1892 28.5945Z" fill="#FED169"/>
<path d="M17.4084 32.3752L15.5578 34.2259C14.8374 34.9463 14.0508 35.4429 13.2419 35.7715L7.53155 32.4686L4.22867 26.7583C4.55726 25.9494 5.05375 25.1628 5.77421 24.4425L7.62483 22.5918L17.4084 32.3752Z" fill="#16838F"/>
<path d="M4.22865 26.7582L13.2418 35.7714C9.35325 37.3525 4.95381 35.0462 4.95381 35.0462C4.95381 35.0462 2.64756 30.6467 4.22865 26.7582Z" fill="#FED169"/>
<path d="M23.1006 14.0431L11.3804 17.9984C10.8147 18.1886 10.2194 18.2782 9.58685 18.2439C6.90748 18.0983 4.85217 15.8082 4.99779 13.1289L13.7385 9.3331L23.1006 14.0431Z" fill="#B9DADD"/>
<path d="M23.1007 14.0431L4.99772 13.1288C4.99772 13.1264 4.99772 13.1252 4.99835 13.1234C4.82202 13.0638 4.64694 12.997 4.47178 12.9206C1.23015 11.4967 -0.2443 7.71467 1.17906 4.47257C2.60296 1.22984 6.38561 -0.244061 9.62771 1.1793C10.3788 1.50914 11.0517 1.97375 11.5993 2.52148L23.1007 14.0431Z" fill="white"/>
<path d="M25.9571 16.8994L22.0018 28.6197C21.8115 29.1854 21.7219 29.7806 21.7562 30.4132C21.9018 33.0926 24.1919 35.1479 26.8713 35.0023L30.6671 26.2616L25.9571 16.8994Z" fill="#B9DADD"/>
<path d="M25.9571 16.8994L26.8713 35.0023C26.8737 35.0023 26.8749 35.0023 26.8767 35.0017C26.9363 35.1781 27.0031 35.3531 27.0795 35.5283C28.5035 38.7698 32.2855 40.2444 35.5276 38.821C38.7703 37.397 40.2442 33.6145 38.8209 30.3723C38.491 29.6212 38.0264 28.9483 37.4787 28.4006L25.9571 16.8994Z" fill="white"/>
<path d="M18.768 30.1125L17.408 31.4724L8.52757 22.5919L9.88749 21.232C10.1368 20.9827 10.1368 20.5785 9.88749 20.3293C9.63819 20.08 9.23397 20.08 8.98476 20.3293L5.32289 23.9911C4.60305 24.7109 4.05086 25.5365 3.66914 26.4513C3.64609 26.4933 3.62789 26.5373 3.61492 26.5826C3.05359 28.0012 2.89727 29.6292 3.1632 31.4083C3.39836 32.9816 3.90141 34.2738 4.18476 34.9127L2.63235 36.465C2.38305 36.7143 2.38305 37.1185 2.63235 37.3678C2.75695 37.4924 2.92039 37.5549 3.08367 37.5549C3.24703 37.5549 3.41039 37.4926 3.535 37.3678L5.08742 35.8154C5.72625 36.0988 7.01851 36.6018 8.59171 36.837C9.15585 36.9213 9.70429 36.9632 10.2362 36.9632C11.3817 36.9631 12.4483 36.7688 13.4171 36.3854C13.466 36.3714 13.5133 36.3512 13.5584 36.3253C14.469 35.9438 15.2919 35.3944 16.009 34.6774L19.6707 31.0156C19.92 30.7663 19.92 30.3621 19.6707 30.1128C19.4215 29.8632 19.0173 29.8632 18.768 30.1125ZM8.81569 35.5793C7.2096 35.3445 5.89671 34.7852 5.43148 34.5685C5.21461 34.1027 4.65539 32.7901 4.42078 31.1843C4.24828 30.0038 4.28031 28.923 4.51406 27.9466L12.0536 35.4861C11.0772 35.7199 9.99624 35.752 8.81569 35.5793ZM15.1062 33.7743C14.5894 34.2911 14.0144 34.7031 13.384 35.011L4.98906 26.6161C5.29703 25.9857 5.70898 25.4107 6.2257 24.8939L7.62476 23.4948L16.5053 32.3754L15.1062 33.7743Z" fill="#060606"/>
<path d="M13.2597 19.7615C13.0104 19.5122 12.6061 19.5122 12.3569 19.7615C12.1076 20.0108 12.1076 20.415 12.3569 20.6643L19.3358 27.6432C19.4604 27.7678 19.6239 27.8302 19.7871 27.8302C19.9505 27.8302 20.1139 27.7679 20.2385 27.6432C20.4878 27.3939 20.4878 26.9896 20.2385 26.7404L13.2597 19.7615Z" fill="#060606"/>
<path d="M21.6848 22.1653C21.8482 22.1653 22.0115 22.1031 22.1361 21.9783C22.3854 21.729 22.3854 21.3248 22.1361 21.0755L18.9244 17.8638C18.6751 17.6145 18.2709 17.6145 18.0216 17.8638C17.7723 18.1131 17.7723 18.5173 18.0216 18.7666L21.2333 21.9783C21.3581 22.103 21.5214 22.1653 21.6848 22.1653Z" fill="#060606"/>
<path d="M39.4052 30.116C39.0511 29.3095 38.5412 28.5604 37.9305 27.9494L30.3084 20.3274C31.1345 19.2999 31.5841 18.0324 31.5841 16.6953C31.5841 16.3788 31.5576 16.0664 31.5083 15.76C32.0062 16.0086 32.5506 16.1339 33.0952 16.1339C34.0038 16.1339 34.9123 15.7881 35.6039 15.0965C36.9872 13.7132 36.9872 11.4625 35.6039 10.0792L34.5201 8.99542L36.3545 7.16097C36.6038 6.91168 36.6038 6.50746 36.3545 6.25824C36.1052 6.00894 35.701 6.00894 35.4518 6.25824L33.6174 8.09269L31.9076 6.38277L33.742 4.54832C33.9913 4.29903 33.9913 3.89481 33.742 3.64559C33.4928 3.39629 33.0886 3.39629 32.8392 3.64559L31.0048 5.48004L29.921 4.39621C28.5378 3.01293 26.2871 3.01293 24.9037 4.39621C23.7974 5.50254 23.5768 7.16324 24.2402 8.49183C23.9337 8.44245 23.6214 8.41605 23.3049 8.41605C21.9678 8.41605 20.7001 8.86574 19.6728 9.69175L12.0507 2.0695C11.4398 1.45895 10.6907 0.949031 9.88427 0.594892C6.3249 -0.968074 2.15772 0.656142 0.594831 4.21543C-0.968056 7.77472 0.65616 11.9419 4.21537 13.5046C4.26147 13.5249 4.30795 13.5447 4.3549 13.564C4.44139 16.3852 6.68349 18.7256 9.55255 18.881C9.65083 18.8863 9.74911 18.8889 9.84716 18.8889C10.4354 18.8889 11.018 18.7931 11.5829 18.6036L23.2198 14.7054C23.4386 14.6753 23.6261 14.5324 23.7153 14.3298C23.7352 14.2876 23.7499 14.2424 23.7602 14.1956C23.7617 14.1889 23.763 14.1821 23.7642 14.1751C23.7683 14.1528 23.7714 14.1302 23.7731 14.1071C23.7734 14.1031 23.7742 14.0989 23.7743 14.0949C23.7744 14.0936 23.7746 14.0924 23.7746 14.0913C23.776 14.0655 23.7753 14.04 23.7736 14.0149C23.7732 14.009 23.7724 14.0031 23.7718 13.9971C23.7697 13.9749 23.7664 13.9531 23.7621 13.9315C23.761 13.926 23.76 13.9204 23.7587 13.9148C23.7526 13.8881 23.7451 13.8621 23.7357 13.8367C23.7351 13.8349 23.7343 13.8335 23.7337 13.8318C23.7248 13.8083 23.7142 13.7857 23.7027 13.7636C23.6996 13.7576 23.6964 13.7516 23.6931 13.7456C23.6799 13.7222 23.6656 13.6993 23.6496 13.6778C23.6489 13.6769 23.6481 13.676 23.6475 13.6752C23.6315 13.6539 23.6139 13.6341 23.5954 13.6149C23.5929 13.6124 23.591 13.6096 23.5886 13.6071L20.5822 10.6007C21.3633 10.0116 22.3094 9.69222 23.305 9.69222C24.5161 9.69222 25.6547 10.1639 26.511 11.0202L28.9796 13.4888C29.836 14.3451 30.3076 15.4837 30.3076 16.6948C30.3076 17.6903 29.9883 18.6365 29.3992 19.4176L26.3928 16.4112C26.3905 16.4089 26.3878 16.4072 26.3856 16.4049C26.3459 16.3665 26.3015 16.3332 26.2531 16.306C26.248 16.3031 26.2428 16.3003 26.2375 16.2975C26.2143 16.2853 26.1903 16.2742 26.1655 16.2649C26.1649 16.2647 26.1645 16.2645 26.1639 16.2642C26.1381 16.2546 26.1114 16.247 26.0842 16.2407C26.0795 16.2396 26.0746 16.2388 26.0699 16.2378C26.0476 16.2332 26.0249 16.2299 26.002 16.2277C25.9965 16.2271 25.9911 16.2264 25.9856 16.226C25.9603 16.2242 25.9347 16.2235 25.9087 16.2249C25.9076 16.2249 25.9065 16.2252 25.9053 16.2253C25.9006 16.2255 25.8963 16.2263 25.8917 16.2267C25.869 16.2285 25.8468 16.2314 25.8249 16.2355C25.8176 16.2368 25.8104 16.2383 25.8031 16.24C25.7798 16.2452 25.7568 16.2514 25.7346 16.2591C25.7323 16.2599 25.7298 16.2602 25.7275 16.261C25.7267 16.2613 25.7258 16.2618 25.7249 16.262C25.7144 16.2659 25.7041 16.2705 25.6938 16.2748C25.4788 16.3593 25.3258 16.5528 25.2946 16.78L21.3965 28.4164C21.1751 29.0759 21.0817 29.7591 21.119 30.4471C21.2746 33.3178 23.6169 35.5609 26.4361 35.6451C26.4553 35.6919 26.4751 35.7382 26.4953 35.7842C27.6545 38.4244 30.2461 39.9995 32.9602 39.9995C33.9052 39.9995 34.8654 39.8083 35.7845 39.4048C39.3439 37.8424 40.9681 33.6752 39.4052 30.116ZM1.76374 4.72871C3.04358 1.81403 6.45599 0.483954 9.37075 1.7638C10.0336 2.05481 10.648 2.47278 11.1479 2.97231L21.5118 13.3363L5.14014 12.4967C4.99545 12.4462 4.85998 12.3935 4.72873 12.3358C1.81397 11.0559 0.483894 7.64347 1.76374 4.72871ZM11.1769 17.3933C10.664 17.5655 10.1553 17.635 9.62153 17.6063C8.49575 17.5452 7.46107 17.0495 6.70818 16.2103C6.09943 15.5317 5.73388 14.6945 5.64849 13.801L19.7426 14.5239L11.1769 17.3933ZM34.7011 10.9818C35.5866 11.8674 35.5866 13.3081 34.7011 14.1936C33.8156 15.0791 32.3748 15.0791 31.4893 14.1936L30.4055 13.1098L33.6173 9.898L34.7011 10.9818ZM32.7145 8.99527L29.5027 12.2071L27.793 10.4974L31.0048 7.28558L32.7145 8.99527ZM25.8065 5.29895C26.2492 4.85621 26.8309 4.63481 27.4124 4.63481C27.9939 4.63481 28.5756 4.85621 29.0183 5.29895L30.102 6.38277L26.8903 9.59456L25.8064 8.51074C24.921 7.62519 24.921 6.18441 25.8065 5.29895ZM35.2713 38.2363C32.3566 39.5161 28.9441 38.1861 27.6642 35.2713C27.6066 35.1401 27.5539 35.0047 27.5035 34.86L27.1093 27.1749C27.0913 26.8228 26.7925 26.5517 26.4392 26.5701C26.0871 26.5881 25.8163 26.8882 25.8343 27.2403L26.199 34.3516C25.3069 34.2666 24.4691 33.9011 23.7898 33.2917C22.9506 32.5388 22.4548 31.5041 22.3939 30.3783C22.3649 29.8447 22.4346 29.3359 22.6069 28.8227L25.4762 20.2574L25.7035 24.6902C25.721 25.0312 26.003 25.2959 26.3406 25.2959C26.3516 25.2959 26.3627 25.2957 26.3738 25.2951C26.726 25.277 26.9967 24.977 26.9787 24.6248L26.6639 18.4882L37.0278 28.8521C37.5275 29.3519 37.9454 29.9665 38.2364 30.6292C39.5161 33.544 38.186 36.9565 35.2713 38.2363Z" fill="#060606"/>
</g>
</g>
<defs>
<clipPath id="clip0_10_2704">
<rect width="40" height="40" fill="white"/>
</clipPath>
<clipPath id="clip1_10_2704">
<rect width="40" height="40" fill="white"/>
</clipPath>
</defs>
</svg>
