<svg width="24" height="24" viewBox="0 0 24 24" fill="none" xmlns="http://www.w3.org/2000/svg">
<path d="M14.9573 20.0012C14.615 20.0021 14.2759 19.935 13.9598 19.8037C13.6437 19.6724 13.3568 19.4796 13.1159 19.2364C12.8811 19.0026 12.5632 18.8713 12.2319 18.8713C11.9005 18.8713 11.5826 19.0026 11.3478 19.2364C10.8591 19.7251 10.1962 19.9997 9.50508 19.9997C8.81393 19.9997 8.1511 19.7251 7.66236 19.2364C7.43068 19.0075 7.11923 18.8773 6.79352 18.8732C6.46781 18.8692 6.15323 18.9916 5.91592 19.2147C5.78401 19.3281 5.61354 19.3865 5.4398 19.3777C5.26606 19.369 5.10234 19.2938 4.9825 19.1676C4.86267 19.0415 4.79589 18.8742 4.79599 18.7002C4.79609 18.5263 4.86306 18.359 4.98304 18.233C5.47333 17.7607 6.13006 17.5006 6.81082 17.5093C7.49157 17.5179 8.14149 17.7945 8.61965 18.2791C8.73574 18.3952 8.87357 18.4873 9.02526 18.5502C9.17695 18.613 9.33953 18.6454 9.50372 18.6454C9.66791 18.6454 9.83049 18.613 9.98218 18.5502C10.1339 18.4873 10.2717 18.3952 10.3878 18.2791C10.8765 17.7904 11.5394 17.5159 12.2305 17.5159C12.9216 17.5159 13.5845 17.7904 14.0732 18.2791C14.1893 18.3952 14.3271 18.4873 14.4788 18.5502C14.6305 18.613 14.7931 18.6454 14.9573 18.6454C15.1215 18.6454 15.2841 18.613 15.4357 18.5502C15.5874 18.4873 15.7253 18.3952 15.8413 18.2791C16.2251 17.8962 16.7189 17.6428 17.2538 17.5543C17.7886 17.4658 18.3378 17.5467 18.8244 17.7856C18.9081 17.8225 18.9834 17.876 19.0459 17.9428C19.1084 18.0096 19.1567 18.0884 19.1879 18.1743C19.2191 18.2603 19.2326 18.3517 19.2276 18.443C19.2226 18.5344 19.1992 18.6237 19.1587 18.7058C19.1182 18.7878 19.0616 18.8608 18.9922 18.9204C18.9227 18.9799 18.842 19.0248 18.7548 19.0523C18.6676 19.0799 18.5757 19.0895 18.4846 19.0806C18.3936 19.0717 18.3053 19.0444 18.2251 19.0005C17.9909 18.8847 17.7263 18.8452 17.4685 18.8875C17.2107 18.9298 16.9727 19.0519 16.7878 19.2364C16.5479 19.4779 16.2628 19.6698 15.9487 19.801C15.6346 19.9322 15.2977 20.0003 14.9573 20.0012Z" fill="black"/>
<path d="M14.9573 17.6256C14.6152 17.6264 14.2764 17.5596 13.9604 17.4288C13.6443 17.298 13.3573 17.1059 13.1159 16.8635C12.9998 16.7474 12.862 16.6553 12.7103 16.5925C12.5586 16.5297 12.396 16.4973 12.2318 16.4973C12.0677 16.4973 11.9051 16.5297 11.7534 16.5925C11.6017 16.6553 11.4639 16.7474 11.3478 16.8635C10.8587 17.3516 10.196 17.6257 9.50507 17.6257C8.81414 17.6257 8.15144 17.3516 7.66235 16.8635C7.43067 16.6346 7.11922 16.5044 6.79351 16.5003C6.4678 16.4963 6.15322 16.6187 5.91591 16.8419C5.78537 16.9656 5.61103 17.0323 5.43125 17.0275C5.25147 17.0227 5.08098 16.9466 4.95727 16.8161C4.83356 16.6855 4.76678 16.5112 4.77161 16.3314C4.77644 16.1516 4.85249 15.9812 4.98303 15.8574C5.47366 15.3857 6.13024 15.1261 6.81079 15.1348C7.49133 15.1434 8.14113 15.4196 8.61964 15.9035C8.73573 16.0197 8.87356 16.1118 9.02525 16.1746C9.17694 16.2374 9.33952 16.2698 9.50371 16.2698C9.6679 16.2698 9.83048 16.2374 9.98217 16.1746C10.1339 16.1118 10.2717 16.0197 10.3878 15.9035C10.8772 15.4162 11.5398 15.1426 12.2305 15.1426C12.9212 15.1426 13.5838 15.4162 14.0732 15.9035C14.1893 16.0197 14.3271 16.1118 14.4788 16.1746C14.6305 16.2374 14.7931 16.2698 14.9573 16.2698C15.1215 16.2698 15.284 16.2374 15.4357 16.1746C15.5874 16.1118 15.7252 16.0197 15.8413 15.9035C16.2257 15.5217 16.7195 15.269 17.2541 15.1805C17.7886 15.0921 18.3375 15.1723 18.8244 15.41C18.9081 15.4469 18.9834 15.5004 19.0459 15.5672C19.1084 15.634 19.1567 15.7128 19.1879 15.7987C19.2191 15.8847 19.2326 15.9761 19.2276 16.0674C19.2226 16.1588 19.1991 16.2481 19.1587 16.3302C19.1182 16.4122 19.0616 16.4852 18.9922 16.5448C18.9227 16.6043 18.842 16.6492 18.7548 16.6768C18.6675 16.7043 18.5756 16.7139 18.4846 16.705C18.3936 16.6961 18.3053 16.6688 18.2251 16.6249C17.9906 16.5095 17.7259 16.4704 17.4681 16.5132C17.2103 16.556 16.9724 16.6785 16.7878 16.8635C16.3023 17.3496 15.6442 17.6236 14.9573 17.6256Z" fill="black"/>
<path d="M16.8421 12.5083C16.6623 12.5083 16.4898 12.4369 16.3627 12.3097C16.2355 12.1826 16.1641 12.0101 16.1641 11.8303V9.63371L11.9933 8.06897L7.82513 9.63371V11.8303C7.82513 12.0101 7.7537 12.1826 7.62656 12.3097C7.49941 12.4369 7.32697 12.5083 7.14716 12.5083C6.96735 12.5083 6.79491 12.4369 6.66777 12.3097C6.54062 12.1826 6.4692 12.0101 6.4692 11.8303V9.15371C6.46864 9.01535 6.51044 8.88013 6.58897 8.76621C6.6675 8.65229 6.77901 8.56513 6.90852 8.51643L11.7573 6.71304C11.9104 6.6561 12.0788 6.6561 12.2319 6.71304L17.0807 8.52999C17.2074 8.57861 17.3166 8.66396 17.3944 8.7751C17.4722 8.88623 17.515 9.01808 17.5173 9.15371V11.8195C17.5188 11.9092 17.5024 11.9983 17.4691 12.0816C17.4359 12.165 17.3864 12.2409 17.3236 12.3049C17.2608 12.369 17.1859 12.42 17.1032 12.4549C17.0206 12.4898 16.9318 12.5079 16.8421 12.5083Z" fill="black"/>
<path d="M15.3884 9.29473C15.2993 9.29509 15.211 9.2778 15.1285 9.24386C15.0461 9.20991 14.9713 9.15999 14.9082 9.09696C14.8452 9.03393 14.7953 8.95905 14.7613 8.87664C14.7274 8.79422 14.7101 8.7059 14.7105 8.61677V6.58016L11.9986 5.41677L9.28672 6.58016V8.61134C9.28672 8.79115 9.21529 8.96359 9.08815 9.09074C8.96101 9.21788 8.78856 9.28931 8.60876 9.28931C8.42895 9.28931 8.25651 9.21788 8.12936 9.09074C8.00222 8.96359 7.93079 8.79115 7.93079 8.61134V6.1327C7.93114 5.99985 7.97035 5.87001 8.04359 5.75918C8.11684 5.64834 8.22092 5.56137 8.34299 5.50897L11.7274 4.05541C11.8129 4.01808 11.9053 3.99881 11.9986 3.99881C12.0919 3.99881 12.1842 4.01808 12.2698 4.05541L15.6542 5.50897C15.7763 5.56137 15.8803 5.64834 15.9536 5.75918C16.0268 5.87001 16.066 5.99985 16.0664 6.1327V8.61134C16.0675 8.70093 16.0507 8.78984 16.0171 8.87288C15.9835 8.95593 15.9337 9.03145 15.8706 9.09505C15.8075 9.15866 15.7323 9.20907 15.6496 9.24335C15.5668 9.27763 15.478 9.2951 15.3884 9.29473Z" fill="black"/>
<path d="M16.842 16.4161C16.7376 16.4156 16.6348 16.3911 16.5414 16.3445C16.4479 16.2979 16.3665 16.2305 16.3033 16.1474C16.2402 16.0643 16.1969 15.9678 16.177 15.8653C16.1571 15.7628 16.161 15.6571 16.1885 15.5564L17.002 12.6113L11.9932 10.7347L6.99525 12.6113L7.80881 15.5564C7.83557 15.6432 7.84462 15.7345 7.8354 15.8249C7.82619 15.9153 7.79891 16.0029 7.75518 16.0825C7.71145 16.1622 7.65217 16.2322 7.58085 16.2884C7.50953 16.3447 7.42762 16.3861 7.34001 16.4101C7.25239 16.4341 7.16084 16.4402 7.07081 16.4281C6.98077 16.416 6.89408 16.386 6.81588 16.3398C6.73768 16.2935 6.66957 16.232 6.6156 16.159C6.56163 16.0859 6.52289 16.0027 6.50169 15.9144L5.52271 12.3727C5.47743 12.2098 5.49494 12.0358 5.57177 11.8851C5.6486 11.7345 5.77915 11.6182 5.93762 11.5591L11.7573 9.38965C11.9104 9.33272 12.0788 9.33272 12.2319 9.38965L18.0597 11.5591C18.2182 11.6182 18.349 11.7344 18.4263 11.8849C18.5036 12.0354 18.5218 12.2094 18.4773 12.3727L17.4956 15.9144C17.4565 16.058 17.3714 16.1848 17.2533 16.2754C17.1353 16.366 16.9908 16.4154 16.842 16.4161Z" fill="black"/>
</svg>
