<svg width="24" height="24" viewBox="0 0 24 24" fill="none" xmlns="http://www.w3.org/2000/svg">
<path d="M7.93221 17.3342C7.52994 17.3342 7.13671 17.2149 6.80224 16.9915C6.46776 16.768 6.20707 16.4503 6.05313 16.0787C5.89919 15.707 5.85891 15.2981 5.93739 14.9035C6.01587 14.509 6.20958 14.1466 6.49403 13.8621C6.77847 13.5777 7.14088 13.384 7.53541 13.3055C7.92995 13.227 8.3389 13.2673 8.71055 13.4212C9.08219 13.5752 9.39985 13.8359 9.62333 14.1704C9.84682 14.5048 9.96611 14.8981 9.96611 15.3003C9.96611 15.8397 9.75182 16.3571 9.37039 16.7385C8.98896 17.1199 8.47163 17.3342 7.93221 17.3342ZM7.93221 14.6224C7.79812 14.6224 7.66704 14.6621 7.55555 14.7366C7.44406 14.8111 7.35716 14.917 7.30585 15.0409C7.25454 15.1648 7.24111 15.3011 7.26727 15.4326C7.29343 15.5641 7.358 15.6849 7.45281 15.7797C7.54763 15.8745 7.66843 15.9391 7.79994 15.9653C7.93146 15.9914 8.06777 15.978 8.19166 15.9267C8.31554 15.8754 8.42142 15.7885 8.49592 15.677C8.57041 15.5655 8.61018 15.4344 8.61018 15.3003C8.61018 15.2113 8.59264 15.1231 8.55857 15.0409C8.5245 14.9586 8.47456 14.8839 8.4116 14.8209C8.34865 14.758 8.27391 14.708 8.19166 14.674C8.1094 14.6399 8.02124 14.6224 7.93221 14.6224Z" fill="black"/>
<path d="M16.0678 17.3342C15.6655 17.3342 15.2723 17.2149 14.9378 16.9915C14.6034 16.768 14.3427 16.4503 14.1887 16.0787C14.0348 15.707 13.9945 15.2981 14.073 14.9035C14.1515 14.509 14.3452 14.1466 14.6296 13.8621C14.9141 13.5777 15.2765 13.384 15.671 13.3055C16.0655 13.227 16.4745 13.2673 16.8461 13.4212C17.2178 13.5752 17.5354 13.8359 17.7589 14.1704C17.9824 14.5048 18.1017 14.8981 18.1017 15.3003C18.1017 15.8397 17.8874 16.3571 17.506 16.7385C17.1246 17.1199 16.6072 17.3342 16.0678 17.3342ZM16.0678 14.6224C15.9337 14.6224 15.8026 14.6621 15.6911 14.7366C15.5797 14.8111 15.4928 14.917 15.4414 15.0409C15.3901 15.1648 15.3767 15.3011 15.4029 15.4326C15.429 15.5641 15.4936 15.6849 15.5884 15.7797C15.6832 15.8745 15.804 15.9391 15.9355 15.9653C16.0671 15.9914 16.2034 15.978 16.3272 15.9267C16.4511 15.8754 16.557 15.7885 16.6315 15.677C16.706 15.5655 16.7458 15.4344 16.7458 15.3003C16.7458 15.2113 16.7282 15.1231 16.6942 15.0409C16.6601 14.9586 16.6102 14.8839 16.5472 14.8209C16.4842 14.758 16.4095 14.708 16.3272 14.674C16.245 14.6399 16.1568 14.6224 16.0678 14.6224Z" fill="black"/>
<path d="M19.322 15.9783H17.4237C17.2439 15.9783 17.0715 15.9069 16.9443 15.7797C16.8172 15.6526 16.7458 15.4801 16.7458 15.3003C16.7458 15.1205 16.8172 14.9481 16.9443 14.8209C17.0715 14.6938 17.2439 14.6224 17.4237 14.6224H18.6441V10.0556C18.6441 9.51617 18.4298 8.99884 18.0484 8.61741C17.6669 8.23598 17.1496 8.02169 16.6102 8.02169H5.35593V14.6224H6.57627C6.75608 14.6224 6.92852 14.6938 7.05567 14.8209C7.18281 14.9481 7.25424 15.1205 7.25424 15.3003C7.25424 15.4801 7.18281 15.6526 7.05567 15.7797C6.92852 15.9069 6.75608 15.9783 6.57627 15.9783H4.67797C4.49816 15.9783 4.32571 15.9069 4.19857 15.7797C4.07143 15.6526 4 15.4801 4 15.3003V7.34372C4 7.16392 4.07143 6.99147 4.19857 6.86433C4.32571 6.73719 4.49816 6.66576 4.67797 6.66576H16.6102C17.5088 6.66719 18.3702 7.02479 19.0056 7.6602C19.641 8.29561 19.9986 9.15699 20 10.0556V15.3003C20 15.4801 19.9286 15.6526 19.8014 15.7797C19.6743 15.9069 19.5018 15.9783 19.322 15.9783Z" fill="black"/>
<path d="M14.7119 15.9783H9.28814C9.10833 15.9783 8.93589 15.9069 8.80875 15.7797C8.6816 15.6526 8.61018 15.4801 8.61018 15.3003C8.61018 15.1205 8.6816 14.9481 8.80875 14.8209C8.93589 14.6938 9.10833 14.6224 9.28814 14.6224H14.7119C14.8917 14.6224 15.0641 14.6938 15.1913 14.8209C15.3184 14.9481 15.3898 15.1205 15.3898 15.3003C15.3898 15.4801 15.3184 15.6526 15.1913 15.7797C15.0641 15.9069 14.8917 15.9783 14.7119 15.9783Z" fill="black"/>
<path d="M19.322 13.0712C19.2433 13.0722 19.1651 13.0584 19.0915 13.0305L15.2705 11.6502H4.67797C4.49816 11.6502 4.32572 11.5787 4.19858 11.4516C4.07143 11.3245 4 11.152 4 10.9722C4 10.7924 4.07143 10.6199 4.19858 10.4928C4.32572 10.3657 4.49816 10.2942 4.67797 10.2942H15.3898C15.4685 10.294 15.5465 10.3078 15.6203 10.3349L19.5525 11.7559C19.7024 11.8103 19.8282 11.9157 19.9081 12.0537C19.9879 12.1916 20.0165 12.3533 19.989 12.5103C19.9615 12.6672 19.8796 12.8095 19.7576 12.9121C19.6356 13.0147 19.4814 13.071 19.322 13.0712Z" fill="black"/>
<path d="M8.0678 11.6502C7.88799 11.6502 7.71555 11.5787 7.58841 11.4516C7.46126 11.3244 7.38983 11.152 7.38983 10.9722V7.34372C7.38983 7.16391 7.46126 6.99147 7.58841 6.86433C7.71555 6.73718 7.88799 6.66576 8.0678 6.66576C8.24761 6.66576 8.42005 6.73718 8.5472 6.86433C8.67434 6.99147 8.74577 7.16391 8.74577 7.34372V10.9722C8.74577 11.152 8.67434 11.3244 8.5472 11.4516C8.42005 11.5787 8.24761 11.6502 8.0678 11.6502Z" fill="black"/>
<path d="M11.7288 11.6502C11.549 11.6502 11.3766 11.5787 11.2494 11.4516C11.1223 11.3244 11.0509 11.152 11.0509 10.9722V7.34372C11.0509 7.16391 11.1223 6.99147 11.2494 6.86433C11.3766 6.73718 11.549 6.66576 11.7288 6.66576C11.9086 6.66576 12.0811 6.73718 12.2082 6.86433C12.3354 6.99147 12.4068 7.16391 12.4068 7.34372V10.9722C12.4068 11.152 12.3354 11.3244 12.2082 11.4516C12.0811 11.5787 11.9086 11.6502 11.7288 11.6502Z" fill="black"/>
<path d="M15.3898 11.6502C15.21 11.6502 15.0376 11.5787 14.9104 11.4516C14.7833 11.3244 14.7119 11.152 14.7119 10.9722V7.34372C14.7119 7.16391 14.7833 6.99147 14.9104 6.86433C15.0376 6.73718 15.21 6.66576 15.3898 6.66576C15.5696 6.66576 15.7421 6.73718 15.8692 6.86433C15.9964 6.99147 16.0678 7.16391 16.0678 7.34372V10.9722C16.0678 11.152 15.9964 11.3244 15.8692 11.4516C15.7421 11.5787 15.5696 11.6502 15.3898 11.6502Z" fill="black"/>
</svg>
