<svg width="24" height="24" viewBox="0 0 24 24" fill="none" xmlns="http://www.w3.org/2000/svg">
<path d="M19.322 17.5126H4.67797C4.49956 17.5126 4.32834 17.4428 4.20143 17.3183C4.07452 17.1938 4.00214 17.0246 4 16.8475V11.9604C4.00011 11.4987 4.11367 11.0439 4.33085 10.6356L6.09085 6.68558C6.31337 6.18418 6.67797 5.75786 7.14022 5.45858C7.60246 5.1593 8.1424 4.99997 8.69424 5H15.3058C15.8575 5.00064 16.3971 5.16025 16.8592 5.45945C17.3213 5.75865 17.6861 6.18459 17.9092 6.68558L19.6692 10.6356C19.886 11.044 19.9996 11.4987 20 11.9604V16.8475C19.9979 17.0246 19.9255 17.1938 19.7986 17.3183C19.6717 17.4428 19.5004 17.5126 19.322 17.5126ZM5.35594 16.1663H18.6441V11.9604C18.6437 11.713 18.5812 11.4697 18.4624 11.2522L18.438 11.193L16.6698 7.22948C16.5537 6.9681 16.3639 6.74565 16.1233 6.58894C15.8827 6.43224 15.6016 6.34797 15.3139 6.34631H8.69424C8.40651 6.34797 8.12541 6.43224 7.88483 6.58894C7.64424 6.74565 7.45444 6.9681 7.33831 7.22948L5.56204 11.193L5.53763 11.2442C5.41667 11.4637 5.35413 11.7102 5.35594 11.9604V16.1663Z" fill="black"/>
<path d="M19.322 19.6667H18.7797C18.6013 19.6667 18.43 19.5969 18.3031 19.4724C18.1762 19.3479 18.1038 19.1787 18.1017 19.0016V16.8475C18.1017 16.669 18.1731 16.4977 18.3003 16.3715C18.4274 16.2453 18.5998 16.1743 18.7797 16.1743C18.8731 16.1736 18.9656 16.1928 19.0508 16.2309C19.1361 16.1928 19.2286 16.1736 19.322 16.1743C19.5018 16.1743 19.6743 16.2453 19.8014 16.3715C19.9286 16.4977 20 16.669 20 16.8475L20 19.0016C19.9979 19.1787 19.9255 19.3479 19.7986 19.4724C19.6717 19.5969 19.5004 19.6667 19.322 19.6667Z" fill="black"/>
<path d="M5.22034 19.6667H4.67797C4.49956 19.6667 4.32834 19.5969 4.20143 19.4724C4.07451 19.3479 4.00214 19.1787 4 19.0016L4 16.8475C4 16.669 4.07143 16.4977 4.19857 16.3715C4.32571 16.2453 4.49816 16.1743 4.67797 16.1743C4.77141 16.1736 4.86392 16.1928 4.94915 16.2309C5.03439 16.1928 5.12689 16.1736 5.22034 16.1743C5.30937 16.1743 5.39753 16.1917 5.47978 16.2256C5.56204 16.2594 5.63678 16.309 5.69973 16.3715C5.76269 16.434 5.81263 16.5082 5.8467 16.5899C5.88077 16.6716 5.8983 16.7591 5.8983 16.8475V19.0016C5.89616 19.1787 5.82379 19.3479 5.69688 19.4724C5.56997 19.5969 5.39875 19.6667 5.22034 19.6667Z" fill="black"/>
<path d="M15.3898 15.2023C15.9889 15.2023 16.4746 14.7201 16.4746 14.1253C16.4746 13.5304 15.9889 13.0482 15.3898 13.0482C14.7907 13.0482 14.3051 13.5304 14.3051 14.1253C14.3051 14.7201 14.7907 15.2023 15.3898 15.2023Z" fill="black"/>
<path d="M8.61017 15.2023C9.20926 15.2023 9.69491 14.7201 9.69491 14.1253C9.69491 13.5304 9.20926 13.0482 8.61017 13.0482C8.01108 13.0482 7.52542 13.5304 7.52542 14.1253C7.52542 14.7201 8.01108 15.2023 8.61017 15.2023Z" fill="black"/>
<path d="M19.2434 12.0627H4.75662C4.57681 12.0627 4.40437 11.9918 4.27723 11.8656C4.15008 11.7393 4.07865 11.5681 4.07865 11.3896C4.07865 11.211 4.15008 11.0398 4.27723 10.9136C4.40437 10.7873 4.57681 10.7164 4.75662 10.7164H19.2434C19.4232 10.7164 19.5956 10.7873 19.7228 10.9136C19.8499 11.0398 19.9214 11.211 19.9214 11.3896C19.9214 11.5681 19.8499 11.7393 19.7228 11.8656C19.5956 11.9918 19.4232 12.0627 19.2434 12.0627Z" fill="black"/>
</svg>
