<svg
  version="1.1"
  viewBox="0 0 682.66669 682.66669" width="24" height="24">
  <defs>
    <clipPath
      clipPathUnits="userSpaceOnUse"
    >
      <path
        d="M 0,512 H 512 V 0 H 0 Z"
      />
    </clipPath>
  </defs>
  <g
    transform="matrix(1.3333333,0,0,-1.3333333,0,682.66667)">
    <g>
      <g
        clip-path="url(#clipPath938)">
        <g
          transform="translate(435.1404,63.3149)">
          <path
            d="m 0,0 h -358.303 v 72.03 c 0,26.963 21.858,48.822 48.822,48.822 H -48.822 C -21.858,120.852 0,98.993 0,72.03 Z"
            style="fill:none;stroke:#000000;stroke-width:30;stroke-linecap:butt;stroke-linejoin:miter;stroke-miterlimit:10;stroke-dasharray:none;stroke-opacity:1"
          />
        </g>
        <g
          transform="translate(307.2568,117.8992)">
          <path
            d="M 0,0 H -102.536"
            style="fill:none;stroke:#000000;stroke-width:30;stroke-linecap:butt;stroke-linejoin:miter;stroke-miterlimit:10;stroke-dasharray:none;stroke-opacity:1"
          />
        </g>
        <g
          transform="translate(113.4919,184.1667)">
          <path
            d="M 0,0 23.778,99.122 H 261.216 L 284.994,0"
            style="fill:none;stroke:#000000;stroke-width:30;stroke-linecap:butt;stroke-linejoin:miter;stroke-miterlimit:10;stroke-dasharray:none;stroke-opacity:1"
          />
        </g>
        <g
          transform="translate(348.0996,63.3149)">
          <path
            d="m 0,0 v -19.874 c 0,-15.71 12.736,-28.445 28.446,-28.445 v 0 c 15.71,0 28.445,12.735 28.445,28.445 V 0"
            style="fill:none;stroke:#000000;stroke-width:30;stroke-linecap:butt;stroke-linejoin:miter;stroke-miterlimit:10;stroke-dasharray:none;stroke-opacity:1"
          />
        </g>
        <g
          transform="translate(106.9868,63.3149)">
          <path
            d="m 0,0 v -19.874 c 0,-15.71 12.736,-28.445 28.446,-28.445 v 0 c 15.71,0 28.445,12.735 28.445,28.445 V 0"
            style="fill:none;stroke:#000000;stroke-width:30;stroke-linecap:butt;stroke-linejoin:miter;stroke-miterlimit:10;stroke-dasharray:none;stroke-opacity:1"
          />
        </g>
        <g
          transform="translate(344.4099,130.1904)">
          <path
            d="M 0,0 H 30.002"
            style="fill:none;stroke:#000000;stroke-width:30;stroke-linecap:butt;stroke-linejoin:miter;stroke-miterlimit:10;stroke-dasharray:none;stroke-opacity:1"
          />
        </g>
        <g
          transform="translate(137.5659,130.1904)">
          <path
            d="M 0,0 H 30.002"
            style="fill:none;stroke:#000000;stroke-width:30;stroke-linecap:butt;stroke-linejoin:miter;stroke-miterlimit:10;stroke-dasharray:none;stroke-opacity:1"
          />
        </g>
        <g
          transform="translate(256.0005,415.0399)">
          <path
            d="m 0,0 v 0 c -20.525,0 -37.164,16.639 -37.164,37.164 v 7.644 c 0,20.524 16.639,37.163 37.164,37.163 v 0 c 20.525,0 37.164,-16.639 37.164,-37.163 V 37.164 C 37.164,16.639 20.525,0 0,0 Z"
            style="fill:none;stroke:#000000;stroke-width:30;stroke-linecap:butt;stroke-linejoin:miter;stroke-miterlimit:10;stroke-dasharray:none;stroke-opacity:1"
          />
        </g>
        <g
          transform="translate(317.8311,341.4061)">
          <path
            d="m 0,0 h -123.685 v 25.608 c 0,26.524 21.502,48.026 48.026,48.026 h 27.634 C -21.502,73.634 0,52.132 0,25.608 Z"
            style="fill:none;stroke:#000000;stroke-width:30;stroke-linecap:butt;stroke-linejoin:miter;stroke-miterlimit:10;stroke-dasharray:none;stroke-opacity:1"
          />
        </g>
        <g
          transform="translate(401.0917,404.8076)">
          <path
            d="m 0,0 v 0 c -17.673,0 -31.999,14.327 -31.999,31.999 v 6.582 c 0,17.673 14.326,31.999 31.999,31.999 v 0 c 17.673,0 31.999,-14.326 31.999,-31.999 V 31.999 C 31.999,14.327 17.673,0 0,0 Z"
            style="fill:none;stroke:#000000;stroke-width:30;stroke-linecap:butt;stroke-linejoin:miter;stroke-miterlimit:10;stroke-dasharray:none;stroke-opacity:1"
          />
        </g>
        <g
          transform="translate(454.3302,341.4061)">
          <path
            d="m 0,0 h -106.497 v 15.376 c 0,26.524 21.501,48.025 48.025,48.025 h 10.447 C -21.502,63.401 0,41.9 0,15.376 Z"
            style="fill:none;stroke:#000000;stroke-width:30;stroke-linecap:butt;stroke-linejoin:miter;stroke-miterlimit:10;stroke-dasharray:none;stroke-opacity:1"
          />
        </g>
        <g
          transform="translate(110.9061,404.8076)">
          <path
            d="m 0,0 v 0 c -17.673,0 -31.999,14.327 -31.999,31.999 v 6.582 c 0,17.673 14.326,31.999 31.999,31.999 v 0 c 17.673,0 31.999,-14.326 31.999,-31.999 V 31.999 C 31.999,14.327 17.673,0 0,0 Z"
            style="fill:none;stroke:#000000;stroke-width:30;stroke-linecap:butt;stroke-linejoin:miter;stroke-miterlimit:10;stroke-dasharray:none;stroke-opacity:1"
          />
        </g>
        <g
          transform="translate(164.1446,341.4061)">
          <path
            d="m 0,0 h -106.497 v 15.376 c 0,26.524 21.501,48.025 48.025,48.025 h 10.447 C -21.502,63.401 0,41.9 0,15.376 Z"
            style="fill:none;stroke:#000000;stroke-width:30;stroke-linecap:butt;stroke-linejoin:miter;stroke-miterlimit:10;stroke-dasharray:none;stroke-opacity:1"
          />
        </g>
      </g>
    </g>
  </g>
</svg>