<svg width="24" height="24" viewBox="0 0 24 24" fill="none" xmlns="http://www.w3.org/2000/svg">
<path fill-rule="evenodd" clip-rule="evenodd" d="M7.55544 18.6518C8.87104 19.5308 10.4178 20 12 20C14.1211 19.9978 16.1547 19.1543 17.6545 17.6545C19.1543 16.1547 19.9979 14.1211 20 12C20 10.4178 19.5308 8.87104 18.6518 7.55544C17.7727 6.23985 16.5233 5.21447 15.0615 4.60897C13.5997 4.00347 11.9911 3.84504 10.4393 4.15372C8.88743 4.4624 7.46197 5.22433 6.34315 6.34315C5.22433 7.46197 4.4624 8.88743 4.15372 10.4393C3.84504 11.9911 4.00347 13.5997 4.60897 15.0615C5.21447 16.5233 6.23985 17.7727 7.55544 18.6518ZM8.30876 6.47566C9.40137 5.7456 10.6859 5.35594 12 5.35594C13.7615 5.35809 15.4502 6.05878 16.6957 7.30432C17.9412 8.54985 18.6419 10.2385 18.6441 12C18.6441 13.3141 18.2544 14.5986 17.5243 15.6912C16.7943 16.7839 15.7566 17.6354 14.5426 18.1383C13.3285 18.6412 11.9926 18.7728 10.7038 18.5164C9.41499 18.26 8.23113 17.6273 7.30194 16.6981C6.37275 15.7689 5.73996 14.585 5.4836 13.2962C5.22724 12.0074 5.35881 10.6715 5.86169 9.45743C6.36456 8.24338 7.21615 7.20572 8.30876 6.47566ZM10.8915 14.5904C10.9738 14.6244 11.0621 14.6418 11.1512 14.6414C11.2404 14.6418 11.3286 14.6244 11.411 14.5904C11.4934 14.5565 11.5683 14.5065 11.6312 14.4435L15.2868 10.7798C15.3594 10.7193 15.4185 10.6445 15.4604 10.5599C15.5023 10.4753 15.5261 10.383 15.5302 10.2887C15.5344 10.1944 15.5188 10.1003 15.4845 10.0123C15.4502 9.92441 15.3979 9.84462 15.331 9.77807C15.264 9.71152 15.1839 9.65968 15.0958 9.62587C15.0077 9.59205 14.9135 9.57701 14.8192 9.5817C14.725 9.58639 14.6327 9.61071 14.5484 9.6531C14.4641 9.69549 14.3895 9.75503 14.3295 9.82789L11.1512 13.0062L9.67056 11.5255C9.54252 11.4022 9.37117 11.3341 9.1934 11.3359C9.01564 11.3377 8.84569 11.4092 8.72016 11.5351C8.59463 11.661 8.52357 11.8311 8.52228 12.0089C8.521 12.1867 8.58958 12.3578 8.71327 12.4855L10.6712 14.4435C10.7342 14.5065 10.8091 14.5565 10.8915 14.5904Z" />
</svg>
