<svg width="24" height="24" viewBox="0 0 24 24" fill="none" xmlns="http://www.w3.org/2000/svg">
<path fill-rule="evenodd" clip-rule="evenodd" d="M4.44757 19.9453C4.53594 19.9817 4.63066 20.0003 4.72625 20C4.82185 20.0003 4.91656 19.9817 5.00494 19.9453C5.09331 19.9088 5.1736 19.8552 5.24117 19.7876L12.0001 13.0292L18.759 19.7876C18.8265 19.8552 18.9068 19.9088 18.9952 19.9453C19.0836 19.9817 19.1783 20.0003 19.2739 20C19.3695 20.0003 19.4642 19.9817 19.5526 19.9453C19.6409 19.9088 19.7212 19.8552 19.7888 19.7876C19.9242 19.6504 20.0001 19.4655 20.0001 19.2727C20.0001 19.08 19.9242 18.895 19.7888 18.7579L13.0299 11.9994L19.7868 5.243C19.9233 5.10644 20.0001 4.92124 20.0001 4.72812C20.0001 4.535 19.9233 4.34979 19.7868 4.21324C19.6502 4.07669 19.465 3.99997 19.2719 3.99997C19.0787 3.99997 18.8935 4.07669 18.7569 4.21324L12.0001 10.9697L5.24317 4.21324C5.10661 4.07668 4.92139 3.99997 4.72826 3.99997C4.53513 3.99997 4.34991 4.07668 4.21335 4.21324C4.07678 4.34979 4.00006 4.535 4.00006 4.72812C4.00006 4.92124 4.07678 5.10644 4.21335 5.243L10.9702 11.9994L4.21134 18.7579C4.07596 18.895 4.00006 19.08 4.00006 19.2727C4.00006 19.4655 4.07596 19.6504 4.21134 19.7876C4.27891 19.8552 4.35919 19.9088 4.44757 19.9453Z" fill="#060606"/>
</svg>
