<svg width="32" height="32" viewBox="0 0 32 32" fill="none" xmlns="http://www.w3.org/2000/svg">
<path fill-rule="evenodd" clip-rule="evenodd" d="M24.5216 6.02476C24.644 5.97954 24.7806 5.99695 24.8876 6.07137C24.9946 6.14587 25.0584 6.26802 25.0584 6.39838V19.2365C25.0584 19.3669 24.9946 19.489 24.8876 19.5635C24.8199 19.6106 24.7403 19.6349 24.66 19.6349C24.6134 19.6349 24.5665 19.6267 24.5216 19.6101L20.2193 18.0167H15.3489V18.7302H16.9464C17.1664 18.7302 17.3448 18.9086 17.3448 19.1286V21.556C17.3448 21.776 17.1664 21.9544 16.9464 21.9544H15.3489V25.6016C15.3489 25.8216 15.1706 26 14.9505 26H9.5564C9.44038 26 9.33014 25.9494 9.25445 25.8615C9.17879 25.7736 9.14516 25.6571 9.16241 25.5424L10.3448 17.6755C9.43588 17.3269 8.62612 16.718 8.03879 15.9355C7.35943 15.0303 7.00031 13.9521 7.00031 12.8174C7.00031 9.95057 9.33265 7.61822 12.1995 7.61822H14.9505H20.2193L24.5216 6.02476ZM11.182 17.4664L10.0191 25.2031H14.5521V8.41503H12.1995C9.77198 8.41503 7.79708 10.3899 7.79708 12.8174C7.79708 14.7639 9.04604 16.4553 10.905 17.0263C11.0935 17.0843 11.2113 17.2714 11.182 17.4664ZM16.548 21.1576V19.527H15.3489V21.1576H16.548ZM15.3489 17.2198H20.2907C20.3379 17.2198 20.3848 17.2282 20.4291 17.2446L24.2616 18.6641V6.97077L20.4291 8.39025C20.3848 8.40663 20.338 8.41503 20.2907 8.41503H15.3489V17.2198ZM13.1212 20.5813C13.1212 20.3613 13.2996 20.1829 13.5196 20.1829C13.7397 20.1829 13.918 20.3613 13.918 20.5813V24.0875C13.918 24.3075 13.7397 24.486 13.5196 24.486C13.2996 24.486 13.1212 24.3075 13.1212 24.0875V20.5813ZM18.5656 9.18237H16.5698C16.3497 9.18237 16.1713 9.36078 16.1713 9.58078C16.1713 9.80078 16.3497 9.97918 16.5698 9.97918H18.5656C18.7856 9.97918 18.964 9.80078 18.964 9.58078C18.964 9.36078 18.7856 9.18237 18.5656 9.18237ZM20.1838 9.18237H20.7232C20.9433 9.18237 21.1217 9.36078 21.1217 9.58078C21.1217 9.80078 20.9433 9.97918 20.7232 9.97918H20.1838C19.9638 9.97918 19.7854 9.80078 19.7854 9.58078C19.7854 9.36078 19.9638 9.18237 20.1838 9.18237Z" fill="#060606"/>
</svg>
