<?xml version="1.0" encoding="UTF-8"?>
<svg width="24" height="24" version="1.1" viewBox="20 20 580 430" xmlns="http://www.w3.org/2000/svg">
 <g>
  <path d="m427.28 179.13-100.8 46.863c-11.898 5.5312-25.023 18.656-30.52 30.52l-46.797 100.77c-4.5156 9.6406-2.6953 15.961-0.40234 19.582 2.7305 4.2695 7.4531 6.7383 12.914 6.7383 3.3438 0 7.0703-0.92578 11.008-2.7305l100.8-46.863c11.863-5.4961 24.988-18.602 30.52-30.484l46.797-100.8c4.5156-9.6406 2.7305-15.961 0.40234-19.582-4.4102-6.9102-13.527-8.7852-23.922-4.0078zm-42.789 115.29c-3.3438 7.1758-12.879 16.746-20.055 20.055l-91.367 42.453 42.453-91.367c3.3086-7.1406 12.879-16.746 20.055-20.055l91.367-42.453z"/>
  <path d="m369.34 280c0 10.691-8.6641 19.355-19.352 19.355-10.691 0-19.355-8.6641-19.355-19.355s8.6641-19.355 19.355-19.355c10.688 0 19.352 8.6641 19.352 19.355"/>
  <path d="m350 65.449c-118.34 0-214.59 96.25-214.59 214.55s96.25 214.55 214.59 214.55c118.3 0 214.55-96.25 214.55-214.55s-96.25-214.55-214.55-214.55zm10.762 407.02v-19.336c0-5.9492-4.8125-10.762-10.762-10.762s-10.762 4.8125-10.762 10.762v19.336c-97.824-5.4062-176.3-83.844-181.74-181.7h19.371c5.9492 0 10.762-4.8125 10.762-10.762s-4.8125-10.762-10.762-10.762h-19.371c5.4414-97.824 83.879-176.3 181.74-181.74v19.371c0 5.9492 4.8125 10.762 10.762 10.762s10.762-4.8125 10.762-10.762v-19.371c97.824 5.4414 176.26 83.879 181.7 181.74h-19.371c-5.9141 0-10.727 4.8125-10.727 10.762s4.8125 10.762 10.727 10.762h19.371c-5.4258 97.824-83.879 176.28-181.7 181.7z"/>
 </g>
</svg>
