<svg width="24" height="24" viewBox="0 0 24 24" fill="none" xmlns="http://www.w3.org/2000/svg">
<path fill-rule="evenodd" clip-rule="evenodd" d="M9.87273 2C8.58245 2 7.53648 3.04598 7.53648 4.33625H8.83757C8.83757 3.76455 9.30103 3.30109 9.87273 3.30109H17.5643C18.211 3.30109 18.7352 3.82536 18.7352 4.47208V15.6647C18.7352 16.282 18.2348 16.7824 17.6176 16.7824V18.0834C18.9534 18.0834 20.0363 17.0005 20.0363 15.6647V4.47208C20.0363 3.10679 18.9295 2 17.5643 2H9.87273ZM6.47208 5.11195C5.10679 5.11195 4 6.21874 4 7.58403V18.7233C4 20.0886 5.10679 21.1954 6.47208 21.1954H14.0278C15.3931 21.1954 16.4998 20.0886 16.4998 18.7233V7.58403C16.4998 6.21874 15.3931 5.11195 14.0278 5.11195H6.47208ZM5.30109 7.58403C5.30109 6.93731 5.82536 6.41304 6.47208 6.41304H14.0278C14.6745 6.41304 15.1988 6.93731 15.1988 7.58403V18.7233C15.1988 19.37 14.6745 19.8943 14.0278 19.8943H6.47208C5.82536 19.8943 5.30109 19.37 5.30109 18.7233V7.58403Z" fill="#060606"/>
</svg>
