<svg width="24" height="24" viewBox="0 0 24 24" fill="none" xmlns="http://www.w3.org/2000/svg">
<path d="M17.544 16.8H12.744M17.544 16.8C18.4277 16.8 19.144 17.5163 19.144 18.4C19.144 19.2837 18.4277 20 17.544 20H12.744C11.8604 20 11.144 19.2837 11.144 18.4C11.144 17.5163 11.8604 16.8 12.744 16.8M17.544 16.8C18.4277 16.8 19.144 16.0837 19.144 15.2C19.144 14.3163 18.4277 13.6 17.544 13.6H17.0107M12.744 16.8C11.8604 16.8 11.144 16.0837 11.144 15.2C11.144 14.3163 11.8604 13.6 12.744 13.6H17.0107M12.4844 20H9.80368C6.5274 20 4.21395 16.7903 5.25 13.6821L6.05 11.2821C6.70335 9.32206 8.53761 8 10.6037 8H11.6844C13.7505 8 15.5847 9.32206 16.2381 11.2821L17.0107 13.6" stroke-width="1.5" stroke-linejoin="round"/>
<path d="M12.8128 8L9.47538 8L8.35451 6.71437C7.25577 5.4541 8.53757 3.57038 10.1417 4.08788L10.884 4.32731C11.053 4.38183 11.2352 4.38183 11.4042 4.32731L12.1464 4.08788C13.7506 3.57038 15.0324 5.4541 13.9337 6.71437L12.8128 8Z" stroke-width="1.5" stroke-linejoin="round"/>
</svg>
