<svg width="24" height="24" viewBox="0 0 24 24" fill="none" xmlns="http://www.w3.org/2000/svg">
<path fill-rule="evenodd" clip-rule="evenodd" d="M14.0493 6.93164C13.9373 6.58963 13.7415 6.2751 13.4742 6.01678C13.0371 5.59431 12.4444 5.35665 11.8262 5.35593C11.2103 5.36366 10.6218 5.60357 10.1862 6.02453C9.92067 6.28114 9.72476 6.59267 9.61045 6.93164H14.0493ZM8.15779 6.93164C8.29729 6.22654 8.65249 5.57209 9.18527 5.0572C9.88569 4.38028 10.8357 4 11.8262 4C12.8168 4 13.7667 4.38028 14.4672 5.0572C14.9999 5.57209 15.3551 6.22654 15.4946 6.93164H18.9508C19.1368 6.93164 19.3153 7.00307 19.4468 7.13021C19.5784 7.25736 19.6523 7.4298 19.6523 7.60961C19.6523 7.78941 19.5784 7.96186 19.4468 8.089C19.3153 8.21614 19.1368 8.28757 18.9508 8.28757H17.5724L16.7705 17.5107C16.7079 18.1865 16.3873 18.8157 15.8713 19.2758C15.3553 19.736 14.6806 19.9941 13.9785 20.0002H9.6712C8.96668 19.9975 8.28855 19.7408 7.76955 19.2804C7.25055 18.8199 6.92804 18.1889 6.86514 17.5107L6.06854 8.28757H4.70164C4.51558 8.28757 4.33715 8.21614 4.20559 8.089C4.07403 7.96186 4.00012 7.78941 4.00012 7.60961C4.00012 7.4298 4.07403 7.25736 4.20559 7.13021C4.33715 7.00307 4.51558 6.93164 4.70164 6.93164H8.15779ZM7.48182 8.28757H16.1605L15.3815 17.3968C15.3495 17.7359 15.1882 18.0514 14.9289 18.2819C14.6696 18.5125 14.3308 18.6416 13.9785 18.6443H9.67681C9.32336 18.6454 8.9825 18.5175 8.72238 18.2862C8.46227 18.0549 8.30206 17.7373 8.27378 17.3968L7.48182 8.28757ZM13.1367 16.3093H13.089C12.997 16.3034 12.9072 16.2801 12.8245 16.2407C12.7419 16.2012 12.6681 16.1465 12.6074 16.0795C12.5467 16.0125 12.5002 15.9346 12.4707 15.8503C12.4411 15.7659 12.429 15.6768 12.4351 15.5879L12.7158 11.6801C12.728 11.5003 12.8137 11.3326 12.954 11.2138C13.0942 11.0951 13.2775 11.035 13.4636 11.0469C13.6496 11.0588 13.8232 11.1416 13.946 11.2771C14.0689 11.4126 14.1311 11.5898 14.1188 11.7696L13.8382 15.6774C13.8254 15.8489 13.746 16.0093 13.6159 16.1265C13.4857 16.2437 13.3145 16.309 13.1367 16.3093ZM10.0367 16.1254C10.1665 16.2432 10.3377 16.3089 10.5158 16.3093L10.5663 16.3066C10.6582 16.3007 10.7481 16.2774 10.8307 16.238C10.9133 16.1986 10.9871 16.1438 11.0478 16.0768C11.1085 16.0098 11.155 15.9319 11.1846 15.8476C11.2141 15.7632 11.2262 15.6741 11.2201 15.5852L10.9395 11.6774C10.9272 11.4976 10.8415 11.3299 10.7013 11.2111C10.561 11.0924 10.3777 11.0323 10.1917 11.0442C10.0056 11.0561 9.83208 11.1389 9.7092 11.2744C9.58632 11.4099 9.52419 11.5871 9.53647 11.7669L9.81708 15.6747C9.82847 15.8464 9.907 16.0075 10.0367 16.1254Z" fill="#060606"/>
</svg>
