<svg width="32" height="32" viewBox="0 0 32 32" fill="none" xmlns="http://www.w3.org/2000/svg">
<path fill-rule="evenodd" clip-rule="evenodd" d="M24.3705 6.70613H25.5194C25.731 6.70613 25.9025 6.8776 25.9025 7.08911C25.9025 7.30061 25.731 7.47209 25.5195 7.47209H6.47966C6.26815 7.47209 6.09668 7.30061 6.09668 7.08911C6.09668 6.8776 6.26815 6.70613 6.47966 6.70613H7.62859V5.99139C7.62859 4.89331 8.53442 4 9.64786 4H22.3512C23.4646 4 24.3705 4.89331 24.3705 5.99139V6.70613ZM9.64786 4.76596C8.95676 4.76596 8.39455 5.31566 8.39455 5.99139V6.70613H23.6046V5.99139C23.6046 5.31566 23.0423 4.76596 22.3512 4.76596H9.64786ZM15.9994 9.44067C16.1363 9.44067 16.2627 9.5137 16.3311 9.63216L17.8032 12.1819C17.9089 12.3651 17.8461 12.5993 17.663 12.7051C17.4799 12.8108 17.2456 12.7481 17.1398 12.5649L15.9994 10.5896L14.0101 14.0352L14.6327 13.8825C14.8379 13.8321 15.0455 13.9577 15.0959 14.1631C15.1463 14.3685 15.0207 14.5759 14.8153 14.6263L13.3209 14.9931C13.2903 15.0007 13.2596 15.0042 13.2294 15.0042C13.0628 15.0042 12.9104 14.8949 12.8619 14.7281L12.4323 13.2506C12.3733 13.0475 12.49 12.8349 12.6932 12.7759C12.8962 12.7169 13.1088 12.8337 13.1678 13.0367L13.3468 13.6523L15.6678 9.63216C15.7362 9.5137 15.8626 9.44067 15.9994 9.44067ZM10.6607 18.3052L12.1322 15.7565C12.2379 15.5732 12.4721 15.5105 12.6552 15.6164C12.8384 15.7221 12.9012 15.9564 12.7954 16.1395L11.6556 18.1137H15.6343L15.1907 17.6509C15.0443 17.4982 15.0495 17.2558 15.2022 17.1094C15.3548 16.9631 15.5973 16.9682 15.7436 17.1209L16.8084 18.2316C16.9504 18.3798 16.9504 18.6135 16.8084 18.7617L15.7436 19.8725C15.6684 19.9509 15.5679 19.9904 15.4671 19.9904C15.3718 19.9904 15.2764 19.9551 15.2022 19.8839C15.0495 19.7376 15.0443 19.4951 15.1907 19.3424L15.6344 18.8796H10.9924C10.8555 18.8796 10.7291 18.8066 10.6607 18.6881C10.5923 18.5697 10.5923 18.4236 10.6607 18.3052ZM20.1038 14.1572C20.1542 13.9518 20.0285 13.7444 19.8231 13.694L18.3287 13.3273C18.1294 13.2784 17.927 13.3952 17.8697 13.5923L17.4401 15.0698C17.3811 15.273 17.4979 15.4854 17.701 15.5445C17.7366 15.5549 17.7726 15.5598 17.8081 15.5598C17.974 15.5598 18.127 15.451 18.1756 15.2836L18.3546 14.6681L20.344 18.1137H18.0643C17.8527 18.1137 17.6813 18.2852 17.6813 18.4967C17.6813 18.7082 17.8527 18.8796 18.0643 18.8796H21.0073C21.1441 18.8796 21.2705 18.8066 21.3389 18.6882C21.4074 18.5697 21.4074 18.4236 21.3389 18.3052L19.0179 14.2851L19.6405 14.4379C19.8456 14.4883 20.0534 14.3626 20.1038 14.1572ZM23.3863 21.7248C23.5903 21.7248 23.7598 21.5639 23.7686 21.3581L24.3084 8.63711C24.3174 8.4258 24.1533 8.24718 23.942 8.23825C23.7302 8.22798 23.5521 8.39328 23.5431 8.60463L23.0033 21.3256C22.9943 21.5369 23.1584 21.7155 23.3697 21.7245C23.3752 21.7247 23.3808 21.7248 23.3863 21.7248ZM10.4957 27.1723H18.0745C18.2861 27.1723 18.4575 27.3438 18.4575 27.5553C18.4575 27.7668 18.286 27.9383 18.0745 27.9383H10.4957C9.39104 27.9383 8.45422 27.0404 8.4074 25.9367L7.6732 8.63706C7.66422 8.42576 7.82823 8.24719 8.03959 8.2382C8.25079 8.2285 8.42951 8.39328 8.43845 8.60458L9.17264 25.9042C9.20231 26.6035 9.79582 27.1723 10.4957 27.1723ZM21.3507 21.9587C19.6851 21.9587 18.3301 23.3138 18.3301 24.9793C18.3301 26.6448 19.6851 27.9999 21.3507 27.9999C23.0162 27.9999 24.3712 26.6448 24.3712 24.9793C24.3712 23.3138 23.0162 21.9587 21.3507 21.9587ZM21.3507 27.2339C20.1074 27.2339 19.096 26.2225 19.096 24.9793C19.096 23.7361 20.1075 22.7247 21.3507 22.7247C22.5939 22.7247 23.6053 23.7361 23.6053 24.9793C23.6053 26.2225 22.5939 27.2339 21.3507 27.2339ZM22.0727 24.9794C22.0727 24.7679 22.2441 24.5964 22.4557 24.5964C22.6672 24.5964 22.8387 24.7679 22.8387 24.9794C22.8387 25.8002 22.1708 26.4681 21.35 26.4681C20.5291 26.4681 19.8613 25.8002 19.8613 24.9794C19.8613 24.1585 20.5291 23.4907 21.35 23.4907C21.5616 23.4907 21.733 23.6622 21.733 23.8737C21.733 24.0852 21.5616 24.2567 21.35 24.2567C20.9515 24.2567 20.6273 24.5809 20.6273 24.9794C20.6273 25.3779 20.9515 25.7021 21.35 25.7021C21.7484 25.7021 22.0727 25.3779 22.0727 24.9794Z" fill="#060606"/>
</svg>
