<svg width="24" height="24" viewBox="0 0 24 24" fill="none" xmlns="http://www.w3.org/2000/svg">
<path fill-rule="evenodd" clip-rule="evenodd" d="M4.67757 19.999C4.49787 19.9982 4.32562 19.9271 4.19757 19.8011C4.11464 19.7175 4.05481 19.6138 4.02392 19.5002C3.99302 19.3866 3.99212 19.267 4.0213 19.1529L4.86198 15.8661C4.8922 15.7484 4.95301 15.6409 5.03825 15.5543L16.3956 4.19695C16.5234 4.07076 16.6959 4 16.8756 4C17.0552 4 17.2277 4.07076 17.3556 4.19695L19.7962 6.63763C19.9231 6.76518 19.9943 6.93775 19.9943 7.11764C19.9943 7.29752 19.9231 7.47009 19.7962 7.59764L17.7326 9.66322C17.7153 9.68269 17.6968 9.70118 17.6773 9.71857L8.44435 18.9604C8.35777 19.0456 8.25017 19.1064 8.13249 19.1366L4.8457 19.9773C4.79072 19.9912 4.73427 19.9985 4.67757 19.999ZM18.3725 7.12306L17.2336 8.26114L15.7375 6.76505L16.8756 5.62611L18.3725 7.12306ZM6.12842 16.3814L14.7778 7.72542L16.2732 9.22078L7.62537 17.8621L5.62672 18.3719L6.12842 16.3814ZM11.2181 19.9978H16.7151C16.8949 19.9978 17.0673 19.9264 17.1945 19.7992C17.3216 19.6721 17.3931 19.4996 17.3931 19.3198C17.3931 19.14 17.3216 18.9676 17.1945 18.8404C17.0673 18.7133 16.8949 18.6418 16.7151 18.6418H11.2181C11.0383 18.6418 10.8659 18.7133 10.7387 18.8404C10.6116 18.9676 10.5402 19.14 10.5402 19.3198C10.5402 19.4996 10.6116 19.6721 10.7387 19.7992C10.8659 19.9264 11.0383 19.9978 11.2181 19.9978Z" fill="#060606"/>
</svg>
