<svg width="40" height="40" viewBox="0 0 40 40" fill="none" xmlns="http://www.w3.org/2000/svg">
<g clip-path="url(#clip0_10_2872)">
<path fill-rule="evenodd" clip-rule="evenodd" d="M36.1833 19.6533C37.7868 17.709 38.75 15.217 38.75 12.5C38.75 6.2868 33.7132 1.25 27.5 1.25C23.5315 1.25 20.0428 3.30488 18.0401 6.40868C16.2569 4.75851 13.8712 3.75 11.25 3.75C5.72715 3.75 1.25 8.22715 1.25 13.75C1.25 16.1149 2.0709 18.288 3.44329 20C2.0709 21.712 1.25 23.8851 1.25 26.25C1.25 31.7728 5.72715 36.25 11.25 36.25C12.8095 36.25 14.2857 35.893 15.6012 35.2563C17.6504 37.4086 20.5436 38.75 23.75 38.75C29.1911 38.75 33.73 34.8873 34.7741 29.7544C37.076 29.0496 38.75 26.9078 38.75 24.375C38.75 22.3961 37.7282 20.6559 36.1833 19.6533Z" fill="white"/>
<path fill-rule="evenodd" clip-rule="evenodd" d="M15.1489 35.4431C17.3251 38.3102 20.7022 40 24.3298 40C29.6783 40 34.3219 36.3028 35.545 31.1435C38.1906 30.1858 40 27.6407 40 24.7946C40 22.7829 39.1159 20.9085 37.5992 19.6329C39.1525 17.5238 40 14.9591 40 12.3248C40 5.52886 34.4711 -7.62939e-06 27.6752 -7.62939e-06C23.7436 -7.62939e-06 20.1108 1.8402 17.7878 4.96551C15.8493 3.39874 13.4457 2.54516 10.928 2.54516C9.11591 2.54516 7.32086 2.99804 5.73639 3.85497C5.35675 4.06005 5.21576 4.53399 5.42084 4.91363C5.62622 5.29327 6.10016 5.43456 6.4798 5.22918C7.83661 4.49523 9.37469 4.10766 10.928 4.10766C13.3475 4.10766 15.6433 5.02715 17.3932 6.69707C17.5623 6.85821 17.7945 6.93542 18.0264 6.90734C18.2587 6.87926 18.4659 6.74865 18.5913 6.55151C20.5811 3.42742 23.9771 1.56249 27.6752 1.56249C33.6096 1.56249 38.4375 6.39037 38.4375 12.3248C38.4375 14.8682 37.5333 17.3364 35.8914 19.2752C35.7462 19.4467 35.6818 19.6722 35.7147 19.8944C35.7474 20.1169 35.8743 20.314 36.0629 20.4361C37.5497 21.3986 38.4375 23.0279 38.4375 24.7946C38.4375 27.1054 36.8857 29.158 34.6637 29.787C34.3802 29.8669 34.166 30.1001 34.1098 30.3891C33.2016 35.0528 29.0887 38.4375 24.3301 38.4375C20.9677 38.4375 17.8546 36.7581 16.0022 33.9453C15.885 33.7677 15.7007 33.6453 15.4916 33.6069C15.2826 33.5681 15.0668 33.6163 14.8941 33.7405C13.4613 34.769 11.7691 35.3125 10 35.3125C5.36713 35.3125 1.59821 31.5436 1.5979 26.9107C1.5979 24.6606 2.4762 22.5467 4.07043 20.9585C4.3692 20.6604 4.37775 20.1791 4.08936 19.8712C2.46002 18.1302 1.5625 15.8578 1.5625 13.4732C1.5625 12.0557 1.87073 10.6946 2.47894 9.42748C2.66541 9.03838 2.50153 8.57177 2.11243 8.385C1.72333 8.19793 1.25671 8.36242 1.07025 8.75121C0.360107 10.2313 0 11.8201 0 13.4732C0 16.0107 0.870972 18.4393 2.46643 20.3882C0.89386 22.1988 0.0357055 24.4882 0.0357055 26.9107C0.0357055 32.4051 4.50562 36.875 10 36.875C11.8338 36.875 13.5983 36.3821 15.1489 35.4431ZM3.04255 7.03977C3.19392 7.18381 3.38771 7.25522 3.58119 7.25522C3.78749 7.25522 3.99379 7.17374 4.14729 7.01261L4.1659 6.99277C4.46437 6.68088 4.45338 6.1865 4.1418 5.88804C3.82991 5.58988 3.33552 5.60086 3.03706 5.91245L3.01539 5.93534C2.71785 6.24784 2.73005 6.74253 3.04255 7.03977ZM27.6752 5.78124H27.6694C27.2385 5.77788 26.886 5.42632 26.8884 4.99541C26.8909 4.56572 27.2458 4.21874 27.6752 4.21874H27.6782C28.1091 4.22027 28.4631 4.57061 28.4622 5.00152C28.4616 5.43242 28.1061 5.78124 27.6752 5.78124ZM34.2187 12.3253C34.2187 12.7565 34.5685 13.1065 35 13.1065C35.4315 13.1065 35.7812 12.7565 35.7812 12.3253C35.7812 10.7735 35.3412 9.26498 34.5086 7.96341C33.6987 6.69693 32.5571 5.68161 31.2067 5.02701C30.8185 4.83902 30.3509 5.00107 30.163 5.38925C29.9747 5.77744 30.137 6.24496 30.5252 6.43295C32.7688 7.5206 34.2187 9.83322 34.2187 12.3253ZM10 32.6559C6.83166 32.6559 4.25445 30.0784 4.25445 26.9104C4.25445 26.4789 4.60418 26.1291 5.0357 26.1291C5.46722 26.1291 5.81695 26.4789 5.81695 26.9104C5.81695 29.2169 7.69348 31.0934 10 31.0934C10.4315 31.0934 10.7812 31.4432 10.7812 31.8747C10.7812 32.3062 10.4315 32.6559 10 32.6559ZM17.9944 18.3679C17.9944 21.3833 20.4477 23.8366 23.4632 23.8366C26.4789 23.8366 28.9319 21.3833 28.9319 18.3679C28.9319 15.3525 26.4789 12.8991 23.4632 12.8991C20.4477 12.8991 17.9944 15.3525 17.9944 18.3679ZM19.5569 18.3679C19.5569 16.214 21.3095 14.4616 23.4632 14.4616C25.6171 14.4616 27.3694 16.214 27.3694 18.3679C27.3694 20.5218 25.6171 22.2741 23.4632 22.2741C21.3095 22.2741 19.5569 20.5218 19.5569 18.3679ZM12.3685 23.834C10.9684 23.834 9.56793 23.3008 8.50164 22.2349C6.36938 20.1026 6.36938 16.6331 8.50164 14.5008C10.6339 12.3685 14.1034 12.3685 16.2357 14.5008C16.5409 14.806 16.5409 15.3007 16.2357 15.6058C15.9305 15.9107 15.4358 15.9107 15.1307 15.6058C14.3931 14.8679 13.4119 14.4614 12.3685 14.4614C11.3254 14.4614 10.3443 14.8679 9.60668 15.6058C8.08355 17.1287 8.08355 19.607 9.60668 21.1298C10.3443 21.8677 11.3254 22.2739 12.3685 22.2739C13.4119 22.2739 14.3931 21.8677 15.1307 21.1298C15.4358 20.825 15.9305 20.825 16.2357 21.1298C16.5409 21.435 16.5409 21.9297 16.2357 22.2349C15.1694 23.3008 13.769 23.834 12.3685 23.834ZM29.8078 27.1008H32.319C32.7503 27.1008 33.1 26.7511 33.1 26.3196C33.1 25.888 32.7503 25.5383 32.3187 25.5383H31.8051C32.4722 24.783 33.1 23.8083 33.1 22.8167C33.1 21.5985 32.2815 20.78 31.0633 20.78C29.9402 20.78 29.0265 21.6937 29.0265 22.8167C29.0265 23.2483 29.3765 23.598 29.8078 23.598C30.2393 23.598 30.589 23.2483 30.589 22.8167C30.589 22.5552 30.802 22.3425 31.0633 22.3425C31.46 22.3425 31.5375 22.5165 31.5375 22.8167C31.5375 23.7646 30.0601 25.162 29.3451 25.69C29.0732 25.8902 28.9603 26.2423 29.0656 26.5631C29.1709 26.8838 29.4702 27.1008 29.8078 27.1008Z" fill="#060606"/>
</g>
<defs>
<clipPath id="clip0_10_2872">
<rect width="40" height="40" fill="white"/>
</clipPath>
</defs>
</svg>
