<svg width="24" height="24" viewBox="0 0 24 24" fill="none" xmlns="http://www.w3.org/2000/svg">
<path fill-rule="evenodd" clip-rule="evenodd" d="M16.4708 20.3077H7.90234C7.13285 20.3069 6.39509 20.0009 5.85098 19.4568C5.30686 18.9127 5.00086 18.175 5.00013 17.4055V14.9179C5.00013 14.7346 5.07293 14.5588 5.20252 14.4292C5.33211 14.2996 5.50787 14.2268 5.69113 14.2268C5.8744 14.2268 6.05016 14.2996 6.17975 14.4292C6.30933 14.5588 6.38214 14.7346 6.38214 14.9179V17.4055C6.38287 17.8084 6.54327 18.1947 6.8282 18.4796C7.11314 18.7645 7.49938 18.9249 7.90234 18.9257H16.4708C16.8737 18.9249 17.26 18.7645 17.5449 18.4796C17.8299 18.1947 17.9903 17.8084 17.991 17.4055V6.90221C17.9903 6.49925 17.8299 6.11301 17.5449 5.82807C17.26 5.54314 16.8737 5.38274 16.4708 5.38201H7.90234C7.49938 5.38274 7.11314 5.54314 6.8282 5.82807C6.54327 6.11301 6.38287 6.49925 6.38214 6.90221V9.38982C6.38214 9.57309 6.30933 9.74885 6.17975 9.87844C6.05016 10.008 5.8744 10.0808 5.69113 10.0808C5.50787 10.0808 5.33211 10.008 5.20252 9.87844C5.07293 9.74885 5.00013 9.57309 5.00013 9.38982V6.90221C5.00086 6.13272 5.30686 5.39496 5.85098 4.85085C6.39509 4.30673 7.13285 4.00073 7.90234 4H16.4708C17.2403 4.00073 17.978 4.30673 18.5221 4.85085C19.0663 5.39496 19.3723 6.13272 19.373 6.90221V17.4055C19.3723 18.175 19.0663 18.9127 18.5221 19.4568C17.978 20.0009 17.2403 20.3069 16.4708 20.3077ZM13.005 12.8447H5.69118C5.50791 12.8447 5.33215 12.7718 5.20256 12.6423C5.07298 12.5127 5.00017 12.3369 5.00017 12.1536C5.00017 11.9704 5.07298 11.7946 5.20256 11.665C5.33215 11.5354 5.50791 11.4626 5.69118 11.4626H13.0046L10.8682 9.32628C10.7385 9.19652 10.6656 9.02054 10.6656 8.83705C10.6656 8.65355 10.7385 8.47757 10.8682 8.34782C10.998 8.21806 11.1739 8.14517 11.3574 8.14517C11.5409 8.14517 11.7169 8.21806 11.8467 8.34782L15.1635 11.6646C15.194 11.6956 15.2214 11.7291 15.2454 11.7647C15.3229 11.8786 15.3652 12.0139 15.3652 12.1536C15.3652 12.278 15.3317 12.3989 15.2697 12.5042C15.2405 12.5544 15.2049 12.6011 15.1635 12.6431L11.8467 15.9599C11.7825 16.0242 11.7062 16.0751 11.6222 16.1097C11.5383 16.1443 11.4483 16.162 11.3574 16.1617C11.2666 16.162 11.1766 16.1443 11.0926 16.1097C11.0087 16.0751 10.9324 16.0242 10.8682 15.9599C10.7396 15.8296 10.6675 15.6538 10.6675 15.4707C10.6675 15.2876 10.7396 15.1118 10.8682 14.9814L13.005 12.8447Z" fill="#060606"/>
</svg>
