<svg width="24" height="24" viewBox="0 0 24 24" fill="none" xmlns="http://www.w3.org/2000/svg">
<path fill-rule="evenodd" clip-rule="evenodd" d="M14.6386 8.02663C14.721 8.0606 14.8093 8.07794 14.8984 8.07763C14.9883 8.07652 15.077 8.05748 15.1594 8.02163C15.2419 7.98577 15.3163 7.93382 15.3784 7.86882C15.5046 7.74093 15.5753 7.56849 15.5753 7.38882C15.5753 7.20915 15.5046 7.03671 15.3784 6.90882L12.6665 4.19695C12.5386 4.07076 12.3662 4 12.1865 4C12.0068 4 11.8344 4.07076 11.7065 4.19695L8.99464 6.90882C8.86734 7.03612 8.79582 7.20878 8.79582 7.38882C8.79582 7.56885 8.86734 7.74151 8.99464 7.86882C9.12195 7.99612 9.29461 8.06764 9.47464 8.06764C9.65468 8.06764 9.82734 7.99612 9.95464 7.86882L11.5085 6.31498V15.5352C11.5085 15.715 11.5799 15.8874 11.7071 16.0146C11.8342 16.1417 12.0066 16.2132 12.1865 16.2132C12.3663 16.2132 12.5387 16.1417 12.6658 16.0146C12.793 15.8874 12.8644 15.715 12.8644 15.5352V6.31815L14.4184 7.87966C14.4814 7.9427 14.5562 7.99265 14.6386 8.02663ZM16.5254 20.0099H7.84746C7.09249 20.0091 6.36864 19.7089 5.83479 19.1751C5.30095 18.6412 5.00072 17.9174 5 17.1624V12.2811C5.00072 11.5261 5.30095 10.8022 5.83479 10.2684C6.36864 9.73454 7.09249 9.43431 7.84746 9.43359H9.47458C9.65438 9.43359 9.82683 9.50502 9.95397 9.63217C10.0811 9.75931 10.1525 9.93175 10.1525 10.1116C10.1525 10.2914 10.0811 10.4638 9.95397 10.591C9.82683 10.7181 9.65438 10.7895 9.47458 10.7895H7.84746C7.4521 10.7902 7.07314 10.9476 6.79358 11.2272C6.51402 11.5067 6.35665 11.8857 6.35593 12.2811V17.1624C6.35665 17.5578 6.51402 17.9367 6.79358 18.2163C7.07314 18.4958 7.4521 18.6532 7.84746 18.6539H16.5254C16.9208 18.6532 17.2997 18.4958 17.5793 18.2163C17.8589 17.9367 18.0162 17.5578 18.017 17.1624V12.2811C18.0162 11.8857 17.8589 11.5067 17.5793 11.2272C17.2997 10.9476 16.9208 10.7902 16.5254 10.7895H14.8983C14.7185 10.7895 14.5461 10.7181 14.4189 10.591C14.2918 10.4638 14.2203 10.2914 14.2203 10.1116C14.2203 9.93175 14.2918 9.75931 14.4189 9.63217C14.5461 9.50502 14.7185 9.43359 14.8983 9.43359H16.5254C17.2804 9.43431 18.0042 9.73454 18.5381 10.2684C19.0719 10.8022 19.3722 11.5261 19.3729 12.2811V17.1624C19.3722 17.9174 19.0719 18.6412 18.5381 19.1751C18.0042 19.7089 17.2804 20.0091 16.5254 20.0099Z" fill="#060606"/>
</svg>
