<svg width="32" height="32" viewBox="0 0 32 32" fill="none" xmlns="http://www.w3.org/2000/svg">
<path d="M15.4681 13.9353V16.0632C16.2969 16.2476 17.0335 16.5507 17.8051 16.76V14.629C16.9796 14.4478 16.2366 14.1447 15.4681 13.9353ZM22.5584 10.0919C21.4693 10.5887 20.1294 11.0887 18.8434 11.0887C17.1447 11.0887 15.738 10.0013 13.5979 10.0013C12.8041 10.0013 12.096 10.1388 11.4388 10.3763C11.5277 10.1482 11.569 9.90131 11.5531 9.63883C11.4959 8.75141 10.7561 8.03898 9.85116 8.00148C8.83509 7.96086 8 8.76079 8 9.75132C8 10.345 8.30165 10.87 8.76206 11.1856V23.2501C8.76206 23.6657 9.10181 24 9.52411 24H10.0321C10.4545 24 10.7942 23.6657 10.7942 23.2501V20.3003C11.6928 19.9223 12.8137 19.6098 14.4267 19.6098C16.1286 19.6098 17.532 20.6972 19.6722 20.6972C21.2026 20.6972 22.4251 20.1879 23.5618 19.4192C23.8381 19.2317 24 18.9255 24 18.5943V10.9981C24.0032 10.27 23.2316 9.78569 22.5584 10.0919ZM13.1312 18.1724C12.312 18.2568 11.5436 18.4286 10.7942 18.6911V16.4882C11.6261 16.1976 12.3024 16.0195 13.1312 15.9445V18.1724ZM22.4791 13.9697C21.7297 14.2759 21.0089 14.579 20.1421 14.7165V16.9382C20.9295 16.8319 21.7742 16.5694 22.4791 16.1257V18.3287C21.6821 18.8317 20.9391 19.1005 20.1421 19.1754V16.9382C19.2848 17.0538 18.6211 16.985 17.8051 16.7632V18.8692C17.0462 18.638 16.3032 18.3474 15.4681 18.2037V16.0632C14.8426 15.9257 14.1726 15.8508 13.1312 15.9445V13.7572C12.4199 13.8541 11.715 14.0759 10.7942 14.4103V12.2073C11.8484 11.8261 12.385 11.5886 13.1312 11.5199V13.7572C13.9885 13.6416 14.668 13.7166 15.4681 13.9353V11.8293C16.2207 12.0605 16.9669 12.3511 17.8051 12.4948V14.6321C18.5576 14.7977 19.3165 14.8477 20.1421 14.7165V12.4698C20.9994 12.3198 21.8027 12.0449 22.4791 11.7668V13.9697Z" fill="#060606"/>
</svg>
