<svg width="24" height="24" viewBox="0 0 24 24" fill="none" xmlns="http://www.w3.org/2000/svg">
<path fill-rule="evenodd" clip-rule="evenodd" d="M12 20C10.4177 20 8.87102 19.5308 7.55543 18.6518C6.23984 17.7727 5.21446 16.5233 4.60896 15.0615C4.00345 13.5997 3.84503 11.9911 4.15371 10.4393C4.46239 8.88743 5.22432 7.46197 6.34314 6.34315C7.46196 5.22433 8.88742 4.4624 10.4393 4.15372C11.9911 3.84504 13.5997 4.00347 15.0615 4.60897C16.5233 5.21447 17.7727 6.23985 18.6517 7.55544C19.5308 8.87104 20 10.4178 20 12C19.9978 14.1211 19.1543 16.1547 17.6545 17.6545C16.1546 19.1543 14.1211 19.9978 12 20ZM12 5.35594C10.6859 5.35594 9.40136 5.7456 8.30875 6.47566C7.21613 7.20572 6.36455 8.24338 5.86167 9.45743C5.3588 10.6715 5.22723 12.0074 5.48359 13.2962C5.73995 14.585 6.37274 15.7689 7.30193 16.6981C8.23112 17.6273 9.41498 18.26 10.7038 18.5164C11.9926 18.7728 13.3285 18.6412 14.5426 18.1383C15.7566 17.6354 16.7943 16.7839 17.5243 15.6912C18.2544 14.5986 18.6441 13.3141 18.6441 12C18.6419 10.2385 17.9412 8.54985 16.6957 7.30432C15.4501 6.05878 13.7614 5.35809 12 5.35594ZM11.7966 14.2021C11.6168 14.2021 11.4443 14.1306 11.3172 14.0035C11.19 13.8763 11.1186 13.7039 11.1186 13.5241C11.117 13.0167 11.2785 12.5222 11.5793 12.1135C11.8801 11.7049 12.3042 11.4036 12.7891 11.2543C12.998 11.1906 13.1809 11.0612 13.3103 10.8853C13.4398 10.7094 13.5091 10.4964 13.5078 10.278C13.5078 9.87809 13.3489 9.49458 13.0661 9.21181C12.7834 8.92905 12.3999 8.77019 12 8.77019C11.6001 8.77019 11.2166 8.92905 10.9338 9.21181C10.651 9.49458 10.4922 9.87809 10.4922 10.278C10.4922 10.4578 10.4207 10.6302 10.2936 10.7574C10.1664 10.8845 9.994 10.956 9.8142 10.956C9.63439 10.956 9.46195 10.8845 9.3348 10.7574C9.20766 10.6302 9.13623 10.4578 9.13623 10.278C9.13623 9.51848 9.43794 8.79008 9.975 8.25302C10.5121 7.71597 11.2405 7.41426 12 7.41426C12.7595 7.41426 13.4879 7.71597 14.0249 8.25302C14.562 8.79008 14.8637 9.51848 14.8637 10.278C14.8652 10.7854 14.7037 11.2799 14.403 11.6886C14.1022 12.0972 13.6781 12.3984 13.1932 12.5478C12.9845 12.6119 12.8019 12.7414 12.6725 12.9172C12.5431 13.093 12.4737 13.3058 12.4745 13.5241C12.4745 13.6131 12.457 13.7013 12.4229 13.7835C12.3889 13.8658 12.3389 13.9405 12.276 14.0035C12.213 14.0664 12.1383 14.1164 12.056 14.1504C11.9738 14.1845 11.8856 14.2021 11.7966 14.2021ZM12.6129 15.6366C12.6129 16.0859 12.2486 16.4502 11.7993 16.4502C11.35 16.4502 10.9857 16.0859 10.9857 15.6366C10.9857 15.1873 11.35 14.823 11.7993 14.823C12.2486 14.823 12.6129 15.1873 12.6129 15.6366Z" fill="#060606"/>
</svg>
