<svg width="24" height="24" viewBox="0 0 24 24" fill="none" xmlns="http://www.w3.org/2000/svg">
<path fill-rule="evenodd" clip-rule="evenodd" d="M4.69198 12.8489C4.55676 12.8476 4.4249 12.8066 4.31274 12.7311C4.20057 12.6555 4.11302 12.5488 4.06093 12.424C4.00883 12.2992 3.99448 12.1619 4.01965 12.029C4.04482 11.8961 4.1084 11.7736 4.20253 11.6765L11.6688 4.21016C11.7955 4.07981 11.9683 4.00435 12.15 4C12.3334 3.99998 12.5094 4.07255 12.6394 4.20187L20.1057 11.6682C20.2356 11.798 20.3085 11.974 20.3085 12.1576C20.3085 12.3412 20.2356 12.5173 20.1057 12.6471C19.9759 12.7769 19.7999 12.8498 19.6163 12.8498C19.4327 12.8498 19.2566 12.7769 19.1268 12.6471L18.3796 11.8987V17.0992C18.3796 17.8666 18.0755 18.6028 17.5339 19.1465C16.9923 19.6901 16.2573 19.9971 15.4899 20H8.82553C8.0581 19.9971 7.32311 19.6901 6.7815 19.1465C6.23989 18.6028 5.93579 17.8666 5.93579 17.0992V11.8956L5.18144 12.6526C5.05064 12.7802 4.87467 12.8507 4.69198 12.8489ZM12.15 5.65918L16.997 10.5139V17.0992C16.997 17.498 16.8401 17.8808 16.5602 18.1649C16.2802 18.449 15.8997 18.6115 15.5009 18.6173H8.83659C8.63722 18.6173 8.43981 18.5781 8.25562 18.5018C8.07143 18.4255 7.90407 18.3136 7.76309 18.1727C7.47839 17.888 7.31844 17.5018 7.31844 17.0992V10.508L12.15 5.65918ZM9.95686 17.4594C10.0409 17.494 10.131 17.5117 10.2218 17.5113H14.0933C14.1841 17.5117 14.2742 17.494 14.3583 17.4594C14.4423 17.4248 14.5186 17.3739 14.5829 17.3096C14.6472 17.2454 14.6981 17.169 14.7327 17.085C14.7673 17.0009 14.785 16.9109 14.7846 16.82V14.9257C14.7846 14.229 14.5078 13.5608 14.0151 13.0681C13.5225 12.5755 12.8543 12.2987 12.1576 12.2987C11.4608 12.2987 10.7926 12.5755 10.3 13.0681C9.8073 13.5608 9.53052 14.229 9.53052 14.9257V16.82C9.53016 16.9109 9.54779 17.0009 9.5824 17.085C9.61701 17.169 9.66792 17.2454 9.73219 17.3096C9.79646 17.3739 9.87282 17.4248 9.95686 17.4594ZM13.4019 14.9257V16.1286H10.9132V14.9257C10.9132 14.5957 11.0443 14.2792 11.2776 14.0458C11.511 13.8125 11.8275 13.6814 12.1576 13.6814C12.4876 13.6814 12.8041 13.8125 13.0375 14.0458C13.2708 14.2792 13.4019 14.5957 13.4019 14.9257Z" fill="#060606"/>
</svg>
