<svg width="32" height="32" viewBox="0 0 32 32" fill="none" xmlns="http://www.w3.org/2000/svg">
<path fill-rule="evenodd" clip-rule="evenodd" d="M22.3639 9.63603C20.6641 7.93614 18.404 7 16 7C13.596 7 11.3359 7.93614 9.63603 9.63603C7.93614 11.3359 7 13.596 7 16C7 18.404 7.93614 20.6641 9.63603 22.364C11.3359 24.0639 13.596 25 16 25C18.404 25 20.6641 24.0639 22.3639 22.364C24.0639 20.6641 25 18.404 25 16C25 13.596 24.0639 11.3359 22.3639 9.63603ZM16 24.2829C11.4328 24.2829 7.71713 20.5672 7.71713 16C7.71713 11.4328 11.4328 7.71713 16 7.71713C20.5672 7.71713 24.2829 11.4328 24.2829 16C24.2829 20.5672 20.5672 24.2829 16 24.2829ZM16 8.48302C13.4495 8.48302 11.3745 10.558 11.3745 13.1085C11.3745 13.8005 11.9375 14.3635 12.6295 14.3635C13.3215 14.3635 13.8844 13.8005 13.8844 13.1085C13.8844 11.942 14.8335 10.993 16 10.993C17.1665 10.993 18.1155 11.942 18.1155 13.1085C18.1155 14.2849 17.1665 15.242 16 15.242C15.308 15.242 14.745 15.805 14.745 16.497V18.9632C14.745 19.6552 15.308 20.2182 16 20.2182C16.692 20.2182 17.255 19.6552 17.255 18.9632V17.5778C18.1612 17.3203 18.9789 16.7832 19.581 16.0445C20.2545 15.2181 20.6255 14.1755 20.6255 13.1085C20.6255 10.558 18.5505 8.48302 16 8.48302ZM16.8208 16.9474C16.6557 16.983 16.5378 17.129 16.5378 17.2979V18.9632C16.5378 19.2597 16.2965 19.501 16 19.501C15.7034 19.501 15.4621 19.2597 15.4621 18.9632V16.4969C15.4621 16.2004 15.7034 15.9591 16 15.9591C17.5619 15.9591 18.8326 14.6803 18.8326 13.1085C18.8326 11.5465 17.5619 10.2758 16 10.2758C14.438 10.2758 13.1673 11.5466 13.1673 13.1085C13.1673 13.405 12.926 13.6463 12.6295 13.6463C12.3329 13.6463 12.0916 13.405 12.0916 13.1085C12.0916 10.9534 13.8449 9.20011 16 9.20011C18.1551 9.20011 19.9083 10.9534 19.9083 13.1085C19.9083 14.9473 18.6099 16.5618 16.8208 16.9474ZM14.7451 22.1186C14.7451 21.4266 15.3081 20.8636 16.0001 20.8636C16.6921 20.8636 17.255 21.4266 17.255 22.1186V22.2621C17.255 22.954 16.6921 23.517 16.0001 23.517C15.3081 23.517 14.7451 22.9541 14.7451 22.2621V22.1186ZM16.0001 22.7999C16.2966 22.7999 16.5379 22.5586 16.5379 22.2621V22.1186C16.5379 21.8221 16.2966 21.5808 16.0001 21.5808C15.7035 21.5808 15.4622 21.8221 15.4622 22.1186V22.2621C15.4622 22.5586 15.7035 22.7999 16.0001 22.7999ZM9.11823 17.4333C9.02124 16.9649 8.97204 16.4827 8.97204 16C8.97204 15.802 8.81151 15.6414 8.61348 15.6414C8.41544 15.6414 8.25491 15.802 8.25491 16C8.25491 16.5315 8.30913 17.0626 8.41598 17.5787C8.45108 17.7481 8.60028 17.8646 8.76673 17.8646C8.79083 17.8646 8.81532 17.8622 8.83984 17.8571C9.03375 17.8169 9.15839 17.6272 9.11823 17.4333ZM9.62761 18.9679C10.3553 20.5275 11.6249 21.7638 13.2025 22.4491C13.3842 22.528 13.4675 22.7392 13.3886 22.9209C13.3298 23.056 13.198 23.1367 13.0595 23.1367C13.0118 23.1367 12.9633 23.1271 12.9168 23.1069C11.1784 22.3518 9.7795 20.9895 8.97774 19.2711C8.89402 19.0916 8.97161 18.8783 9.15107 18.7946C9.33046 18.7109 9.54388 18.7884 9.62761 18.9679Z" fill="#060606"/>
</svg>
