<?xml version="1.0" encoding="UTF-8"?><svg id="Calque_1" xmlns="http://www.w3.org/2000/svg" xmlns:xlink="http://www.w3.org/1999/xlink" viewBox="0 0 171.57 218.12"><defs><style>.cls-1,.cls-2,.cls-3{fill:none;}.cls-4{clip-path:url(#clippath);}.cls-5{fill:#fff;}.cls-6,.cls-7{fill:#fdfbf6;}.cls-8,.cls-9{fill:#0f8d96;}.cls-7,.cls-9,.cls-2{stroke-linecap:round;}.cls-7,.cls-9,.cls-2,.cls-3{stroke:#1d1d1b;stroke-miterlimit:10;stroke-width:2px;}.cls-10{clip-path:url(#clippath-1);}</style><clipPath id="clippath"><path class="cls-1" d="M93.79,133.94c2.22-6.32,19.36-30,30.23-35.1s27.46-16.18,32.81-27.27c3.28-6.8,8.85-14.1,11.33-17.2,.38-.48-.1-1.17-.68-.97-6.03,2.07-16.07,7.69-17.53,9.3-2,2.22-8.42,18.18-12.19,18.4s2.66-13.3,.67-13.75-17.29,6.65-18.84,8.65-6.87,18.84-9.53,18.62,4.43-15.52,1.77-14.41-15.74,11.31-17.07,19.07"/></clipPath><clipPath id="clippath-1"><path class="cls-1" d="M95.53,134.54c5.32,1.55,20.5,8.65,26.04,18.4,5.22,9.19,21.28,53.44,26.08,62.77,.37,.73,1.47,.64,1.69-.15,.73-2.67-.37-8-1.6-12.07-1.55-5.1,3.33-15.3,.22-24.16s-10.86-15.08-9.12-17.07,10.23,6.43,11.56,6.87,1.55-2,0-3.99-1.11-11.97-5.99-18.4-19.07-12.64-18.18-15.19,13.52,3.88,14.19,2.55-3.51-6.3-7.27-9.4"/></clipPath></defs><path class="cls-5" d="M59.28,119.91s6.56-31.05,7.84-39.02,3.58-23.64,3.18-25.5-9.83-27.62-9.13-30.24S69.92,1.76,71.58,1.78s4.52,.7,6.27,2.32c2.82-2.45,2.98-3.7,4.65-3.1s3.04,1.26,3.3,2.26,0,3.41,0,3.41c0,0,.68-1.25,1.92-1.47s2.24-.21,3.21,.73,1.68,2.04,1.44,2.86-.76,1.86-.76,1.86c0,0,1.47-.99,2.74-.91s3.31,.79,3.6,2.1-.3,4.08-.46,4.26,1.17-1.37,2.45-.82,2.56,1.47,2.31,2.68-2.74,4.48-2.74,4.48c0,0-.74,1.98-1,4.12s-5.45,14.19-6.11,16.89-.99,4.28-.75,7.28,2.91,46.54,2.91,46.47c1.21-.99,3.83-5.22,4.96-6.49s8.59-8.19,10.1-9.17,2.68-2.22,2.71-1.17-1.14,5.45-1.77,7.75-1.75,6.24-.91,6.31,1.81-.41,2.92-2.62,5.63-14.5,6.3-15.15,4.74-3.39,7-4.48,12.14-5.73,12.53-4.82-.08,3.65-.58,5.55-2.05,7.13-1.07,7.66,2.25,.55,3.75-1.54,8.17-14.86,9.05-15.82,5.06-3.4,7.09-4.64,11.87-6,12.75-5.74,1.54,.77,.92,1.54-2.76,4.17-3.59,6-7.36,20.2-8.48,23.96-2.09,8.74-3.12,9.57-6.99,3.75-9.5,6.13-4.42,4.15-3.68,5.23,1.67,1.42,2.89,1.04,4.61-2.04,4.95-1.37,.19,1.68-1.83,4.11-12.94,13.39-15.11,14.99c1.35,1.58,7.96,8.56,7.58,9.39s-1.09,.94-3.44,.14-9.74-3.62-10.48-2.41,1.46,3.05,3.78,4.61,10.21,6.5,12.38,9.03,4.31,5.3,5.26,9.69,1.55,8.74,2,9.68,1.96,3.09,1.52,4-1.1,1.04-1.87,.43-7.91-7.61-9.33-6.99-2.13,1.14-1.35,2.52,6.2,8.81,8.31,13.29,1.96,9.23,1.64,11.96-1.56,9.52-1.43,11.39,1.12,6.55,1.84,9.18,.55,6.28-.86,7.03-6.31-5.52-8.19-8.15-3.96-5.89-5.39-7.03-12.25-6.93-14-9.93-9.11-21.06-11.26-23.29-2.73-1.92-2.82,.12,1.2,13.65,1.03,14-1.47-.41-3.45-2.62-17.37-20.01-17.78-19.64c-1.18,1.99-10.12,18.65-11.53,19.34s-1.77,.8-3.09,.08-6.08-3.21-6.45-4.13,.96-2.91,1.56-4.02,5.01-10.15,5.67-11.94,1.71-5.38,1.71-5.38c0,0-9.61-4.21-11.42-4.87s-5-2.15-8.14-2.35-12.36,2.27-14.73,2.93-13.03,4.11-13.64,4.52-1.82,1.98-3.62,1.89-3.98-.27-3.84-1.81,5.75-22.45,5.75-22.45c0,0-3.07-1.88-2.97-3.91s.69-5.32,2.68-6.17,3.7-1.05,3.7-1.05c0,0,4.01-11.7,4.73-13.95s2.19-7.56,3.2-8.2,3.3-1.98,4.5-.71,4.33,6.25,5.84,8.17,7.83,10.44,12.82,13.43Z"/><path class="cls-5" d="M62.38,103.94c-2.44-2.22-9.75-3.99-11.53-9.09-1.26-3.62-1.96-9.91-2.26-13.27-.06-.65,.77-.96,1.16-.44,2.01,2.69,5.77,7.57,7.52,8.83,2.45,1.77,5.11,13.97,5.11,13.97Z"/><path class="cls-5" d="M65.8,83.77c-3.1-3.33-11.29-6.32-12.62-10.53-.93-2.94-1.33-8.94-1.48-11.56-.05-.81,.83-1.36,1.53-.95,2.34,1.37,6.57,4.05,8.14,6.41,2.22,3.33,4.43,16.63,4.43,16.63Z"/><path class="cls-8" d="M93.92,132.29c5.9-9.25,16.58-25.58,25.86-30.81,9.28-5.23,24.64-14.4,29.48-19.94,4.84-5.54,20.14-28.71,20.14-28.71l-13.71,40.05s-9.66,4.81-11.69,8.6c-2.04,3.79-1.71,5.71,.85,4.83s5.31-1.04,5.31-1.04c0,0-.9,3.64-7.35,9.63-6.46,5.99-5.69,9.6-15.04,12.54-9.35,2.94-28.81,7.89-33.86,4.85Z"/><path class="cls-8" d="M93.92,134.54c8.53,2.81,21.07,6.56,26,15.93s12.89,25.06,15.15,34.59,12.57,30.65,12.57,30.65c0,0-5.17-3.76-8.42-8.21s-9.52-8.31-13.47-11.36-8.62-10.68-11.61-18.99-7.05-11.91-7.28-9.44,2.95,16.17,.9,15.04-8.69-6.93-12.24-11.83-8.98-10.43-8.98-10.43c0,0,4.58-8.58,5.12-14.74s2.25-11.19,2.25-11.19Z"/><path class="cls-6" d="M74.13,154.93s-2.65,8.21-4.42,11.59-4.51,7.47-4.24,8.37,6.36,6.06,7.95,5.49,4.83-5.17,6.47-8.05,6.43-11.86,6.43-11.86l-12.19-5.54Z"/><g><g><rect class="cls-3" x="81.4" y="3.77" width="6.65" height="19.95" rx="2.77" ry="2.77" transform="translate(26.89 -49.68) rotate(38.42)"/><rect class="cls-3" x="75.08" y="-.22" width="6.65" height="19.95" rx="2.77" ry="2.77" transform="translate(23.05 -46.61) rotate(38.42)"/><rect class="cls-3" x="87.25" y="8.42" width="6.65" height="19.95" rx="2.77" ry="2.77" transform="translate(31.05 -52.31) rotate(38.42)"/><rect class="cls-3" x="93.57" y="14.15" width="5.54" height="15.71" rx="2.77" ry="2.77" transform="translate(34.54 -55.11) rotate(38.42)"/></g><path class="cls-5" d="M76.63,3.21c1.48,1.31,5.9,5.03,5.81,6.81s-.28,3.79-1.75,3.47-8.45-3.72-8.45-3.72l4.38-6.55Z"/><path class="cls-2" d="M59.28,119.91c2.66-7.98,11.97-59.19,10.97-64.85s-10.31-25.61-8.98-30.59S69.59,2.52,72.25,1.85s7.68,3.33,9.49,6.65-.18,5.99-2.51,4.66-5.65-2.66-5.65-2.66"/><path class="cls-7" d="M86.55,160.48s-26.94-13.63-32.59-13.3-26.37,6.18-28.08,7.89c-2.59,2.59-7.17,1.75-6.83-1.24s15.3-51.87,16.29-53.87,5.38-3.35,6.65,0c.91,2.41,14.3,19.95,20.29,22.61s30.55,9.78,31.52,11.37-3.53,17.89-7.24,26.54Z"/><path class="cls-2" d="M62.57,103.93s0,.1,.06,.09c4.65-1.09,16.9-5.49,19.71-10.49,2.25-4,1.88-8.68,1.95-11.38,.01-.54-.69-.81-1.06-.42-2.87,3.07-5.25,7-9.09,9.09-3.27,1.77-10.68,11.89-11.57,13.11Z"/><path class="cls-9" d="M69.07,76.19c-.07,.1,.02,.22,.13,.19,3.1-.91,10.52-1.21,13.24-4.39,1.9-2.22,3.01-7.36,3.54-10.52,.12-.74-.81-1.17-1.3-.6-1.67,1.94-2.59,3.73-6.3,5.52-2.81,1.35-8.16,8.28-9.33,9.81Z"/><path class="cls-2" d="M65.75,83.44c.02,.1-.1,.17-.17,.09-3.26-3.23-11.09-6.18-12.39-10.29-.93-2.94-1.33-8.94-1.48-11.56-.05-.81,.83-1.36,1.53-.95,2.34,1.37,6.57,4.05,8.14,6.41,2.01,3.01,4.02,14.22,4.38,16.3Z"/><path class="cls-9" d="M62.17,103c.07,.31-.27,.54-.54,.36-2.94-1.98-9.16-3.86-10.77-8.51-1.26-3.62-1.96-9.91-2.26-13.27-.06-.65,.77-.96,1.16-.44,2.01,2.69,5.77,7.57,7.52,8.83,2.03,1.47,4.21,10.12,4.89,13.02Z"/><path class="cls-2" d="M74.13,155.38c-1.34,6.29-6.61,15.54-8.47,18.86-.35,.63-.19,1.42,.39,1.85,1.64,1.23,4.93,3.57,7.08,4.32,.69,.24,1.46,0,1.89-.6,10.01-14,17.38-30.29,18.77-45.88,3.11-34.74-2.25-80.98-2.25-85.66,0-6.11,8.32-22.83,7.99-25.82"/><path class="cls-2" d="M24.78,132.29c-2.3-1-3.62-3.79-2.65-6.86,.82-2.61,3.08-4.39,6.45-4.27"/><line class="cls-2" x1="19.54" y1="97.93" x2="23.7" y2="109.04"/><line class="cls-2" x1="3.08" y1="112.01" x2="14.05" y2="117.8"/><line class="cls-2" x1="1" y1="129.2" x2="11.84" y2="125.89"/><line class="cls-2" x1="6.42" y1="145.37" x2="15.27" y2="138.75"/><path class="cls-2" d="M93.79,133.94c4.54-.89,25.79-2.28,33.99-6.5s23.06-20.4,22.39-22.17-7.54,3.55-8.2,0c-.6-3.21,7.9-8.43,12.14-10.54,.76-.38,1.33-1.04,1.59-1.85,2.57-8.14,8.76-31.62,14.64-38.51,.6-.7-.03-1.75-.92-1.54-5.5,1.27-17.84,8.07-19.46,9.87-2,2.22-8.42,18.18-12.19,18.4s2.66-13.3,.67-13.75-17.29,6.65-18.84,8.65-6.87,18.84-9.53,18.62,4.43-15.52,1.77-14.41-15.74,11.31-17.07,19.07"/><path class="cls-2" d="M93.79,133.94c2.22-6.32,19.36-30,30.23-35.1s27.46-16.18,32.81-27.27c4.31-8.94,12.59-18.74,12.59-18.74"/><g class="cls-4"><g><path class="cls-2" d="M98.4,126.77c3.53-8.32,3.68-14.12,3.52-17.86-.15-3.56-1.47-6.96-2.25-10.44s.33-10.46,2.29-13.44"/><path class="cls-2" d="M106.33,120.16c3.53-8.32,.69-18.56,0-22.24-1.83-9.81,4.03-17.1,5.99-20.08"/><path class="cls-2" d="M115.26,110.04c.54-2.97,2.79-7.17,2.33-16.67-.18-3.77-1.86-12.97,0-16.26"/><path class="cls-2" d="M124.4,101.37c1.39-3.88,1.54-8.08,1.52-12.2s-.17-8.28,.65-12.32,2.77-8.02,6.15-10.38"/><path class="cls-2" d="M142.23,93.37c1.39-3.88,1.54-8.08,1.52-12.2s-.17-8.28,.65-12.32,2.77-8.02,6.15-10.38"/><path class="cls-2" d="M132.72,94.65c-1.68-10.89,.39-15.98,5.47-23.05"/><path class="cls-2" d="M151.51,80.43c-.34-5.29,0-10.71,1.83-15.69s5.27-9.5,10-11.9"/></g></g><g><line class="cls-2" x1="82.5" y1="154.27" x2="81.74" y2="149.39"/><line class="cls-2" x1="71.91" y1="151.54" x2="76.35" y2="149.39"/><line class="cls-2" x1="69.72" y1="146.93" x2="70.65" y2="142.08"/><line class="cls-2" x1="60.98" y1="142.69" x2="65" y2="145.56"/><line class="cls-2" x1="54.45" y1="142.42" x2="50.01" y2="144.57"/><line class="cls-2" x1="45" y1="142.22" x2="43.13" y2="146.79"/><line class="cls-2" x1="37.68" y1="142.86" x2="38.25" y2="147.77"/><line class="cls-2" x1="26.93" y1="148.55" x2="31.85" y2="148.94"/><line class="cls-2" x1="33.68" y1="143.88" x2="33.68" y2="145.73"/><line class="cls-2" x1="59.42" y1="144.81" x2="57.57" y2="144.91"/><line class="cls-2" x1="77.98" y1="152.14" x2="79.03" y2="153.66"/><line class="cls-2" x1="22.47" y1="152.06" x2="23.26" y2="153.73"/><line class="cls-2" x1="86.74" y1="153.83" x2="84.91" y2="153.61"/></g><path class="cls-2" d="M133.14,124.69c3.77,3.1,7.94,8.07,7.27,9.4s-13.3-5.1-14.19-2.55,13.3,8.76,18.18,15.19,4.43,16.41,5.99,18.4,1.33,4.43,0,3.99-9.82-8.87-11.56-6.87,6.02,8.2,9.12,17.07-1.77,19.07-.22,24.16,2.88,12.19,.67,13.52-9.09-9.75-12.41-13.97-13.52-7.54-16.18-12.64-9.53-24.16-12.19-23.28,1.11,15.3,0,15.96-19.07-22.17-21.28-22.61"/><path class="cls-2" d="M95.53,134.54c5.32,1.55,20.5,8.65,26.04,18.4s23.28,58.97,26.82,64.07"/><g class="cls-10"><g><path class="cls-2" d="M98.1,136.56c3.74-.67,7.53-1.34,11.3-.95,2.49,.26,4.97,.73,7.33,1.54,10.55,3.62,15.94,2.12,23.82,.73"/><path class="cls-2" d="M114.95,158.58c3.41-1.36,10.23-1.64,14.59-.63s10.57,3.93,13.92,4.65c5.45,1.17,11.09,.96,16.66,.74"/><path class="cls-2" d="M113.25,148.79c3.41-1.36,14.18-2.49,21.45-1.37,8.54,1.32,18.15,6.34,23.72,6.12"/><path class="cls-2" d="M123.22,168.93c1.74-.44,3.59-.44,5.33,.01,1.39,.36,2.69,1,4,1.59,2.89,1.29,5.89,2.32,8.94,3.18,4.09,1.14,8.34,1.96,12.56,1.46"/><path class="cls-2" d="M128.28,188.61c1.32,2.14,3.28,3.87,5.57,4.91,5.52,2.51,12.09,.84,17.91,2.54,2.92,.86,5.53,2.53,8.08,4.19"/><path class="cls-2" d="M160.84,185.49c-1.87-1.67-4.25-2.77-6.74-3.11-6.01-.82-11.82,2.67-17.89,2.7-3.04,.02-6.02-.83-8.94-1.69"/><path class="cls-2" d="M134.7,198.64c2.55,2.66,5.2,5.38,8.56,6.89,5.69,2.55,12.72,1.3,18.01,4.61"/></g></g></g></svg>