<svg width="24" height="24" viewBox="0 0 24 24" fill="none" xmlns="http://www.w3.org/2000/svg">
<path d="M12 4.22406C8.67372 4.22406 5.96759 6.93025 5.96759 10.2565C5.96759 12.4891 6.9529 14.8269 8.81709 17.0175C10.2023 18.6452 11.5754 19.6191 11.6332 19.6598C11.7432 19.7372 11.8716 19.7759 12 19.7759C12.1284 19.7759 12.2568 19.7372 12.367 19.6598C12.4247 19.6191 13.7978 18.6453 15.183 17.0175C17.0472 14.8269 18.0325 12.4891 18.0325 10.2565C18.0325 6.93025 15.3264 4.22406 12 4.22406ZM11.9995 18.3358C10.8251 17.3962 7.24247 14.2058 7.24247 10.2565C7.24247 7.63312 9.37672 5.49894 12 5.49894C14.6233 5.49894 16.7575 7.63312 16.7575 10.2565C16.7575 14.1966 13.1727 17.3949 11.9995 18.3358Z" fill="black"/>
<path d="M11.9735 7.22406C10.316 7.22406 8.96759 8.5725 8.96759 10.23C8.96759 11.8875 10.316 13.2359 11.9735 13.2359C13.631 13.2359 14.9795 11.8875 14.9795 10.23C14.9795 8.5725 13.631 7.22406 11.9735 7.22406ZM11.9735 11.9611C11.019 11.9611 10.2425 11.1845 10.2425 10.23C10.2425 9.2755 11.019 8.49893 11.9735 8.49893C12.928 8.49893 13.7046 9.2755 13.7046 10.23C13.7046 11.1845 12.9281 11.9611 11.9735 11.9611Z" fill="black"/>
</svg>
