<svg width="24" height="24" viewBox="0 0 24 24" fill="none" xmlns="http://www.w3.org/2000/svg">
<path d="M8.89 20.0011C9.00684 20.0015 9.1226 19.9788 9.23061 19.9343C9.33863 19.8897 9.43675 19.8242 9.51933 19.7416L16.6304 12.6305C16.7959 12.4628 16.8887 12.2367 16.8887 12.0011C16.8887 11.7656 16.7959 11.5395 16.6304 11.3718L9.51933 4.26068C9.35243 4.09377 9.12605 4 8.89 4C8.65396 4 8.42758 4.09377 8.26067 4.26068C8.09376 4.42759 7.99999 4.65397 7.99999 4.89001C7.99999 5.12606 8.09376 5.35244 8.26067 5.51935L14.7567 12.0011L8.26067 18.4829C8.09521 18.6506 8.00244 18.8767 8.00244 19.1122C8.00244 19.3478 8.09521 19.5739 8.26067 19.7416C8.34325 19.8242 8.44138 19.8897 8.54939 19.9343C8.6574 19.9788 8.77316 20.0015 8.89 20.0011Z" fill="#060606"/>
</svg>
