<svg width="24" height="24" viewBox="0 0 24 24" fill="none" xmlns="http://www.w3.org/2000/svg">
<path d="M12.9964 18.3159H5.59306C5.35246 18.3165 5.11488 18.2624 4.89829 18.1576C4.6817 18.0529 4.49177 17.9002 4.34289 17.7112C4.19736 17.5291 4.09513 17.3163 4.04392 17.089C3.99271 16.8616 3.99386 16.6255 4.0473 16.3986C4.32814 15.2181 4.99885 14.1668 5.95105 13.4145C6.90324 12.6623 8.08127 12.2531 9.29475 12.2531C10.5082 12.2531 11.6863 12.6623 12.6385 13.4145C13.5907 14.1668 14.2614 15.2181 14.5422 16.3986C14.5955 16.626 14.5965 16.8624 14.5453 17.0902C14.4942 17.318 14.392 17.5312 14.2466 17.7139C14.0972 17.9021 13.9071 18.054 13.6906 18.1583C13.4741 18.2626 13.2368 18.3165 12.9964 18.3159ZM9.29475 13.6054C8.38419 13.5998 7.49879 13.9041 6.78415 14.4684C6.06951 15.0327 5.56817 15.8234 5.36255 16.7105C5.35628 16.7383 5.35644 16.7672 5.36302 16.7949C5.3696 16.8226 5.38242 16.8485 5.40052 16.8705C5.42309 16.8984 5.4516 16.9209 5.48397 16.9364C5.51634 16.9519 5.55176 16.9599 5.58764 16.96H12.991C13.0269 16.9599 13.0623 16.9519 13.0947 16.9364C13.1271 16.9209 13.1556 16.8984 13.1781 16.8705C13.1962 16.8485 13.2091 16.8226 13.2156 16.7949C13.2222 16.7672 13.2224 16.7383 13.2161 16.7105C13.0109 15.8253 12.5112 15.0359 11.7987 14.4718C11.0863 13.9077 10.2035 13.6022 9.29475 13.6054Z" fill="black"/>
<path d="M9.29479 11.558C8.7138 11.5585 8.14571 11.3867 7.66237 11.0643C7.17904 10.7419 6.80218 10.2834 6.57947 9.74682C6.35677 9.21021 6.29822 8.6196 6.41123 8.04971C6.52425 7.47982 6.80375 6.95625 7.21438 6.54524C7.62502 6.13423 8.14833 5.85424 8.71811 5.7407C9.2879 5.62716 9.87856 5.68516 10.4154 5.90737C10.9522 6.12958 11.411 6.50602 11.7339 6.98905C12.0567 7.47209 12.229 8.04003 12.229 8.62102C12.2283 9.39925 11.919 10.1455 11.369 10.696C10.8189 11.2466 10.073 11.5565 9.29479 11.558ZM9.29479 7.04271C8.98187 7.04217 8.67582 7.13451 8.41541 7.30803C8.15499 7.48155 7.95193 7.72844 7.83193 8.01745C7.71193 8.30645 7.68039 8.62456 7.74131 8.9315C7.80223 9.23844 7.95286 9.5204 8.17413 9.74167C8.39541 9.96295 8.67737 10.1136 8.98431 10.1745C9.29124 10.2354 9.60936 10.2039 9.89836 10.0839C10.1874 9.96388 10.4343 9.76081 10.6078 9.5004C10.7813 9.23999 10.8736 8.93394 10.8731 8.62102C10.8724 8.20264 10.7059 7.80161 10.41 7.50578C10.1142 7.20994 9.71316 7.04343 9.29479 7.04271Z" fill="black"/>
<path d="M18.5802 18.3159H12.2128C12.033 18.3159 11.8605 18.2445 11.7334 18.1174C11.6062 17.9902 11.5348 17.8178 11.5348 17.638C11.5348 17.4582 11.6062 17.2857 11.7334 17.1586C11.8605 17.0314 12.033 16.96 12.2128 16.96H18.5802C18.5916 16.9602 18.6028 16.9579 18.6131 16.9532C18.6235 16.9485 18.6326 16.9416 18.6399 16.9329C18.6421 16.9278 18.6433 16.9222 18.6433 16.9166C18.6433 16.911 18.6421 16.9055 18.6399 16.9003C18.5124 16.364 18.2487 15.8696 17.8743 15.465C17.4999 15.0603 17.0275 14.759 16.5027 14.5903C15.9778 14.4215 15.4184 14.391 14.8783 14.5016C14.3382 14.6122 13.8358 14.8602 13.4196 15.2217C13.353 15.2837 13.2746 15.3317 13.1891 15.3627C13.1037 15.3938 13.0128 15.4074 12.9219 15.4026C12.8311 15.3979 12.7422 15.3749 12.6604 15.335C12.5786 15.2951 12.5057 15.2392 12.446 15.1706C12.3863 15.102 12.341 15.022 12.3128 14.9355C12.2847 14.849 12.2742 14.7578 12.282 14.6671C12.2899 14.5765 12.3159 14.4884 12.3585 14.408C12.4011 14.3276 12.4595 14.2567 12.5301 14.1993C13.122 13.6836 13.8372 13.3295 14.6062 13.1716C15.3753 13.0136 16.1721 13.057 16.9194 13.2977C17.6667 13.5383 18.3392 13.968 18.8715 14.5451C19.4039 15.1221 19.7781 15.8269 19.9579 16.5912C20.0053 16.7959 20.0055 17.0088 19.9585 17.2136C19.9115 17.4185 19.8186 17.6099 19.6867 17.7736C19.5544 17.9408 19.3864 18.0763 19.1949 18.1701C19.0035 18.264 18.7934 18.3138 18.5802 18.3159Z" fill="black"/>
<path d="M15.532 12.7376C15.0305 12.7376 14.5403 12.5889 14.1233 12.3103C13.7063 12.0317 13.3813 11.6357 13.1894 11.1724C12.9975 10.709 12.9473 10.1992 13.0451 9.70736C13.143 9.21551 13.3845 8.76371 13.7391 8.4091C14.0937 8.05449 14.5455 7.813 15.0373 7.71516C15.5292 7.61732 16.039 7.66754 16.5023 7.85945C16.9657 8.05136 17.3617 8.37636 17.6403 8.79333C17.9189 9.21031 18.0676 9.70054 18.0676 10.202C18.0676 10.535 18.002 10.8647 17.8746 11.1724C17.7472 11.48 17.5604 11.7595 17.3249 11.995C17.0895 12.2304 16.81 12.4172 16.5023 12.5446C16.1947 12.672 15.865 12.7376 15.532 12.7376ZM15.532 9.02237C15.2987 9.02237 15.0706 9.09156 14.8766 9.22118C14.6826 9.3508 14.5314 9.53504 14.4421 9.7506C14.3529 9.96615 14.3295 10.2033 14.375 10.4322C14.4205 10.661 14.5329 10.8712 14.6979 11.0362C14.8628 11.2012 15.073 11.3135 15.3019 11.359C15.5307 11.4045 15.7679 11.3812 15.9834 11.2919C16.199 11.2026 16.3832 11.0514 16.5129 10.8574C16.6425 10.6634 16.7117 10.4353 16.7117 10.202C16.7088 9.89105 16.5833 9.59378 16.3623 9.37489C16.1414 9.156 15.843 9.03321 15.532 9.03322V9.02237Z" fill="black"/>
</svg>
