<svg width="24" height="24" viewBox="0 0 24 24" xmlns="http://www.w3.org/2000/svg">
<path d="M8.96815 19.9985C8.92213 20.0025 8.87586 20.0025 8.82984 19.9985C8.71863 19.9741 8.61536 19.922 8.52957 19.8471C8.44379 19.7722 8.37824 19.6769 8.339 19.57L7.23255 16.766L4.42849 15.6595C4.32399 15.6186 4.23133 15.5523 4.15889 15.4666C4.08644 15.3809 4.0365 15.2785 4.01357 15.1687C3.99125 15.0584 3.9964 14.9443 4.02856 14.8365C4.06072 14.7287 4.1189 14.6304 4.19798 14.5504L5.62713 13.1348C5.69836 13.0658 5.78384 13.0133 5.87755 12.981C5.97126 12.9487 6.07092 12.9373 6.1695 12.9477L7.96476 13.1809L9.74645 11.2826L5.94984 8.90156C5.57219 8.66072 5.29461 8.29119 5.1685 7.86141C5.04239 7.43162 5.07629 6.97069 5.26392 6.56398C5.45156 6.15727 5.78022 5.83233 6.18904 5.64933C6.59786 5.46634 7.05915 5.43768 7.48747 5.56868L13.4373 7.39105L15.9485 4.73343C16.1634 4.50446 16.4225 4.32133 16.71 4.19504C16.9976 4.06874 17.3077 4.00189 17.6217 3.99851C18.2542 3.99502 18.8624 4.24163 19.3139 4.68461C19.5355 4.90668 19.7104 5.17091 19.8282 5.46169C19.946 5.75248 20.0044 6.06392 19.9999 6.37763C19.9953 6.69134 19.9279 7.00095 19.8017 7.2882C19.6755 7.57544 19.4931 7.83449 19.2651 8.05004L16.7458 10.4311L18.5627 16.3755C18.6952 16.8053 18.6668 17.2686 18.4828 17.679C18.2987 18.0894 17.9717 18.4188 17.5626 18.6058C17.1535 18.7927 16.6904 18.8244 16.2596 18.695C15.8289 18.5655 15.46 18.2837 15.2217 17.9022L12.8461 14.1056L10.8231 16.0039L11.0509 17.829C11.0643 17.9319 11.0539 18.0365 11.0205 18.1348C10.9871 18.2331 10.9317 18.3224 10.8583 18.3958L9.44272 19.8114C9.31477 19.9329 9.14462 20 8.96815 19.9985ZM5.89832 14.7782L8.01357 15.6134C8.10055 15.6468 8.17954 15.6981 8.24542 15.764C8.31129 15.8298 8.36258 15.9088 8.39594 15.9958L9.22035 18.1002L9.66781 17.65L9.42374 15.8521C9.41028 15.746 9.42192 15.6382 9.45771 15.5374C9.49351 15.4366 9.55247 15.3456 9.62984 15.2717L12.5044 12.5599C12.5755 12.4911 12.6612 12.4393 12.7551 12.4083C12.849 12.3773 12.9487 12.3679 13.0468 12.3809C13.1468 12.3926 13.2428 12.4268 13.3278 12.4808C13.4128 12.5348 13.4845 12.6072 13.5376 12.6927L16.3715 17.1809C16.4112 17.2444 16.4647 17.2982 16.5281 17.3381C16.5916 17.3781 16.6632 17.4031 16.7376 17.4114C16.8119 17.4206 16.8874 17.4124 16.958 17.3875C17.0286 17.3626 17.0924 17.3215 17.1444 17.2677C17.2081 17.204 17.2532 17.124 17.2747 17.0366C17.2962 16.9491 17.2933 16.8574 17.2665 16.7714L15.322 10.4256C15.2859 10.3046 15.2839 10.1759 15.3165 10.0538C15.349 9.93172 15.4148 9.82106 15.5065 9.7341L16.0298 9.23783L18.3349 7.06834C18.4322 6.97728 18.5098 6.86727 18.563 6.74507C18.6162 6.62288 18.6438 6.49109 18.6441 6.35783C18.6458 6.22559 18.621 6.09435 18.5712 5.97185C18.5214 5.84935 18.4475 5.73808 18.3539 5.64461C18.2613 5.5499 18.1502 5.47527 18.0275 5.42535C17.9048 5.37543 17.7731 5.35129 17.6407 5.35444C17.5083 5.35549 17.3776 5.38344 17.2564 5.43658C17.1352 5.48973 17.026 5.56696 16.9356 5.6636L14.1342 8.63038C14.0474 8.72208 13.9366 8.78769 13.8144 8.81979C13.6922 8.8519 13.5635 8.84922 13.4427 8.81207L7.09154 6.86766C6.97642 6.83218 6.85232 6.83977 6.74239 6.88904C6.63245 6.93831 6.54419 7.02588 6.49407 7.13542C6.44395 7.24496 6.43538 7.369 6.46996 7.4844C6.50455 7.59979 6.57993 7.69866 6.68205 7.76258L11.1756 10.5802C11.2622 10.6319 11.3361 10.7024 11.3919 10.7865C11.4477 10.8705 11.4839 10.966 11.498 11.0659C11.512 11.1657 11.5035 11.2675 11.473 11.3637C11.4426 11.4598 11.391 11.548 11.322 11.6216L8.72679 14.3578C8.65307 14.4354 8.5621 14.4945 8.46126 14.5303C8.36043 14.5661 8.25258 14.5776 8.14645 14.5639L6.33764 14.3307L5.89832 14.7782Z"/>
</svg>
