<svg  viewBox="0 0 40 40" fill="none" xmlns="http://www.w3.org/2000/svg">
<g clip-path="url(#clip0_10_2769)">
<g clip-path="url(#clip1_10_2769)">
<path d="M34.5473 27.5468H19.0154V36.1614H32.0792L34.5473 31.895V27.5468Z" fill="#B9DADD"/>
<path d="M7.38805 11.8328L0.808502 23.2804L3.27741 27.5469L6.68898 30.3355L14.8417 16.152L7.38805 11.8328Z" fill="#16838F"/>
<path d="M27.5992 2.51962H20.1702V6.88212L26.6902 18.226L34.1448 13.9068L27.5992 2.51962Z" fill="#73B5BC"/>
<path d="M23.257 31.4258L18.621 26.2676C18.386 26.0061 17.9849 25.9858 17.7251 26.2224C17.4653 26.4589 17.4451 26.8625 17.6801 27.124L18.0602 27.5469H3.27744L8.22987 36.1613H18.0602L17.6802 36.5841C17.4452 36.8456 17.4654 37.2492 17.7252 37.4857C17.8465 37.5962 17.9987 37.6506 18.1505 37.6506C18.3236 37.6506 18.496 37.5798 18.6211 37.4405L23.2572 32.2822C23.4755 32.0391 23.4755 31.669 23.257 31.4258Z" fill="#73B5BC"/>
<path d="M34.573 14.6522L35.13 14.7719C35.4747 14.846 35.814 14.6265 35.8881 14.282C35.9622 13.9373 35.7428 13.5979 35.3982 13.5239L28.6102 12.0652C28.2899 11.9964 27.9693 12.1814 27.8686 12.4934L25.7304 19.1244C25.6221 19.4599 25.8064 19.8196 26.142 19.9279C26.2071 19.9489 26.2731 19.9589 26.338 19.9589C26.6076 19.9589 26.8582 19.7867 26.9454 19.5163L27.1203 18.9742L34.5473 31.8951L39.532 23.2807L34.573 14.6522Z" fill="#FED169"/>
<path d="M15.9353 15.0768L15.386 15.1947L22.6775 2.51962H12.8971L8.05086 10.944L7.87883 10.411C7.77234 10.081 7.41859 9.89963 7.08805 10.0062C6.75781 10.1126 6.5764 10.4663 6.68289 10.7964L8.78758 17.318C8.87274 17.5818 9.11774 17.7532 9.38508 17.7532C9.42883 17.7532 9.47313 17.7486 9.5175 17.7391L16.1992 16.3045C16.5385 16.2317 16.7544 15.8978 16.6815 15.5589C16.6086 15.2197 16.2744 15.0038 15.9353 15.0768Z" fill="#B9DADD"/>
<path d="M39.9151 22.9388L35.2421 14.8091L35.65 14.8967C35.9948 14.9708 36.334 14.7514 36.4081 14.4068C36.4822 14.0621 36.2628 13.7228 35.9182 13.6487L28.4399 12.0417C28.1196 11.973 27.7989 12.1579 27.6982 12.4699L25.3507 19.7498C25.2425 20.0853 25.4268 20.445 25.7624 20.5532C25.8275 20.5743 25.8935 20.5843 25.9584 20.5843C26.228 20.5843 26.4786 20.4121 26.5658 20.1417L26.6854 19.7709L30.7748 26.8854H22.2869C21.9344 26.8854 21.6486 27.1711 21.6486 27.5236C21.6486 27.8761 21.9344 28.1619 22.2869 28.1619H31.5086L33.6403 31.8705L31.5404 35.4997H22.287C21.9345 35.4997 21.6487 35.7855 21.6487 36.138C21.6487 36.4905 21.9345 36.7762 22.287 36.7762H31.9086C32.1365 36.7762 32.347 36.6548 32.4611 36.4576L39.9143 23.5767C40.0283 23.3794 40.0287 23.1363 39.9151 22.9388ZM34.3791 30.5937L27.2147 18.1296L28.7362 13.4112L33.5622 14.4482L38.6249 23.256L34.3791 30.5937Z" fill="#060606"/>
<path d="M23.2135 31.4025L18.0827 25.7297C17.8462 25.4682 17.4425 25.4479 17.1811 25.6845C16.9196 25.921 16.8994 26.3246 17.1358 26.5861L17.4064 26.8854H9.22508L13.5125 19.4264C13.6881 19.1207 13.5828 18.7305 13.2772 18.5549C12.9717 18.3793 12.5814 18.4846 12.4057 18.7902L7.75257 26.8852H3.47514L1.37514 23.2559L6.05304 15.1177C6.22866 14.8121 6.12335 14.4218 5.81773 14.2462C5.5121 14.0706 5.12194 14.1759 4.94624 14.4815L0.0849032 22.9388C-0.0286127 23.1363 -0.0283002 23.3794 0.0858406 23.5766L7.53898 36.4575C7.65312 36.6547 7.86367 36.7762 8.09148 36.7762H17.4065L17.1359 37.0754C16.8995 37.3368 16.9197 37.7405 17.1812 37.977C17.3033 38.0875 17.4565 38.1419 17.6091 38.1419C17.7832 38.1419 17.9567 38.0712 18.0827 37.9318L23.2135 32.2588C23.4333 32.0157 23.4333 31.6455 23.2135 31.4025ZM18.561 35.4995H8.45945L4.21374 28.1617H8.11968C8.12023 28.1617 8.12078 28.1618 8.12132 28.1618C8.12187 28.1618 8.12242 28.1617 8.12296 28.1617H18.561L21.8793 31.8305L18.561 35.4995Z" fill="#060606"/>
<path d="M8.39603 17.5425C8.48252 17.8107 8.73142 17.985 9.00307 17.985C9.04752 17.985 9.0926 17.9803 9.1376 17.9706L16.6158 16.3636C16.9605 16.2896 17.1798 15.9502 17.1057 15.6055C17.0317 15.2608 16.6921 15.0414 16.3476 15.1156L15.9397 15.2032L19.9998 8.13971L24.2484 15.531C24.3665 15.7364 24.5814 15.8514 24.8024 15.8514C24.9103 15.8514 25.0197 15.8239 25.1199 15.7664C25.4255 15.5907 25.5309 15.2005 25.3552 14.8949L20.7361 6.85892L22.8767 3.13485H27.0592L31.708 11.2224C31.8836 11.5282 32.2739 11.6335 32.5794 11.4578C32.8851 11.2821 32.9905 10.8919 32.8148 10.5863L27.9821 2.17829C27.8682 1.98016 27.6572 1.85813 27.4286 1.85813H12.5714C12.3429 1.85813 12.1318 1.98024 12.018 2.17829L7.38314 10.2416L7.26353 9.87073C7.15525 9.53526 6.79587 9.3508 6.46009 9.45916C6.12462 9.56737 5.94032 9.92705 6.04853 10.2626L8.39603 17.5425ZM12.9407 3.13477H21.4043L14.2598 15.5642L9.43385 16.6012L7.91228 11.8828L12.9407 3.13477Z" fill="#060606"/>
</g>
</g>
<defs>
<clipPath id="clip0_10_2769">
<rect width="40" height="40" fill="white"/>
</clipPath>
<clipPath id="clip1_10_2769">
<rect width="40" height="40" fill="white"/>
</clipPath>
</defs>
</svg>
