<svg width="24" height="24" viewBox="0 0 24 24" fill="none" xmlns="http://www.w3.org/2000/svg">
<path fill-rule="evenodd" clip-rule="evenodd" d="M12.4742 19.9972H12.5447C12.7898 19.9979 13.0299 19.9279 13.2362 19.7956C13.4426 19.6634 13.6064 19.4744 13.7081 19.2514L19.8803 5.81683C19.9893 5.57887 20.0229 5.31325 19.9765 5.05565C19.9302 4.79804 19.8062 4.56078 19.6211 4.3757C19.436 4.19062 19.1987 4.06659 18.9411 4.02026C18.6835 3.97393 18.4179 4.00751 18.18 4.11649L4.74538 10.2941C4.51205 10.4018 4.31645 10.5771 4.18391 10.7972C4.05137 11.0174 3.98801 11.2722 4.00204 11.5288C4.01606 11.7854 4.10683 12.0319 4.26258 12.2363C4.41833 12.4406 4.63188 12.5935 4.87555 12.6751L9.71351 14.2833L11.3216 19.1212C11.4022 19.3669 11.5556 19.5823 11.7615 19.7387C11.9673 19.8952 12.2159 19.9853 12.4742 19.9972ZM10.0687 12.9681L5.49385 11.4439L18.565 5.43175L12.5637 18.5138L11.0338 13.9217L12.051 12.9025C12.1665 12.7733 12.2281 12.6049 12.2232 12.4317C12.2184 12.2585 12.1474 12.0938 12.0249 11.9713C11.9024 11.8488 11.7377 11.7778 11.5645 11.773C11.3913 11.7681 11.2229 11.8298 11.0937 11.9452L10.0687 12.9681Z" fill="#060606"/>
</svg>
