<svg width="24" height="24" viewBox="0 0 24 24" fill="none" xmlns="http://www.w3.org/2000/svg">
<path fill-rule="evenodd" clip-rule="evenodd" d="M4.6785 16.6528C4.8845 16.7781 5.1185 16.8445 5.35692 16.8454C5.58517 16.8431 5.80917 16.7807 6.0082 16.6641L11.3267 13.541V15.438C11.3264 15.6851 11.3891 15.9278 11.5083 16.1412C11.6275 16.3547 11.799 16.5313 12.0051 16.6528C12.2111 16.7781 12.4451 16.8445 12.6836 16.8453C12.9118 16.8431 13.1358 16.7807 13.3348 16.6641L19.3239 13.1472C19.5295 13.0227 19.7002 12.8441 19.8189 12.6292C19.9375 12.4142 19.9999 12.1705 19.9999 11.9225C19.9999 11.6745 19.9375 11.4308 19.8189 11.2158C19.7002 11.0009 19.5295 10.8223 19.3239 10.6978L13.3348 7.18087C13.1287 7.0632 12.8969 7.00338 12.662 7.00727C12.4271 7.01116 12.1972 7.07863 11.9948 7.20308C11.7924 7.32752 11.6244 7.50468 11.5073 7.7172C11.3902 7.92972 11.328 8.17033 11.3267 8.41548V10.304L6.0082 7.18088C5.80331 7.05997 5.57148 6.99762 5.3361 7.0001C5.10073 7.00259 4.87015 7.06983 4.66765 7.19504C4.46252 7.31826 4.29255 7.49628 4.17522 7.71078C4.0579 7.92528 3.99744 8.16852 4.00008 8.41549V15.438C3.99978 15.6851 4.06245 15.9278 4.18166 16.1413C4.30088 16.3547 4.47235 16.5313 4.6785 16.6528ZM11.3267 11.9124L5.35692 8.41549V15.438L11.3267 11.9128V11.9124ZM12.6836 15.438V8.41548L18.6537 11.9126L12.6836 15.438Z" fill="#060606"/>
</svg>
