<svg xmlns="http://www.w3.org/2000/svg" width="32" height="32" version="1.1" viewBox="-5.0 -10.0 110.0 110">
    <path
        d="m15.238 69.434h-10.238c-0.82812 0-1.5-0.67188-1.5-1.5v-43.469c0-0.82812 0.67188-1.5 1.5-1.5h6.3516c0.82813 0 1.5 0.67188 1.5 1.5s-0.67187 1.5-1.5 1.5h-4.8516v30.449h58.277v-30.449h-41.129c-0.82813 0-1.5-0.67188-1.5-1.5s0.67187-1.5 1.5-1.5h42.629c0.82812 0 1.5 0.67188 1.5 1.5v7.832h12.031c0.58203 0 1.0898 0.33203 1.3359 0.82031l8.3672 14.094 6.0195 2.2812c0.60156 0.22656 0.96875 0.79297 0.96875 1.4023l0.003906 17.039c0 0.82812-0.67188 1.5-1.5 1.5h-8.2148c-0.12891 2.0352-1.0078 3.8672-2.3633 5.2227l-0.09375 0.085938c-1.4648 1.418-3.457 2.293-5.6523 2.293-2.2383 0-4.2656-0.91016-5.7383-2.3828-1.3594-1.3516-2.2383-3.1836-2.3672-5.2188h-39.129c-0.12891 2.0312-1.0078 3.8633-2.3633 5.2188-1.4688 1.4766-3.5039 2.3828-5.7422 2.3828-2.2383 0-4.2695-0.91016-5.7383-2.3828-1.3594-1.3516-2.2383-3.1836-2.3672-5.2188zm63.441-2.8516c1.2852 0 2.3281 1.043 2.3281 2.3281s-1.043 2.3281-2.3281 2.3281c-1.2852 0-2.3281-1.043-2.3281-2.3281 0-1.2891 1.043-2.3281 2.3281-2.3281zm-55.336 0c1.2852 0 2.3281 1.043 2.3281 2.3281s-1.043 2.3281-2.3281 2.3281c-1.2891 0-2.3281-1.043-2.3281-2.3281 0-1.2891 1.043-2.3281 2.3281-2.3281zm-11.922-34.754c-0.82812 0-1.5-0.67188-1.5-1.5s0.67188-1.5 1.5-1.5h48.434c0.82812 0 1.5 0.67188 1.5 1.5s-0.67188 1.5-1.5 1.5zm0 21.723c-0.82812 0-1.5-0.67188-1.5-1.5s0.67188-1.5 1.5-1.5h48.434c0.82812 0 1.5 0.67188 1.5 1.5s-0.67188 1.5-1.5 1.5zm0-5.4336c-0.82812 0-1.5-0.67188-1.5-1.5 0-0.82813 0.67188-1.5 1.5-1.5h48.434c0.82812 0 1.5 0.67187 1.5 1.5 0 0.82812-0.67188 1.5-1.5 1.5zm0-5.4297c-0.82812 0-1.5-0.67188-1.5-1.5s0.67188-1.5 1.5-1.5h48.434c0.82812 0 1.5 0.67188 1.5 1.5s-0.67188 1.5-1.5 1.5zm0-5.4297c-0.82812 0-1.5-0.67187-1.5-1.5 0-0.82812 0.67188-1.5 1.5-1.5h48.434c0.82812 0 1.5 0.67188 1.5 1.5 0 0.82813-0.67188 1.5-1.5 1.5zm77.859 13.066h-17.359c-0.82812 0-1.5-0.67188-1.5-1.5v-13.531h-2.6484v31.137h3.168c0.39844-1.2461 1.0898-2.3594 1.9922-3.2617 1.4688-1.4688 3.5-2.3789 5.7422-2.3789 2.2344 0 4.2656 0.91016 5.7383 2.3789l0.007813 0.007812c0.89844 0.90234 1.5898 2.0156 1.9883 3.2539h7.0859v-14.508l-4.2188-1.5977zm-15.859-15.031v12.031h12.672l-7.1406-12.031zm-66.926 24.117v7.0195h9.1094c0.39844-1.2422 1.0898-2.3555 1.9922-3.2578l0.007813-0.007813c1.4688-1.4688 3.5-2.375 5.7344-2.375 2.2422 0 4.2734 0.91016 5.7422 2.3789l0.085938 0.09375c0.85938 0.88672 1.5195 1.9688 1.9062 3.1719h33.699v-7.0195h-58.277zm20.465 5.8789c-0.92578-0.92578-2.207-1.5-3.6211-1.5-1.418 0-2.6992 0.57031-3.6211 1.4922-0.92969 0.92578-1.5 2.2109-1.5 3.6289 0 1.4141 0.57422 2.6953 1.5 3.6211 0.92188 0.92969 2.2031 1.5 3.6211 1.5 1.4141 0 2.6953-0.57422 3.6211-1.5 0.92578-0.92188 1.5-2.207 1.5-3.6211 0-1.3828-0.54297-2.6367-1.4297-3.5547zm55.34-0.003906c-0.92188-0.92578-2.207-1.4961-3.625-1.4961-1.4141 0-2.6953 0.57422-3.6211 1.5-0.92578 0.92578-1.5 2.207-1.5 3.6211 0 1.4141 0.57422 2.6953 1.5 3.6211 0.92187 0.92969 2.2031 1.5 3.6211 1.5 1.3828 0 2.6406-0.54297 3.5547-1.4297l0.066406-0.070312c0.92578-0.92578 1.5-2.207 1.5-3.6211 0-1.418-0.57031-2.6992-1.4961-3.625zm-65.871-39.32c-0.82813 0-1.5-0.67188-1.5-1.5s0.67187-1.5 1.5-1.5h0.30859c0.82812 0 1.5 0.67188 1.5 1.5s-0.67188 1.5-1.5 1.5z" />
    <text x="0.0" y="117.5" font-size="5.0" font-weight="bold"
        font-family="Arbeit Regular, Helvetica, Arial-Unicode, Arial, Sans-serif" fill="#000000">Created
        by Danang Marhendra</text>
</svg>