<svg width="24" height="24" viewBox="0 0 24 24" fill="none" xmlns="http://www.w3.org/2000/svg">
<path d="M20 12C20 7.58172 16.4183 4 12 4" stroke-width="1.5" stroke-linecap="round"/>
<path d="M20 12C20 16.4183 16.4183 20 12 20C7.58172 20 4 16.4183 4 12C4 7.58172 7.58172 4 12 4" stroke-width="1.5" stroke-linecap="round" stroke-linejoin="round" stroke-dasharray="0.5 3"/>
<path d="M13.2 12C13.2 12.6627 12.6627 13.2 12 13.2C11.3372 13.2 10.8 12.6627 10.8 12C10.8 11.3373 11.3372 10.8 12 10.8C12.6627 10.8 13.2 11.3373 13.2 12Z" stroke-width="1.5"/>
<path d="M13.2 12H15.2M12 7.2V10.8" stroke-width="1.5" stroke-linecap="round" stroke-linejoin="round"/>
</svg>
