<svg width="24" height="24" viewBox="0 0 24 24" fill="none" xmlns="http://www.w3.org/2000/svg">
<path d="M14.3147 13.2511C14.0783 13.213 13.8359 13.2506 13.6222 13.3586C13.4085 13.4665 13.2344 13.6393 13.1248 13.8521C13.0152 14.065 12.9757 14.3071 13.012 14.5438C13.0483 14.7804 13.1585 14.9996 13.3268 15.1698C13.4952 15.3401 13.713 15.4527 13.9493 15.4917C14.1855 15.5307 14.428 15.4939 14.6421 15.3867C14.8562 15.2796 15.0309 15.1074 15.1413 14.8949C15.2517 14.6825 15.292 14.4405 15.2566 14.2037C15.2205 13.9657 15.1099 13.7453 14.9407 13.5741C14.7715 13.4029 14.5523 13.2899 14.3147 13.2511Z" fill="black"/>
<path d="M8.76034 13.3601C8.97373 13.2518 9.21591 13.2136 9.45228 13.2511C9.69036 13.2894 9.91013 13.4022 10.0799 13.5734C10.2497 13.7447 10.3607 13.9654 10.3969 14.2038C10.4324 14.4404 10.3922 14.6823 10.282 14.8948C10.1718 15.1072 9.99729 15.2794 9.78338 15.3867C9.56946 15.4941 9.3271 15.531 9.09091 15.4924C8.85473 15.4537 8.63681 15.3414 8.4683 15.1714C8.29978 15.0015 8.1893 14.7826 8.15263 14.5461C8.11597 14.3096 8.15499 14.0676 8.26414 13.8546C8.37328 13.6416 8.54695 13.4685 8.76034 13.3601Z" fill="black"/>
<path fill-rule="evenodd" clip-rule="evenodd" d="M10.9121 4H12.4953V4.00671H15.9972C16.7443 4.00742 17.4605 4.3045 17.9888 4.83275C18.517 5.361 18.8141 6.07726 18.8148 6.82431V15.0329C18.8141 15.78 18.517 16.4963 17.9888 17.0245C17.8834 17.1299 17.7705 17.2261 17.6514 17.3125L19.2456 19.0005C19.4703 19.2384 19.4596 19.6135 19.2217 19.8382C18.9838 20.0629 18.6087 20.0522 18.384 19.8143L16.5445 17.8667H15.6959L16.855 18.98C17.091 19.2068 17.0985 19.5819 16.8718 19.8179C16.6451 20.0539 16.2699 20.0615 16.0339 19.8348L13.9851 17.8667H9.61088L8.01079 19.7868C7.80128 20.0382 7.42761 20.0722 7.17618 19.8626C6.92476 19.6531 6.89079 19.2794 7.10031 19.028L8.06812 17.8667H6.97137L5.01162 19.8264C4.7802 20.0578 4.40499 20.0578 4.17357 19.8264C3.94215 19.595 3.94214 19.2198 4.17356 18.9884L5.81067 17.3512C5.67134 17.2551 5.54003 17.1459 5.41864 17.0245C4.89039 16.4963 4.59331 15.78 4.5926 15.0329V11.7596L4.59259 11.7565L4.5926 11.7534V6.82431C4.59331 6.07726 4.89039 5.361 5.41864 4.83275C5.94689 4.3045 6.66315 4.00742 7.41021 4.00671H10.9121V4ZM7.41021 16.5088C7.01899 16.5081 6.64401 16.3524 6.36738 16.0758C6.09075 15.7991 5.93503 15.4242 5.93432 15.0329V12.4273H17.4731V15.0329C17.4724 15.4242 17.3167 15.7991 17.04 16.0758C16.7634 16.3524 16.3884 16.5081 15.9972 16.5088H7.41021ZM11.1111 11.0856H5.93432V6.82431C5.93503 6.4331 6.09075 6.05811 6.36738 5.78148C6.64401 5.50486 7.01899 5.34913 7.41021 5.34842H11.1111V11.0856ZM12.2963 11.0856H17.4731V6.82431C17.4724 6.4331 17.3167 6.05811 17.04 5.78148C16.7634 5.50486 16.3884 5.34913 15.9972 5.34842H12.2963V11.0856Z" fill="black"/>
</svg>
