<svg xmlns="http://www.w3.org/2000/svg" width="32" height="32" version="1.1" viewBox="-5.0 -10.0 110.0 110.0">
    <path
        d="m68.68 30.863h-61.688v24.328h61.688zm-44.785 31.488c-0.71875-0.71875-1.7109-1.1641-2.8086-1.1641-1.0977 0-2.0898 0.44531-2.8086 1.1641s-1.1641 1.7109-1.1641 2.8086 0.44531 2.0898 1.1641 2.8086 1.7109 1.1641 2.8086 1.1641c1.0977 0 2.0898-0.44531 2.8086-1.1641s1.1641-1.7109 1.1641-2.8086-0.44531-2.0898-1.1641-2.8086zm12.801 0c-0.71875-0.71875-1.7109-1.1641-2.8086-1.1641-1.0977 0-2.0898 0.44531-2.8086 1.1641s-1.1641 1.7109-1.1641 2.8086 0.44531 2.0898 1.1641 2.8086 1.7109 1.1641 2.8086 1.1641c1.0977 0 2.0898-0.44531 2.8086-1.1641s1.1641-1.7109 1.1641-2.8086-0.44531-2.0898-1.1641-2.8086zm-2.8086-3.2266c-1.668 0-3.1758 0.67578-4.2695 1.7695-0.20313 0.20312-0.39063 0.42188-0.56641 0.65234h-3.1367c-0.17187-0.23047-0.36328-0.44922-0.56641-0.65234-1.0938-1.0938-2.6016-1.7695-4.2695-1.7695s-3.1758 0.67578-4.2695 1.7695c-0.20312 0.20312-0.39062 0.42188-0.56641 0.65234h-1.6602v-4.2891h29.535l-3.1406 4.2891h-2.2656c-0.17188-0.23047-0.36328-0.44922-0.56641-0.65234-1.0938-1.0938-2.6016-1.7695-4.2695-1.7695zm26.363 3.2266c-0.71875-0.71875-1.7109-1.1641-2.8086-1.1641s-2.0898 0.44531-2.8086 1.1641-1.1641 1.7109-1.1641 2.8086 0.44531 2.0898 1.1641 2.8086 1.7109 1.1641 2.8086 1.1641 2.0898-0.44531 2.8086-1.1641 1.1641-1.7109 1.1641-2.8086-0.44531-2.0898-1.1641-2.8086zm23.375 0c-0.71875-0.71875-1.7109-1.1641-2.8086-1.1641s-2.0898 0.44531-2.8086 1.1641-1.1641 1.7109-1.1641 2.8086 0.44531 2.0898 1.1641 2.8086 1.7109 1.1641 2.8086 1.1641 2.0898-0.44531 2.8086-1.1641 1.1641-1.7109 1.1641-2.8086-0.44531-2.0898-1.1641-2.8086zm-1.2344-16.172h-3.0547v2.7539h5.0117l-1.9531-2.7539zm-4.0898-2.0625h4.6172c0.375 0 0.70312 0.19922 0.88672 0.5l3.375 4.7539c0.32812 0.46484 0.22266 1.1055-0.24219 1.4336-0.17969 0.12891-0.39062 0.19141-0.59766 0.19141v0.003906h-8.0391c-0.57031 0-1.0312-0.46094-1.0312-1.0312v-4.8164c0-0.57031 0.46094-1.0312 1.0312-1.0312zm-7.0469 18.672v-2.4648h-5.2031v2.4648zm0-5.5312v1.0039h-6.2344c-0.57031 0-1.0312 0.46094-1.0312 1.0312v3.4961h-0.99609c-0.30469-0.71484-0.74219-1.3555-1.2812-1.8945-1.0938-1.0938-2.6016-1.7695-4.2695-1.7695-1.668 0-3.1758 0.67578-4.2695 1.7695-0.53906 0.53906-0.97656 1.1836-1.2812 1.8945h-1.4805l1.2148-5.5312h19.637zm2.0625-14.746h10.508c0.94531 1.1133 1.7656 2.1367 2.5938 3.2891 0.87109 1.2188 1.7656 2.6055 2.8438 4.4453v12.543h-2.8945c-0.30469-0.71484-0.74219-1.3555-1.2812-1.8945-1.0938-1.0938-2.6016-1.7695-4.2695-1.7695-1.668 0-3.1758 0.67578-4.2695 1.7695-0.53906 0.53906-0.97656 1.1836-1.2812 1.8945h-1.9414v-20.277zm0-7.9336v5.8672h9.9453v-0.61719c-1.3555-1.5859-2.8398-2.875-4.5625-3.7773-1.5586-0.81641-3.3242-1.3281-5.3828-1.4727zm-58.742 2.6328c-0.57031 0-1.0312-0.46094-1.0312-1.0312 0-0.57031 0.46094-1.0312 1.0312-1.0312h40.242c0.57031 0 1.0312 0.46094 1.0312 1.0312 0 0.57031-0.46094 1.0312-1.0312 1.0312zm7.625 8.6914c-0.57031 0-1.0312-0.46094-1.0312-1.0312 0-0.57031 0.46094-1.0312 1.0312-1.0312h40.242c0.57031 0 1.0312 0.46094 1.0312 1.0312 0 0.57031-0.46094 1.0312-1.0312 1.0312l-40.238-0.003906zm69.125 16.285 1.6797-0.80859v-3.6211h-1.6797zm0-6.4922h2.7148c0.57031 0 1.0312 0.46094 1.0312 1.0312v5.3008c0 0.44531-0.28125 0.82422-0.67578 0.96875l-3.5742 1.7148c-0.15625 0.09375-0.33594 0.14844-0.53125 0.14844h-3.4492c0.003906 0.10156 0.007812 0.20312 0.007812 0.30859 0 1.668-0.67578 3.1758-1.7695 4.2695s-2.6016 1.7695-4.2695 1.7695c-1.668 0-3.1758-0.67578-4.2695-1.7695s-1.7695-2.6016-1.7695-4.2695c0-0.10547 0.003907-0.20703 0.007813-0.30859h-11.316c0.003906 0.10156 0.007812 0.20312 0.007812 0.30859 0 1.668-0.67578 3.1758-1.7695 4.2695s-2.6016 1.7695-4.2695 1.7695c-1.668 0-3.1758-0.67578-4.2695-1.7695s-1.7695-2.6016-1.7695-4.2695c0-0.10547 0.003906-0.20703 0.007813-0.30859h-2.2852c-0.57031 0-1.0312-0.46094-1.0312-1.0312 0-0.09375 0.011719-0.18359 0.035157-0.26953l1.3789-6.293h-2.832l-4.3398 5.9297c-0.20312 0.27344-0.51562 0.42188-0.83203 0.42188v0.003906h-1.7852c0.13281 0.49609 0.20312 1.0156 0.20312 1.5508 0 1.668-0.67578 3.1758-1.7695 4.2695s-2.6016 1.7695-4.2695 1.7695c-1.668 0-3.1758-0.67578-4.2695-1.7695s-1.7695-2.6016-1.7695-4.2695c0-0.53516 0.070313-1.0586 0.20312-1.5508h-1.1328c0.13281 0.49609 0.20312 1.0156 0.20312 1.5508 0 1.668-0.67578 3.1758-1.7695 4.2695s-2.6016 1.7695-4.2695 1.7695c-1.668 0-3.1758-0.67578-4.2695-1.7695s-1.7695-2.6016-1.7695-4.2695c0-0.53516 0.070312-1.0586 0.20312-1.5508h-1.6914c-0.57031 0-1.0312-0.46094-1.0312-1.0312v-5.3203h-6.5625c-0.57031 0-1.0312-0.46094-1.0312-1.0312v-26.395c0-0.57031 0.46094-1.0312 1.0312-1.0312h63.75c0.57031 0 1.0312 0.46094 1.0312 1.0312v25.359h0.51563v-21.684c0-0.57031 0.46094-1.0312 1.0312-1.0312 0.035156 0 0.070312 0.003907 0.10547 0.003907 2.8242 0.039062 5.1992 0.65625 7.2695 1.7461 2.0859 1.0938 3.8438 2.6562 5.4297 4.5703 0.16016 0.19141 0.23828 0.42578 0.23828 0.65625v1.6484c1.0078 1.1836 1.8789 2.2656 2.7656 3.5039 0.96094 1.3438 1.9219 2.8398 3.0742 4.8125 0.10156 0.16016 0.15625 0.34766 0.15625 0.54687v5.7266z"
        fill-rule="evenodd" />
</svg>