<svg xmlns="http://www.w3.org/2000/svg" width="32" height="32" version="1.1" viewBox="-5.0 -10.0 110.0 110">
    <g>
        <path
            d="m60.863 66.598-24.516 0.050782c-0.0625 0.003906-0.054687-0.015626-0.0625 0.050781-0.875 10.043-14.824 9.7227-15.98 0.63672-0.011719-0.085938-0.035157-0.58203-0.066407-0.61719-0.097656-0.10938-3.6484-0.22656-4.2266-0.37891-2.8906-0.77344-3.3125-3.707-3.8477-6.2344-0.61328-2.8945-1.1914-5.6875-1.2773-8.6523v-19.652c0-4.043 0.28906-4.6836 4.1172-5.1992l10.797-0.76562 13.078-0.17578 14.418 0.25 5.4883 0.33594c3.5469 0.33984 3.8789 0.73047 3.8672 3.9414l0.003906 3.9102c2.6211 0.24609 5.2148 0.70703 7.8008 1.1875 2.5234 0.47266 5.207 0.85547 7.2539 2.5586 2.9141 2.4336 4.6875 6.2617 6.2852 9.6055l2.5625 4.8359c1.668 2.6328 1.5273 3.6758 1.8633 6.7266l0.39844 3.3555c0.35156 4.2734-1.9219 4.2344-5.3594 4.2461-0.60547 0-1.207 0.089844-1.8125 0.13672-0.22266 1.6797-0.76563 3.2734-1.8242 4.6133-4.3398 5.4922-13.379 2.8438-14.219-4.6562-0.59375-0.14453-1.2969-0.089843-1.9023-0.089843zm-27.336-38.887h-5.4766c-0.53125 0.019531-1.0664 0.10937-1.6016 0.13281l-4.2227 0.14844-7.9922 0.75c-0.39062 0.070312-0.95703 0.16016-1.2578 0.42578-0.18359 0.16016-0.12109 2.9531-0.12109 3.3477l0.007812 17.785 0.86719 7.7344 26.43 0.011719 20.426-0.035156 0.03125-28.383c0.003906-0.35938 0.046874-0.72656-0.007813-1.0859-0.80469-0.17188-1.6016-0.22656-2.418-0.30859l-7.3594-0.44531c-0.27734-0.019531-0.55078-0.074218-0.83203-0.078124zm29.168 8.3594-0.042968 21.348c0 1 0.41406 2.5625-0.99609 2.6562-0.84766 0.058593-1.7188 0.019531-2.5664 0.019531l-25.684 0.019531c1.2891 1.1719 2.5117 2.707 2.7461 4.4883l24.16 0.011719c0.72656 0 5.1914 0.15234 5.4531-0.0625l0.054687-0.33203c0.42578-1.9883 1.7461-3.7109 3.4297-4.8125 4.2773-2.8008 10.824-0.47656 12.027 4.4531 0.29688 1.207 0.042968 0.75781 1.4609 0.75391l1.8789 0.003907c0.87891 0.007812 1.9844 0.17187 2.1328-0.98438 0.125-0.96875-0.089844-2.0234-0.21484-2.9844l-0.43359-3.5742c-0.60547 0.10156-1.6992 0.28125-2.2188-0.085938-0.47266-0.33594-0.60547-1.1641-0.23047-1.6094 0.33594-0.40625 0.89062-0.40625 1.375-0.42969l0.64844-0.007813c-0.64062-1.5312-1.6875-2.9297-2.4609-4.4062-1.3945-2.6641-2.5352-5.418-4.1797-7.9531-2.293-3.5391-3.7422-4.2148-7.6484-5.0391l-7.5078-1.3203c-0.39062-0.066406-0.78516-0.14844-1.1836-0.15234zm-48.469 24.035c0.28906 1.3555 0.58984 3.2695 1.8359 4.0938 0.64453 0.42578 1.6758 0.30469 2.418 0.3125l1.9609 0.042969c0.14062-0.67969 0.35938-1.3086 0.65234-1.9336 0.35156-0.67969 0.71094-1.2812 1.2383-1.8398 0.19922-0.21094 0.49609-0.39844 0.66016-0.625-1.1797-0.12891-2.4023-0.066406-3.5898-0.066406zm13.465 0.11719c-7.9453 1.0625-6.6055 12.652 1.0195 11.957l0.25781-0.023438c7.9336-1.1445 6.3125-12.602-1.2773-11.934zm45.359 0.050782c-1.5859 0.15234-2.9766 0.73828-4.0078 1.9883-3.5391 4.2695 0.15234 10.508 4.9883 9.9375l0.054688-0.007813c8.3125-0.98828 6.332-12.781-1.0352-11.918z" />
        <path
            d="m79.234 51.762c-0.74609 0-1.4961-0.15625-2.2266-0.29688l-7.6328-1.3984c-1.5703-0.26562-3.8945-0.26562-4.1953-2.3047-0.16797-1.1562-0.085938-2.3945-0.085938-3.5664l0.035156-3.0156c0.070313-1.2422 0.16797-2.1602 1.6094-2.3438 1.8125-0.082032 3.8438 0.30469 5.6016 0.71094 4.1055 0.94922 4.457 2.4727 6.3516 5.9805 0.78516 1.457 3.8555 5.75 0.54297 6.2344zm-12.07-10.957 0.007813 6.25c0.003906 0.17187-0.015625 0.41797 0.050781 0.57031l11.422 2.0625c-0.40234-0.83203-0.9375-1.6133-1.3867-2.4258l-1.375-2.6211c-0.67578-1.2617-1.1953-2.1406-2.5898-2.625-1.8828-0.65625-4.1289-1.1641-6.1289-1.2109z" />
        <path
            d="m66.766 54.012h-0.10547c-1.9883-0.039063-2.2031-2.0195-0.023437-2.2344 2.1289 0.082031 2.1211 2.0078 0.12891 2.2344z" />
        <path
            d="m28.672 69.594c-4.3828 0.44922-5.2695-6.0781-0.75-6.7344 4.4492-0.41797 5.0859 6.0977 0.75 6.7344zm-0.60156-4.6914c-2.0195 0.49219-1.1211 2.9062 0.41797 2.625 1.5898-0.52344 1.4609-2.6289-0.41797-2.625z" />
        <path
            d="m74.18 69.57c-4.7617 0.46875-5.3125-6.0195-1.125-6.7148 4.5781-0.45312 5.2539 6.0312 1.125 6.7148zm-0.97656-4.6719c-1.7305 0.66406-1.043 2.9375 0.71875 2.6133 1.5469-0.76953 1.2109-2.8203-0.71875-2.6133z" />
    </g>
</svg>