<svg width="24" height="24" viewBox="0 0 24 24" fill="none" xmlns="http://www.w3.org/2000/svg">
<path d="M18.0054 20H16.1885C14.1518 20 12.9586 18.6902 12.0149 16.5939C11.1634 18.6441 10.1518 20 8.08811 20H5.99456C5.81475 20 5.6423 19.9286 5.51516 19.8014C5.38802 19.6743 5.31659 19.5018 5.31659 19.322V12.5207C5.31659 12.3409 5.38802 12.1684 5.51516 12.0413C5.6423 11.9141 5.81475 11.8427 5.99456 11.8427C8.33761 11.8427 10.0976 10.4597 11.383 7.61763C11.4368 7.49872 11.5237 7.39786 11.6334 7.32715C11.7431 7.25643 11.8708 7.21888 12.0013 7.21898C12.1317 7.21954 12.2592 7.25737 12.3687 7.328C12.4783 7.39864 12.5653 7.49913 12.6196 7.61763C13.9024 10.4597 15.6651 11.8427 18.0054 11.8427C18.1852 11.8427 18.3577 11.9141 18.4848 12.0413C18.6119 12.1684 18.6834 12.3409 18.6834 12.5207V19.322C18.6834 19.5018 18.6119 19.6743 18.4848 19.8014C18.3577 19.9286 18.1852 20 18.0054 20ZM12.0013 14.0339C12.14 14.0336 12.2755 14.0757 12.3894 14.1548C12.5034 14.2338 12.5904 14.3459 12.6386 14.4759C13.7017 17.5132 14.6617 18.6441 16.1885 18.6441H17.3274V13.1661C15.1254 12.9492 13.3383 11.6854 12.0013 9.38305C10.6617 11.6854 8.87727 12.9492 6.67252 13.1661V18.6441H8.08811C9.51456 18.6441 10.2196 17.7492 11.3613 14.4759C11.4094 14.3453 11.4967 14.2326 11.6113 14.1535C11.7259 14.0744 11.8621 14.0326 12.0013 14.0339Z" fill="black"/>
<path d="M12.0013 8.57492C11.8215 8.57492 11.6491 8.50349 11.5219 8.37634C11.3948 8.2492 11.3233 8.07676 11.3233 7.89695V4.67797C11.3233 4.49816 11.3948 4.32571 11.5219 4.19857C11.6491 4.07143 11.8215 4 12.0013 4C12.1811 4 12.3536 4.07143 12.4807 4.19857C12.6078 4.32571 12.6793 4.49816 12.6793 4.67797V7.89695C12.6793 7.98598 12.6617 8.07414 12.6277 8.1564C12.5936 8.23865 12.5437 8.31339 12.4807 8.37634C12.4177 8.4393 12.343 8.48924 12.2608 8.52331C12.1785 8.55738 12.0903 8.57492 12.0013 8.57492Z" fill="black"/>
<path d="M15.6379 7.50915H12.0013C11.8215 7.50915 11.6491 7.43772 11.5219 7.31058C11.3948 7.18344 11.3233 7.01099 11.3233 6.83119C11.3233 6.65138 11.3948 6.47894 11.5219 6.35179C11.6491 6.22465 11.8215 6.15322 12.0013 6.15322H14.2657C14.1811 6.03753 14.1355 5.89791 14.1355 5.75458C14.1355 5.61124 14.1811 5.47162 14.2657 5.35593H12.0013C11.8215 5.35593 11.6491 5.2845 11.5219 5.15736C11.3948 5.03022 11.3233 4.85777 11.3233 4.67797C11.3233 4.49816 11.3948 4.32571 11.5219 4.19857C11.6491 4.07143 11.8215 4 12.0013 4H15.6379C15.7638 4 15.8872 4.03506 15.9943 4.10125C16.1014 4.16745 16.188 4.26216 16.2443 4.37477C16.3006 4.48738 16.3245 4.61345 16.3131 4.73885C16.3018 4.86425 16.2558 4.98402 16.1803 5.08475L15.6623 5.75458L16.164 6.41627C16.2396 6.517 16.2856 6.63677 16.2969 6.76217C16.3082 6.88756 16.2843 7.01363 16.228 7.12625C16.1717 7.23886 16.0852 7.33357 15.9781 7.39976C15.871 7.46596 15.7476 7.50102 15.6216 7.50102L15.6379 7.50915Z" fill="black"/>
</svg>
