<svg viewBox="0 0 32 32" xmlns="http://www.w3.org/2000/svg">
<path d="M7.48965 19.6552C8.55172 19.6552 9.42413 18.7828 9.42413 17.7207C9.42413 16.6586 8.55172 15.7862 7.48965 15.7862C6.42758 15.7862 5.55516 16.6586 5.55516 17.7207C5.55516 18.7828 6.42758 19.6552 7.48965 19.6552ZM7.48965 16.5448C8.13448 16.5448 8.66551 17.0759 8.66551 17.7207C8.66551 18.3655 8.13448 18.8966 7.48965 18.8966C6.84482 18.8966 6.31379 18.3655 6.31379 17.7207C6.31379 17.0759 6.84482 16.5448 7.48965 16.5448Z"/>
<path d="M8.28621 19.9207H6.6931C5.21379 19.9207 4 21.1345 4 22.6138V24.8138H10.9793V22.6138C10.9793 21.1345 9.76552 19.9207 8.28621 19.9207ZM10.2207 24.0552H4.75862V22.6138C4.75862 22.0828 4.98621 21.5897 5.32759 21.2483C5.66897 20.9069 6.16207 20.6793 6.6931 20.6793H8.28621C8.81724 20.6793 9.31035 20.9069 9.65173 21.2483C9.99311 21.5897 10.2207 22.0828 10.2207 22.6138V24.0552Z"/>
<path d="M20.5759 17.7207C20.5759 18.7828 21.4483 19.6552 22.5104 19.6552C23.5724 19.6552 24.4448 18.7828 24.4448 17.7207C24.4448 16.6586 23.5724 15.7862 22.5104 15.7862C21.4483 15.7862 20.5759 16.6586 20.5759 17.7207ZM22.5104 16.5448C23.1552 16.5448 23.6862 17.0759 23.6862 17.7207C23.6862 18.3655 23.1552 18.8966 22.5104 18.8966C21.8655 18.8966 21.3345 18.3655 21.3345 17.7207C21.3345 17.0759 21.8655 16.5448 22.5104 16.5448Z"/>
<path d="M23.3069 19.9207H21.7138C20.2345 19.9207 19.0207 21.1345 19.0207 22.6138V24.8138H26V22.6138C26 21.1345 24.7862 19.9207 23.3069 19.9207ZM25.2414 24.0552H19.7793V22.6138C19.7793 22.0828 20.0069 21.5897 20.3483 21.2483C20.6897 20.9069 21.1828 20.6793 21.7138 20.6793H23.3069C23.8379 20.6793 24.331 20.9069 24.6724 21.2483C25.0138 21.5897 25.2414 22.0828 25.2414 22.6138V24.0552Z"/>
<path d="M13.0655 17.7207C13.0655 18.7828 13.9379 19.6552 15 19.6552C16.0621 19.6552 16.9345 18.7828 16.9345 17.7207C16.9345 16.6586 16.0621 15.7862 15 15.7862C13.9379 15.7862 13.0655 16.6586 13.0655 17.7207ZM15 16.5448C15.6448 16.5448 16.1759 17.0759 16.1759 17.7207C16.1759 18.3655 15.6448 18.8966 15 18.8966C14.3552 18.8966 13.8242 18.3655 13.8242 17.7207C13.8242 17.0759 14.3552 16.5448 15 16.5448Z"/>
<path d="M15.7966 19.9207H14.2034C12.7241 19.9207 11.5103 21.1345 11.5103 22.6138V24.8138H18.4897V22.6138C18.4897 21.1345 17.2759 19.9207 15.7966 19.9207ZM17.731 24.0552H12.269V22.6138C12.269 22.0828 12.4966 21.5897 12.8379 21.2483C13.1793 20.9069 13.6724 20.6793 14.2034 20.6793H15.7966C16.3276 20.6793 16.8207 20.9069 17.1621 21.2483C17.5034 21.5897 17.731 22.0828 17.731 22.6138V24.0552Z"/>
<path d="M11.2448 9.86897C12.3069 9.86897 13.1793 8.99655 13.1793 7.93448C13.1793 6.87241 12.3069 6 11.2448 6C10.1828 6 9.31035 6.87241 9.31035 7.93448C9.31035 8.99655 10.1828 9.86897 11.2448 9.86897ZM11.2448 6.75862C11.8897 6.75862 12.4207 7.28966 12.4207 7.93448C12.4207 8.57931 11.8897 9.11035 11.2448 9.11035C10.6 9.11035 10.069 8.57931 10.069 7.93448C10.069 7.25173 10.6 6.75862 11.2448 6.75862Z"/>
<path d="M14.7345 12.8276C14.7345 11.3483 13.5207 10.1345 12.0414 10.1345H10.4483C8.96898 10.1345 7.75518 11.3483 7.75518 12.8276V15.0276H14.7345V12.8276ZM13.9759 14.269H8.5138V12.8276C8.5138 12.2966 8.74139 11.8035 9.08277 11.4621C9.42415 11.1207 9.91725 10.8931 10.4483 10.8931H12.0414C12.5724 10.8931 13.0655 11.1207 13.4069 11.4621C13.7483 11.8035 13.9759 12.2966 13.9759 12.8276V14.269Z"/>
<path d="M18.7552 9.86897C19.8172 9.86897 20.6897 8.99655 20.6897 7.93448C20.6897 6.87241 19.8172 6 18.7552 6C17.6931 6 16.8207 6.87241 16.8207 7.93448C16.8207 8.99655 17.6931 9.86897 18.7552 9.86897ZM18.7552 6.75862C19.4 6.75862 19.931 7.28966 19.931 7.93448C19.931 8.57931 19.4 9.11035 18.7552 9.11035C18.1103 9.11035 17.5793 8.57931 17.5793 7.93448C17.5793 7.25173 18.1103 6.75862 18.7552 6.75862Z"/>
<path d="M22.2448 12.8276C22.2448 11.3483 21.031 10.1345 19.5517 10.1345H17.9586C16.4793 10.1345 15.2655 11.3483 15.2655 12.8276V15.0276H22.2448V12.8276ZM21.4862 14.269H16.0241V12.8276C16.0241 12.2966 16.2517 11.8035 16.5931 11.4621C16.9345 11.1207 17.4276 10.8931 17.9586 10.8931H19.5517C20.0828 10.8931 20.5759 11.1207 20.9173 11.4621C21.2586 11.8035 21.4862 12.2966 21.4862 12.8276V14.269Z"/>
</svg>
