<svg width="32" height="32" viewBox="0 0 32 32" xmlns="http://www.w3.org/2000/svg">
<path fill-rule="evenodd" clip-rule="evenodd" d="M27.1174 8.37806L27.9323 10.4272C27.9688 10.5191 27.9674 10.6219 27.9282 10.7129C27.8891 10.8038 27.8153 10.8754 27.7234 10.912L23.6749 12.522C23.1351 13.5936 22.378 14.5376 21.4611 15.295C21.7102 15.5631 21.9536 15.85 22.1879 16.1523C22.1889 16.1537 22.1899 16.1551 22.1908 16.1565C22.1917 16.1579 22.1927 16.1593 22.1937 16.1607C22.1956 16.1632 22.1977 16.1656 22.1996 16.1683C23.3747 17.6897 24.3598 19.6261 25.1277 21.9239C25.193 22.1194 25.0875 22.3309 24.892 22.3962C24.8527 22.4093 24.8128 22.4156 24.7736 22.4156C24.6175 22.4156 24.4719 22.3168 24.4196 22.1605C23.7245 20.0802 22.8496 18.3129 21.8165 16.901C20.1082 18.114 18.105 18.7532 15.9994 18.7532C15.1389 18.7532 14.2828 18.6436 13.455 18.4275C13.2556 18.3753 13.1361 18.1714 13.1882 17.9719C13.2403 17.7725 13.4441 17.6531 13.6437 17.7051C14.41 17.9051 15.2026 18.0066 15.9994 18.0066C17.9378 18.0066 19.7823 17.4216 21.358 16.3108C21.1967 16.1155 21.0322 15.9276 20.8649 15.7499C19.5537 16.6542 18.0413 17.1669 16.4498 17.2483C16.3748 17.2483 16.2998 17.2513 16.2248 17.2542C16.1497 17.2572 16.0746 17.2601 15.9995 17.2601C15.8585 17.2601 15.7175 17.2565 15.5767 17.2496L15.5491 17.2483C13.9575 17.1669 12.4452 16.6542 11.1341 15.7499C10.967 15.9274 10.8027 16.115 10.6417 16.31C11.1556 16.6715 11.7046 16.9815 12.2792 17.2324C12.4681 17.3148 12.5544 17.5349 12.4719 17.7238C12.3895 17.9127 12.1694 17.9991 11.9805 17.9166C11.3491 17.6409 10.7458 17.3001 10.1826 16.9009C7.63179 20.3913 6.76446 25.1393 6.67559 25.6595C6.70488 25.7388 6.97718 26.2251 9.21481 26.6815C11.0231 27.0503 13.4327 27.2534 15.9994 27.2534C18.5662 27.2534 20.9757 27.0503 22.7841 26.6815C25.0228 26.2249 25.2943 25.7383 25.3234 25.6594C25.29 25.4626 25.1461 24.6592 24.8444 23.5587C24.7899 23.3599 24.9068 23.1545 25.1057 23.1C25.3044 23.0455 25.5098 23.1624 25.5643 23.3613C25.9234 24.6712 26.0629 25.5539 26.0686 25.5908C26.0716 25.6099 26.0731 25.6291 26.0731 25.6484C26.0731 26.4049 25.046 26.9821 22.9332 27.413C21.0772 27.7915 18.6148 28 15.9994 28C13.384 28 10.9216 27.7915 9.06551 27.4131C6.95271 26.9821 5.92563 26.4049 5.92563 25.6484C5.92563 25.6292 5.92709 25.61 5.93009 25.5909C5.96534 25.365 6.82638 20.0174 9.79929 16.1682C9.80028 16.1667 9.80138 16.1654 9.80247 16.164C9.80338 16.1629 9.8043 16.1617 9.80515 16.1606C9.80712 16.1579 9.80881 16.155 9.81091 16.1523C10.0451 15.8501 10.2886 15.5632 10.5377 15.295C9.62079 14.5375 8.86366 13.5935 8.32395 12.522L4.27549 10.912C4.08396 10.8358 3.99035 10.6187 4.06657 10.4272L4.88145 8.37801L5.4237 7.01503C5.85209 5.93756 6.87823 5.24142 8.03777 5.24142C8.21056 5.24142 8.38291 5.25792 8.55279 5.2897C9.30082 4.50825 10.3529 4.02014 11.5175 4.02014C11.5791 4.02014 11.649 4.0156 11.7225 4.01084C11.9274 3.99755 12.1599 3.98247 12.3159 4.05885C12.401 4.10051 12.4606 4.17925 12.5184 4.25567C12.5384 4.28217 12.5583 4.3084 12.5789 4.3327C12.5811 4.33525 12.5832 4.33785 12.5853 4.34045C12.5874 4.343 12.5894 4.34554 12.5916 4.34803C13.3301 5.20668 14.604 5.73525 15.9787 5.7404L15.9995 5.74068L16.0197 5.74045C17.3951 5.7352 18.669 5.20668 19.4076 4.34803L19.4139 4.34043C19.4355 4.31494 19.4562 4.28733 19.4772 4.25944C19.5343 4.18324 19.593 4.10497 19.6767 4.06204C19.8327 3.98214 20.0706 3.99755 20.2783 4.011C20.3515 4.01574 20.4209 4.02023 20.4816 4.02023C21.6465 4.02023 22.6987 4.50857 23.4469 5.29031C24.1441 5.16037 24.8722 5.29935 25.4771 5.68542C25.5739 5.7472 25.6369 5.85014 25.6478 5.96446C25.6587 6.07879 25.6164 6.19181 25.5331 6.27084L25.526 6.27754C25.3797 6.41629 25.1506 6.41339 25.0079 6.27337C24.6954 6.09028 24.3425 5.99348 23.9868 5.98875C24.522 6.86592 24.6142 7.92684 24.5836 8.93179C24.5834 8.93949 24.5832 8.9472 24.583 8.95492C24.5828 8.96477 24.5825 8.97464 24.5822 8.98453L25.7104 8.53584L26.2857 8.30704L25.8833 7.29501L25.8777 7.28179C25.8009 7.09045 25.8938 6.87309 26.0851 6.79631C26.2749 6.72014 26.4903 6.81089 26.5687 6.99914C26.571 7.00453 26.5731 7.0094 26.5751 7.01437L27.1174 8.37806ZM5.43724 9.00079L4.89823 10.3562L7.90615 11.5524C7.79641 11.2442 7.70534 10.9299 7.63179 10.6109L7.63048 10.6053C7.56963 10.3449 7.5222 10.081 7.48695 9.81595L6.28174 9.33665L5.43724 9.00079ZM7.41401 8.29921C7.43674 7.55976 7.55951 6.80409 7.9196 6.1485C7.94937 6.09435 7.98035 6.04087 8.01251 5.98823C7.17096 5.99817 6.42888 6.50728 6.11721 7.29098L5.7131 8.30709L6.8366 8.7539L7.41584 8.98426L7.41663 8.98457M7.41401 8.29921C7.41374 8.30796 7.41287 8.32703 7.41166 8.35345L7.41401 8.29921ZM7.41166 8.35345C7.40412 8.51802 7.38353 8.96774 7.41584 8.98426L7.41166 8.35345ZM17.542 6.2864C17.2096 6.375 16.8696 6.43392 16.5271 6.46382C16.5253 6.46399 16.5235 6.46419 16.5217 6.46438C16.519 6.46468 16.5163 6.46498 16.5135 6.46518C16.7617 7.00228 17.31 7.37132 17.9239 7.37132C18.7792 7.37132 19.475 6.67546 19.475 5.82014V5.3196C18.9166 5.7787 18.2463 6.09745 17.5501 6.2842L17.542 6.2864ZM12.9991 5.66219C12.849 5.57819 12.5238 5.39624 12.5238 5.31965C12.5238 5.3197 12.5238 5.82018 12.5237 5.82014C12.5237 6.67546 13.2196 7.37132 14.0749 7.37132C14.6887 7.37132 15.237 7.00228 15.4852 6.46518L15.4717 6.46378C15.1291 6.43448 14.7891 6.37467 14.4567 6.28636L14.4487 6.2842C13.9627 6.15506 13.4934 5.95917 13.0631 5.69854C13.0508 5.69111 13.0282 5.67849 12.9991 5.66219ZM23.1061 11.9855C23.6041 10.9217 23.7904 9.82087 23.8318 8.67135C23.8383 8.49093 23.8413 8.30934 23.8413 8.12653C23.8413 7.68267 23.7531 7.23984 23.5802 6.83085C23.058 5.59537 21.8251 4.76671 20.4816 4.76671H20.2217V5.82C20.2217 7.08698 19.1909 8.11776 17.9239 8.11776C17.1323 8.11776 16.4147 7.70268 15.9994 7.07001C15.5842 7.70278 14.8666 8.11776 14.075 8.11776C12.808 8.11776 11.7772 7.08698 11.7772 5.82V4.76653H11.5173C10.6371 4.76653 9.78101 5.12348 9.15827 5.74481C8.5309 6.37078 8.15759 7.23806 8.15759 8.12634C8.15759 8.77373 8.16593 9.41273 8.27932 10.0522L8.28213 10.0676C8.91841 13.5941 11.9204 16.3083 15.5798 16.5022L15.6173 16.504C15.7446 16.5102 15.872 16.5134 15.9994 16.5134C16.1269 16.5134 16.2543 16.5101 16.3816 16.504L16.419 16.5022C16.9627 16.4734 17.5032 16.388 18.0291 16.247C19.1358 15.9502 20.1716 15.4065 21.0474 14.6681C21.9164 13.9354 22.6241 13.015 23.1061 11.9855ZM24.367 10.6109C24.2935 10.9299 24.2024 11.2441 24.0926 11.5524L27.1006 10.3562L26.5616 9.00084L24.5119 9.816C24.5101 9.82938 24.5081 9.84268 24.506 9.85599C24.5046 9.8658 24.5031 9.87562 24.5017 9.88546L24.4996 9.89985C24.4946 9.93518 24.4896 9.97049 24.4841 10.0057C24.4775 10.0477 24.4704 10.0895 24.4632 10.1313L24.4616 10.1407C24.4576 10.1644 24.4536 10.188 24.4493 10.2115C24.4396 10.265 24.4292 10.3183 24.4186 10.3715C24.4158 10.3854 24.4131 10.3994 24.4102 10.4133C24.3971 10.4775 24.383 10.5415 24.3683 10.6053L24.367 10.6109ZM15.0254 9.20691C15.0254 8.66958 15.4625 8.23242 15.9999 8.23242C16.5372 8.23242 16.9744 8.66958 16.9744 9.20691C16.9744 9.74423 16.5372 10.1814 15.9999 10.1814C15.4625 10.1814 15.0254 9.74423 15.0254 9.20691ZM15.772 9.20691C15.772 9.33258 15.8742 9.43481 15.9999 9.43481C16.1255 9.43481 16.2278 9.33258 16.2278 9.20691C16.2278 9.08123 16.1255 8.979 15.9999 8.979C15.8742 8.979 15.772 9.08123 15.772 9.20691ZM15.0254 11.6154C15.0254 11.078 15.4625 10.6409 15.9999 10.6409C16.5372 10.6409 16.9744 11.078 16.9744 11.6154C16.9744 12.1527 16.5372 12.5898 15.9999 12.5898C15.4625 12.5898 15.0254 12.1527 15.0254 11.6154ZM15.772 11.6154C15.772 11.741 15.8742 11.8433 15.9999 11.8433C16.1255 11.8433 16.2278 11.741 16.2278 11.6154C16.2278 11.4897 16.1255 11.3874 15.9999 11.3874C15.8742 11.3874 15.772 11.4897 15.772 11.6154ZM15.9999 13.0493C15.4625 13.0493 15.0254 13.4865 15.0254 14.0238C15.0254 14.5611 15.4625 14.9983 15.9999 14.9983C16.5372 14.9983 16.9744 14.5611 16.9744 14.0238C16.9744 13.4865 16.5372 13.0493 15.9999 13.0493ZM15.9999 14.2517C15.8742 14.2517 15.772 14.1495 15.772 14.0238C15.772 13.8981 15.8742 13.7959 15.9999 13.7959C16.1255 13.7959 16.2278 13.8981 16.2278 14.0238C16.2278 14.1495 16.1255 14.2517 15.9999 14.2517Z" fill="#060606"/>
</svg>
