<svg width="32" height="32" viewBox="0 0 32 32" fill="none" xmlns="http://www.w3.org/2000/svg">
<path fill-rule="evenodd" clip-rule="evenodd" d="M21.1833 11.2151C22.4267 11.2151 23.6778 11.6496 24.6157 12.4072C25.4283 13.0635 26.3968 14.2832 26.3967 16.3668C26.3967 18.0976 26.1204 19.7487 25.5756 21.2744C25.0918 22.6297 24.4097 23.8558 23.5484 24.9186C22.0315 26.7905 20.018 28.0001 18.4188 28.0001C17.5535 28.0001 17.0638 27.8517 16.6702 27.7324L16.6702 27.7324L16.67 27.7323C16.4149 27.6551 16.2305 27.5992 16 27.5992C15.7695 27.5992 15.5853 27.655 15.3303 27.7323L15.3299 27.7324C14.9364 27.8516 14.4466 28.0001 13.5813 28.0001C11.9821 28.0001 9.96864 26.7905 8.45168 24.9185C7.59044 23.8557 6.90837 22.6296 6.42448 21.2744C5.87975 19.7487 5.60352 18.0975 5.60352 16.3668C5.60352 14.2832 6.57204 13.0636 7.38443 12.4072C8.32239 11.6496 9.57348 11.2151 10.8169 11.2151C12.3521 11.2151 13.1856 11.459 13.9208 11.6742L13.9209 11.6742C14.4572 11.8311 14.9319 11.9694 15.6243 12.0066V10.5829C15.6243 10.0409 15.4132 9.53128 15.03 9.14799L14.7814 8.89941C14.5006 9.07261 14.1729 9.1583 13.8323 9.1583C13.2494 9.1583 12.6294 8.90883 12.1447 8.42401C10.7472 7.02658 10.4291 4.52688 10.4162 4.42118C10.4023 4.30648 10.4419 4.19173 10.5235 4.11007C10.6053 4.02837 10.7199 3.98885 10.8346 4.00273C10.9404 4.01562 13.4401 4.33381 14.8375 5.73119C15.6056 6.49928 15.7828 7.6067 15.3131 8.36818L15.5614 8.61648C16.0196 9.07463 16.298 9.6645 16.3617 10.3007C16.3869 10.2735 16.4123 10.2463 16.4388 10.2198L16.6865 9.97214C16.4814 9.6428 16.3933 9.24305 16.4364 8.81387C16.4906 8.2741 16.7485 7.74878 17.1627 7.33454C18.5602 5.93716 21.0599 5.61897 21.1656 5.60608C21.2805 5.59225 21.395 5.63177 21.4767 5.71343C21.5584 5.79513 21.5979 5.90983 21.584 6.02453C21.5711 6.13028 21.2529 8.62998 19.8556 10.0274C19.3708 10.5121 18.7507 10.7616 18.1679 10.7616C17.8272 10.7616 17.4996 10.676 17.2188 10.5028L16.9702 10.7513C16.6297 11.0918 16.4255 11.5321 16.3841 12.0061C17.072 11.9682 17.5451 11.8304 18.0793 11.6741L18.0795 11.6741C18.8148 11.4589 19.6481 11.2151 21.1833 11.2151ZM20.7483 6.44228C19.9897 6.6017 18.5587 7.00154 17.6942 7.86601C17.2324 8.32777 17.0692 8.95097 17.2453 9.41339L18.9411 7.71765C19.0879 7.57089 19.3258 7.57089 19.4726 7.71765C19.6193 7.86437 19.6193 8.10231 19.4726 8.24907L17.7768 9.94481C18.2392 10.1209 18.8624 9.9577 19.3241 9.49594C20.1909 8.62913 20.5897 7.20011 20.7483 6.44228ZM13.0592 6.1143L14.755 7.81004C14.9311 7.34767 14.7678 6.72447 14.3061 6.2627C13.4392 5.39594 12.0102 4.99718 11.2524 4.83855C11.4117 5.59713 11.8116 7.02812 12.6761 7.89263C13.1379 8.3544 13.7611 8.51762 14.2236 8.34146L12.5278 6.64572C12.381 6.499 12.381 6.26106 12.5278 6.1143C12.6745 5.96753 12.9125 5.96753 13.0592 6.1143ZM18.419 27.2484C19.8005 27.2484 21.5848 26.1481 22.9646 24.4453C24.6932 22.3122 25.6452 19.4432 25.6452 16.3668C25.6452 14.9524 25.1259 13.7855 24.1435 12.9919C23.3487 12.3499 22.2421 11.9667 21.1833 11.9667C19.7558 11.9667 19.0108 12.1846 18.2904 12.3955C17.6352 12.5872 17.0162 12.7684 16.0002 12.7684C14.9841 12.7684 14.3652 12.5872 13.7099 12.3955L13.7097 12.3954C12.9893 12.1846 12.2444 11.9667 10.817 11.9667C9.75817 11.9667 8.65155 12.3499 7.85679 12.9919C6.87439 13.7854 6.35511 14.9524 6.35511 16.3668C6.35511 19.4432 7.30709 22.3122 9.03564 24.4453C10.4155 26.1481 12.1998 27.2484 13.5813 27.2484C14.3354 27.2484 14.7479 27.1234 15.1121 27.0131C15.3929 26.9279 15.6582 26.8475 16.0002 26.8475C16.3419 26.8475 16.6071 26.9279 16.8878 27.0129L16.8882 27.0131L16.8886 27.0132C17.2526 27.1234 17.6652 27.2484 18.419 27.2484ZM24.0345 16.7904C24.0409 16.5828 24.2137 16.4203 24.4216 16.4262C24.629 16.4326 24.7921 16.6058 24.7857 16.8133C24.7361 18.4409 24.4137 19.9697 23.8275 21.3573C23.7669 21.5007 23.6277 21.587 23.4812 21.587C23.4324 21.587 23.3829 21.5774 23.3351 21.5572C23.144 21.4764 23.0544 21.256 23.1352 21.0648C23.6851 19.763 23.9877 18.3248 24.0345 16.7904ZM24.5966 15.0788C24.4046 14.5085 24.072 14.0293 23.608 13.6545C23.4466 13.5241 23.21 13.5492 23.0795 13.7107C22.9492 13.8722 22.9743 14.1088 23.1357 14.2392C23.4868 14.5227 23.7386 14.8859 23.8843 15.3186C23.9372 15.4756 24.0835 15.5746 24.2404 15.5746C24.2802 15.5746 24.3206 15.5682 24.3604 15.5548C24.5572 15.4886 24.6629 15.2754 24.5966 15.0788ZM8.70991 20.6781C9.37473 22.4398 10.5092 23.9833 11.8225 24.9127C11.9919 25.0325 12.0321 25.2671 11.9122 25.4365C11.839 25.5399 11.7229 25.5952 11.6051 25.5952C11.5301 25.5952 11.4543 25.5728 11.3884 25.5261C10.5465 24.9304 8.98764 23.5427 8.00674 20.9434C7.93343 20.7493 8.03149 20.5324 8.22564 20.4592C8.41994 20.3858 8.63664 20.4839 8.70991 20.6781Z" fill="#060606"/>
</svg>
