<svg viewBox="0 0 32 32" xmlns="http://www.w3.org/2000/svg">
<path d="M25.9987 25.6209L25.0625 13.9606L25.0621 13.9577C25.0596 13.93 25.054 13.9033 25.0455 13.8778C25.0446 13.8751 25.0435 13.8723 25.0425 13.8696C25.0389 13.8596 25.0349 13.8498 25.0304 13.8402C25.0289 13.8371 25.0274 13.834 25.0259 13.8309C25.021 13.8213 25.0158 13.812 25.0101 13.8029C25.0087 13.8006 25.0074 13.7982 25.0059 13.7959C24.9986 13.7848 24.9907 13.7741 24.9822 13.7639C24.9809 13.7623 24.9794 13.7608 24.978 13.7592C24.9708 13.7509 24.9632 13.7429 24.9553 13.7353C24.9523 13.7324 24.9492 13.7297 24.9461 13.727C24.9389 13.7205 24.9315 13.7145 24.9238 13.7086C24.9208 13.7064 24.9178 13.704 24.9147 13.7019C24.9031 13.6937 24.8911 13.686 24.8785 13.6793L15.3509 8.47311V6.57447H19.0085C19.2025 6.57447 19.3596 6.41729 19.3596 6.2234V4.35106C19.3596 4.15718 19.2025 4 19.0085 4H14.9998C14.8059 4 14.6487 4.15718 14.6487 4.35106V8.47311L5.12077 13.6794C5.10836 13.6861 5.09657 13.6937 5.08514 13.7017C5.08187 13.704 5.07878 13.7064 5.0756 13.7088C5.06806 13.7145 5.0608 13.7205 5.05378 13.7268C5.05055 13.7296 5.04732 13.7325 5.04423 13.7354C5.03651 13.7428 5.02916 13.7506 5.02214 13.7587C5.0206 13.7605 5.01886 13.7621 5.01737 13.7639C5.00894 13.774 5.00112 13.7847 4.99387 13.7957C4.99228 13.7981 4.99092 13.8007 4.98937 13.8031C4.9838 13.812 4.97861 13.8212 4.97383 13.8306C4.97224 13.8338 4.9707 13.837 4.96915 13.8403C4.96475 13.8498 4.96077 13.8594 4.95722 13.8693C4.95619 13.8721 4.95506 13.875 4.95408 13.8778C4.94561 13.9032 4.93995 13.9299 4.93751 13.9575L4.93709 13.9605L4.00092 25.6208C3.99306 25.7184 4.02638 25.8149 4.09285 25.887C4.15932 25.959 4.25284 26 4.35086 26H25.6487C25.7468 26 25.8403 25.959 25.9067 25.8871C25.9732 25.815 26.0065 25.7185 25.9987 25.6209ZM15.3509 4.70213H18.6575V5.87234H15.3509V4.70213ZM20.0108 13.6376L16.6836 10.0015L23.3379 13.6376H20.0108ZM14.9998 10.4104C14.8059 10.4104 14.6487 10.5676 14.6487 10.7615V13.6376H10.9405L14.9998 9.20136L19.0591 13.6376H15.3509V10.7615C15.3509 10.5676 15.1937 10.4104 14.9998 10.4104ZM6.66161 13.6376L13.316 10.0015L9.9888 13.6376H6.66161ZM14.9998 17.5745C16.1548 17.5745 17.1147 18.4262 17.2843 19.5346H12.7153C12.8849 18.4262 13.8448 17.5745 14.9998 17.5745ZM12.6886 20.2367H17.311V25.2979H12.6886V20.2367ZM20.6615 25.2979L20.2633 15.3788C20.2556 15.1851 20.0937 15.0355 19.8984 15.0421C19.7047 15.0499 19.554 15.2133 19.5618 15.407L19.9588 25.2979H18.0131V19.8856C18.0131 18.3429 16.8475 17.068 15.3509 16.8935V15.3929C15.3509 15.199 15.1937 15.0418 14.9998 15.0418C14.8059 15.0418 14.6487 15.199 14.6487 15.3929V16.8935C13.1521 17.068 11.9865 18.3429 11.9865 19.8856V25.2979H10.0408L10.4378 15.407C10.4456 15.2133 10.2948 15.0499 10.1011 15.0421C9.90666 15.0353 9.74404 15.1851 9.73627 15.3788L9.33807 25.2979H4.73123L5.61104 14.3397H24.3886L25.2684 25.2979H20.6615Z" />
</svg>
