<?xml version="1.0" encoding="UTF-8"?>
<svg width="32" height="32" version="1.1" viewBox="0 0 700 500" xmlns="http://www.w3.org/2000/svg" xmlns:xlink="http://www.w3.org/1999/xlink">
 <defs>
  <symbol id="h" overflow="visible">
   <path d="m14.656-0.875c-0.76172 0.39844-1.5547 0.69531-2.375 0.89062-0.8125 0.19531-1.6641 0.29688-2.5469 0.29688-2.6562 0-4.7617-0.73828-6.3125-2.2188-1.5547-1.4883-2.3281-3.5039-2.3281-6.0469 0-2.5508 0.77344-4.5664 2.3281-6.0469 1.5508-1.4883 3.6562-2.2344 6.3125-2.2344 0.88281 0 1.7344 0.10156 2.5469 0.29688 0.82031 0.19922 1.6133 0.49609 2.375 0.89062v3.2969c-0.76172-0.51953-1.5117-0.89844-2.25-1.1406-0.74219-0.23828-1.5234-0.35938-2.3438-0.35938-1.4688 0-2.625 0.46875-3.4688 1.4062-0.83594 0.9375-1.25 2.2344-1.25 3.8906 0 1.6484 0.41406 2.9375 1.25 3.875 0.84375 0.9375 2 1.4062 3.4688 1.4062 0.82031 0 1.6016-0.11719 2.3438-0.35938 0.73828-0.23828 1.4883-0.61719 2.25-1.1406z"/>
  </symbol>
  <symbol id="c" overflow="visible">
   <path d="m10.719-8.7031c-0.33594-0.15625-0.66797-0.26953-1-0.34375-0.32422-0.082031-0.65625-0.125-1-0.125-0.98047 0-1.7344 0.32031-2.2656 0.95312-0.53125 0.625-0.79688 1.5273-0.79688 2.7031v5.5156h-3.8125v-11.969h3.8125v1.9688c0.48828-0.78125 1.0508-1.3477 1.6875-1.7031 0.64453-0.36328 1.4102-0.54688 2.2969-0.54688 0.13281 0 0.27344 0.007812 0.42188 0.015625 0.14453 0.011719 0.36328 0.03125 0.65625 0.0625z"/>
  </symbol>
  <symbol id="a" overflow="visible">
   <path d="m13.781-6.0156v1.0938h-8.9375c0.09375 0.89844 0.41406 1.5703 0.96875 2.0156 0.55078 0.44922 1.3281 0.67188 2.3281 0.67188 0.80078 0 1.625-0.11719 2.4688-0.35938 0.84375-0.23828 1.7109-0.59766 2.6094-1.0781v2.9531c-0.90625 0.33594-1.8125 0.58984-2.7188 0.76562s-1.8125 0.26562-2.7188 0.26562c-2.1562 0-3.8398-0.54688-5.0469-1.6406-1.1992-1.1016-1.7969-2.6484-1.7969-4.6406 0-1.9453 0.58594-3.4766 1.7656-4.5938 1.1758-1.125 2.8008-1.6875 4.875-1.6875 1.875 0 3.375 0.57031 4.5 1.7031 1.1328 1.125 1.7031 2.6367 1.7031 4.5312zm-3.9375-1.2656c0-0.72656-0.21484-1.3125-0.64062-1.75-0.41797-0.44531-0.96875-0.67188-1.6562-0.67188-0.74219 0-1.3438 0.21094-1.8125 0.625-0.46094 0.41797-0.74609 1.0156-0.85938 1.7969z"/>
  </symbol>
  <symbol id="m" overflow="visible">
   <path d="m7.2031-5.3906c-0.80469 0-1.4062 0.13672-1.8125 0.40625-0.39844 0.27344-0.59375 0.67188-0.59375 1.2031 0 0.48047 0.16016 0.85938 0.48438 1.1406 0.32031 0.27344 0.77344 0.40625 1.3594 0.40625 0.71875 0 1.3203-0.25391 1.8125-0.76562 0.48828-0.51953 0.73438-1.1719 0.73438-1.9531v-0.4375zm5.8438-1.4375v6.8281h-3.8594v-1.7656c-0.51172 0.71875-1.0898 1.2461-1.7344 1.5781-0.63672 0.33203-1.418 0.5-2.3438 0.5-1.2422 0-2.2461-0.35938-3.0156-1.0781-0.77344-0.72656-1.1562-1.6719-1.1562-2.8281 0-1.3945 0.47656-2.4219 1.4375-3.0781 0.96875-0.65625 2.4883-0.98438 4.5625-0.98438h2.25v-0.29688c0-0.60156-0.24219-1.0469-0.71875-1.3281-0.48047-0.28125-1.2266-0.42188-2.2344-0.42188-0.8125 0-1.5742 0.085937-2.2812 0.25-0.71094 0.15625-1.3672 0.40234-1.9688 0.73438v-2.9219c0.82031-0.19531 1.6445-0.34766 2.4688-0.45312 0.82031-0.10156 1.6484-0.15625 2.4844-0.15625 2.1562 0 3.7109 0.42969 4.6719 1.2812 0.95703 0.84375 1.4375 2.2266 1.4375 4.1406z"/>
  </symbol>
  <symbol id="b" overflow="visible">
   <path d="m6.0156-15.359v3.3906h3.9375v2.7344h-3.9375v5.0781c0 0.55469 0.10938 0.92969 0.32812 1.125 0.21875 0.19922 0.65625 0.29688 1.3125 0.29688h1.9688v2.7344h-3.2812c-1.5117 0-2.5859-0.3125-3.2188-0.9375-0.625-0.63281-0.9375-1.707-0.9375-3.2188v-5.0781h-1.9062v-2.7344h1.9062v-3.3906z"/>
  </symbol>
  <symbol id="l" overflow="visible">
   <path d="m9.9688-10.219v-6.4062h3.8594v16.625h-3.8594v-1.7344c-0.52344 0.71094-1.1016 1.2305-1.7344 1.5625-0.63672 0.32031-1.3711 0.48438-2.2031 0.48438-1.4688 0-2.6797-0.58203-3.625-1.75-0.94922-1.1758-1.4219-2.6875-1.4219-4.5312s0.47266-3.3477 1.4219-4.5156c0.94531-1.1758 2.1562-1.7656 3.625-1.7656 0.83203 0 1.5664 0.16797 2.2031 0.5 0.63281 0.32422 1.2109 0.83594 1.7344 1.5312zm-2.5156 7.75c0.82031 0 1.4453-0.29688 1.875-0.89062 0.42578-0.60156 0.64062-1.4727 0.64062-2.6094 0-1.1445-0.21484-2.0156-0.64062-2.6094-0.42969-0.59375-1.0547-0.89062-1.875-0.89062-0.8125 0-1.4336 0.29688-1.8594 0.89062-0.42969 0.59375-0.64062 1.4648-0.64062 2.6094 0 1.1367 0.21094 2.0078 0.64062 2.6094 0.42578 0.59375 1.0469 0.89062 1.8594 0.89062z"/>
  </symbol>
  <symbol id="k" overflow="visible">
   <path d="m8.2031-2.4688c0.82031 0 1.4453-0.29688 1.875-0.89062 0.42578-0.60156 0.64062-1.4727 0.64062-2.6094 0-1.1445-0.21484-2.0156-0.64062-2.6094-0.42969-0.59375-1.0547-0.89062-1.875-0.89062-0.82422 0-1.4531 0.30469-1.8906 0.90625-0.4375 0.59375-0.65625 1.4609-0.65625 2.5938 0 1.1367 0.21875 2.0078 0.65625 2.6094 0.4375 0.59375 1.0664 0.89062 1.8906 0.89062zm-2.5469-7.75c0.53125-0.69531 1.1133-1.207 1.75-1.5312 0.64453-0.33203 1.3828-0.5 2.2188-0.5 1.4688 0 2.6758 0.58984 3.625 1.7656 0.94531 1.168 1.4219 2.6719 1.4219 4.5156s-0.47656 3.3555-1.4219 4.5312c-0.94922 1.168-2.1562 1.75-3.625 1.75-0.83594 0-1.5742-0.16797-2.2188-0.5-0.63672-0.33203-1.2188-0.84766-1.75-1.5469v1.7344h-3.8125v-16.625h3.8125z"/>
  </symbol>
  <symbol id="j" overflow="visible">
   <path d="m0.26562-11.969h3.8281l3.2188 8.125 2.7344-8.125h3.8125l-5.0312 13.094c-0.5 1.332-1.0898 2.2656-1.7656 2.7969-0.66797 0.53125-1.5547 0.79688-2.6562 0.79688h-2.2188v-2.5h1.2031c0.64453 0 1.1133-0.10547 1.4062-0.3125 0.30078-0.21094 0.53125-0.57812 0.6875-1.1094l0.10938-0.34375z"/>
  </symbol>
  <symbol id="i" overflow="visible">
   <path d="m0.65625-15.953h3.9375l2.75 11.594 2.7344-11.594h3.9688l2.7344 11.594 2.75-11.594h3.9062l-3.75 15.953h-4.75l-2.8906-12.125-2.8594 12.125h-4.75z"/>
  </symbol>
  <symbol id="g" overflow="visible">
   <path d="m2.0156-15.953h11.094v3.1094h-6.9844v2.9688h6.5625v3.1094h-6.5625v3.6562h7.2188v3.1094h-11.328z"/>
  </symbol>
  <symbol id="z" overflow="visible">
   <path d="m8.3906-9.7656c0.65625 0 1.1484-0.14062 1.4844-0.42188 0.33203-0.28906 0.5-0.71094 0.5-1.2656 0-0.55078-0.16797-0.97266-0.5-1.2656-0.33594-0.28906-0.82812-0.4375-1.4844-0.4375h-2.2656v3.3906zm0.14062 6.9688c0.82031 0 1.4414-0.17188 1.8594-0.51562 0.41406-0.35156 0.625-0.88281 0.625-1.5938 0-0.6875-0.21094-1.2031-0.625-1.5469-0.40625-0.34375-1.0273-0.51562-1.8594-0.51562h-2.4062v4.1719zm3.8281-5.7344c0.88281 0.25 1.5664 0.72656 2.0469 1.4219 0.48828 0.6875 0.73438 1.5312 0.73438 2.5312 0 1.543-0.52344 2.6953-1.5625 3.4531-1.043 0.75-2.625 1.125-4.75 1.125h-6.8125v-15.953h6.1719c2.207 0 3.8047 0.33984 4.7969 1.0156 1 0.66797 1.5 1.7344 1.5 3.2031 0 0.78125-0.18359 1.4492-0.54688 2-0.36719 0.54297-0.89062 0.94531-1.5781 1.2031z"/>
  </symbol>
  <symbol id="y" overflow="visible">
   <path d="m0.10938-15.953h14.688v3.1094h-5.2812v12.844h-4.1094v-12.844h-5.2969z"/>
  </symbol>
  <symbol id="x" overflow="visible">
   <path d="m2.0156-15.953h4.1094v6.0781h6.0625v-6.0781h4.1094v15.953h-4.1094v-6.7656h-6.0625v6.7656h-4.1094z"/>
  </symbol>
  <symbol id="w" overflow="visible">
   <path d="m9.2969-13.25c-1.2617 0-2.2344 0.46484-2.9219 1.3906-0.6875 0.91797-1.0312 2.2188-1.0312 3.9062 0 1.668 0.34375 2.9648 1.0312 3.8906 0.6875 0.92969 1.6602 1.3906 2.9219 1.3906 1.2578 0 2.2344-0.46094 2.9219-1.3906 0.6875-0.92578 1.0312-2.2227 1.0312-3.8906 0-1.6875-0.34375-2.9883-1.0312-3.9062-0.6875-0.92578-1.6641-1.3906-2.9219-1.3906zm0-2.9844c2.5625 0 4.5664 0.73438 6.0156 2.2031 1.457 1.4688 2.1875 3.4961 2.1875 6.0781 0 2.5742-0.73047 4.5938-2.1875 6.0625-1.4492 1.4688-3.4531 2.2031-6.0156 2.2031s-4.5742-0.73438-6.0312-2.2031c-1.4492-1.4688-2.1719-3.4883-2.1719-6.0625 0-2.582 0.72266-4.6094 2.1719-6.0781 1.457-1.4688 3.4688-2.2031 6.0312-2.2031z"/>
  </symbol>
  <symbol id="e" overflow="visible">
   <path d="m2.0156-15.953h6.8125c2.0312 0 3.5859 0.45312 4.6719 1.3594 1.0938 0.89844 1.6406 2.1797 1.6406 3.8438 0 1.6797-0.54688 2.9688-1.6406 3.875-1.0859 0.89844-2.6406 1.3438-4.6719 1.3438h-2.7031v5.5312h-4.1094zm4.1094 2.9844v4.4531h2.2656c0.80078 0 1.4141-0.19141 1.8438-0.57812 0.4375-0.38281 0.65625-0.9375 0.65625-1.6562 0-0.70703-0.21875-1.2539-0.65625-1.6406-0.42969-0.38281-1.043-0.57812-1.8438-0.57812z"/>
  </symbol>
  <symbol id="v" overflow="visible">
   <path d="m13.109-15.438v3.375c-0.875-0.39453-1.7305-0.69141-2.5625-0.89062-0.83594-0.19531-1.6211-0.29688-2.3594-0.29688-0.99219 0-1.7188 0.13672-2.1875 0.40625-0.46875 0.27344-0.70312 0.6875-0.70312 1.25 0 0.42969 0.15625 0.76172 0.46875 1 0.32031 0.24219 0.89844 0.44922 1.7344 0.625l1.75 0.34375c1.7695 0.35547 3.0312 0.89844 3.7812 1.625 0.75 0.73047 1.125 1.7617 1.125 3.0938 0 1.7617-0.52734 3.0742-1.5781 3.9375-1.043 0.85547-2.6328 1.2812-4.7656 1.2812-1.0117 0-2.0273-0.10156-3.0469-0.29688-1.0234-0.1875-2.043-0.46875-3.0625-0.84375v-3.4688c1.0195 0.53125 2.0039 0.9375 2.9531 1.2188 0.95703 0.27344 1.875 0.40625 2.75 0.40625 0.90625 0 1.5938-0.14453 2.0625-0.4375 0.47656-0.30078 0.71875-0.73438 0.71875-1.2969 0-0.48828-0.16406-0.86719-0.48438-1.1406-0.32422-0.26953-0.96875-0.51562-1.9375-0.73438l-1.5938-0.35938c-1.5938-0.33203-2.7617-0.875-3.5-1.625-0.74219-0.75-1.1094-1.7578-1.1094-3.0312 0-1.582 0.50781-2.8008 1.5312-3.6562 1.0312-0.85156 2.5078-1.2812 4.4375-1.2812 0.875 0 1.7734 0.070313 2.7031 0.20312 0.92578 0.125 1.8828 0.32422 2.875 0.59375z"/>
  </symbol>
  <symbol id="f" overflow="visible">
   <path d="m2.0156-15.953h4.1094v12.844h7.2188v3.1094h-11.328z"/>
  </symbol>
  <symbol id="u" overflow="visible">
   <path d="m9.7031-16.625v2.5156h-2.1094c-0.54297 0-0.92188 0.10156-1.1406 0.29688-0.21094 0.19922-0.3125 0.53906-0.3125 1.0156v0.82812h3.2656v2.7344h-3.2656v9.2344h-3.8281v-9.2344h-1.8906v-2.7344h1.8906v-0.82812c0-1.3008 0.36328-2.2656 1.0938-2.8906 0.72656-0.625 1.8516-0.9375 3.375-0.9375z"/>
  </symbol>
  <symbol id="d" overflow="visible">
   <path d="m7.5312-9.5156c-0.84375 0-1.4922 0.30859-1.9375 0.92188-0.44922 0.60547-0.67188 1.4805-0.67188 2.625 0 1.1484 0.22266 2.0273 0.67188 2.6406 0.44531 0.60547 1.0938 0.90625 1.9375 0.90625 0.83203 0 1.4688-0.30078 1.9062-0.90625 0.44531-0.61328 0.67188-1.4922 0.67188-2.6406 0-1.1445-0.22656-2.0195-0.67188-2.625-0.4375-0.61328-1.0742-0.92188-1.9062-0.92188zm0-2.7344c2.0508 0 3.6562 0.55859 4.8125 1.6719 1.1641 1.1055 1.75 2.6406 1.75 4.6094s-0.58594 3.5117-1.75 4.625c-1.1562 1.1055-2.7617 1.6562-4.8125 1.6562-2.0625 0-3.6797-0.55078-4.8438-1.6562-1.168-1.1133-1.75-2.6562-1.75-4.625s0.58203-3.5039 1.75-4.6094c1.1641-1.1133 2.7812-1.6719 4.8438-1.6719z"/>
  </symbol>
  <symbol id="t" overflow="visible">
   <path d="m12.922-9.9688c0.48828-0.75 1.0625-1.3164 1.7188-1.7031 0.66406-0.38281 1.3984-0.57812 2.2031-0.57812 1.375 0 2.4219 0.42969 3.1406 1.2812 0.71875 0.84375 1.0781 2.0742 1.0781 3.6875v7.2812h-3.8438v-6.2344c0.007812-0.09375 0.015625-0.1875 0.015625-0.28125v-0.4375c0-0.84375-0.125-1.457-0.375-1.8438-0.25-0.38281-0.65234-0.57812-1.2031-0.57812-0.73047 0-1.293 0.30469-1.6875 0.90625-0.38672 0.59375-0.58984 1.4609-0.60938 2.5938v5.875h-3.8438v-6.2344c0-1.3203-0.11719-2.1758-0.34375-2.5625-0.23047-0.38281-0.63672-0.57812-1.2188-0.57812-0.73047 0-1.2969 0.30469-1.7031 0.90625-0.39844 0.60547-0.59375 1.4648-0.59375 2.5781v5.8906h-3.8438v-11.969h3.8438v1.75c0.46875-0.66406 1.0039-1.1719 1.6094-1.5156 0.61328-0.34375 1.2891-0.51562 2.0312-0.51562 0.82031 0 1.5508 0.19922 2.1875 0.59375 0.63281 0.39844 1.1133 0.96094 1.4375 1.6875z"/>
  </symbol>
  <symbol id="s" overflow="visible">
   <path d="m13.859-7.2812v7.2812h-3.8438v-5.5469c0-1.0508-0.027344-1.7695-0.078125-2.1562-0.042969-0.39453-0.12109-0.6875-0.23438-0.875-0.14844-0.25-0.35156-0.44141-0.60938-0.57812-0.25-0.14453-0.54297-0.21875-0.875-0.21875-0.79297 0-1.418 0.3125-1.875 0.9375-0.46094 0.61719-0.6875 1.4648-0.6875 2.5469v5.8906h-3.8125v-16.625h3.8125v6.4062c0.58203-0.69531 1.1953-1.207 1.8438-1.5312 0.64453-0.33203 1.3594-0.5 2.1406-0.5 1.3828 0 2.4297 0.42969 3.1406 1.2812 0.71875 0.84375 1.0781 2.0742 1.0781 3.6875z"/>
  </symbol>
  <symbol id="r" overflow="visible">
   <path d="m2.0156-15.953h4.5781l5.8125 10.938v-10.938h3.8906v15.953h-4.5938l-5.7969-10.938v10.938h-3.8906z"/>
  </symbol>
  <symbol id="q" overflow="visible">
   <path d="m1.7031-4.6562v-7.3125h3.8438v1.2031c0 0.64844-0.007813 1.4609-0.015625 2.4375v1.9688c0 0.96094 0.023438 1.6523 0.078125 2.0781 0.050781 0.41797 0.13281 0.72656 0.25 0.92188 0.15625 0.25 0.35938 0.44531 0.60938 0.57812 0.25781 0.13672 0.55078 0.20312 0.875 0.20312 0.80078 0 1.4258-0.30469 1.875-0.92188 0.45703-0.61328 0.6875-1.4688 0.6875-2.5625v-5.9062h3.8281v11.969h-3.8281v-1.7344c-0.57422 0.69922-1.1836 1.2148-1.8281 1.5469-0.64844 0.33203-1.3555 0.5-2.125 0.5-1.3867 0-2.4453-0.42188-3.1719-1.2656-0.71875-0.85156-1.0781-2.0859-1.0781-3.7031z"/>
  </symbol>
  <symbol id="p" overflow="visible">
   <path d="m13.859-7.2812v7.2812h-3.8438v-5.5781c0-1.0312-0.027344-1.7383-0.078125-2.125-0.042969-0.39453-0.12109-0.6875-0.23438-0.875-0.14844-0.25-0.35156-0.44141-0.60938-0.57812-0.25-0.14453-0.54297-0.21875-0.875-0.21875-0.79297 0-1.418 0.3125-1.875 0.9375-0.46094 0.61719-0.6875 1.4648-0.6875 2.5469v5.8906h-3.8125v-11.969h3.8125v1.75c0.58203-0.69531 1.1953-1.207 1.8438-1.5312 0.64453-0.33203 1.3594-0.5 2.1406-0.5 1.3828 0 2.4297 0.42969 3.1406 1.2812 0.71875 0.84375 1.0781 2.0742 1.0781 3.6875z"/>
  </symbol>
  <symbol id="o" overflow="visible">
   <path d="m1.8438-11.969h3.8125v11.75c0 1.6016-0.38672 2.8281-1.1562 3.6719-0.76172 0.84375-1.8711 1.2656-3.3281 1.2656h-1.8906v-2.5h0.65625c0.72656 0 1.2266-0.16797 1.5-0.5 0.26953-0.32422 0.40625-0.96875 0.40625-1.9375zm0-4.6562h3.8125v3.125h-3.8125z"/>
  </symbol>
  <symbol id="n" overflow="visible">
   <path d="m11.5-11.594v3.125c-0.52344-0.35156-1.043-0.61328-1.5625-0.78125-0.52344-0.17578-1.0625-0.26562-1.625-0.26562-1.0742 0-1.9062 0.3125-2.5 0.9375s-0.89062 1.4961-0.89062 2.6094c0 1.1172 0.29688 1.9844 0.89062 2.6094s1.4258 0.9375 2.5 0.9375c0.59375 0 1.1562-0.085937 1.6875-0.26562 0.53906-0.17578 1.0391-0.44141 1.5-0.79688v3.125c-0.59375 0.23047-1.1992 0.39453-1.8125 0.5-0.61719 0.11328-1.2344 0.17188-1.8594 0.17188-2.1562 0-3.8438-0.55078-5.0625-1.6562-1.2188-1.1133-1.8281-2.6562-1.8281-4.625s0.60938-3.5039 1.8281-4.6094c1.2188-1.1133 2.9062-1.6719 5.0625-1.6719 0.625 0 1.2383 0.058594 1.8438 0.17188 0.61328 0.10547 1.2227 0.26562 1.8281 0.48438z"/>
  </symbol>
 </defs>
 <g>
  <path d="m599.41 268.93 6.8477-28.309h14.992c4.832 0 8.75-3.918 8.75-8.75s-3.918-8.75-8.75-8.75h-4.375c-0.023438-15.473-5.9023-30.367-16.449-41.688-10.551-11.316-24.992-18.227-40.426-19.34v-17.723c-0.003906-4.6406-1.8516-9.0898-5.1328-12.367-3.2812-3.2812-7.7266-5.1289-12.367-5.1328h-17.5c-4.6406 0.003906-9.0859 1.8516-12.367 5.1328-3.2812 3.2773-5.1289 7.7266-5.1328 12.367v17.723c-15.434 1.1133-29.875 8.0234-40.426 19.34-10.547 11.32-16.426 26.215-16.449 41.688h-4.375c-4.832 0-8.75 3.918-8.75 8.75s3.918 8.75 8.75 8.75h14.988l6.8477 28.309 0.039062 0.10547v32.836h-78.469v-33.957l6.6016-27.293h14.992c4.832 0 8.75-3.918 8.75-8.75s-3.918-8.75-8.75-8.75h-4.375c-0.023438-15.473-5.9023-30.367-16.449-41.688-10.551-11.316-24.992-18.227-40.426-19.34v-17.723c-0.003906-4.6406-1.8516-9.0898-5.1328-12.367-3.2812-3.2812-7.7266-5.1289-12.367-5.1328h-17.5c-4.6406 0.003906-9.0859 1.8516-12.367 5.1328-3.2812 3.2773-5.1289 7.7266-5.1328 12.367v17.723c-15.434 1.1133-29.875 8.0234-40.426 19.34-10.547 11.32-16.426 26.215-16.449 41.688h-4.375c-4.832 0-8.75 3.918-8.75 8.75s3.918 8.75 8.75 8.75h14.988l6.6016 27.293v33.957h-55.543c1.6328-2.8203 2.8672-5.8516 3.6641-9.0117l3.7773-15.117c0.625-2.4414 0.15234-5.0352-1.2891-7.1016-1.4453-2.0664-3.7148-3.4023-6.2188-3.6562 1.6641-2.8516 2.9219-5.9258 3.7305-9.125l3.7773-15.117c0.625-2.4414 0.15234-5.0352-1.2891-7.1016-1.4453-2.0664-3.7148-3.4023-6.2188-3.6562 1.6641-2.8516 2.9219-5.9258 3.7305-9.125l3.7773-15.117c0.65234-2.6133 0.066407-5.3828-1.5938-7.5078-1.6562-2.1211-4.1992-3.3633-6.8945-3.3633h-113.75c-2.6953 0-5.2383 1.2422-6.8945 3.3633-1.6602 2.125-2.2461 4.8945-1.5938 7.5078l3.7773 15.117c0.80859 3.2031 2.0625 6.2734 3.7305 9.125-2.5039 0.25781-4.7773 1.5938-6.2188 3.6562-1.4414 2.0664-1.9141 4.6602-1.2891 7.1016l3.7773 15.117c0.80859 3.2031 2.0625 6.2734 3.7305 9.125-2.5039 0.25781-4.7773 1.5938-6.2188 3.6562-1.4414 2.0664-1.9141 4.6602-1.2891 7.1016l3.7773 15.117c0.80859 3.1992 2.0625 6.2656 3.7227 9.1094-4.4531 0.24609-8.6406 2.1875-11.711 5.4219-3.0703 3.2344-4.7891 7.5195-4.8008 11.98v165.16c0 4.832 3.918 8.75 8.75 8.75 8.3203-0.20703 16.605 1.1328 24.438 3.9531 1.9414 0.625 3.9727 1.2695 6.1875 1.8789v21.512c0.003906 4.6406 1.8516 9.0859 5.1328 12.367s7.7266 5.1289 12.367 5.1328h17.5c4.6406-0.003906 9.0859-1.8516 12.367-5.1328s5.1289-7.7266 5.1328-12.367v-23.098c0.30469-0.097656 0.625-0.19922 0.92578-0.29688v0.003906c7.832-2.8203 16.113-4.1602 24.434-3.9531 8.3203-0.20703 16.605 1.1328 24.434 3.9531 9.5703 3.3672 19.668 4.9922 29.809 4.7969 10.141 0.19531 20.234-1.4297 29.801-4.7969 7.8281-2.8203 16.109-4.1602 24.43-3.9531 8.3164-0.20703 16.598 1.1328 24.426 3.9531 9.5664 3.3672 19.66 4.9922 29.801 4.7969 10.145 0.19531 20.238-1.4297 29.809-4.7969 7.832-2.8203 16.117-4.1602 24.434-3.9531 8.3242-0.20703 16.613 1.1328 24.449 3.9531 19.359 6.3945 40.266 6.3945 59.625 0 15.871-5.2695 33.02-5.2695 48.891 0 0.32031 0.10547 0.66016 0.21094 0.98438 0.3125v23.078c0.003906 4.6406 1.8516 9.0859 5.1328 12.367s7.7266 5.1289 12.367 5.1328h17.5c4.6406-0.003906 9.0898-1.8516 12.367-5.1328 3.2812-3.2812 5.1289-7.7266 5.1328-12.367v-21.516c2.207-0.60938 4.2344-1.25 6.168-1.875 7.8398-2.8203 16.133-4.1602 24.457-3.9531 4.832 0 8.75-3.918 8.75-8.75v-165.16c-0.003906-4.6406-1.8516-9.0898-5.1328-12.367-3.2812-3.2812-7.7266-5.1289-12.367-5.1328h-13.125v-32.836zm-74.41-124.56h17.5v17.5h-17.5zm-210 0h17.5v17.5h-17.5zm-13.125 35h43.75c11.598 0.011719 22.719 4.625 30.922 12.828s12.816 19.32 12.828 30.922h-131.25c0.011719-11.602 4.625-22.719 12.828-30.922s19.324-12.816 30.922-12.828zm-28.398 78.75-4.2344-17.5h109.01l-4.2344 17.5zm98.691 43.75h-96.824v-26.25h96.816zm-182.12-87.5-1.0625 4.2422c-0.94141 3.7891-3.125 7.1523-6.2031 9.5547-3.0742 2.4023-6.8672 3.707-10.773 3.7031h-55.258c-3.9062 0.003906-7.6992-1.3008-10.773-3.7031-3.0781-2.4023-5.2617-5.7656-6.2031-9.5508l-1.0625-4.2461zm-73.297 35h73.297l-1.0625 4.2422c-0.94141 3.7891-3.125 7.1523-6.2031 9.5547-3.0742 2.4023-6.8672 3.707-10.773 3.7031h-55.258c-3.9062 0.003906-7.6992-1.3008-10.773-3.7031-3.0781-2.4023-5.2617-5.7656-6.2031-9.5508l-1.0625-4.2461zm0 35h73.297l-1.0625 4.2422c-0.94141 3.7891-3.125 7.1523-6.2031 9.5547-3.0742 2.4023-6.8672 3.707-10.773 3.7031h-55.258c-3.9062 0.003906-7.6992-1.3008-10.773-3.7031-3.0781-2.4023-5.2617-5.7656-6.2031-9.5508l-1.0625-4.2461zm27.629 236.25h-17.5v-18.766c1.9141 0.10156 3.9219 0.17188 6.1211 0.17188 3.8008 0.011719 7.6016-0.19141 11.379-0.59766zm428.75 0h-17.5v-19.188c3.7656 0.40625 7.5547 0.60156 11.344 0.59375 2.2148 0 4.2305-0.070312 6.1562-0.17188zm39.375-44.516c-7.1875 0.57031-14.273 2.0742-21.074 4.4688-15.879 5.2695-33.035 5.2695-48.914 0-19.363-6.3984-40.273-6.3984-59.637 0-15.867 5.2695-33.012 5.2695-48.879 0-19.363-6.3984-40.266-6.3984-59.629 0-7.8281 2.8203-16.113 4.1602-24.434 3.9531-8.3164 0.20703-16.598-1.1328-24.426-3.9531-9.5664-3.3672-19.66-4.9922-29.801-4.7969-10.145-0.19531-20.238 1.4297-29.805 4.7969-7.8281 2.8203-16.109 4.1602-24.426 3.9531-8.3203 0.20703-16.605-1.1328-24.434-3.9531-9.5703-3.3672-19.664-4.9922-29.809-4.7969-10.145-0.19531-20.238 1.4297-29.809 4.7969-7.8281 2.8203-16.109 4.1602-24.43 3.9531-8.3203 0.20703-16.605-1.1328-24.434-3.9531-6.7969-2.3945-13.879-3.8984-21.062-4.4688v-17.43c5.3516 0.55469 10.617 1.7461 15.688 3.5547 9.5703 3.3672 19.668 4.9922 29.809 4.7969 10.145 0.19531 20.238-1.4297 29.805-4.7969 7.832-2.8203 16.113-4.1602 24.434-3.9531 8.3203-0.20703 16.605 1.1328 24.434 3.9531 9.5703 3.3672 19.668 4.9922 29.809 4.7969 10.141 0.19531 20.234-1.4297 29.801-4.7969 7.8281-2.8203 16.113-4.1602 24.43-3.9531 8.3164-0.20703 16.598 1.1328 24.426 3.9531 9.5664 3.3672 19.66 4.9922 29.801 4.7969 10.145 0.19531 20.238-1.4297 29.809-4.7969 7.832-2.8203 16.117-4.1602 24.434-3.9531 8.3242-0.20703 16.613 1.1328 24.449 3.9531 19.359 6.3945 40.266 6.3945 59.625 0 15.871-5.2695 33.02-5.2695 48.891 0 19.371 6.3945 40.285 6.3945 59.656 0 5.0742-1.8086 10.344-3 15.703-3.5547zm0-34.977v-0.003906c-7.1875 0.57422-14.27 2.0664-21.074 4.4492-15.879 5.2695-33.035 5.2695-48.914 0-19.363-6.3984-40.273-6.3984-59.637 0-15.867 5.2695-33.012 5.2695-48.879 0-19.363-6.3984-40.266-6.3984-59.629 0-7.8281 2.8203-16.113 4.1602-24.434 3.9531-8.3164 0.20703-16.598-1.1328-24.426-3.9531-9.5664-3.3672-19.66-4.9922-29.801-4.7969-10.145-0.19531-20.238 1.4297-29.805 4.7969-7.8281 2.8203-16.109 4.1602-24.426 3.9531-8.3203 0.20703-16.605-1.1328-24.434-3.9531-9.5703-3.3672-19.664-4.9922-29.809-4.7969-10.145-0.19531-20.238 1.4297-29.809 4.7969-7.8281 2.8203-16.109 4.1602-24.43 3.9531-8.3203 0.20703-16.605-1.1328-24.434-3.9531-6.8008-2.3828-13.879-3.875-21.062-4.4492v-86.758l525 0.003906zm0-121.75v17.5l-525-0.003906v-17.5zm-129.02-61.25-4.2344-17.5h109.01l-4.2344 17.5zm98.406 43.75-96.258-0.003906v-26.25h96.254zm-113.76-78.754c0.011719-11.602 4.625-22.719 12.828-30.922s19.324-12.816 30.922-12.828h43.75c11.598 0.011719 22.719 4.625 30.922 12.828s12.816 19.32 12.828 30.922z"/>
  <path d="m302.37 106.29c3.1289 3.6758 8.6484 4.1172 12.328 0.99219 3.6758-3.1289 4.125-8.6484 1-12.328-7.3516-8.6484-5.6914-11.453-1.2461-18.941 5.6211-9.4727 14.117-23.785-5.2422-47.242-3.0742-3.7266-8.5898-4.2578-12.316-1.1797-3.7266 3.0742-4.2539 8.5898-1.1797 12.316 11.527 13.965 8.5781 18.938 3.6875 27.172-4.9688 8.3789-12.48 21.043 2.9688 39.211z"/>
  <path d="m335.5 102.58c3.1328 3.6797 8.6562 4.125 12.336 0.99609 3.6797-3.1328 4.1289-8.6562 0.99609-12.336-7.3516-8.6445-5.6875-11.449-1.2461-18.941 5.6211-9.4727 14.117-23.785-5.2422-47.242-3.0742-3.7266-8.5898-4.2539-12.316-1.1797-3.7266 3.0781-4.2578 8.5898-1.1797 12.32 11.527 13.965 8.5781 18.938 3.6875 27.176-4.9688 8.375-12.484 21.039 2.9648 39.207z"/>
  <path d="m512.37 106.29c3.1289 3.6758 8.6484 4.1172 12.328 0.99219 3.6758-3.1289 4.125-8.6484 1-12.328-7.3516-8.6484-5.6914-11.453-1.2461-18.941 5.6211-9.4727 14.117-23.785-5.2422-47.242-3.0742-3.7266-8.5898-4.2578-12.316-1.1797-3.7266 3.0742-4.2539 8.5898-1.1797 12.316 11.527 13.965 8.5781 18.938 3.6875 27.172-4.9688 8.3789-12.48 21.043 2.9688 39.211z"/>
  <path d="m545.5 102.58c3.1328 3.6797 8.6562 4.125 12.336 0.99609 3.6797-3.1328 4.1289-8.6562 0.99609-12.336-7.3516-8.6445-5.6875-11.449-1.2461-18.941 5.6211-9.4727 14.117-23.785-5.2422-47.242-3.0742-3.7266-8.5898-4.2539-12.316-1.1797-3.7266 3.0781-4.2578 8.5898-1.1797 12.32 11.527 13.965 8.5781 18.938 3.6875 27.176-4.9688 8.375-12.484 21.039 2.9648 39.207z"/>
 </g>
</svg>
