<svg width="32" height="32" viewBox="0 0 32 32" fill="none" xmlns="http://www.w3.org/2000/svg">
<path fill-rule="evenodd" clip-rule="evenodd" d="M22.6818 16.7393V16.0598L26.6667 14.8415V24.3665L22.6818 23.1483V22.4687H21.003V25.2213H5.33334V13.9868H6.56184C5.80291 13.2217 5.33334 12.1692 5.33334 11.009C5.33334 8.67621 7.23119 6.77836 9.56395 6.77832C11.086 6.77832 12.4228 7.5864 13.1682 8.79594C13.9136 7.5864 15.2503 6.77832 16.7723 6.77832C19.1051 6.77832 21.003 8.67621 21.003 11.009C21.003 12.1692 20.5334 13.2217 19.7745 13.9868H21.003V16.7393H22.6818ZM19.7502 11.009C19.7502 9.36703 18.4143 8.03121 16.7724 8.03121C15.1304 8.03121 13.7946 9.36703 13.7946 11.009C13.7946 12.651 15.1304 13.9868 16.7724 13.9868C18.4144 13.9868 19.7502 12.651 19.7502 11.009ZM12.5661 13.9868H13.7702C13.5416 13.7563 13.3393 13.4997 13.1682 13.222C12.997 13.4997 12.7947 13.7563 12.5661 13.9868ZM9.56399 8.03121C7.92201 8.03121 6.58619 9.36707 6.58619 11.009C6.58619 12.6509 7.92201 13.9868 9.56399 13.9868C11.206 13.9868 12.5418 12.651 12.5418 11.009C12.5418 9.36703 11.206 8.03121 9.56399 8.03121ZM6.58619 23.9684H19.7501V15.2396H6.58619V23.9684ZM21.003 17.9922V21.2158H22.6818V17.9922H21.003ZM23.9347 22.2211L25.4138 22.6734V16.5346L23.9347 16.9868V22.2211ZM11.7686 17.9325L13.1681 16.194L14.5675 17.9325L16.6533 18.7262L15.4324 20.5944L15.322 22.8234L13.168 22.2396L11.014 22.8234L10.9036 20.5944L9.68279 18.7262L11.7686 17.9325ZM14.1478 21.2071L14.198 20.1933L14.7532 19.3437L13.8046 18.9826L13.1681 18.192L12.5316 18.9826L11.583 19.3437L12.1382 20.1933L12.1884 21.2071L13.1681 20.9415L14.1478 21.2071ZM8.93767 10.3825H10.1905V11.6353H8.93767V10.3825ZM17.3988 10.3825H16.146V11.6353H17.3988V10.3825Z" fill="#060606"/>
</svg>
