<?xml version="1.0" encoding="UTF-8"?>
<svg width="32" height="32" version="1.1" viewBox="0 0 700 500" xmlns="http://www.w3.org/2000/svg" xmlns:xlink="http://www.w3.org/1999/xlink">
 <defs>
  <symbol id="y" overflow="visible">
   <path d="m19.141-1.1406c-0.98047 0.51172-2.0078 0.89844-3.0781 1.1562-1.0742 0.25781-2.1875 0.39062-3.3438 0.39062-3.4805 0-6.2344-0.96875-8.2656-2.9062-2.0234-1.9453-3.0312-4.5781-3.0312-7.8906 0-3.332 1.0078-5.9688 3.0312-7.9062 2.0312-1.9375 4.7852-2.9062 8.2656-2.9062 1.1562 0 2.2695 0.13281 3.3438 0.39062 1.0703 0.26172 2.0977 0.64844 3.0781 1.1562v4.3125c-0.99219-0.6875-1.9688-1.1875-2.9375-1.5s-1.9922-0.46875-3.0625-0.46875c-1.918 0-3.4219 0.61719-4.5156 1.8438-1.0938 1.2188-1.6406 2.9141-1.6406 5.0781 0 2.1484 0.54688 3.8359 1.6406 5.0625 1.0938 1.2305 2.5977 1.8438 4.5156 1.8438 1.0703 0 2.0938-0.15625 3.0625-0.46875 0.96875-0.32031 1.9453-0.82031 2.9375-1.5z"/>
  </symbol>
  <symbol id="c" overflow="visible">
   <path d="m14.016-11.375c-0.4375-0.19531-0.875-0.34375-1.3125-0.4375-0.42969-0.10156-0.85938-0.15625-1.2969-0.15625-1.293 0-2.2891 0.41406-2.9844 1.2344-0.6875 0.82422-1.0312 2-1.0312 3.5312v7.2031h-4.9844v-15.625h4.9844v2.5625c0.64453-1.0195 1.3828-1.7656 2.2188-2.2344 0.83203-0.46875 1.8281-0.70312 2.9844-0.70312 0.17578 0 0.35938 0.007812 0.54688 0.015625 0.19531 0.011719 0.48438 0.042969 0.85938 0.09375z"/>
  </symbol>
  <symbol id="a" overflow="visible">
   <path d="m18-7.8594v1.4219h-11.672c0.11328 1.1797 0.53125 2.0586 1.25 2.6406 0.72656 0.58594 1.75 0.875 3.0625 0.875 1.0391 0 2.1133-0.14844 3.2188-0.45312 1.1016-0.3125 2.2383-0.78516 3.4062-1.4219v3.8438c-1.1875 0.44922-2.375 0.78906-3.5625 1.0156-1.1797 0.22656-2.3555 0.34375-3.5312 0.34375-2.8242 0-5.0234-0.71875-6.5938-2.1562-1.5625-1.4375-2.3438-3.4531-2.3438-6.0469 0-2.5508 0.76562-4.5547 2.2969-6.0156 1.5391-1.457 3.6602-2.1875 6.3594-2.1875 2.457 0 4.4219 0.74219 5.8906 2.2188 1.4766 1.4805 2.2188 3.4531 2.2188 5.9219zm-5.1406-1.6562c0-0.94531-0.27734-1.7109-0.82812-2.2969-0.55469-0.58203-1.2773-0.875-2.1719-0.875-0.96094 0-1.7461 0.27734-2.3594 0.82812-0.60547 0.54297-0.98047 1.3242-1.125 2.3438z"/>
  </symbol>
  <symbol id="j" overflow="visible">
   <path d="m9.4062-7.0312c-1.043 0-1.8281 0.17969-2.3594 0.53125-0.52344 0.35547-0.78125 0.875-0.78125 1.5625 0 0.63672 0.20703 1.1328 0.625 1.4844 0.42578 0.35547 1.0195 0.53125 1.7812 0.53125 0.9375 0 1.7227-0.33203 2.3594-1 0.64453-0.67578 0.96875-1.5195 0.96875-2.5312v-0.57812zm7.625-1.8906v8.9219h-5.0312v-2.3125c-0.66797 0.94922-1.4219 1.6406-2.2656 2.0781-0.83594 0.42578-1.8516 0.64062-3.0469 0.64062-1.625 0-2.9453-0.46875-3.9531-1.4062-1-0.94531-1.5-2.1758-1.5-3.6875 0-1.832 0.62891-3.1758 1.8906-4.0312 1.2578-0.85156 3.2383-1.2812 5.9375-1.2812h2.9375v-0.39062c0-0.78906-0.3125-1.3672-0.9375-1.7344-0.625-0.375-1.5938-0.5625-2.9062-0.5625-1.0742 0-2.0742 0.10938-3 0.32812-0.91797 0.21094-1.7734 0.52734-2.5625 0.95312v-3.7969c1.0703-0.25781 2.1445-0.45703 3.2188-0.59375 1.082-0.13281 2.1641-0.20312 3.25-0.20312 2.8125 0 4.8438 0.55859 6.0938 1.6719 1.25 1.1055 1.875 2.9062 1.875 5.4062z"/>
  </symbol>
  <symbol id="b" overflow="visible">
   <path d="m7.8594-20.062v4.4375h5.1406v3.5625h-5.1406v6.6406c0 0.71875 0.14062 1.2109 0.42188 1.4688 0.28906 0.25 0.86328 0.375 1.7188 0.375h2.5781v3.5781h-4.2969c-1.9688 0-3.3672-0.41016-4.1875-1.2344-0.82422-0.82031-1.2344-2.2188-1.2344-4.1875v-6.6406h-2.4844v-3.5625h2.4844v-4.4375z"/>
  </symbol>
  <symbol id="i" overflow="visible">
   <path d="m13.031-13.344v-8.375h5.0312v21.719h-5.0312v-2.2656c-0.6875 0.92969-1.4492 1.6055-2.2812 2.0312-0.82422 0.42578-1.7773 0.64062-2.8594 0.64062-1.9297 0-3.5117-0.76562-4.75-2.2969-1.2422-1.5312-1.8594-3.5-1.8594-5.9062 0-2.4141 0.61719-4.3828 1.8594-5.9062 1.2383-1.5312 2.8203-2.2969 4.75-2.2969 1.0703 0 2.0234 0.21875 2.8594 0.65625 0.83203 0.42969 1.5938 1.0938 2.2812 2zm-3.2969 10.125c1.0703 0 1.8906-0.39062 2.4531-1.1719s0.84375-1.9141 0.84375-3.4062c0-1.4883-0.28125-2.625-0.84375-3.4062s-1.3828-1.1719-2.4531-1.1719c-1.0547 0-1.8672 0.39062-2.4375 1.1719-0.5625 0.78125-0.84375 1.918-0.84375 3.4062 0 1.4922 0.28125 2.625 0.84375 3.4062 0.57031 0.78125 1.3828 1.1719 2.4375 1.1719z"/>
  </symbol>
  <symbol id="h" overflow="visible">
   <path d="m10.719-3.2188c1.0703 0 1.8906-0.39062 2.4531-1.1719s0.84375-1.9141 0.84375-3.4062c0-1.4883-0.28125-2.625-0.84375-3.4062s-1.3828-1.1719-2.4531-1.1719c-1.0742 0-1.8984 0.39844-2.4688 1.1875-0.57422 0.78125-0.85938 1.9141-0.85938 3.3906 0 1.4805 0.28516 2.6172 0.85938 3.4062 0.57031 0.78125 1.3945 1.1719 2.4688 1.1719zm-3.3281-10.125c0.6875-0.90625 1.4453-1.5703 2.2812-2 0.84375-0.4375 1.8125-0.65625 2.9062-0.65625 1.9258 0 3.5039 0.76562 4.7344 2.2969 1.2383 1.5234 1.8594 3.4922 1.8594 5.9062 0 2.4062-0.62109 4.375-1.8594 5.9062-1.2305 1.5312-2.8086 2.2969-4.7344 2.2969-1.0938 0-2.0625-0.21484-2.9062-0.64062-0.83594-0.4375-1.5938-1.1133-2.2812-2.0312v2.2656h-4.9844v-21.719h4.9844z"/>
  </symbol>
  <symbol id="g" overflow="visible">
   <path d="m0.34375-15.625h5l4.2031 10.594 3.5625-10.594h5l-6.5625 17.109c-0.66797 1.7383-1.4453 2.9531-2.3281 3.6406-0.875 0.69531-2.0312 1.0469-3.4688 1.0469h-2.8906v-3.2812h1.5625c0.84375 0 1.457-0.13672 1.8438-0.40625 0.38281-0.27344 0.6875-0.75781 0.90625-1.4531l0.14062-0.4375z"/>
  </symbol>
  <symbol id="f" overflow="visible">
   <path d="m2.625-20.828h5.375v7.5938l7.7344-7.5938h6.25l-10.047 9.8594 11.078 10.969h-6.7344l-8.2812-8.2031v8.2031h-5.375z"/>
  </symbol>
  <symbol id="x" overflow="visible">
   <path d="m2.625-20.828h5.375v12.484c0 1.7188 0.28125 2.9492 0.84375 3.6875 0.5625 0.74219 1.4766 1.1094 2.75 1.1094 1.2812 0 2.2031-0.36719 2.7656-1.1094 0.5625-0.73828 0.84375-1.9688 0.84375-3.6875v-12.484h5.375v12.484c0 2.9492-0.74219 5.1484-2.2188 6.5938-1.4805 1.4375-3.7344 2.1562-6.7656 2.1562-3.0234 0-5.2734-0.71875-6.75-2.1562-1.4805-1.4453-2.2188-3.6445-2.2188-6.5938z"/>
  </symbol>
  <symbol id="w" overflow="visible">
   <path d="m17.125-20.172v4.4062c-1.1484-0.50781-2.2656-0.89453-3.3594-1.1562-1.0859-0.25781-2.1094-0.39062-3.0781-0.39062-1.2812 0-2.2305 0.17969-2.8438 0.53125-0.61719 0.35547-0.92188 0.90234-0.92188 1.6406 0 0.5625 0.20312 1 0.60938 1.3125 0.41406 0.30469 1.1719 0.57031 2.2656 0.79688l2.2812 0.45312c2.3203 0.46875 3.9688 1.1797 4.9375 2.125 0.97656 0.94922 1.4688 2.2969 1.4688 4.0469 0 2.3047-0.68359 4.0156-2.0469 5.1406-1.3555 1.1172-3.4336 1.6719-6.2344 1.6719-1.3242 0-2.6523-0.125-3.9844-0.375-1.3242-0.25-2.6523-0.625-3.9844-1.125v-4.5312c1.332 0.71094 2.6172 1.2461 3.8594 1.6094 1.2383 0.35547 2.4375 0.53125 3.5938 0.53125 1.1641 0 2.0625-0.19141 2.6875-0.57812 0.625-0.39453 0.9375-0.95703 0.9375-1.6875 0-0.64453-0.21484-1.1445-0.64062-1.5-0.41797-0.35156-1.2617-0.67188-2.5312-0.95312l-2.0781-0.46875c-2.0859-0.4375-3.6094-1.1445-4.5781-2.125-0.96094-0.97656-1.4375-2.2969-1.4375-3.9531 0-2.0703 0.66406-3.6641 2-4.7812 1.3438-1.1133 3.2734-1.6719 5.7969-1.6719 1.1328 0 2.3047 0.089844 3.5156 0.26562 1.2188 0.16797 2.4727 0.42188 3.7656 0.76562z"/>
  </symbol>
  <symbol id="e" overflow="visible">
   <path d="m2.625-20.828h6l7.5781 14.281v-14.281h5.0938v20.828h-6l-7.5781-14.297v14.297h-5.0938z"/>
  </symbol>
  <symbol id="v" overflow="visible">
   <path d="m2.625-20.828h5.375v20.828h-5.375z"/>
  </symbol>
  <symbol id="u" overflow="visible">
   <path d="m-0.28125-20.828h5.875l4.75 7.4219 4.7344-7.4219h5.8906l-7.9375 12.047v8.7812h-5.375v-8.7812z"/>
  </symbol>
  <symbol id="t" overflow="visible">
   <path d="m15.266-3.7969h-8.4062l-1.3125 3.7969h-5.4062l7.7188-20.828h6.4062l7.7188 20.828h-5.4062zm-7.0625-3.8594h5.7031l-2.8438-8.2969z"/>
  </symbol>
  <symbol id="s" overflow="visible">
   <path d="m2.625-20.828h5.375v7.9375h7.9219v-7.9375h5.375v20.828h-5.375v-8.8281h-7.9219v8.8281h-5.375z"/>
  </symbol>
  <symbol id="r" overflow="visible">
   <path d="m12.688-21.719v3.2812h-2.7656c-0.71094 0-1.2031 0.13281-1.4844 0.39062-0.27344 0.25-0.40625 0.69531-0.40625 1.3281v1.0938h4.2656v3.5625h-4.2656v12.062h-5v-12.062h-2.4844v-3.5625h2.4844v-1.0938c0-1.6953 0.47266-2.9531 1.4219-3.7656 0.94531-0.82031 2.4141-1.2344 4.4062-1.2344z"/>
  </symbol>
  <symbol id="d" overflow="visible">
   <path d="m9.8438-12.438c-1.1172 0-1.9648 0.40234-2.5469 1.2031-0.57422 0.79297-0.85938 1.9375-0.85938 3.4375s0.28516 2.6484 0.85938 3.4375c0.58203 0.79297 1.4297 1.1875 2.5469 1.1875 1.082 0 1.9102-0.39453 2.4844-1.1875 0.58203-0.78906 0.875-1.9375 0.875-3.4375s-0.29297-2.6445-0.875-3.4375c-0.57422-0.80078-1.4023-1.2031-2.4844-1.2031zm0-3.5625c2.6875 0 4.7852 0.72656 6.2969 2.1719 1.5078 1.4492 2.2656 3.4609 2.2656 6.0312 0 2.5625-0.75781 4.5742-2.2656 6.0312-1.5117 1.4492-3.6094 2.1719-6.2969 2.1719-2.6992 0-4.8086-0.72266-6.3281-2.1719-1.5234-1.457-2.2812-3.4688-2.2812-6.0312 0-2.5703 0.75781-4.582 2.2812-6.0312 1.5195-1.4453 3.6289-2.1719 6.3281-2.1719z"/>
  </symbol>
  <symbol id="q" overflow="visible">
   <path d="m16.891-13.031c0.625-0.96875 1.3672-1.7031 2.2344-2.2031 0.875-0.50781 1.832-0.76562 2.875-0.76562 1.8008 0 3.1719 0.55469 4.1094 1.6562 0.9375 1.1055 1.4062 2.7148 1.4062 4.8281v9.5156h-5.0156v-8.1562c0.007812-0.11328 0.015625-0.23438 0.015625-0.35938v-0.5625c0-1.1133-0.16406-1.9141-0.48438-2.4062-0.32422-0.5-0.85156-0.75-1.5781-0.75-0.94922 0-1.6836 0.39062-2.2031 1.1719-0.51172 0.78125-0.77734 1.9141-0.79688 3.3906v7.6719h-5.0156v-8.1562c0-1.7266-0.15234-2.8359-0.45312-3.3281-0.29297-0.5-0.82422-0.75-1.5938-0.75-0.96094 0-1.6992 0.39844-2.2188 1.1875-0.52344 0.78125-0.78125 1.9023-0.78125 3.3594v7.6875h-5.0156v-15.625h5.0156v2.2812c0.61328-0.88281 1.3164-1.5469 2.1094-1.9844 0.80078-0.44531 1.6797-0.67188 2.6406-0.67188 1.082 0 2.0352 0.26172 2.8594 0.78125 0.83203 0.52344 1.4609 1.25 1.8906 2.1875z"/>
  </symbol>
  <symbol id="p" overflow="visible">
   <path d="m18.109-9.5156v9.5156h-5.0156v-7.25c0-1.375-0.03125-2.3164-0.09375-2.8281-0.0625-0.50781-0.16797-0.88281-0.3125-1.125-0.19922-0.32031-0.46484-0.57031-0.79688-0.75-0.33594-0.1875-0.71484-0.28125-1.1406-0.28125-1.043 0-1.8672 0.40234-2.4688 1.2031-0.59375 0.80469-0.89062 1.918-0.89062 3.3438v7.6875h-4.9844v-21.719h4.9844v8.375c0.75781-0.90625 1.5625-1.5703 2.4062-2 0.84375-0.4375 1.7734-0.65625 2.7969-0.65625 1.8125 0 3.1797 0.55469 4.1094 1.6562 0.9375 1.1055 1.4062 2.7148 1.4062 4.8281z"/>
  </symbol>
  <symbol id="o" overflow="visible">
   <path d="m2.2344-6.0781v-9.5469h5.0156v1.5625c0 0.84375-0.007812 1.9062-0.015625 3.1875v2.5625c0 1.25 0.03125 2.1562 0.09375 2.7188 0.0625 0.55469 0.17188 0.95312 0.32812 1.2031 0.20703 0.32422 0.47266 0.57422 0.79688 0.75 0.33203 0.17969 0.71094 0.26562 1.1406 0.26562 1.0391 0 1.8594-0.39844 2.4531-1.2031 0.60156-0.80078 0.90625-1.9102 0.90625-3.3281v-7.7188h4.9844v15.625h-4.9844v-2.2656c-0.76172 0.91797-1.5625 1.5938-2.4062 2.0312-0.83594 0.42578-1.7617 0.64062-2.7812 0.64062-1.8047 0-3.1797-0.55078-4.125-1.6562-0.9375-1.1133-1.4062-2.7227-1.4062-4.8281z"/>
  </symbol>
  <symbol id="n" overflow="visible">
   <path d="m18.109-9.5156v9.5156h-5.0156v-7.2812c0-1.3516-0.03125-2.2852-0.09375-2.7969-0.0625-0.50781-0.16797-0.88281-0.3125-1.125-0.19922-0.32031-0.46484-0.57031-0.79688-0.75-0.33594-0.1875-0.71484-0.28125-1.1406-0.28125-1.043 0-1.8672 0.40234-2.4688 1.2031-0.59375 0.80469-0.89062 1.918-0.89062 3.3438v7.6875h-4.9844v-15.625h4.9844v2.2812c0.75781-0.90625 1.5625-1.5703 2.4062-2 0.84375-0.4375 1.7734-0.65625 2.7969-0.65625 1.8125 0 3.1797 0.55469 4.1094 1.6562 0.9375 1.1055 1.4062 2.7148 1.4062 4.8281z"/>
  </symbol>
  <symbol id="m" overflow="visible">
   <path d="m2.625-20.828h8.9219c2.6445 0 4.6758 0.58984 6.0938 1.7656 1.4141 1.1797 2.125 2.8555 2.125 5.0312 0 2.1797-0.71094 3.8555-2.125 5.0312-1.418 1.1797-3.4492 1.7656-6.0938 1.7656h-3.5469v7.2344h-5.375zm5.375 3.8906v5.8125h2.9688c1.0391 0 1.8438-0.25 2.4062-0.75 0.57031-0.50781 0.85938-1.2266 0.85938-2.1562 0-0.9375-0.28906-1.6562-0.85938-2.1562-0.5625-0.5-1.3672-0.75-2.4062-0.75z"/>
  </symbol>
  <symbol id="l" overflow="visible">
   <path d="m2.4062-15.625h4.9844v15.344c0 2.0938-0.50781 3.6914-1.5156 4.7969-1 1.1016-2.4531 1.6562-4.3594 1.6562h-2.4688v-3.2812h0.875c0.94531 0 1.5977-0.21484 1.9531-0.64062 0.35156-0.42969 0.53125-1.2734 0.53125-2.5312zm0-6.0938h4.9844v4.0781h-4.9844z"/>
  </symbol>
  <symbol id="k" overflow="visible">
   <path d="m15.031-15.141v4.0781c-0.67969-0.46875-1.3594-0.8125-2.0469-1.0312-0.6875-0.22656-1.3984-0.34375-2.125-0.34375-1.3984 0-2.4844 0.41406-3.2656 1.2344-0.77344 0.8125-1.1562 1.9492-1.1562 3.4062 0 1.4609 0.38281 2.5938 1.1562 3.4062 0.78125 0.8125 1.8672 1.2188 3.2656 1.2188 0.78125 0 1.5195-0.11328 2.2188-0.34375 0.70703-0.22656 1.3594-0.57031 1.9531-1.0312v4.0938c-0.78125 0.28125-1.5781 0.49219-2.3906 0.64062-0.80469 0.14453-1.6055 0.21875-2.4062 0.21875-2.8242 0-5.0312-0.72266-6.625-2.1719-1.5859-1.4453-2.375-3.457-2.375-6.0312 0-2.582 0.78906-4.5938 2.375-6.0312 1.5938-1.4453 3.8008-2.1719 6.625-2.1719 0.8125 0 1.6133 0.074219 2.4062 0.21875 0.80078 0.13672 1.5977 0.35156 2.3906 0.64062z"/>
  </symbol>
 </defs>
 <g>
  <path d="m499.38 413.47h-405.34c-4.8477 0-8.7695 3.9258-8.7695 8.7656v30.234c0 4.8359 3.9297 8.7539 8.7695 8.7539h405.34c4.8242 0 8.75-3.9258 8.75-8.7539v-30.234c0-4.8398-3.9297-8.7656-8.7461-8.7656zm-8.7852 30.23h-387.8v-12.707h387.8v12.707z"/>
  <path d="m143.62 355.77h107.7l-15.312 32.68h-15.102c-4.8242 0-8.75 3.9258-8.75 8.7617 0 4.8359 3.9297 8.7422 8.75 8.7422h151.58c4.8359 0 8.75-3.9102 8.75-8.7422 0-4.8359-3.9219-8.7617-8.75-8.7617h-15.09l-15.305-32.68h107.69c11.273 0 20.445-9.1719 20.445-20.445v-216.11c0-11.273-9.1719-20.441-20.445-20.441h-306.17c-11.285 0-20.445 9.1641-20.445 20.441v216.11c0.011719 11.273 9.1719 20.449 20.457 20.449zm194.44 32.68h-82.699l15.324-32.68h52.051zm111.73-50.195h-184.34-0.011718-121.82c-1.5938 0-2.9258-1.332-2.9258-2.9375v-19.309h312.02v19.309c0 1.6094-1.3438 2.9375-2.9258 2.9375zm-306.17-221.97h306.17c1.582 0 2.9258 1.3438 2.9258 2.9297v179.28h-312.02v-179.29c0-1.5859 1.332-2.9258 2.9258-2.9258z"/>
  <path d="m595.07 351.61h-13.223c-4.1211-20.133-21.965-35.371-43.258-35.43-0.52734-0.011719-0.86719 0.023437-1.3086 0.089844-7.7891 1.1211-15.738-1.1523-21.719-6.3086-5.9844-5.1445-9.4531-12.629-9.5078-20.457v-35.441c0-4.8477-3.9102-8.7656-8.75-8.7656-4.8359 0-8.7695 3.9258-8.7695 8.7656v35.492c0.10156 12.965 5.7695 25.258 15.602 33.691 9.6523 8.3047 22.379 12.07 34.953 10.445 11.359 0.29688 20.984 7.707 24.613 17.922h-10.793c-10.836 0-19.664 8.8359-19.664 19.68v49.176c0 22.48 18.293 40.762 40.75 40.762 22.457 0 40.75-18.281 40.75-40.762v-49.176c-0.015625-10.852-8.832-19.684-19.676-19.684zm2.1406 68.859c0 12.812-10.41 23.23-23.223 23.23-12.801 0-23.234-10.418-23.234-23.23v-49.176c0-1.1758 0.99609-2.1523 2.1523-2.1523h12.32v26.68c0 4.8359 3.9297 8.7656 8.7617 8.7656 4.8477 0 8.7695-3.9297 8.7695-8.7656v-7.5781l0.003907-19.102h12.309c1.1602 0 2.1445 0.97656 2.1445 2.1523z"/>
  <path d="m296.75 318.37h-0.11328c-4.8477 0-8.6914 3.9297-8.6914 8.7617 0 4.8516 3.9727 8.7656 8.8047 8.7656 4.8477 0 8.7617-3.9219 8.7617-8.7656 0-4.8359-3.9219-8.7617-8.7617-8.7617z"/>
 </g>
</svg>
