<svg width="32" height="32" viewBox="0 0 32 32" xmlns="http://www.w3.org/2000/svg">
<path fill-rule="evenodd" clip-rule="evenodd" d="M23.071 8.92892C21.1823 7.04016 18.6711 6 16 6C13.3289 6 10.8177 7.04016 8.92892 8.92892C7.04016 10.8177 6 13.3289 6 16C6 18.6711 7.04016 21.1823 8.92892 23.0711C10.8177 24.9598 13.3289 26 16 26C18.6711 26 21.1823 24.9598 23.071 23.0711C24.9598 21.1823 26 18.6711 26 16C26 13.3289 24.9598 10.8177 23.071 8.92892ZM16 25.2032C10.9253 25.2032 6.79681 21.0747 6.79681 16C6.79681 10.9253 10.9253 6.79681 16 6.79681C21.0747 6.79681 25.2032 10.9253 25.2032 16C25.2032 21.0747 21.0747 25.2032 16 25.2032ZM16 7.64782C13.1661 7.64782 10.8605 9.95336 10.8605 12.7873C10.8605 13.5561 11.4861 14.1817 12.255 14.1817C13.0238 14.1817 13.6494 13.5561 13.6494 12.7873C13.6494 11.4911 14.7038 10.4367 16 10.4367C17.2961 10.4367 18.3506 11.4911 18.3506 12.7873C18.3506 14.0944 17.2961 15.1578 16 15.1578C15.2311 15.1578 14.6056 15.7833 14.6056 16.5522V19.2925C14.6056 20.0614 15.2311 20.6869 16 20.6869C16.7689 20.6869 17.3944 20.0613 17.3944 19.2925V17.7532C18.4014 17.4671 19.3099 16.8702 19.9789 16.0495C20.7273 15.1313 21.1394 13.9728 21.1394 12.7873C21.1394 9.95336 18.8339 7.64782 16 7.64782ZM16.912 17.0527C16.7286 17.0922 16.5976 17.2544 16.5976 17.4421V19.2924C16.5976 19.622 16.3295 19.8901 16 19.8901C15.6705 19.8901 15.4024 19.622 15.4024 19.2924V16.5522C15.4024 16.2226 15.6705 15.9546 16 15.9546C17.7355 15.9546 19.1474 14.5337 19.1474 12.7872C19.1474 11.0517 17.7355 9.63981 16 9.63981C14.2645 9.63981 12.8526 11.0518 12.8526 12.7872C12.8526 13.1167 12.5845 13.3848 12.255 13.3848C11.9254 13.3848 11.6573 13.1167 11.6573 12.7872C11.6573 10.3927 13.6054 8.44459 16 8.44459C18.3945 8.44459 20.3426 10.3927 20.3426 12.7872C20.3426 14.8303 18.8999 16.6242 16.912 17.0527ZM14.6057 22.7985C14.6057 22.0296 15.2312 21.4041 16.0001 21.4041C16.769 21.4041 17.3945 22.0296 17.3945 22.7985V22.9578C17.3945 23.7267 16.769 24.3523 16.0001 24.3523C15.2312 24.3523 14.6057 23.7267 14.6057 22.9578V22.7985ZM16.0001 23.5554C16.3296 23.5554 16.5977 23.2874 16.5977 22.9578V22.7985C16.5977 22.469 16.3296 22.2009 16.0001 22.2009C15.6706 22.2009 15.4025 22.469 15.4025 22.7985V22.9578C15.4025 23.2874 15.6706 23.5554 16.0001 23.5554ZM8.35359 17.5925C8.24582 17.0721 8.19116 16.5363 8.19116 16C8.19116 15.7799 8.01279 15.6016 7.79275 15.6016C7.57271 15.6016 7.39435 15.7799 7.39435 16C7.39435 16.5905 7.45459 17.1807 7.57331 17.7541C7.61232 17.9423 7.77809 18.0718 7.96303 18.0718C7.98981 18.0718 8.01702 18.0691 8.04427 18.0634C8.25973 18.0188 8.39821 17.8079 8.35359 17.5925ZM8.91956 19.2977C9.72809 21.0305 11.1388 22.4042 12.8917 23.1657C13.0935 23.2534 13.1861 23.488 13.0984 23.6899C13.0331 23.84 12.8866 23.9297 12.7328 23.9297C12.6798 23.9297 12.6259 23.919 12.5742 23.8966C10.6427 23.0575 9.08833 21.5439 8.19749 19.6346C8.10446 19.4352 8.19068 19.1981 8.39008 19.1051C8.5894 19.0121 8.82654 19.0983 8.91956 19.2977Z" fill="#060606"/>
</svg>
