<svg width="32" height="32" viewBox="0 0 32 32" xmlns="http://www.w3.org/2000/svg">
<path d="M22.8142 14.0209C22.1146 14.0209 21.447 14.1605 20.8374 14.4128L19.967 12.6721L21.4347 9.9625H23.215C23.4226 9.9625 23.5908 9.79426 23.5908 9.5867V8.38417C23.5908 7.95592 23.2425 7.60754 22.8142 7.60754H20.0084C19.3591 7.60754 18.8309 8.13573 18.8309 8.785V9.58665C18.8309 9.79417 18.9992 9.96245 19.2067 9.96245H20.58L19.2501 12.4176H13.2906L14.7271 9.76567C14.7568 9.71068 14.7724 9.64918 14.7724 9.5867V8.78504C14.7724 8.13578 14.2442 7.60759 13.5949 7.60759H10.3883C9.73905 7.60759 9.21086 8.13578 9.21086 8.78504C9.21086 9.43431 9.73905 9.9625 10.3883 9.9625H12.7933C13.0008 9.9625 13.1691 9.79426 13.1691 9.5867C13.1691 9.37914 13.0009 9.2109 12.7933 9.2109H10.3883C10.1535 9.2109 9.96241 9.01984 9.96241 8.785C9.96241 8.55015 10.1535 8.35909 10.3883 8.35909H13.595C13.8298 8.35909 14.0209 8.55015 14.0209 8.785V9.4914L11.3187 14.48C10.6678 14.1852 9.94567 14.0209 9.18583 14.0209C8.43362 14.0209 7.70795 14.1785 7.02906 14.4894C6.84039 14.5758 6.75747 14.7988 6.84386 14.9875C6.93025 15.1762 7.15333 15.259 7.34195 15.1727C7.92194 14.9072 8.54228 14.7725 9.18578 14.7725C9.81616 14.7725 10.4161 14.905 10.9595 15.1431L9.78081 17.3192C9.59294 17.2598 9.39306 17.2276 9.18578 17.2276C8.09448 17.2276 7.20667 18.1155 7.20667 19.2067C7.20667 20.298 8.09453 21.1858 9.18578 21.1858C10.277 21.1858 11.1649 20.298 11.1649 19.2067C11.1649 18.5916 10.8828 18.0412 10.4412 17.6779L11.6198 15.5021C12.8237 16.2958 13.62 17.6599 13.62 19.2067C13.62 21.6518 11.6308 23.641 9.18578 23.641C6.74073 23.641 4.75155 21.6518 4.75155 19.2067C4.75155 18.0101 5.22095 16.8885 6.07323 16.0484C6.22103 15.9027 6.22277 15.6648 6.07708 15.517C5.93139 15.3692 5.69341 15.3674 5.54566 15.5132C4.54895 16.4956 4 17.8073 4 19.2067C4 22.0662 6.32636 24.3925 9.18578 24.3925C12.0452 24.3925 14.3716 22.0661 14.3716 19.2067C14.3716 17.3749 13.4169 15.7619 11.9789 14.839L12.7158 13.4787L15.6242 19.2954V22.0126C15.6242 22.2201 15.7924 22.3884 16 22.3884H17.2024C17.41 22.3884 17.5782 22.2201 17.5782 22.0126C17.5782 21.805 17.41 21.6368 17.2024 21.6368H16.3757V19.5825H17.642C17.8352 22.2671 20.081 24.3925 22.8141 24.3925C23.8303 24.3925 24.8143 24.0986 25.66 23.5425C25.8333 23.4285 25.8815 23.1955 25.7675 23.0221C25.6535 22.8487 25.4204 22.8005 25.247 22.9145C24.5244 23.3897 23.6831 23.6409 22.8141 23.6409C20.4956 23.6409 18.5874 21.8523 18.396 19.5825H20.8712C21.0473 20.4946 21.8513 21.1858 22.8141 21.1858C23.9054 21.1858 24.7932 20.298 24.7932 19.2067C24.7932 18.1155 23.9053 17.2276 22.8141 17.2276C22.6295 17.2276 22.451 17.2536 22.2814 17.3011L21.1743 15.0869C21.6818 14.8842 22.2352 14.7725 22.8141 14.7725C25.2592 14.7725 27.2484 16.7617 27.2484 19.2068C27.2484 20.2138 26.9194 21.1629 26.2971 21.9513C26.1685 22.1143 26.1964 22.3506 26.3593 22.4792C26.5222 22.6077 26.7585 22.5798 26.8871 22.417C27.6151 21.4945 27.9999 20.3844 27.9999 19.2068C28 16.3472 25.6736 14.0209 22.8142 14.0209ZM19.5825 9.2109V8.785C19.5825 8.55015 19.7735 8.35909 20.0084 8.35909H22.8142C22.828 8.35909 22.8392 8.37029 22.8392 8.38412V9.21086H19.5825V9.2109ZM9.18578 20.4343C8.50891 20.4343 7.95822 19.8836 7.95822 19.2067C7.95822 18.5298 8.50891 17.9792 9.18578 17.9792C9.86266 17.9792 10.4133 18.5298 10.4133 19.2067C10.4133 19.8836 9.86266 20.4343 9.18578 20.4343ZM16 15.2234H15.1983C14.9908 15.2234 14.8225 15.3917 14.8225 15.5992C14.8225 15.8068 14.9908 15.975 15.1983 15.975H15.6242V17.6149L13.4014 13.1692H18.843L16.3758 17.724V15.5992C16.3758 15.3917 16.2075 15.2234 16 15.2234ZM17.6421 18.831H16.6309L19.53 13.4787L20.1657 14.75C18.7489 15.5951 17.767 17.0961 17.6421 18.831ZM22.8142 17.9792C23.4911 17.9792 24.0418 18.5298 24.0418 19.2067C24.0418 19.8836 23.4911 20.4343 22.8142 20.4343C22.1373 20.4343 21.5867 19.8836 21.5867 19.2067C21.5867 18.5298 22.1373 17.9792 22.8142 17.9792ZM21.6097 17.6379C21.2338 17.9272 20.9646 18.3479 20.8713 18.8309H18.3961C18.5177 17.3897 19.3313 16.1425 20.5028 15.424L21.6097 17.6379Z" fill="#060606"/>
</svg>
