<?xml version="1.0" encoding="UTF-8"?>
<svg width="32" height="32" version="1.1" viewBox="0 0 700 500" xmlns="http://www.w3.org/2000/svg" xmlns:xlink="http://www.w3.org/1999/xlink">
 <defs>
  <symbol id="s" overflow="visible">
   <path d="m20.844-1.25c-1.0742 0.5625-2.1953 0.98438-3.3594 1.2656-1.168 0.28125-2.3828 0.42188-3.6406 0.42188-3.7812 0-6.7773-1.0508-8.9844-3.1562-2.2109-2.1133-3.3125-4.9766-3.3125-8.5938 0-3.625 1.1016-6.4922 3.3125-8.6094 2.207-2.1133 5.2031-3.1719 8.9844-3.1719 1.2578 0 2.4727 0.14844 3.6406 0.4375 1.1641 0.28125 2.2852 0.69922 3.3594 1.25v4.7031c-1.0859-0.73828-2.1523-1.2812-3.2031-1.625-1.0547-0.34375-2.1641-0.51562-3.3281-0.51562-2.0859 0-3.7266 0.66797-4.9219 2-1.1992 1.3359-1.7969 3.1797-1.7969 5.5312 0 2.3359 0.59766 4.1719 1.7969 5.5156 1.1953 1.3359 2.8359 2 4.9219 2 1.1641 0 2.2734-0.17188 3.3281-0.51562 1.0508-0.34375 2.1172-0.88281 3.2031-1.625z"/>
  </symbol>
  <symbol id="c" overflow="visible">
   <path d="m15.25-12.375c-0.48047-0.22656-0.95312-0.39453-1.4219-0.5-0.46875-0.10156-0.94531-0.15625-1.4219-0.15625-1.3984 0-2.4766 0.44922-3.2344 1.3438-0.75 0.89844-1.125 2.1797-1.125 3.8438v7.8438h-5.4375v-17.016h5.4375v2.7969c0.69531-1.1133 1.5-1.9258 2.4062-2.4375 0.90625-0.50781 1.9922-0.76562 3.2656-0.76562 0.17578 0 0.36719 0.011719 0.57812 0.03125 0.21875 0.011719 0.53125 0.042969 0.9375 0.09375z"/>
  </symbol>
  <symbol id="a" overflow="visible">
   <path d="m19.594-8.5469v1.5469h-12.719c0.13281 1.2734 0.59766 2.2305 1.3906 2.875 0.78906 0.63672 1.8945 0.95312 3.3125 0.95312 1.1445 0 2.3164-0.16406 3.5156-0.5 1.1953-0.34375 2.4297-0.85938 3.7031-1.5469v4.1875c-1.293 0.49219-2.5859 0.85547-3.875 1.0938-1.2812 0.25-2.5625 0.375-3.8438 0.375-3.0859 0-5.4805-0.78125-7.1875-2.3438-1.6992-1.5625-2.5469-3.7539-2.5469-6.5781 0-2.7812 0.83203-4.9609 2.5-6.5469 1.6758-1.5938 3.9844-2.3906 6.9219-2.3906 2.6758 0 4.8164 0.80859 6.4219 2.4219 1.6016 1.6055 2.4062 3.7578 2.4062 6.4531zm-5.5938-1.8125c0-1.0312-0.30469-1.8633-0.90625-2.5-0.59375-0.63281-1.3828-0.95312-2.3594-0.95312-1.0547 0-1.9062 0.29688-2.5625 0.89062s-1.0703 1.4492-1.2344 2.5625z"/>
  </symbol>
  <symbol id="f" overflow="visible">
   <path d="m10.234-7.6562c-1.1367 0-1.9922 0.19531-2.5625 0.57812-0.5625 0.38672-0.84375 0.95312-0.84375 1.7031 0 0.6875 0.22656 1.2305 0.6875 1.625 0.45703 0.38672 1.0977 0.57812 1.9219 0.57812 1.0195 0 1.8789-0.36328 2.5781-1.0938 0.69531-0.73828 1.0469-1.6602 1.0469-2.7656v-0.625zm8.3125-2.0469v9.7031h-5.4844v-2.5156c-0.73047 1.0312-1.5547 1.7812-2.4688 2.25-0.90625 0.46875-2.0117 0.70312-3.3125 0.70312-1.7617 0-3.1953-0.50781-4.2969-1.5312-1.0938-1.0312-1.6406-2.3672-1.6406-4.0156 0-1.9883 0.67969-3.4453 2.0469-4.375 1.375-0.9375 3.5312-1.4062 6.4688-1.4062h3.2031v-0.42188c0-0.86328-0.33984-1.4922-1.0156-1.8906-0.67969-0.40625-1.7344-0.60938-3.1719-0.60938-1.168 0-2.2578 0.12109-3.2656 0.35938-1 0.23047-1.9297 0.57812-2.7812 1.0469v-4.1562c1.1641-0.28125 2.332-0.49219 3.5-0.64062 1.1758-0.14453 2.3516-0.21875 3.5312-0.21875 3.0703 0 5.2852 0.60547 6.6406 1.8125 1.3633 1.2109 2.0469 3.1797 2.0469 5.9062z"/>
  </symbol>
  <symbol id="b" overflow="visible">
   <path d="m8.5469-21.844v4.8281h5.6094v3.8906h-5.6094v7.2188c0 0.79297 0.15625 1.3281 0.46875 1.6094 0.32031 0.27344 0.94531 0.40625 1.875 0.40625h2.7969v3.8906h-4.6719c-2.1484 0-3.668-0.44531-4.5625-1.3438-0.89844-0.89453-1.3438-2.4141-1.3438-4.5625v-7.2188h-2.7031v-3.8906h2.7031v-4.8281z"/>
  </symbol>
  <symbol id="e" overflow="visible">
   <path d="m14.188-14.516v-9.125h5.4688v23.641h-5.4688v-2.4531c-0.75 1-1.5781 1.7344-2.4844 2.2031-0.89844 0.45703-1.9375 0.6875-3.125 0.6875-2.0938 0-3.8203-0.83203-5.1719-2.5-1.3438-1.6641-2.0156-3.8047-2.0156-6.4219 0-2.625 0.67188-4.7695 2.0156-6.4375 1.3516-1.6641 3.0781-2.5 5.1719-2.5 1.1758 0 2.2188 0.23438 3.125 0.70312s1.7344 1.2031 2.4844 2.2031zm-3.5781 11c1.1562 0 2.0391-0.42188 2.6562-1.2656 0.61328-0.85156 0.92188-2.0859 0.92188-3.7031 0-1.625-0.30859-2.8594-0.92188-3.7031-0.61719-0.85156-1.5-1.2812-2.6562-1.2812s-2.043 0.42969-2.6562 1.2812c-0.61719 0.84375-0.92188 2.0781-0.92188 3.7031 0 1.6172 0.30469 2.8516 0.92188 3.7031 0.61328 0.84375 1.5 1.2656 2.6562 1.2656z"/>
  </symbol>
  <symbol id="k" overflow="visible">
   <path d="m11.672-3.5156c1.1562 0 2.0391-0.42188 2.6562-1.2656 0.61328-0.85156 0.92188-2.0859 0.92188-3.7031 0-1.625-0.30859-2.8594-0.92188-3.7031-0.61719-0.85156-1.5-1.2812-2.6562-1.2812-1.168 0-2.0625 0.42969-2.6875 1.2812-0.625 0.85547-0.9375 2.0898-0.9375 3.7031 0 1.6055 0.3125 2.8359 0.9375 3.6875 0.625 0.85547 1.5195 1.2812 2.6875 1.2812zm-3.625-11c0.75-1 1.5781-1.7344 2.4844-2.2031 0.91406-0.46875 1.9688-0.70312 3.1562-0.70312 2.0938 0 3.8125 0.83594 5.1562 2.5 1.3516 1.668 2.0312 3.8125 2.0312 6.4375 0 2.6172-0.67969 4.7578-2.0312 6.4219-1.3438 1.668-3.0625 2.5-5.1562 2.5-1.1875 0-2.2422-0.23438-3.1562-0.70312-0.90625-0.46875-1.7344-1.1953-2.4844-2.1875v2.4531h-5.4375v-23.641h5.4375z"/>
  </symbol>
  <symbol id="j" overflow="visible">
   <path d="m0.375-17.016h5.4375l4.5781 11.547 3.8906-11.547h5.4375l-7.1562 18.625c-0.71875 1.8945-1.5586 3.2188-2.5156 3.9688-0.96094 0.75781-2.2188 1.1406-3.7812 1.1406h-3.1562v-3.5781h1.7031c0.92578 0 1.5977-0.14844 2.0156-0.4375 0.41406-0.29297 0.74219-0.82031 0.98438-1.5781l0.14062-0.46875z"/>
  </symbol>
  <symbol id="i" overflow="visible">
   <path d="m16.625-4.125h-9.1562l-1.4375 4.125h-5.875l8.3906-22.672h6.9844l8.3906 22.672h-5.875zm-7.6875-4.2188h6.2031l-3.0938-9.0156z"/>
  </symbol>
  <symbol id="h" overflow="visible">
   <path d="m19.719-10.359v10.359h-5.4688v-7.9062c0-1.4766-0.039062-2.4922-0.10938-3.0469-0.0625-0.5625-0.17188-0.97656-0.32812-1.25-0.21875-0.35156-0.51172-0.62891-0.875-0.82812-0.36719-0.19531-0.77734-0.29688-1.2344-0.29688-1.1367 0-2.0312 0.44531-2.6875 1.3281-0.64844 0.875-0.96875 2.0859-0.96875 3.625v8.375h-5.4375v-23.641h5.4375v9.125c0.82031-1 1.6914-1.7344 2.6094-2.2031 0.92578-0.46875 1.9453-0.70312 3.0625-0.70312 1.957 0 3.4453 0.60547 4.4688 1.8125 1.0195 1.1992 1.5312 2.9492 1.5312 5.25z"/>
  </symbol>
  <symbol id="g" overflow="visible">
   <path d="m18.375-14.188c0.6875-1.0508 1.5039-1.8516 2.4531-2.4062 0.94531-0.55078 1.9883-0.82812 3.125-0.82812 1.957 0 3.4453 0.60547 4.4688 1.8125 1.0195 1.1992 1.5312 2.9492 1.5312 5.25v10.359h-5.4688v-8.875c0.007813-0.125 0.015625-0.25781 0.015625-0.40625 0.007812-0.14453 0.015625-0.34766 0.015625-0.60938 0-1.207-0.17969-2.082-0.53125-2.625-0.35547-0.53906-0.92969-0.8125-1.7188-0.8125-1.0312 0-1.8281 0.42969-2.3906 1.2812-0.5625 0.85547-0.85547 2.0859-0.875 3.6875v8.3594h-5.4688v-8.875c0-1.8828-0.16406-3.0977-0.48438-3.6406-0.32422-0.53906-0.90234-0.8125-1.7344-0.8125-1.043 0-1.8516 0.43359-2.4219 1.2969-0.5625 0.85547-0.84375 2.0742-0.84375 3.6562v8.375h-5.4688v-17.016h5.4688v2.5c0.66406-0.96875 1.4297-1.6914 2.2969-2.1719 0.875-0.48828 1.832-0.73438 2.875-0.73438 1.1758 0 2.2109 0.28906 3.1094 0.85938 0.90625 0.5625 1.5859 1.3555 2.0469 2.375z"/>
  </symbol>
  <symbol id="r" overflow="visible">
   <path d="m13.812-23.641v3.5781h-3.0156c-0.77344 0-1.3086 0.14062-1.6094 0.42188-0.30469 0.27344-0.45312 0.75-0.45312 1.4375v1.1875h4.6406v3.8906h-4.6406v13.125h-5.4375v-13.125h-2.7031v-3.8906h2.7031v-1.1875c0-1.8516 0.51562-3.2227 1.5469-4.1094 1.0312-0.88281 2.6289-1.3281 4.7969-1.3281z"/>
  </symbol>
  <symbol id="d" overflow="visible">
   <path d="m10.703-13.531c-1.1992 0-2.1172 0.43359-2.75 1.2969-0.63672 0.86719-0.95312 2.1172-0.95312 3.75 0 1.625 0.31641 2.8711 0.95312 3.7344 0.63281 0.86719 1.5508 1.2969 2.75 1.2969 1.1875 0 2.0938-0.42969 2.7188-1.2969 0.63281-0.86328 0.95312-2.1094 0.95312-3.7344 0-1.6328-0.32031-2.8828-0.95312-3.75-0.625-0.86328-1.5312-1.2969-2.7188-1.2969zm0-3.8906c2.9258 0 5.2109 0.79297 6.8594 2.375 1.6445 1.5742 2.4688 3.7617 2.4688 6.5625 0 2.793-0.82422 4.9805-2.4688 6.5625-1.6484 1.5742-3.9336 2.3594-6.8594 2.3594-2.9375 0-5.2344-0.78516-6.8906-2.3594-1.6484-1.582-2.4688-3.7695-2.4688-6.5625 0-2.8008 0.82031-4.9883 2.4688-6.5625 1.6562-1.582 3.9531-2.375 6.8906-2.375z"/>
  </symbol>
  <symbol id="q" overflow="visible">
   <path d="m2.8594-22.672h6.5312l8.25 15.547v-15.547h5.5469v22.672h-6.5469l-8.2344-15.562v15.562h-5.5469z"/>
  </symbol>
  <symbol id="p" overflow="visible">
   <path d="m2.4375-6.625v-10.391h5.4688v1.7031c0 0.92969-0.007812 2.0898-0.015625 3.4844-0.011719 1.3867-0.015625 2.3125-0.015625 2.7812 0 1.3672 0.03125 2.3516 0.09375 2.9531 0.070312 0.60547 0.19531 1.043 0.375 1.3125 0.21875 0.35547 0.50391 0.63281 0.85938 0.82812 0.36328 0.1875 0.78125 0.28125 1.25 0.28125 1.1328 0 2.0234-0.42969 2.6719-1.2969 0.64453-0.875 0.96875-2.0859 0.96875-3.6406v-8.4062h5.4375v17.016h-5.4375v-2.4531c-0.82422 0.99219-1.6953 1.7188-2.6094 2.1875-0.91797 0.46875-1.9297 0.70312-3.0312 0.70312-1.9609 0-3.4531-0.59766-4.4844-1.7969-1.0234-1.207-1.5312-2.9609-1.5312-5.2656z"/>
  </symbol>
  <symbol id="o" overflow="visible">
   <path d="m19.719-10.359v10.359h-5.4688v-7.9219c0-1.4688-0.039062-2.4766-0.10938-3.0312-0.0625-0.5625-0.17188-0.97656-0.32812-1.25-0.21875-0.35156-0.51172-0.62891-0.875-0.82812-0.36719-0.19531-0.77734-0.29688-1.2344-0.29688-1.1367 0-2.0312 0.44531-2.6875 1.3281-0.64844 0.875-0.96875 2.0859-0.96875 3.625v8.375h-5.4375v-17.016h5.4375v2.5c0.82031-1 1.6914-1.7344 2.6094-2.2031 0.92578-0.46875 1.9453-0.70312 3.0625-0.70312 1.957 0 3.4453 0.60547 4.4688 1.8125 1.0195 1.1992 1.5312 2.9492 1.5312 5.25z"/>
  </symbol>
  <symbol id="n" overflow="visible">
   <path d="m2.8594-22.672h9.7031c2.8828 0 5.0977 0.64062 6.6406 1.9219 1.5508 1.2812 2.3281 3.1055 2.3281 5.4688 0 2.375-0.77734 4.2031-2.3281 5.4844-1.543 1.2812-3.7578 1.9219-6.6406 1.9219h-3.8594v7.875h-5.8438zm5.8438 4.2344v6.3281h3.2344c1.1328 0 2.0078-0.27344 2.625-0.82812 0.625-0.55078 0.9375-1.332 0.9375-2.3438 0-1.0078-0.3125-1.7852-0.9375-2.3281-0.61719-0.55078-1.4922-0.82812-2.625-0.82812z"/>
  </symbol>
  <symbol id="m" overflow="visible">
   <path d="m2.6094-17.016h5.4375v16.719c0 2.2695-0.54688 4.0039-1.6406 5.2031-1.0938 1.207-2.6797 1.8125-4.75 1.8125h-2.6875v-3.5781h0.9375c1.0312 0 1.7383-0.23438 2.125-0.70312 0.38281-0.46094 0.57812-1.3711 0.57812-2.7344zm0-6.625h5.4375v4.4375h-5.4375z"/>
  </symbol>
  <symbol id="l" overflow="visible">
   <path d="m16.359-16.484v4.4375c-0.74219-0.50781-1.4844-0.88281-2.2344-1.125-0.74219-0.23828-1.5117-0.35938-2.3125-0.35938-1.5117 0-2.6953 0.44531-3.5469 1.3281-0.84375 0.88672-1.2656 2.125-1.2656 3.7188 0 1.5859 0.42188 2.8203 1.2656 3.7031 0.85156 0.88672 2.0352 1.3281 3.5469 1.3281 0.85156 0 1.6602-0.125 2.4219-0.375 0.76953-0.25 1.4766-0.625 2.125-1.125v4.4531c-0.85547 0.3125-1.7188 0.54688-2.5938 0.70312s-1.75 0.23438-2.625 0.23438c-3.0742 0-5.4766-0.78516-7.2031-2.3594-1.7305-1.5703-2.5938-3.7578-2.5938-6.5625 0-2.8125 0.86328-5.0039 2.5938-6.5781 1.7266-1.5703 4.1289-2.3594 7.2031-2.3594 0.88281 0 1.7578 0.078125 2.625 0.23438 0.86328 0.15625 1.7266 0.39062 2.5938 0.70312z"/>
  </symbol>
 </defs>
 <g>
  <path d="m119.85 504.76c24.668-13.723 62.176-24.57 106.81-31.527v-52.77c-43.719-3.0078-85.609-15.559-120.95-37.336-1.0742-0.66406-1.9883-1.5156-2.7109-2.4922-0.3125-0.42578-0.59375-0.87109-0.83203-1.3398-0.18359-0.35547-0.33984-0.72266-0.47266-1.0938-0.50781-1.3867-0.69531-2.8984-0.51953-4.4297 0.42578-3.7266 2.9844-6.875 6.5469-8.0664 33.648-11.203 50.668-29.672 68.754-55.945-16.715-5.0977-32.184-12.047-46.156-20.734-3.0898-1.9219-4.832-5.418-4.5273-9.0352 0.32031-3.6211 2.6406-6.7695 6.0078-8.1367 26.98-10.926 46.391-28.691 65.109-60.148-6.9141-2.3047-13.852-5.0469-20.785-8.2148-3.5859-1.6406-7.168-3.3906-10.746-5.2539-3.4727-1.8086-6.9492-3.7227-10.414-5.7461-0.98047-0.57422-1.832-1.3086-2.5391-2.1523-0.29688-0.35156-0.56641-0.72656-0.80469-1.1211-0.23438-0.37109-0.4375-0.75781-0.61719-1.1602-0.625-1.4062-0.91797-2.9648-0.8125-4.5625 0.23047-3.6562 2.5234-6.8633 5.9062-8.2852 40.895-17.102 68.523-50.863 84.453-103.22 1.2109-3.9805 4.8164-6.7305 8.9609-6.8555 4.1016-0.10937 7.918 2.418 9.3516 6.3164 10.203 27.641 35.027 66.914 59.953 81.473 0.054688-2.1055 0.16016-4.2188 0.32422-6.3398 4.7734-63.668 55.727-115.47 113.56-115.47 50.668 0 91.312 39.789 97.184 93.719 43.336 10.941 72.453 54.703 68.672 105.14-2.5156 33.426-19.07 64.246-43.633 84.023 3.3438 15.23 3.3555 28.648 0.046875 40.898-6.1602 22.852-22.852 40.312-45.809 47.91-7.957 2.6406-16.23 3.9219-24.355 3.9219-11.668 0-23.031-2.6406-32.652-7.7227l-0.070312 72.293c53.75 7.2305 98.16 19.949 124.91 36.594 1.3594 0.84766 2.4375 1.9766 3.2031 3.2656 1.7852 3.0039 1.8789 6.8789-0.097656 10.051-1.8086 2.9414-4.9688 4.5586-8.2031 4.5586-1.7422 0-3.5039-0.46875-5.0977-1.4648-39.477-24.562-126.21-40.422-221.01-40.422-91.66 0-174.62 14.48-216.53 37.781-4.668 2.6016-10.555 0.91406-13.148-3.7422-2.5977-4.668-0.91406-10.555 3.7422-13.152zm211.08-115.27c-2.3867-1.0352-4.7227-2.1797-7.0156-3.4258-19.242-10.473-34.199-28.055-43.266-50.879-10.484-26.41-12.113-57.988-4.4297-86.613 7.6094-28.402 23.59-51.555 45.375-65.961-0.5625-2.5625-1.0391-5.1445-1.4336-7.7461-28.727-10.344-54.129-44.602-69.363-74.133-15.691 37.934-39.066 65.965-69.789 83.684 10.98 5.2383 21.938 9.3008 32.738 12.117 2.875 0.74609 5.25 2.7773 6.4258 5.5117 0.11328 0.25391 0.21094 0.51172 0.29688 0.76953l0.15625 0.50781c0.078125 0.28516 0.14062 0.57422 0.19531 0.85938 0.38281 2.1406 0.039063 4.3711-1.0195 6.3203-18.586 34.285-38.156 56.387-63.312 70.809 11.688 5.582 24.316 10.016 37.758 13.223 3.0625 0.73047 5.5781 2.9141 6.7383 5.8438 1.1602 2.9258 0.81641 6.2422-0.91016 8.8828-19.109 29.023-35.934 51.73-66.973 66.941 57.727 28.688 130.41 33.574 197.83 13.289zm34.871 7.5312c0.96484 0.027343 1.9375 0.039062 2.9141 0.039062 7.7148 0 15.73-0.81641 24.023-2.4258-0.19531 13.965-0.51172 27.758-0.76172 38.48l-0.070312 3.2891c-0.26562 11.578-0.49219 21.66-0.54297 29.309-14.848-0.78125-30.086-1.1836-45.594-1.1836-10.832 0-21.551 0.20312-32.117 0.59766-9.375 0.34766-18.625 0.84766-27.711 1.4961v-47.883c24.379-3.0742 48.664-9.0781 72.055-18.074 1.9883-0.76172 3.5781-2.1172 4.6523-3.7773 1.0469 0.058594 2.0938 0.10547 3.1523 0.13281zm-99.199 23.539v47.676c-6.9883 0.67188-13.863 1.4336-20.602 2.2773v-49.348h1.3711c6.3945 0 12.809-0.20312 19.23-0.60547zm185.57-44.043 0.09375-92.992c38.711-11.898 69.102-24.668 81.551-60.262 1.7617-5.043-0.89453-10.555-5.9336-12.32-5.0586-1.7695-10.555 0.89453-12.328 5.9375-9.2031 26.297-32.789 36.848-65.363 47.043-12.605-33.203-2.2539-103.77 15.801-136.84 1.6133-2.957 1.5234-6.3945 0.054687-9.168-0.85938-1.6172-2.1797-3.0117-3.9062-3.9531-4.6836-2.5586-10.574-0.83203-13.125 3.8516-9.0039 16.48-16.211 40.348-20.215 65.273-9.9727-9.1367-15.539-17.871-17.434-32.738-0.67578-5.2891-5.5273-9.0352-10.812-8.3711-5.2891 0.67578-9.0508 5.5234-8.3711 10.816 3.0391 23.816 13.949 37.023 30.598 50.617 1.0234 0.83594 2.1641 1.4375 3.3555 1.793-2.0508 25.672-0.29297 50.496 6.7812 67.633l-0.17188 196.12c-2.4961-0.26562-5.0195-0.51953-7.5547-0.76562-2.2617-0.21484-4.5391-0.42578-6.8242-0.625-2.543-0.22266-5.1016-0.42969-7.6758-0.62891 0.039063-7.1094 0.24219-16.652 0.49219-27.703l0.046875-2.2695 0.082031-3.4141c2.2656-98.027 0.48828-109.98-7.4844-114.99-7.7383-4.8594-14.645-7.582-20.746-9.9883-13.305-5.25-22.938-9.0469-35.82-34.371-2.4336-4.75-8.2539-6.6406-13.016-4.2227-1.9883 1.0078-3.4727 2.6133-4.3516 4.4883-1.2305 2.6133-1.2852 5.7422 0.125 8.5078 16.215 31.855 30.668 37.547 45.961 43.582 4.875 1.9219 9.8906 3.9102 15.223 6.9805 1.3398 6.293 1.7344 22.637 1.6992 41.305-62.543 14.367-86.711-27.73-94.266-46.75-17.438-43.887-6.0117-107.59 38.777-132.45 0.6875-0.38672 1.3164-0.84375 1.875-1.3672 0.39453-0.36328 0.75-0.75391 1.0742-1.1719 0.32031-0.41797 0.60547-0.85547 0.85156-1.3164 1.1719-2.1719 1.5117-4.7734 0.79688-7.2773-1.6523-5.7266-2.7812-11.621-3.3867-17.648l-0.078125-0.83203c-0.089843-0.95312-0.16406-1.9023-0.22656-2.8633-0.32031-4.9609-0.28906-10.008 0.09375-15.113 4.0469-53.805 46.352-97.586 94.285-97.586 42.492 0 76.215 35.617 78.453 82.832 0.10156 2.1367 0.89844 4.0977 2.1758 5.6602 0.67578 0.82422 1.4844 1.5352 2.3906 2.0977 1.0664 0.66406 2.2773 1.125 3.582 1.332 37.438 5.9258 63.211 42.949 59.969 86.133-2.8164 37.656-26.672 71.254-59.348 83.602-4.9844 1.8789-7.5117 7.4609-5.6211 12.461 0.45312 1.207 1.1211 2.2695 1.9453 3.1602 0.625 0.67188 1.3398 1.2461 2.1172 1.7109 2.4492 1.4648 5.5195 1.8398 8.3945 0.75 1.9922-0.75 3.957-1.5703 5.8945-2.4453 1.5859-0.72266 3.1523-1.4805 4.6992-2.2852 1.2617 9.0547 0.90625 17.102-1.0586 24.375-6.0625 22.531-23.418 31.332-33.211 34.578-16.992 5.6211-35.652 3.1914-47.547-6.2031-0.60547-0.47656-1.2461-0.86719-1.918-1.1797-0.46875-0.21875-0.95312-0.39453-1.4453-0.53516z" fill-rule="evenodd"/>
 </g>
</svg>
