<svg viewBox="0 0 32 32" xmlns="http://www.w3.org/2000/svg">
<path d="M27.6145 5H4.38545C4.17259 5 4 5.17259 4 5.38545V7.72793C4 7.94079 4.17259 8.11338 4.38545 8.11338H8.68575C8.89861 8.11338 9.0712 7.94079 9.0712 7.72793C9.0712 7.51507 8.89861 7.34247 8.68575 7.34247H4.77086V5.7709H27.229V7.34252H10.2275C10.0146 7.34252 9.84206 7.51511 9.84206 7.72797C9.84206 7.94083 10.0146 8.11343 10.2275 8.11343H15.007V13.2366L13.6631 13.6652C11.3499 14.4032 10.0681 16.8855 10.8059 19.1989C11.3909 21.0332 13.0767 22.2656 15.0009 22.2658C15.4538 22.2658 15.9044 22.1954 16.3401 22.0563L16.3417 22.0558L20.5774 20.7049C20.7802 20.6402 20.8922 20.4234 20.8275 20.2206C20.7629 20.0178 20.5461 19.9058 20.3432 19.9705L18.4773 20.5656C18.6418 20.3533 18.7888 20.1251 18.9147 19.8814C19.5747 18.6034 19.5563 17.0288 18.8744 15.7631C18.8734 15.7613 18.8724 15.7594 18.8714 15.7576C18.3157 14.7297 17.3797 13.9733 16.2732 13.6419L20.7035 12.229C20.708 12.2275 20.7126 12.2261 20.7171 12.2247V14.5766C20.7171 15.5274 21.5445 16.3191 22.5008 16.2709C23.3959 16.2254 24.1102 15.4828 24.1102 14.5766V12.8805C24.6505 13.3216 25.0529 13.9098 25.2686 14.5863C25.8773 16.4948 24.8199 18.5428 22.9113 19.1515L21.885 19.4788C21.6822 19.5435 21.5702 19.7603 21.6349 19.9631C21.6996 20.1659 21.9164 20.2779 22.1192 20.2132L23.1455 19.8859C25.459 19.1481 26.7408 16.6655 26.003 14.352C25.68 13.3393 25.0119 12.4902 24.1101 11.938V8.11333H27.6145C27.8274 8.11333 28 7.94074 28 7.72788V5.38545C27.9999 5.17255 27.8273 5 27.6145 5ZM18.5574 17.1153L18.5583 17.1195C18.971 19.0849 17.5179 21.1379 15.5443 21.4528C15.3646 21.4815 15.1826 21.4945 15.0006 21.4935C13.4631 21.485 12.0155 20.4545 11.5403 18.9646C10.933 17.0605 12.0395 14.9513 13.9584 14.3807C15.9514 13.7881 18.1276 15.0736 18.5574 17.1153ZM17.6292 12.4002C17.0121 12.597 16.395 12.7938 15.7779 12.9906V8.11333H17.6292V12.4002ZM20.717 11.4241C20.6325 11.4455 18.4 12.1543 18.4 12.1543V8.11333H20.717V11.4241ZM23.3392 14.5764C23.3392 15.1474 22.7894 15.6035 22.2281 15.4792C21.8181 15.3885 21.4879 15.0178 21.4879 14.5763V8.11338H23.3392C23.3392 8.11338 23.3392 14.572 23.3392 14.5764Z"/>
<path d="M22.4136 14.935C22.6666 14.935 22.8717 14.7299 22.8717 14.477C22.8717 14.224 22.6666 14.0189 22.4136 14.0189C22.1607 14.0189 21.9556 14.224 21.9556 14.477C21.9556 14.7299 22.1607 14.935 22.4136 14.935Z" />
<path d="M17.7284 16.991C17.4964 16.2636 16.9942 15.6697 16.3142 15.3186C15.6343 14.9675 14.8593 14.9019 14.1319 15.1339C13.8264 15.2313 13.5413 15.3785 13.2845 15.5713C13.1143 15.6992 13.0801 15.9408 13.2079 16.111C13.3357 16.2812 13.5773 16.3156 13.7475 16.1877C13.9349 16.0469 14.1431 15.9394 14.3661 15.8683C14.8973 15.6989 15.4635 15.7469 15.9605 16.0036C16.4575 16.2602 16.8245 16.6941 16.9939 17.2253C17.1634 17.7564 17.1153 18.3227 16.8587 18.8196C16.602 19.3166 16.1681 19.6836 15.637 19.853C15.1058 20.0225 14.5395 19.9744 14.0425 19.7178C13.5455 19.4611 13.1785 19.0272 13.0091 18.4961C12.8818 18.0973 12.877 17.6748 12.995 17.274C13.0551 17.0698 12.9383 16.8555 12.734 16.7954C12.53 16.7353 12.3155 16.8522 12.2555 17.0563C12.0939 17.6054 12.1005 18.1842 12.2747 18.7303C12.6623 19.9458 13.7907 20.7231 15.0033 20.723C15.2907 20.7229 15.5831 20.6793 15.8711 20.5874C16.5986 20.3555 17.1925 19.8534 17.5436 19.1734C17.8948 18.4934 17.9604 17.7183 17.7284 16.991Z" />
<path d="M9.84248 19.9531C9.76363 19.7553 9.53953 19.6589 9.34171 19.7378L5.34498 21.3311C5.14721 21.4099 5.05089 21.6341 5.12968 21.8319C5.18987 21.9828 5.33467 22.0747 5.48785 22.0747C5.53534 22.0747 5.58367 22.0658 5.63045 22.0472L9.62718 20.4539C9.8249 20.375 9.92123 20.1508 9.84248 19.9531Z" />
<path d="M8.73258 15.8719H4.53798C4.32512 15.8719 4.15253 16.0445 4.15253 16.2574C4.15253 16.4702 4.32512 16.6428 4.53798 16.6428H8.73258C8.94543 16.6428 9.11803 16.4702 9.11803 16.2574C9.11803 16.0445 8.94543 15.8719 8.73258 15.8719Z" />
<path d="M11.9593 23.0527C11.8078 22.9032 11.5637 22.9048 11.4142 23.0563L8.46806 26.0421C8.31853 26.1936 8.32017 26.4376 8.47172 26.5871C8.54681 26.6612 8.64459 26.6982 8.74242 26.6982C8.84193 26.6982 8.9414 26.6599 9.01678 26.5835L11.963 23.5977C12.1125 23.4462 12.1108 23.2022 11.9593 23.0527Z" />
</svg>
