<svg width="32" height="32" viewBox="0 0 32 32" xmlns="http://www.w3.org/2000/svg">
<path fill-rule="evenodd" clip-rule="evenodd" d="M24.2876 8.3433C24.109 7.89348 23.7659 7.54088 23.3216 7.35068L16.22 4.29989C15.4055 3.9495 14.4913 3.90456 13.6459 4.17347L11.2941 4.92091C11.0533 4.99742 10.9202 5.25468 10.9967 5.49538C11.0732 5.73618 11.3306 5.86939 11.5712 5.79278L13.9231 5.04534C14.5588 4.84311 15.2462 4.87689 15.8587 5.1404L22.961 8.19147C23.1802 8.28535 23.3492 8.45909 23.4373 8.68079C23.5253 8.90282 23.5214 9.14562 23.4266 9.36327L23.8447 9.54882L23.423 9.3712C23.2344 9.79632 22.7439 10.0052 22.306 9.8465L16.8735 7.88101C16.3577 7.69373 15.7866 7.68774 15.2651 7.8638L10.4909 9.47577C9.75112 9.72618 9.32175 10.5148 9.5135 11.2717C9.62837 11.7221 9.9377 12.0884 10.3622 12.2768C10.7047 12.4287 11.089 12.4478 11.4443 12.3303L15.6098 10.9541C15.9397 10.8455 16.3043 11.0107 16.44 11.3312C16.5133 11.5034 16.5115 11.6932 16.4349 11.8657C16.3607 12.0328 16.2259 12.1597 16.0546 12.223L9.48118 14.665C9.44012 14.6808 9.39793 14.6953 9.35541 14.7093C8.30874 15.0566 7.11751 14.8777 6.1687 14.2309L2.71508 11.8771C2.50638 11.7349 2.22182 11.7887 2.07948 11.9975C1.9372 12.2062 1.99111 12.4908 2.19986 12.6331L5.65343 14.9868C6.43638 15.5205 7.35443 15.7978 8.26708 15.7978C8.73336 15.7978 9.1983 15.7254 9.64294 15.5779C9.70828 15.5563 9.76137 15.5375 9.80497 15.5207L16.3723 13.0808C16.7766 12.9315 17.0957 12.6317 17.2711 12.2368C17.449 11.8359 17.4529 11.3753 17.282 10.9737C16.9621 10.2188 16.1016 9.82858 15.3229 10.0855L11.1572 11.4616C11.0179 11.5076 10.8675 11.5001 10.7333 11.4407C10.5666 11.3667 10.4451 11.2227 10.4002 11.0465C10.325 10.75 10.4938 10.4408 10.7839 10.3425L15.5579 8.73059C15.8836 8.62058 16.24 8.62435 16.5618 8.74117L21.9945 10.7068C22.8822 11.0283 23.8766 10.6045 24.2569 9.74749L24.2649 9.72963C24.4582 9.28574 24.4662 8.79334 24.2876 8.3433ZM10.0989 5.78087C10.0224 5.54006 9.76493 5.40696 9.5244 5.48346L6.20642 6.53802C5.93114 6.62575 5.63438 6.60843 5.37038 6.48919L5.07757 6.35732C4.84728 6.25351 4.57637 6.35625 4.47267 6.58658C4.36892 6.81681 4.47159 7.08766 4.70187 7.19142L4.9942 7.32312C5.26646 7.44614 5.55863 7.50819 5.85182 7.50819C6.06435 7.50819 6.27748 7.47555 6.4838 7.40988L9.80152 6.35538C10.0423 6.27882 10.1754 6.02156 10.0989 5.78087ZM27.5304 20.5404L29.5441 23.4532C29.6877 23.661 29.6358 23.9459 29.4279 24.0898C29.3485 24.1447 29.2579 24.171 29.1682 24.171C29.023 24.171 28.8803 24.1021 28.7915 23.9737L26.7778 21.0608C26.2369 20.2781 25.3698 19.785 24.4582 19.7418C24.4212 19.74 24.3847 19.7386 24.3486 19.7386L18.4067 19.6674C18.2709 19.6647 18.1434 19.7173 18.0473 19.8135C17.9482 19.9127 17.8963 20.0437 17.901 20.1826C17.9096 20.4414 18.1183 20.6536 18.3762 20.6663L22.0886 20.8469C22.4229 20.8631 22.7373 21.0025 22.974 21.2392C23.2675 21.5326 23.4078 21.9375 23.3589 22.3499C23.2757 23.0429 22.6662 23.5615 21.9669 23.5338L17.7011 23.3542C17.2193 23.3339 16.7542 23.1491 16.3917 22.8335L12.6952 19.625C12.425 19.3902 12.0153 19.4043 11.7625 19.6572L11.4335 19.3392L11.7581 19.6615C11.6295 19.792 11.5595 19.9651 11.5614 20.1487C11.5632 20.3321 11.6365 20.5035 11.7677 20.6313L13.8568 22.6711C14.0375 22.8476 14.041 23.1372 13.8645 23.318C13.688 23.4987 13.3983 23.5021 13.2176 23.3257L11.1289 21.2862C10.8222 20.9875 10.6508 20.5867 10.6464 20.158C10.6421 19.729 10.8056 19.3244 11.1067 19.019L11.1122 19.0135C11.7065 18.4193 12.6638 18.3859 13.295 18.9342L16.9917 22.143C17.1988 22.3231 17.4642 22.4285 17.7395 22.44L22.005 22.6197C22.2257 22.6286 22.4239 22.4628 22.4506 22.2414C22.4662 22.1098 22.4213 21.9801 22.3272 21.8861C22.2515 21.8103 22.1511 21.7658 22.0444 21.7606L18.3316 21.58C17.6015 21.5441 17.011 20.9439 16.9868 20.2134C16.9734 19.8248 17.1242 19.4429 17.4006 19.1665C17.6728 18.8942 18.032 18.7467 18.4185 18.7524L24.3541 18.8236L24.386 18.8245L24.4056 18.8249H24.4056H24.4057C24.4372 18.8256 24.4695 18.8263 24.5023 18.8279C25.6962 18.8844 26.8285 19.5246 27.5304 20.5404ZM25.9 26.9844L25.709 26.7913C25.3901 26.4681 24.965 26.2753 24.5121 26.2484L17.9103 25.8518C17.363 25.8191 16.8457 25.5901 16.4535 25.2069L14.9819 23.7699C14.8011 23.5934 14.5115 23.5969 14.335 23.7776C14.1585 23.9583 14.162 24.248 14.3427 24.4245L15.8142 25.8613C16.3635 26.3982 17.0886 26.7192 17.8556 26.765L24.4575 27.1616C24.6847 27.1751 24.8978 27.2718 25.0582 27.4343L25.2496 27.6277C25.3391 27.7182 25.4568 27.7634 25.5747 27.7634C25.691 27.7634 25.8073 27.7194 25.8964 27.6312C26.076 27.4536 26.0776 27.1639 25.9 26.9844ZM19.7988 12.8314C20.1093 12.4557 20.5514 12.2204 21.0412 12.2204C22.1497 12.2204 23.0515 13.2458 23.0515 14.5062C23.0515 15.05 22.838 15.6071 22.4167 16.1623C22.2641 16.3636 21.977 16.403 21.7758 16.2502C21.5746 16.0975 21.5351 15.8106 21.6879 15.6094C21.9857 15.2169 22.1367 14.8458 22.1367 14.5063C22.1367 13.7504 21.6453 13.1353 21.0412 13.1353C20.6084 13.1353 20.2563 13.5863 20.2563 14.1406C20.2563 14.3932 20.0515 14.5981 19.7989 14.5981C19.5462 14.5981 19.3414 14.3932 19.3414 14.1406C19.3414 13.5863 18.9893 13.1353 18.5565 13.1353C17.9524 13.1353 17.461 13.7504 17.461 14.5063C17.461 15.4475 18.6361 16.5058 19.7989 17.1489C20.0465 17.012 20.2922 16.8581 20.5194 16.6971C20.7256 16.5511 21.011 16.5999 21.157 16.8059C21.3031 17.012 21.2544 17.2975 21.0482 17.4436C20.7177 17.6779 20.3673 17.89 20.0071 18.0742C19.9417 18.1076 19.8702 18.1244 19.7989 18.1244C19.7275 18.1244 19.656 18.1076 19.5906 18.0742C18.8255 17.6831 18.1138 17.1703 17.5866 16.6304C16.8962 15.9233 16.546 15.2087 16.546 14.5063C16.546 13.2458 17.4479 12.2204 18.5564 12.2204C19.0462 12.2204 19.4883 12.4557 19.7988 12.8314Z" fill="#060606"/>
</svg>
