<svg width="32" height="32" viewBox="0 0 32 32" xmlns="http://www.w3.org/2000/svg">
<path fill-rule="evenodd" clip-rule="evenodd" d="M24.0797 5.76892C24.0797 5.50487 24.2938 5.29084 24.5578 5.29084C24.8218 5.29084 25.0359 5.50487 25.0359 5.76892V8.35056C25.0359 8.61461 24.8218 8.82864 24.5578 8.82864H21.9761C21.7121 8.82864 21.498 8.61461 21.498 8.35056C21.498 8.08652 21.7121 7.87248 21.9761 7.87248H23.4766C21.4329 5.98872 18.796 4.95616 16 4.95616C9.91037 4.95616 4.95616 9.91042 4.95616 16C4.95616 16.264 4.74208 16.4781 4.47808 16.4781C4.21408 16.4781 4 16.264 4 16C4 12.7947 5.24819 9.78123 7.51478 7.51469C9.78123 5.24819 12.7946 4 16 4C19.0178 4 21.8653 5.10677 24.0797 7.12773V5.76892ZM20.4329 13.0198C20.6118 12.9836 20.796 13.0527 20.9071 13.1977C21.0182 13.3428 21.037 13.5384 20.9553 13.7019L15.313 25.0104C15.2302 25.1765 15.062 25.2751 14.8852 25.2751C14.8322 25.2751 14.7783 25.2662 14.7257 25.2476C14.4982 25.167 14.3663 24.9294 14.4185 24.6937L16.017 17.4627L11.5678 18.3609C11.3932 18.3962 11.2134 18.3313 11.1014 18.1928C10.9894 18.0542 10.9637 17.8648 11.0348 17.7015L15.6859 7.01251C15.7799 6.79637 16.0174 6.68111 16.2453 6.74073C16.4733 6.8004 16.6238 7.01725 16.5999 7.25167L15.92 13.9308L20.4329 13.0198ZM17.1091 16.9519L16.1895 21.1121L19.6628 14.1507L15.4733 14.9965C15.3244 15.0265 15.1702 14.984 15.0576 14.882C14.9451 14.7799 14.8878 14.6305 14.9032 14.4794L15.3378 10.209L12.2775 17.242L16.5477 16.38C16.5792 16.3736 16.6108 16.3705 16.6423 16.3705C16.7693 16.3705 16.8926 16.4212 16.9834 16.5137C17.0967 16.6292 17.144 16.794 17.1091 16.9519ZM27.044 16.0001C27.044 15.736 27.2581 15.522 27.5221 15.522C27.7861 15.522 28.0002 15.736 28.0002 16C28.0002 16.1484 27.9974 16.299 27.992 16.4478C27.9825 16.7057 27.7705 16.9084 27.5145 16.9084L27.506 16.9083L27.4967 16.9081C27.2329 16.8984 27.0268 16.6767 27.0365 16.4128C27.0414 16.2757 27.044 16.1368 27.044 16.0001ZM27.2597 18.502C27.0047 18.4342 26.7427 18.5862 26.675 18.8414C25.3928 23.6708 21.0031 27.0437 15.9999 27.0437C13.3 27.0437 10.7485 26.0809 8.73608 24.3186H10.2628C10.5268 24.3186 10.7409 24.1046 10.7409 23.8405C10.7409 23.5765 10.5268 23.3625 10.2628 23.3625H7.6812C7.4172 23.3625 7.20312 23.5765 7.20312 23.8405V26.4222C7.20312 26.6863 7.4172 26.9003 7.6812 26.9003C7.9452 26.9003 8.15928 26.6863 8.15928 26.4222V25.085C10.3377 26.9708 13.0897 27.9999 15.9999 27.9999C21.4362 27.9999 26.2059 24.3346 27.5991 19.0867C27.6668 18.8315 27.5149 18.5697 27.2597 18.502Z" fill="#060606"/>
</svg>
