<?xml version="1.0" encoding="UTF-8"?><svg id="Calque_2" xmlns="http://www.w3.org/2000/svg" xmlns:xlink="http://www.w3.org/1999/xlink" viewBox="0 0 58.74 52.59"><defs><style>.cls-1{clip-path:url(#clippath);}.cls-2{fill:#f4e8d3;}.cls-2,.cls-3,.cls-4{stroke-width:0px;}.cls-3{fill:none;}.cls-5{clip-path:url(#clippath-1);}.cls-4{fill:#060606;}</style><clipPath id="clippath"><rect class="cls-3" x="3.36" y="5.03" width="47.56" height="47.56"/></clipPath><clipPath id="clippath-1"><rect class="cls-3" x="3.36" y="5.03" width="47.56" height="47.56"/></clipPath></defs><g id="Calque_1-2"><path class="cls-2" d="M4.04,33.91c5.5,7.03,13.87,11.32,22.46,13.75,7.43,2.1,16.01,2.77,22.35-1.65,20.53-14.33,5.23-38.19-10.6-44.19C16.04-6.58-10.18,15.74,4.04,33.91Z"/><g class="cls-1"><g class="cls-5"><path class="cls-4" d="M25.68,40.83l-1.62,1.62-10.56-10.56,1.62-1.62c.3-.3.3-.78,0-1.07-.3-.3-.78-.3-1.07,0l-4.35,4.35c-.86.86-1.51,1.84-1.97,2.93-.03.05-.05.1-.06.16-.67,1.69-.85,3.62-.54,5.74.28,1.87.88,3.41,1.21,4.17l-1.85,1.85c-.3.3-.3.78,0,1.07.15.15.34.22.54.22s.39-.07.54-.22l1.85-1.85c.76.34,2.3.94,4.17,1.21.67.1,1.32.15,1.96.15,1.36,0,2.63-.23,3.78-.69.06-.02.11-.04.17-.07,1.08-.45,2.06-1.11,2.91-1.96l4.35-4.35c.3-.3.3-.78,0-1.07-.3-.3-.78-.3-1.07,0ZM13.84,47.33c-1.91-.28-3.47-.94-4.02-1.2-.26-.55-.92-2.11-1.2-4.02-.21-1.4-.17-2.69.11-3.85l8.96,8.96c-1.16.28-2.45.32-3.85.11ZM21.32,45.19c-.61.61-1.3,1.1-2.05,1.47l-9.98-9.98c.37-.75.86-1.43,1.47-2.05l1.66-1.66,10.56,10.56-1.66,1.66Z"/><path class="cls-4" d="M19.13,28.53c-.3-.3-.78-.3-1.07,0-.3.3-.3.78,0,1.07l8.3,8.3c.15.15.34.22.54.22s.39-.07.54-.22c.3-.3.3-.78,0-1.07l-8.3-8.3Z"/><path class="cls-4" d="M29.14,31.38c.19,0,.39-.07.54-.22.3-.3.3-.78,0-1.07l-3.82-3.82c-.3-.3-.78-.3-1.07,0s-.3.78,0,1.07l3.82,3.82c.15.15.34.22.54.22Z"/><path class="cls-4" d="M50.21,40.84c-.42-.96-1.03-1.85-1.75-2.58l-9.06-9.06c.98-1.22,1.52-2.73,1.52-4.32,0-.38-.03-.75-.09-1.11.59.3,1.24.44,1.89.44,1.08,0,2.16-.41,2.98-1.23,1.64-1.64,1.64-4.32,0-5.97l-1.29-1.29,2.18-2.18c.3-.3.3-.78,0-1.07-.3-.3-.78-.3-1.07,0l-2.18,2.18-2.03-2.03,2.18-2.18c.3-.3.3-.78,0-1.07-.3-.3-.78-.3-1.07,0l-2.18,2.18-1.29-1.29c-1.64-1.64-4.32-1.64-5.97,0-1.32,1.32-1.58,3.29-.79,4.87-.36-.06-.74-.09-1.11-.09-1.59,0-3.1.53-4.32,1.52l-9.06-9.06c-.73-.73-1.62-1.33-2.58-1.75-4.23-1.86-9.19.07-11.05,4.3-1.86,4.23.07,9.19,4.3,11.04.05.02.11.05.17.07.1,3.35,2.77,6.14,6.18,6.32.12,0,.23,0,.35,0,.7,0,1.39-.11,2.06-.34l13.84-4.63c.26-.04.48-.21.59-.45.02-.05.04-.1.05-.16,0,0,0-.02,0-.02,0-.03,0-.05.01-.08,0,0,0,0,0-.01,0,0,0,0,0,0,0-.03,0-.06,0-.09,0,0,0-.01,0-.02,0-.03,0-.05-.01-.08,0,0,0-.01,0-.02,0-.03-.02-.06-.03-.09,0,0,0,0,0,0-.01-.03-.02-.05-.04-.08,0,0,0-.01-.01-.02-.02-.03-.03-.06-.05-.08,0,0,0,0,0,0-.02-.03-.04-.05-.06-.07,0,0,0,0,0,0l-3.57-3.57c.93-.7,2.05-1.08,3.24-1.08,1.44,0,2.79.56,3.81,1.58l2.94,2.94c1.02,1.02,1.58,2.37,1.58,3.81,0,1.18-.38,2.31-1.08,3.24l-3.57-3.57s0,0,0,0c-.05-.05-.1-.09-.16-.12,0,0-.01,0-.02-.01-.03-.01-.06-.03-.09-.04,0,0,0,0,0,0-.03-.01-.06-.02-.09-.03,0,0-.01,0-.02,0-.03,0-.05,0-.08-.01,0,0-.01,0-.02,0-.03,0-.06,0-.09,0,0,0,0,0,0,0,0,0-.01,0-.02,0-.03,0-.05,0-.08.01,0,0-.02,0-.03,0-.03,0-.06.01-.08.02,0,0,0,0,0,0,0,0,0,0,0,0-.01,0-.02.01-.04.02-.26.1-.44.33-.47.6l-4.63,13.84c-.26.78-.37,1.6-.33,2.41.19,3.41,2.97,6.08,6.32,6.18.02.06.05.11.07.17,1.38,3.14,4.46,5.01,7.69,5.01,1.12,0,2.27-.23,3.36-.71,4.23-1.86,6.16-6.81,4.31-11.04ZM5.46,10.65c1.52-3.47,5.58-5.05,9.04-3.53.79.35,1.52.84,2.11,1.44l12.32,12.32-19.47-1c-.17-.06-.33-.12-.49-.19-3.47-1.52-5.05-5.58-3.53-9.04ZM16.65,25.71c-.61.2-1.21.29-1.85.25-1.34-.07-2.57-.66-3.46-1.66-.72-.81-1.16-1.8-1.26-2.86l16.76.86-10.18,3.41ZM44.62,18.09c1.05,1.05,1.05,2.77,0,3.82-1.05,1.05-2.77,1.05-3.82,0l-1.29-1.29,3.82-3.82,1.29,1.29ZM42.26,15.73l-3.82,3.82-2.03-2.03,3.82-3.82,2.03,2.03ZM34.04,11.33c.53-.53,1.22-.79,1.91-.79s1.38.26,1.91.79l1.29,1.29-3.82,3.82-1.29-1.29c-1.05-1.05-1.05-2.77,0-3.82ZM45.3,50.49c-3.47,1.52-7.52-.06-9.04-3.53-.07-.16-.13-.32-.19-.49l-.47-9.14c-.02-.42-.38-.74-.8-.72-.42.02-.74.38-.72.8l.43,8.46c-1.06-.1-2.06-.54-2.86-1.26-1-.9-1.59-2.13-1.66-3.46-.03-.63.05-1.24.25-1.85l3.41-10.18.27,5.27c.02.41.36.72.76.72.01,0,.03,0,.04,0,.42-.02.74-.38.72-.8l-.37-7.3,12.32,12.32c.59.59,1.09,1.33,1.44,2.11,1.52,3.47-.06,7.52-3.53,9.04Z"/></g></g></g></svg>