<?xml version="1.0" encoding="UTF-8"?><svg id="Calque_2" xmlns="http://www.w3.org/2000/svg" viewBox="0 0 66.25 49.29"><defs><style>.cls-1{fill:#b3d0eb;}.cls-1,.cls-2{stroke-width:0px;}.cls-2{fill:#060606;}</style></defs><g id="Calque_1-2"><path class="cls-1" d="M7.18,33.91c5.5,7.03,13.87,11.32,22.46,13.75,7.43,2.1,16.01,2.77,22.35-1.65,20.53-14.33,5.23-38.19-10.6-44.19C19.18-6.58-7.04,15.74,7.18,33.91Z"/><path class="cls-2" d="M51.94,20.07c-1.93,0-3.77.39-5.46,1.08l-2.4-4.81,4.05-7.48h4.91c.57,0,1.04-.46,1.04-1.04v-3.32c0-1.18-.96-2.14-2.14-2.14h-7.75c-1.79,0-3.25,1.46-3.25,3.25v2.21c0,.57.46,1.04,1.04,1.04h3.79l-3.67,6.78h-16.45l3.97-7.32c.08-.15.13-.32.13-.49v-2.21c0-1.79-1.46-3.25-3.25-3.25h-8.85c-1.79,0-3.25,1.46-3.25,3.25s1.46,3.25,3.25,3.25h6.64c.57,0,1.04-.46,1.04-1.04s-.46-1.04-1.04-1.04h-6.64c-.65,0-1.18-.53-1.18-1.18s.53-1.18,1.18-1.18h8.85c.65,0,1.18.53,1.18,1.18v1.95l-7.46,13.77c-1.8-.81-3.79-1.27-5.89-1.27s-4.08.44-5.95,1.29c-.52.24-.75.85-.51,1.38s.85.75,1.38.51c1.6-.73,3.31-1.1,5.09-1.1s3.4.37,4.9,1.02l-3.25,6.01c-.52-.16-1.07-.25-1.64-.25-3.01,0-5.46,2.45-5.46,5.46s2.45,5.46,5.46,5.46,5.46-2.45,5.46-5.46c0-1.7-.78-3.22-2-4.22l3.25-6.01c3.32,2.19,5.52,5.96,5.52,10.23,0,6.75-5.49,12.24-12.24,12.24s-12.24-5.49-12.24-12.24c0-3.3,1.3-6.4,3.65-8.72.41-.4.41-1.06.01-1.47-.4-.41-1.06-.41-1.47-.01-2.75,2.71-4.27,6.33-4.27,10.2,0,7.89,6.42,14.32,14.32,14.32s14.32-6.42,14.32-14.32c0-5.06-2.64-9.51-6.61-12.06l2.03-3.76,8.03,16.06v7.5c0,.57.46,1.04,1.04,1.04h3.32c.57,0,1.04-.46,1.04-1.04s-.46-1.04-1.04-1.04h-2.28v-5.67h3.5c.53,7.41,6.73,13.28,14.28,13.28,2.81,0,5.52-.81,7.86-2.35.48-.31.61-.96.3-1.44-.31-.48-.96-.61-1.44-.3-1.99,1.31-4.32,2.01-6.72,2.01-6.4,0-11.67-4.94-12.2-11.2h6.83c.49,2.52,2.71,4.43,5.36,4.43,3.01,0,5.46-2.45,5.46-5.46s-2.45-5.46-5.46-5.46c-.51,0-1,.07-1.47.2l-3.06-6.11c1.4-.56,2.93-.87,4.53-.87,6.75,0,12.24,5.49,12.24,12.24,0,2.78-.91,5.4-2.63,7.58-.36.45-.28,1.1.17,1.46.45.35,1.1.28,1.46-.17,2.01-2.55,3.07-5.61,3.07-8.86,0-7.89-6.42-14.32-14.32-14.32ZM43.02,6.79v-1.18c0-.65.53-1.18,1.18-1.18h7.75s.07.03.07.07v2.28h-8.99ZM14.32,37.77c-1.87,0-3.39-1.52-3.39-3.39s1.52-3.39,3.39-3.39,3.39,1.52,3.39,3.39-1.52,3.39-3.39,3.39ZM33.13,23.39h-2.21c-.57,0-1.04.46-1.04,1.04s.46,1.04,1.04,1.04h1.18v4.53l-6.14-12.27h15.02l-6.81,12.57v-5.87c0-.57-.46-1.04-1.04-1.04ZM37.66,33.35h-2.79l8-14.78,1.75,3.51c-3.91,2.33-6.62,6.48-6.97,11.27ZM51.94,30.99c1.87,0,3.39,1.52,3.39,3.39s-1.52,3.39-3.39,3.39-3.39-1.52-3.39-3.39,1.52-3.39,3.39-3.39ZM48.61,30.05c-1.04.8-1.78,1.96-2.04,3.29h-6.83c.34-3.98,2.58-7.42,5.82-9.4l3.06,6.11Z"/></g></svg>