<?xml version="1.0" encoding="UTF-8"?><svg id="Calque_2" xmlns="http://www.w3.org/2000/svg" viewBox="0 0 62.25 49.29"><defs><style>.cls-1{fill:#dfecf7;}.cls-1,.cls-2{stroke-width:0px;}.cls-2{fill:#060606;}</style></defs><g id="Calque_1-2"><path class="cls-1" d="M7.54,33.91c5.5,7.03,13.87,11.32,22.46,13.75,7.43,2.1,16.01,2.77,22.35-1.65,20.53-14.33,5.23-38.19-10.6-44.19C19.54-6.58-6.68,15.74,7.54,33.91Z"/><path class="cls-2" d="M44.87,20.63c-1.67,0-3.26.33-4.71.93l-2.08-4.15,3.5-6.46h4.25c.5,0,.9-.4.9-.9v-2.87c0-1.02-.83-1.85-1.85-1.85h-6.69c-1.55,0-2.81,1.26-2.81,2.81v1.91c0,.49.4.9.9.9h3.28l-3.17,5.86h-14.21l3.43-6.32c.07-.13.11-.28.11-.43v-1.91c0-1.55-1.26-2.81-2.81-2.81h-7.65c-1.55,0-2.81,1.26-2.81,2.81s1.26,2.81,2.81,2.81h5.74c.49,0,.9-.4.9-.9s-.4-.9-.9-.9h-5.74c-.56,0-1.02-.46-1.02-1.02s.46-1.02,1.02-1.02h7.65c.56,0,1.02.46,1.02,1.02v1.68l-6.44,11.9c-1.55-.7-3.27-1.09-5.09-1.09s-3.52.38-5.14,1.12c-.45.21-.65.74-.44,1.19s.74.65,1.19.44c1.38-.63,2.86-.95,4.4-.95s2.93.32,4.23.88l-2.81,5.19c-.45-.14-.92-.22-1.42-.22-2.6,0-4.72,2.12-4.72,4.72s2.12,4.72,4.72,4.72,4.72-2.12,4.72-4.72c0-1.47-.67-2.78-1.73-3.65l2.81-5.19c2.87,1.89,4.77,5.15,4.77,8.83,0,5.83-4.74,10.58-10.58,10.58S1.79,38.83,1.79,33c0-2.85,1.12-5.53,3.15-7.53.35-.35.36-.91,0-1.27-.35-.35-.91-.36-1.27,0-2.38,2.34-3.69,5.47-3.69,8.81,0,6.82,5.55,12.37,12.37,12.37s12.37-5.55,12.37-12.37c0-4.37-2.28-8.22-5.71-10.42l1.76-3.24,6.94,13.87v6.48c0,.49.4.9.9.9h2.87c.5,0,.9-.4.9-.9s-.4-.9-.9-.9h-1.97v-4.9h3.02c.46,6.4,5.82,11.47,12.33,11.47,2.42,0,4.77-.7,6.79-2.03.41-.27.53-.83.26-1.24-.27-.41-.83-.53-1.24-.26-1.72,1.13-3.73,1.73-5.8,1.73-5.53,0-10.08-4.27-10.54-9.68h5.9c.42,2.18,2.34,3.82,4.63,3.82,2.6,0,4.72-2.12,4.72-4.72s-2.12-4.72-4.72-4.72c-.44,0-.87.06-1.27.18l-2.64-5.28c1.21-.48,2.53-.75,3.91-.75,5.83,0,10.58,4.74,10.58,10.58,0,2.4-.78,4.67-2.27,6.55-.31.39-.24.95.15,1.26.39.31.95.24,1.26-.15,1.74-2.2,2.65-4.85,2.65-7.66,0-6.82-5.55-12.37-12.37-12.37ZM37.16,9.16v-1.02c0-.56.46-1.02,1.02-1.02h6.69s.06.03.06.06v1.97h-7.77ZM12.37,35.93c-1.61,0-2.93-1.31-2.93-2.93s1.31-2.93,2.93-2.93,2.93,1.31,2.93,2.93-1.31,2.93-2.93,2.93ZM28.62,23.5h-1.91c-.49,0-.9.4-.9.9s.4.9.9.9h1.02v3.91l-5.3-10.6h12.98l-5.88,10.86v-5.07c0-.49-.4-.9-.9-.9ZM32.53,32.1h-2.41l6.91-12.76,1.52,3.03c-3.38,2.02-5.72,5.6-6.02,9.73ZM44.87,30.07c1.61,0,2.93,1.31,2.93,2.93s-1.31,2.93-2.93,2.93-2.93-1.31-2.93-2.93,1.31-2.93,2.93-2.93ZM42,29.26c-.9.69-1.54,1.69-1.76,2.85h-5.9c.29-3.44,2.23-6.41,5.02-8.12l2.64,5.28Z"/></g></svg>