<?xml version="1.0" encoding="UTF-8"?><svg id="Calque_2" xmlns="http://www.w3.org/2000/svg" viewBox="0 0 34.1 30.25"><defs><style>.cls-1{fill:#fce6db;}.cls-1,.cls-2,.cls-3{stroke-width:0px;}.cls-2{fill:#030303;}.cls-3{fill:#000;}</style></defs><g id="Calque_1-2"><path class="cls-1" d="M13.64,1.58c-3.92,2.5-6.57,6.62-8.26,10.95-1.46,3.75-2.25,8.16-.27,11.67,6.39,11.37,19.54,4.64,23.45-3.27C34.03,9.84,23.78-4.88,13.64,1.58Z"/><path class="cls-3" d="M31.68,10.87c-.41-.05-.84-.09-1.24-.02-1.09.19-1.62-.32-1.9-1.32-.21-.74-.61-1.42-.81-2.15-.55-2.08-1.98-3.13-3.96-3.62-4.21-1.05-8.45-1.02-12.68-.19-2.4.47-4.31,1.64-4.93,4.24-.49,2.04-1.26,3.49-3.88,3.16C.96,10.79-.05,11.9,0,13.38c.05,1.5,1.19,1.73,2.41,1.72.23,0,.46.03.8.05-.73,2.67-.34,5.23-.38,7.76-.07,4.09.24,4.34,4.28,4.28.18,0,.36,0,.53,0,1.23-.03,2.12-.65,2.21-1.86.07-.93.44-1,1.2-1,4.03.03,8.06.02,12.09.01.53,0,1.03-.1,1.04.75.01,1.15.72,2.03,1.83,2.02,1.63-.02,3.49.77,4.83-.87.21-.26.39-.65.38-.97-.06-3.35.34-6.71-.28-10.11.21-.02.43-.07.66-.07,1.21,0,2.31-.18,2.48-1.67.15-1.28-.9-2.37-2.41-2.57ZM6.54,10.7c.06-.17.15-.33.19-.5.79-3.82,3.25-5.51,7.03-5.66,3.14-.12,6.27-.26,9.36.53,1.66.42,2.88,1.24,3.35,3.02.29,1.08.83,2.08,1.21,3.14.65,1.78.27,2.39-1.68,2.43-3.02.06-6.04.02-9.07.02h0c-2.78.01-5.57.03-8.35,0-2.57-.02-2.9-.53-2.04-2.98ZM2.52,13.66c-.3-.11-1.14.32-1.05-.5.11-.99,1.05-.93,1.8-.89.36.02,1.04-.32.93.52-.12.95-.83.97-1.69.87ZM6.26,25.77c-.22.06-.47,0-.7,0-.69.02-1.39-.04-1.3-.96.08-.85.81-.34,1.24-.45.28-.07.58-.01,1.01-.01.54.31,1.83-.55,1.9.5.1,1.52-1.36.72-2.15.92ZM27.69,25.77c-.22.05-.47,0-.7,0-.65,0-1.42.07-1.39-.88.03-1.02.88-.39,1.35-.53.27-.08.58-.01,1.01-.01.47.41,1.78-.68,1.8.58.03,1.37-1.32.66-2.07.83ZM29.85,21.91c.02,1.1-.72,1.02-1.45,1.02-3.79,0-7.58,0-11.37,0s-7.58-.03-11.37.02c-1.08.01-1.53-.32-1.43-1.42.19-2.1-.42-4.26.6-6.29.28-.56.31-1.13,1.19-.6.88.53,1.93.48,2.94.48,5.39-.01,10.78,0,16.17-.01.65,0,1.3-.09,1.95-.12.64-.03,1.35-.9,1.74-.46.55.61.89,1.57.96,2.41.15,1.65.03,3.31.06,4.97ZM32.6,13.26c-.08.8-.96.32-1.47.42-.79.15-1.33-.24-1.29-1.01.05-.86.87-.11,1.11-.43.86.01,1.74.11,1.65,1.02Z"/><path class="cls-2" d="M9.48,15.81c-.29.01-.59,0-.88,0-.35,0-.71.02-1.06,0-1.19-.07-2.11.37-2.49,1.53-.38,1.18.21,2.07,1.16,2.7.68.45,1.42.84,2.17,1.16,1.3.56,2.56.45,3.58-.6.79-.81,1.06-1.82.61-2.93-.57-1.38-1.65-1.92-3.08-1.86ZM10.8,19.73c-1.06.77-2,.19-2.93-.35-.25-.15-.52-.28-.75-.46-.37-.28-.83-.55-.69-1.12.15-.58.65-.58,1.14-.58.35,0,.71,0,1.06,0,.96.05,2.08-.29,2.61.92.27.61.09,1.19-.44,1.57Z"/><path class="cls-2" d="M27.28,15.85c-.57-.09-1.17-.01-1.76-.01,0,0,0-.01,0-.02-.41,0-.83-.02-1.24,0-1.85.1-3.07,1.35-2.96,3.02.11,1.72,1.68,2.94,3.5,2.61,1.48-.26,2.8-.98,3.79-2.1,1.14-1.3.38-3.22-1.33-3.5ZM27.35,18.57c-.79.79-1.8,1.29-2.64,1.49-1.17.05-1.82-.32-1.95-1.21-.13-.89.37-1.5,1.26-1.58.93-.09,1.89-.09,2.82,0,.9.08,1.14.67.5,1.31Z"/></g></svg>