<?xml version="1.0" encoding="UTF-8"?><svg id="Calque_2" xmlns="http://www.w3.org/2000/svg" xmlns:xlink="http://www.w3.org/1999/xlink" viewBox="0 0 58.74 49.29"><defs><style>.cls-1{clip-path:url(#clippath);}.cls-2{fill:none;}.cls-2,.cls-3,.cls-4{stroke-width:0px;}.cls-3{fill:#a7d1a7;}.cls-4{fill:#060606;fill-rule:evenodd;}</style><clipPath id="clippath"><rect class="cls-2" x="11.21" y="1.08" width="42.23" height="42.23"/></clipPath></defs><g id="Calque_1-2"><path class="cls-3" d="M4.04,33.91c5.5,7.03,13.87,11.32,22.46,13.75,7.43,2.1,16.01,2.77,22.35-1.65,20.53-14.33,5.23-38.19-10.6-44.19C16.04-6.58-10.18,15.74,4.04,33.91Z"/><g class="cls-1"><path class="cls-4" d="M27.2,38.5c2.3,3.03,5.86,4.81,9.69,4.81,5.65,0,10.55-3.9,11.84-9.35,2.79-1.01,4.7-3.7,4.7-6.7,0-2.12-.93-4.1-2.53-5.45,1.64-2.23,2.53-4.93,2.53-7.72,0-7.18-5.84-13.01-13.01-13.01-4.15,0-7.99,1.94-10.44,5.24-2.05-1.65-4.58-2.56-7.24-2.56-1.91,0-3.81.48-5.48,1.38-.4.22-.55.72-.33,1.12.22.4.72.55,1.12.33,1.43-.77,3.06-1.18,4.7-1.18,2.55,0,4.98.97,6.83,2.73.18.17.42.25.67.22.25-.03.46-.17.6-.38,2.1-3.3,5.69-5.27,9.59-5.27,6.27,0,11.36,5.1,11.36,11.36,0,2.69-.95,5.29-2.69,7.34-.15.18-.22.42-.19.65.03.23.17.44.37.57,1.57,1.02,2.51,2.74,2.51,4.6,0,2.44-1.64,4.61-3.98,5.27-.3.08-.53.33-.58.64-.96,4.92-5.3,8.5-10.33,8.5-3.55,0-6.84-1.77-8.79-4.74-.12-.19-.32-.32-.54-.36-.22-.04-.45,0-.63.14-1.51,1.09-3.3,1.66-5.17,1.66-4.89,0-8.87-3.98-8.87-8.87,0-2.38.93-4.61,2.61-6.28.32-.31.32-.82.02-1.15-1.72-1.84-2.67-4.24-2.67-6.75,0-1.5.33-2.93.97-4.27.2-.41.02-.9-.39-1.1-.41-.2-.9-.02-1.1.39-.75,1.56-1.13,3.24-1.13,4.99,0,2.68.92,5.24,2.6,7.3-1.66,1.91-2.57,4.33-2.57,6.89,0,5.8,4.72,10.52,10.52,10.52,1.94,0,3.8-.52,5.44-1.51ZM14.42,8.52c.16.15.36.23.57.23.22,0,.44-.09.6-.26l.02-.02c.32-.33.3-.85-.03-1.17-.33-.31-.85-.3-1.17.03l-.02.02c-.31.33-.3.85.03,1.17ZM40.42,7.19h0c-.45,0-.83-.37-.82-.83,0-.45.38-.82.83-.82h0c.45,0,.83.37.83.83,0,.45-.38.82-.83.82ZM47.33,14.1c0,.46.37.82.82.82s.82-.37.82-.82c0-1.64-.46-3.23-1.34-4.61-.86-1.34-2.06-2.41-3.49-3.1-.41-.2-.9-.03-1.1.38-.2.41-.03.9.38,1.1,2.37,1.15,3.9,3.59,3.9,6.22ZM21.76,35.56c-3.35,0-6.07-2.72-6.07-6.07,0-.46.37-.82.82-.82s.82.37.82.82c0,2.44,1.98,4.42,4.42,4.42.46,0,.82.37.82.82s-.37.82-.82.82ZM30.2,20.48c0,3.18,2.59,5.77,5.77,5.77s5.77-2.59,5.77-5.77-2.59-5.77-5.77-5.77-5.77,2.59-5.77,5.77ZM31.85,20.48c0-2.27,1.85-4.12,4.12-4.12s4.12,1.85,4.12,4.12-1.85,4.12-4.12,4.12-4.12-1.85-4.12-4.12ZM24.26,26.25c-1.48,0-2.96-.56-4.08-1.69-2.25-2.25-2.25-5.91,0-8.17,2.25-2.25,5.91-2.25,8.17,0,.32.32.32.84,0,1.17-.32.32-.84.32-1.17,0-.78-.78-1.81-1.21-2.92-1.21s-2.14.43-2.92,1.21c-1.61,1.61-1.61,4.22,0,5.83.78.78,1.81,1.21,2.92,1.21s2.14-.43,2.92-1.21c.32-.32.84-.32,1.17,0,.32.32.32.84,0,1.17-1.13,1.13-2.6,1.69-4.08,1.69ZM42.68,29.7h2.65c.46,0,.82-.37.82-.82s-.37-.82-.82-.82h-.54c.7-.8,1.37-1.83,1.37-2.87,0-1.29-.86-2.15-2.15-2.15-1.19,0-2.15.96-2.15,2.15,0,.46.37.82.82.82s.82-.37.82-.82c0-.28.22-.5.5-.5.42,0,.5.18.5.5,0,1-1.56,2.48-2.31,3.03-.29.21-.41.58-.3.92.11.34.43.57.78.57Z"/></g></g></svg>