<?xml version="1.0" encoding="UTF-8"?><svg id="Calque_2" xmlns="http://www.w3.org/2000/svg" viewBox="0 0 64.57 56.79"><defs><style>.cls-1{fill:#a7d1a7;}.cls-1,.cls-2{stroke-width:0px;}.cls-2{fill:#060606;fill-rule:evenodd;}</style></defs><g id="Calque_1-2"><path class="cls-1" d="M15.18,53.13c9.67,2.47,20,.57,29.26-3.14,8.02-3.21,16.07-8.46,18.67-16.7C71.52,6.6,41.69-4.09,23.58,1.4-1.81,9.1-9.8,46.74,15.18,53.13Z"/><path class="cls-2" d="M56.28,17.85l1.62,4.07c.07.18.07.39,0,.57-.08.18-.22.32-.41.4l-8.03,3.19c-1.07,2.13-2.57,4-4.39,5.5.49.53.98,1.1,1.44,1.7,0,0,0,0,0,0s0,0,0,0c0,0,0,0,.01.02,2.33,3.02,4.29,6.86,5.81,11.42.13.39-.08.81-.47.94-.08.03-.16.04-.23.04-.31,0-.6-.2-.7-.51-1.38-4.13-3.12-7.63-5.17-10.44-3.39,2.41-7.36,3.68-11.54,3.68-1.71,0-3.41-.22-5.05-.65-.4-.1-.63-.51-.53-.9.1-.4.51-.63.9-.53,1.52.4,3.09.6,4.67.6,3.85,0,7.51-1.16,10.63-3.36-.32-.39-.65-.76-.98-1.11-2.6,1.79-5.6,2.81-8.76,2.97-.15,0-.3,0-.45.01-.15,0-.3.01-.45.01-.28,0-.56,0-.84-.02h-.05c-3.16-.16-6.16-1.18-8.76-2.98-.33.35-.66.72-.98,1.11,1.02.72,2.11,1.33,3.25,1.83.37.16.55.6.38.98-.16.37-.6.55-.98.38-1.25-.55-2.45-1.22-3.57-2.02-5.06,6.93-6.78,16.35-6.96,17.38.06.16.6,1.12,5.04,2.03,3.59.73,8.37,1.13,13.46,1.13s9.87-.4,13.46-1.13c4.44-.91,4.98-1.87,5.04-2.03-.07-.39-.35-1.98-.95-4.17-.11-.39.12-.8.52-.91.39-.11.8.12.91.52.71,2.6.99,4.35,1,4.42,0,.04,0,.08,0,.11,0,1.5-2.04,2.65-6.23,3.5-3.68.75-8.57,1.16-13.76,1.16s-10.08-.41-13.76-1.16c-4.19-.86-6.23-2-6.23-3.5,0-.04,0-.08,0-.11.07-.45,1.78-11.06,7.68-18.7,0,0,0,0,0,0,0,0,0,0,0,0,0,0,0-.01.01-.02.46-.6.95-1.17,1.44-1.7-1.82-1.5-3.32-3.38-4.39-5.5l-8.03-3.19c-.38-.15-.57-.58-.41-.96l1.62-4.07,1.08-2.7c.85-2.14,2.89-3.52,5.19-3.52.34,0,.68.03,1.02.1,1.48-1.55,3.57-2.52,5.88-2.52.12,0,.26,0,.41-.02.41-.03.87-.06,1.18.1.17.08.29.24.4.39.04.05.08.1.12.15,0,0,0,.01.01.02,0,0,0,.01.01.02,1.47,1.7,3.99,2.75,6.72,2.76h.04s.04,0,.04,0c2.73-.01,5.26-1.06,6.72-2.76v-.02c.06-.05.1-.11.14-.16.11-.15.23-.31.4-.39.31-.16.78-.13,1.19-.1.15,0,.28.02.4.02,2.31,0,4.4.97,5.88,2.52,1.38-.26,2.83.02,4.03.78.19.12.32.33.34.55.02.23-.06.45-.23.61h-.01c-.29.29-.74.28-1.03,0-.62-.36-1.32-.56-2.03-.56,1.06,1.74,1.24,3.85,1.18,5.84,0,.02,0,.03,0,.05,0,.02,0,.04,0,.06l2.24-.89,1.14-.45-.8-2.01v-.03c-.16-.38.02-.81.4-.96.38-.15.8.03.96.4,0,.01,0,.02.01.03l1.08,2.71ZM13.26,19.09l-1.07,2.69,5.97,2.37c-.22-.61-.4-1.24-.54-1.87h0c-.12-.53-.21-1.05-.28-1.58l-2.39-.95-1.68-.67ZM17.18,17.7c.05-1.47.29-2.97,1-4.27.06-.11.12-.21.18-.32-1.67.02-3.14,1.03-3.76,2.59l-.8,2.02,2.23.89,1.15.46h0M17.18,17.7s0,.06,0,.11v-.11ZM17.18,17.8c-.01.33-.06,1.22,0,1.25v-1.25ZM37.28,13.7c-.66.18-1.33.29-2.01.35,0,0,0,0-.01,0,0,0-.01,0-.02,0,.49,1.07,1.58,1.8,2.8,1.8,1.7,0,3.08-1.38,3.08-3.08v-.99c-1.11.91-2.44,1.54-3.82,1.91h-.02ZM28.26,12.46c-.3-.17-.94-.53-.94-.68,0,0,0,.99,0,.99,0,1.7,1.38,3.08,3.08,3.08,1.22,0,2.31-.73,2.8-1.8h-.03c-.68-.06-1.35-.18-2.01-.35h-.02c-.96-.26-1.9-.65-2.75-1.17-.02-.01-.07-.04-.13-.07ZM48.32,25.01c.99-2.11,1.36-4.3,1.44-6.58.01-.36.02-.72.02-1.08,0-.88-.18-1.76-.52-2.57-1.04-2.45-3.48-4.1-6.15-4.1h-.52v2.09c0,2.51-2.05,4.56-4.56,4.56-1.57,0-2.99-.82-3.82-2.08-.82,1.26-2.25,2.08-3.82,2.08-2.51,0-4.56-2.05-4.56-4.56v-2.09h-.52c-1.75,0-3.45.71-4.68,1.94-1.24,1.24-1.99,2.96-1.99,4.73,0,1.28.02,2.55.24,3.82v.03c1.27,7,7.22,12.38,14.49,12.77h.07c.25.02.51.02.76.02s.51,0,.76-.02h.07c1.08-.06,2.15-.23,3.19-.51,2.2-.59,4.25-1.67,5.99-3.13,1.72-1.45,3.13-3.28,4.09-5.32ZM50.82,22.28c-.15.63-.33,1.26-.54,1.87l5.97-2.37-1.07-2.69-4.07,1.62s0,.05-.01.08c0,.02,0,.04,0,.06v.03c-.01.07-.02.14-.03.21-.01.08-.03.17-.04.25v.02s-.02.09-.03.14c-.02.11-.04.21-.06.32,0,.03-.01.06-.02.08-.03.13-.05.25-.08.38h0ZM32.28,19.5c0-1.07.87-1.93,1.93-1.93s1.93.87,1.93,1.93-.87,1.93-1.93,1.93-1.93-.87-1.93-1.93ZM33.77,19.5c0,.25.2.45.45.45s.45-.2.45-.45-.2-.45-.45-.45-.45.2-.45.45ZM32.28,24.28c0-1.07.87-1.93,1.93-1.93s1.93.87,1.93,1.93-.87,1.93-1.93,1.93-1.93-.87-1.93-1.93ZM33.77,24.28c0,.25.2.45.45.45s.45-.2.45-.45-.2-.45-.45-.45-.45.2-.45.45ZM34.22,27.12c-1.07,0-1.93.87-1.93,1.93s.87,1.93,1.93,1.93,1.93-.87,1.93-1.93-.87-1.93-1.93-1.93ZM34.22,29.51c-.25,0-.45-.2-.45-.45s.2-.45.45-.45.45.2.45.45-.2.45-.45.45Z"/></g></svg>