<?xml version="1.0" encoding="UTF-8"?><svg id="Calque_2" xmlns="http://www.w3.org/2000/svg" viewBox="0 0 38.33 40.73"><defs><style>.cls-1{fill:#fce6db;}.cls-1,.cls-2{stroke-width:0px;}.cls-2{fill:#1a171b;}</style></defs><g id="Calque_1-2"><path class="cls-1" d="M13.09,2.12C7.8,5.49,4.24,11.04,1.96,16.87-.01,21.91-1.07,27.86,1.59,32.58c8.61,15.31,26.31,6.24,31.57-4.4C40.53,13.25,26.73-6.57,13.09,2.12Z"/><path class="cls-2" d="M31.73,36.14c.4-5.35-.63-10.4-3.16-15.14-.44-.82-.95-1.61-1.45-2.43.58-.04,1.11-.05,1.64-.12,3.77-.48,6.82-2.24,9.12-5.27.63-.83.61-1.85-.05-2.59-3.48-3.89-7.86-5.9-13.07-5.97-3.9-.05-7.42,1.15-10.55,3.48-.21.16-.39.17-.62.08-.87-.32-1.75-.57-2.65-.79-.65-.16-1.12.04-1.25.55-.14.52.17.94.83,1.09,2.43.57,4.75,1.44,6.86,2.76,8.82,5.54,13.11,13.5,12.68,23.95-.03.66-.1.71-.75.73-1.82.07-3.63.06-5.44-.11-2.07-.19-4.17-.37-6.12-1.06-6.12-2.15-10.07-6.41-11.76-12.69-.94-3.5-.71-6.98.46-10.42.05.03.09.04.1.07.08.14.16.28.24.42,2.42,4.41,5.53,8.26,9.34,11.54.93.8,1.9,1.57,2.91,2.27.44.31.92.25,1.21-.13.31-.4.23-.87-.22-1.23-.15-.12-.31-.23-.47-.35-6.39-4.79-10.99-10.93-13.77-18.42-.34-.91-.63-1.83-.9-2.76-.1-.35-.32-.6-.71-.65-.33-.05-.61.07-.81.34-.22.29-.17.61-.08.93.55,1.88,1.22,3.72,2.03,5.5.11.24.12.44,0,.68-.6,1.35-1.03,2.76-1.28,4.22-.73,4.16-.28,8.18,1.58,11.98,2.67,5.46,6.88,9.14,12.84,10.61,3.69.91,7.46,1.15,11.25.91,1.14-.07,1.92-.86,2.01-1.99ZM25.58,16.55c-1.08-1.34-2.3-2.55-3.73-3.74,2.27.19,4.4.14,6.53-.06.5-.05,1-.1,1.5-.15.6-.07.92-.43.86-.96-.05-.49-.43-.78-1.01-.72-1.77.18-3.55.34-5.33.32-1.77-.02-3.53-.21-5.28-.47-.08-.01-.16-.04-.23-.08-.99-.6-2.01-1.15-3.12-1.65,1.47-1,2.99-1.76,4.65-2.17,6.18-1.54,11.48,0,15.91,4.58.31.32.33.56.05.91-2.66,3.27-6.09,4.75-10.3,4.43-.2-.02-.36-.07-.5-.24Z"/></g></svg>