<?xml version="1.0" encoding="UTF-8"?><svg id="Calque_2" xmlns="http://www.w3.org/2000/svg" viewBox="0 0 58.74 52.58"><defs><style>.cls-1{fill:#1a171b;}.cls-1,.cls-2{stroke-width:0px;}.cls-2{fill:#fed16a;}</style></defs><g id="Calque_1-2"><path class="cls-2" d="M4.04,37.19c5.5,7.03,13.87,11.32,22.46,13.75,7.43,2.1,16.01,2.77,22.35-1.65,20.53-14.33,5.23-38.19-10.6-44.19C16.04-3.29-10.18,19.03,4.04,37.19Z"/><path class="cls-1" d="M49.73,6.04c-7.64.17-14.67,2.33-21.04,6.57-1.11.74-2.15,1.57-3.25,2.39-.14-.82-.22-1.57-.39-2.31-1.2-5.29-4.12-9.36-8.73-12.21-1.26-.78-2.71-.61-3.67.44-5.04,5.48-7.28,11.96-6.66,19.37.46,5.54,2.65,10.37,6.39,14.49.26.28.29.52.2.86-.34,1.27-.57,2.57-.75,3.87-.13.94.21,1.58.95,1.7.75.12,1.31-.38,1.44-1.32.47-3.52,1.39-6.94,2.97-10.11,6.64-13.28,17.35-20.46,32.23-21.31.94-.05,1.02.04,1.15.96.35,2.57.58,5.14.6,7.74.02,2.96.05,5.97-.66,8.83-2.21,8.98-7.71,15.18-16.39,18.44-4.84,1.82-9.81,1.97-14.84.78.04-.08.05-.13.08-.16.19-.14.37-.27.57-.4,5.93-4.04,10.95-8.99,15.08-14.85,1.01-1.43,1.96-2.91,2.82-4.44.38-.67.22-1.34-.35-1.7-.61-.38-1.27-.2-1.72.48-.15.23-.28.47-.43.71-5.92,9.73-13.99,17.1-24.23,22.09-1.24.61-2.51,1.15-3.8,1.66-.48.19-.8.54-.83,1.09-.02.48.18.85.59,1.1.45.27.88.16,1.33-.02,2.59-1.04,5.11-2.24,7.53-3.64.33-.19.6-.22.97-.1,2,.66,4.06,1.08,6.16,1.24,6,.46,11.65-.73,16.78-3.89,7.38-4.54,12.02-11.03,13.28-19.69.78-5.36.6-10.74-.27-16.09-.26-1.61-1.48-2.61-3.1-2.57ZM22.78,17.46c-1.75,1.72-3.29,3.62-4.79,5.81-.04-3.25-.41-6.27-.98-9.26-.13-.7-.28-1.4-.43-2.1-.18-.84-.73-1.24-1.47-1.09-.69.14-1.05.72-.89,1.54.5,2.49.97,4.99,1.19,7.52.22,2.52.19,5.04.07,7.55,0,.11-.03.23-.08.33-.72,1.49-1.35,3.01-1.92,4.65-1.63-1.94-2.9-3.99-3.72-6.29-3.05-8.55-1.59-16.29,4.3-23.21.41-.48.75-.55,1.29-.19,5.02,3.33,7.59,7.99,7.71,14,0,.29-.05.52-.27.74Z"/></g></svg>