<?xml version="1.0" encoding="UTF-8"?><svg id="Calque_2" xmlns="http://www.w3.org/2000/svg" viewBox="0 0 29.12 30.94"><defs><style>.cls-1{fill:#1a171b;}.cls-1,.cls-2{stroke-width:0px;}.cls-2{fill:#b4d1eb;}</style></defs><g id="Calque_1-2"><path class="cls-2" d="M9.94,1.61C5.93,4.17,3.22,8.38,1.49,12.81,0,16.65-.81,21.16,1.21,24.75c6.54,11.63,19.99,4.74,23.98-3.34C30.79,10.07,20.31-4.99,9.94,1.61Z"/><path class="cls-1" d="M24.1,27.46c.3-4.06-.48-7.9-2.4-11.5-.33-.63-.72-1.22-1.1-1.85.44-.03.85-.04,1.24-.09,2.87-.36,5.18-1.7,6.93-4,.48-.63.46-1.41-.04-1.97-2.65-2.96-5.97-4.48-9.93-4.53-2.96-.04-5.64.87-8.01,2.64-.16.12-.29.13-.47.06-.66-.24-1.33-.43-2.01-.6-.49-.12-.85.03-.95.42-.1.39.13.71.63.83,1.85.43,3.61,1.09,5.21,2.1,6.7,4.21,9.96,10.26,9.63,18.19-.02.5-.07.54-.57.56-1.38.05-2.76.04-4.13-.08-1.57-.14-3.17-.28-4.65-.8-4.65-1.64-7.65-4.87-8.93-9.64-.71-2.66-.54-5.3.35-7.91.04.03.07.03.08.05.06.11.12.21.18.32,1.84,3.35,4.2,6.27,7.1,8.76.71.61,1.44,1.19,2.21,1.73.34.24.7.19.92-.1.23-.31.17-.66-.16-.94-.11-.09-.24-.18-.36-.26-4.86-3.64-8.35-8.3-10.46-13.99-.26-.69-.48-1.39-.69-2.1-.08-.27-.25-.45-.54-.5-.25-.04-.46.05-.61.26-.16.22-.13.46-.06.71.42,1.43.93,2.82,1.54,4.18.08.19.09.33,0,.52-.46,1.03-.78,2.1-.98,3.2-.56,3.16-.21,6.22,1.2,9.1,2.03,4.15,5.23,6.94,9.76,8.06,2.8.69,5.67.87,8.55.69.87-.05,1.46-.65,1.52-1.51ZM19.44,12.57c-.82-1.02-1.75-1.93-2.83-2.84,1.72.15,3.34.11,4.96-.04.38-.04.76-.07,1.14-.12.45-.05.7-.33.66-.73-.04-.37-.33-.6-.77-.55-1.35.14-2.69.26-4.05.24-1.35-.01-2.68-.16-4.01-.35-.06,0-.12-.03-.17-.06-.75-.46-1.53-.87-2.37-1.26,1.11-.76,2.27-1.33,3.53-1.65,4.69-1.17,8.72,0,12.09,3.48.23.24.25.43.04.69-2.02,2.49-4.63,3.61-7.82,3.36-.15-.01-.28-.05-.38-.18Z"/></g></svg>