<?xml version="1.0" encoding="UTF-8"?><svg id="Calque_2" xmlns="http://www.w3.org/2000/svg" viewBox="0 0 41.81 44.66"><defs><style>.cls-1{fill:#1a171b;stroke-width:0px;}</style></defs><g id="Calque_1-2"><path class="cls-1" d="M38.43,5.29c-6.7.15-12.85,2.05-18.44,5.76-.97.65-1.88,1.37-2.85,2.09-.12-.72-.2-1.38-.34-2.02C15.74,6.49,13.19,2.92,9.14.43c-1.11-.68-2.37-.54-3.22.38C1.5,5.61-.46,11.29.09,17.78c.41,4.85,2.32,9.09,5.6,12.7.22.25.25.46.18.76-.3,1.12-.5,2.25-.66,3.39-.12.82.19,1.39.84,1.49.66.11,1.15-.33,1.26-1.16.41-3.09,1.22-6.08,2.61-8.86,5.82-11.64,15.2-17.93,28.24-18.67.82-.05.89.04,1,.84.31,2.25.51,4.51.52,6.78.02,2.6.04,5.23-.58,7.74-1.94,7.87-6.75,13.3-14.36,16.15-4.24,1.59-8.59,1.73-13.01.69.03-.07.04-.12.07-.14.16-.12.33-.24.5-.35,5.19-3.54,9.6-7.88,13.21-13.02.89-1.26,1.72-2.55,2.48-3.89.33-.59.19-1.18-.31-1.49-.54-.33-1.11-.18-1.51.42-.13.2-.25.42-.38.62-5.19,8.53-12.26,14.99-21.23,19.35-1.09.53-2.2,1.01-3.33,1.46-.42.17-.7.47-.72.96-.02.42.16.74.52.96.39.23.78.14,1.16-.02,2.27-.91,4.48-1.97,6.6-3.19.29-.17.53-.2.85-.09,1.75.58,3.56.94,5.4,1.09,5.26.41,10.21-.64,14.7-3.41,6.46-3.98,10.53-9.66,11.63-17.25.68-4.7.52-9.41-.23-14.1-.23-1.41-1.3-2.29-2.72-2.25ZM14.81,15.3c-1.54,1.51-2.89,3.17-4.2,5.09-.04-2.84-.36-5.49-.86-8.11-.12-.62-.24-1.23-.37-1.84-.16-.73-.64-1.09-1.29-.96-.61.12-.92.63-.78,1.35.44,2.18.85,4.37,1.04,6.59.19,2.21.16,4.41.06,6.62,0,.1-.02.2-.07.29-.63,1.3-1.19,2.64-1.68,4.08-1.42-1.7-2.54-3.5-3.26-5.51C.73,15.39,2.01,8.61,7.17,2.55c.36-.42.66-.48,1.13-.17,4.39,2.92,6.65,7,6.75,12.27,0,.26-.04.46-.24.65Z"/></g></svg>