<?xml version="1.0" encoding="UTF-8"?><svg id="Calque_2" xmlns="http://www.w3.org/2000/svg" viewBox="0 0 38.88 40.73"><defs><style>.cls-1{fill:#fce6db;}.cls-1,.cls-2{stroke-width:0px;}.cls-2{fill:#000;}</style></defs><g id="Calque_1-2"><path class="cls-1" d="M25.79,2.12c5.28,3.36,8.85,8.91,11.13,14.74,1.97,5.05,3.02,10.99.37,15.71-8.61,15.31-26.31,6.24-31.57-4.4C-1.66,13.25,12.15-6.57,25.79,2.12Z"/><path class="cls-2" d="M37.19,5.32H.61c-.34,0-.61.27-.61.61v3.69c0,.34.27.61.61.61h6.77c.34,0,.61-.27.61-.61s-.27-.61-.61-.61H1.21v-2.48h35.37v2.48H9.81c-.34,0-.61.27-.61.61s.27.61.61.61h7.53v8.07l-2.12.68c-3.64,1.16-5.66,5.07-4.5,8.72.92,2.89,3.58,4.83,6.61,4.83.71,0,1.42-.11,2.11-.33h0s6.67-2.13,6.67-2.13c.32-.1.5-.44.39-.76-.1-.32-.44-.5-.76-.39l-2.94.94c.26-.33.49-.69.69-1.08,1.04-2.01,1.01-4.49-.06-6.49,0,0,0,0,0,0-.88-1.62-2.35-2.81-4.09-3.33l6.98-2.23s.01,0,.02,0v3.7c0,1.5,1.3,2.74,2.81,2.67,1.41-.07,2.53-1.24,2.53-2.67v-2.67c.85.69,1.48,1.62,1.82,2.69.96,3.01-.71,6.23-3.71,7.19l-1.62.52c-.32.1-.5.44-.39.76.1.32.44.5.76.39l1.62-.52c3.64-1.16,5.66-5.07,4.5-8.72-.51-1.6-1.56-2.93-2.98-3.8v-6.02h5.52c.34,0,.61-.27.61-.61v-3.69c0-.34-.27-.61-.61-.61ZM22.93,24.4h0c.65,3.1-1.64,6.34-4.75,6.83-.28.05-.57.07-.86.06-2.42-.01-4.7-1.64-5.45-3.98-.96-3,.79-6.32,3.81-7.22,3.14-.93,6.57,1.09,7.24,4.31ZM21.47,16.97c-.97.31-1.94.62-2.92.93v-7.68h2.92v6.75ZM26.33,15.44c-.13.03-3.65,1.15-3.65,1.15v-6.36h3.65v5.21ZM30.46,20.4c0,.9-.87,1.62-1.75,1.42-.65-.14-1.17-.73-1.17-1.42v-10.18h2.92v10.18Z"/><path class="cls-2" d="M29,20.97c.4,0,.72-.32.72-.72s-.32-.72-.72-.72-.72.32-.72.72.32.72.72.72Z"/><path class="cls-2" d="M21.62,24.2c-.37-1.15-1.16-2.08-2.23-2.63-1.07-.55-2.29-.66-3.44-.29-.48.15-.93.39-1.33.69-.27.2-.32.58-.12.85s.58.32.85.12c.3-.22.62-.39.97-.5.84-.27,1.73-.19,2.51.21.78.4,1.36,1.09,1.63,1.92.27.84.19,1.73-.21,2.51-.4.78-1.09,1.36-1.92,1.63-.84.27-1.73.19-2.51-.21-.78-.4-1.36-1.09-1.63-1.92-.2-.63-.21-1.29-.02-1.92.09-.32-.09-.66-.41-.75-.32-.09-.66.09-.75.41-.25.86-.24,1.78.03,2.64.61,1.91,2.39,3.14,4.3,3.14.45,0,.91-.07,1.37-.21,1.15-.37,2.08-1.16,2.63-2.23.55-1.07.66-2.29.29-3.44Z"/><path class="cls-2" d="M9.2,28.87c-.12-.31-.48-.46-.79-.34l-6.3,2.51c-.31.12-.46.48-.34.79.09.24.32.38.56.38.07,0,.15-.01.22-.04l6.3-2.51c.31-.12.46-.48.34-.79Z"/><path class="cls-2" d="M7.45,22.44H.85c-.34,0-.61.27-.61.61s.27.61.61.61h6.61c.34,0,.61-.27.61-.61s-.27-.61-.61-.61Z"/></g></svg>