<?xml version="1.0" encoding="UTF-8"?><svg id="Calque_2" xmlns="http://www.w3.org/2000/svg" viewBox="0 0 65.15 28.77"><defs><style>.cls-1{fill:#fff;stroke-width:0px;}</style></defs><g id="Calque_1-2"><path class="cls-1" d="M.4,15.89S63.33,6.88,64.38,6.71s.96.28.09.47S1.51,16.18.74,16.29s-1.03-.19-.35-.39Z"/><path class="cls-1" d="M21.96,20.14c-.06-.09-4.19-6.71-4.19-6.71,0,0-.07-.17.04-.24s.73-.52.97-.81c.35-.41.56-.77.67-1.14.16-.52.46-2.01.38-2.76-.04-.38-.28-1.32-.51-1.58s0,0,0,0c-.23-.35-.62-.7-.85-.81s-.71-.54-1.6-.45c-.89.09-1.27.44-1.41.62s-.41.38-.41.74.09,11.1.16,11.32c.03.11,1.28.67,1.41.44.21-.37-.12-3.1-.09-3.91,0-.08.38.4.43.47.53.76,3.1,4.64,3.17,4.73.11.14.2.29.33.3.24.03,1.35.26,1.44.25.16-.02.14-.38.08-.47ZM16.77,11.89s-.06.03-.09.04c-.01,0-.25,0-.27-.01-.11-.63-.07-1.27-.1-1.9-.03-.76-.07-1.51-.04-2.28,0-.21.04-.27.24-.26.4.01.96.11,1.29.36.61.45.79.97.58,1.71-.27.98-.73,1.8-1.61,2.35Z"/><path class="cls-1" d="M9.2,14.08c-.09-1.09-.1-2.3-.17-3.35,0-.11-.16-.14-.21-.04-.52,1.16-3.43,8.14-3.55,8.42-.2.45-.48.61-.81.49-.37-.14-.78-.78-.62-1.16.32-.76.64-1.51.96-2.26.5-1.16.97-2.33,1.49-3.47.58-1.27,2.34-4.7,2.57-5.22.16-.37.5-.52.95-.46.48.07.54.41.57.77.1,1.2.55,9.25.7,12.12.04.77.04.63.09,1.4.04.61-.18.68-.79.71-.14,0-.88-.1-.94-.52-.08-.65-.11-2.6-.24-6.16v-1.27Z"/><path class="cls-1" d="M23.85,7.47c.62-.34,1.1-.61,1.33-.52s.34.42.49,1.07c.44,1.95,1.47,7.27,1.65,7.8.05.16.52.15.56-.01.36-1.44,2.53-10.1,2.85-11.24.09-.35.86-1,1.37-.69.46.28-.52,3.8-.95,5.32-.47,1.66-.62,2.94-1.08,4.61-.32,1.16-1.41,6.01-2.28,6.1-1.06.12-1.76-2.92-1.93-3.64-.41-1.73-.78-3.48-1.19-5.21-.32-1.36-.48-2.17-.82-3.58Z"/><path class="cls-1" d="M36.7,4.15c-.03-.5,1.79-.86,1.86-.27s.14,12.91.13,13.22c-.02.76-1.81.78-1.8-.17,0-1.67-.02-3.34-.02-5.02,0-1.75,0-3.5-.03-5.25-.01-.79-.11-2-.13-2.5Z"/><path class="cls-1" d="M43.57,4.55c.62-.34,1.19-.61,1.42-.52s.34.42.49,1.07c.44,1.95,1.47,7.27,1.65,7.8.05.16.43.15.47-.01.36-1.44,2.53-10.1,2.85-11.24.21-.85.99-1.33,1.5-.85.4.37-.66,3.95-1.09,5.48-.47,1.66-.62,2.94-1.08,4.61-.32,1.16-1.41,6.01-2.28,6.1-1.06.12-1.76-2.92-1.93-3.64-.41-1.73-.78-3.48-1.19-5.21-.32-1.36-.48-2.17-.82-3.58Z"/><path class="cls-1" d="M61.05,14.3c.06.26,1.17.55,1.54.59s.4-.15.36-.31S59.73.36,59.68.12s-.95-.17-1.25.61c-.09.23-3.02,8.54-3.07,8.67,0,.01-.81,2.35-.86,2.53s1.3.59,1.55.61c.07,0,.22-.56.28-.68l.35-1.28s1.75-5.85,2.14-6.97c.04-.13.01.03.04.16.24,1.03,2.12,10.28,2.19,10.54Z"/><path class="cls-1" d="M33.03,26.74s3.56.03,3.64.03c.58,0,.45.25.26.27-.07,0-3.65.01-3.71.01-.58,0-.79-.3-.2-.31Z"/><path class="cls-1" d="M1.02,27.64s3.56.03,3.64.03c.58,0,.45.25.26.27-.07,0-3.65.01-3.71.01-.58,0-.79-.3-.2-.31Z"/><path class="cls-1" d="M4.41,27.97h-.91l-.22.77h-.35l.88-2.96h.29l.86,2.96h-.34l-.21-.77ZM3.6,27.64h.72l-.36-1.28-.36,1.28Z"/><path class="cls-1" d="M6.31,27.53h-.54v1.21h-.34v-2.96h.8c.13,0,.25.02.36.06s.21.09.29.16c.08.07.15.16.2.28.05.11.07.24.07.39,0,.1-.01.18-.04.26s-.06.15-.11.22-.1.12-.16.17c-.06.05-.13.09-.21.13l.58,1.26v.02h-.37l-.53-1.21ZM5.77,27.22h.46c.08,0,.15-.01.22-.04.07-.03.13-.06.18-.11s.09-.11.12-.17c.03-.07.04-.15.04-.24,0-.09-.01-.18-.04-.25-.03-.07-.07-.13-.12-.18-.05-.05-.11-.08-.18-.11s-.15-.04-.23-.04h-.45v1.13Z"/><path class="cls-1" d="M9.54,26.1h-.84v2.64h-.34v-2.64h-.84v-.32h2.02v.32Z"/><path class="cls-1" d="M11.43,27.99c0-.09-.02-.17-.06-.23s-.09-.11-.15-.16c-.06-.04-.13-.08-.2-.11s-.14-.05-.21-.08c-.1-.03-.19-.07-.29-.12-.1-.05-.19-.11-.27-.17s-.15-.15-.2-.24c-.05-.09-.08-.2-.08-.33s.03-.24.08-.34.12-.18.2-.25c.08-.07.18-.12.28-.16.11-.04.21-.05.32-.05.12,0,.23.02.34.06.11.04.21.1.29.18.08.08.15.17.2.28s.08.23.08.37h-.36c0-.09-.03-.16-.06-.23-.03-.07-.07-.13-.11-.18-.05-.05-.1-.09-.17-.12-.07-.03-.14-.04-.22-.04-.07,0-.13.01-.19.03s-.12.05-.17.09-.09.09-.12.15-.04.13-.04.21c0,.09.02.16.06.22.04.06.09.11.15.15s.12.07.19.1c.07.03.13.05.2.07.07.02.14.05.2.08.07.03.13.06.2.1.06.04.12.08.18.13s.1.1.14.16c.04.06.07.13.1.2.02.07.03.15.03.24,0,.13-.03.25-.08.35-.05.1-.12.18-.21.25-.09.07-.18.12-.29.15-.11.03-.22.05-.33.05-.12,0-.24-.02-.35-.06-.12-.04-.22-.1-.31-.18-.09-.08-.17-.17-.22-.28-.06-.11-.09-.24-.09-.38h.35c.01.09.03.17.07.24.04.07.08.13.13.18.05.05.12.09.19.11.07.02.15.04.23.04.07,0,.13,0,.2-.03.07-.02.12-.05.17-.09.05-.04.09-.09.13-.15.03-.06.05-.13.05-.21Z"/><path class="cls-1" d="M15.42,28.13l.64-2.35h.37l-.86,2.96h-.3l-.86-2.96h.37l.64,2.35Z"/><path class="cls-1" d="M16.9,25.78h1.64v.33h-.65v2.31h.65v.33h-1.64v-.33h.64v-2.31h-.64v-.33Z"/><path class="cls-1" d="M20.01,28.13l.64-2.35h.37l-.86,2.96h-.3l-.86-2.96h.37l.64,2.35Z"/><path class="cls-1" d="M22.79,27.97h-.91l-.22.77h-.35l.88-2.96h.29l.86,2.96h-.34l-.21-.77ZM21.98,27.64h.72l-.36-1.28-.36,1.28Z"/><path class="cls-1" d="M25.5,28.73h-.35l-1.06-2.21v2.21h-.36v-2.96h.35l1.06,2.21v-2.21h.36v2.96Z"/><path class="cls-1" d="M27.92,26.1h-.84v2.64h-.34v-2.64h-.84v-.32h2.02v.32Z"/><path class="cls-1" d="M29.81,27.99c0-.09-.02-.17-.06-.23s-.09-.11-.15-.16c-.06-.04-.13-.08-.2-.11s-.14-.05-.21-.08c-.1-.03-.19-.07-.29-.12-.1-.05-.19-.11-.27-.17s-.15-.15-.2-.24c-.05-.09-.08-.2-.08-.33s.03-.24.08-.34.12-.18.2-.25c.08-.07.18-.12.28-.16.11-.04.21-.05.32-.05.12,0,.23.02.34.06.11.04.21.1.29.18.08.08.15.17.2.28s.08.23.08.37h-.36c0-.09-.03-.16-.06-.23-.03-.07-.07-.13-.11-.18-.05-.05-.1-.09-.17-.12-.07-.03-.14-.04-.22-.04-.07,0-.13.01-.19.03s-.12.05-.17.09-.09.09-.12.15-.04.13-.04.21c0,.09.02.16.06.22.04.06.09.11.15.15s.12.07.19.1c.07.03.13.05.2.07.07.02.14.05.2.08.07.03.13.06.2.1.06.04.12.08.18.13s.1.1.14.16c.04.06.07.13.1.2.02.07.03.15.03.24,0,.13-.03.25-.08.35-.05.1-.12.18-.21.25-.09.07-.18.12-.29.15-.11.03-.22.05-.33.05-.12,0-.24-.02-.35-.06-.12-.04-.22-.1-.31-.18-.09-.08-.17-.17-.22-.28-.06-.11-.09-.24-.09-.38h.35c.01.09.03.17.07.24.04.07.08.13.13.18.05.05.12.09.19.11.07.02.15.04.23.04.07,0,.13,0,.2-.03.07-.02.12-.05.17-.09.05-.04.09-.09.13-.15.03-.06.05-.13.05-.21Z"/><path class="cls-1" d="M36.43,27.07h-.91l-.22.77h-.35l.88-2.96h.29l.86,2.96h-.34l-.21-.77ZM35.61,26.74h.72l-.36-1.28-.36,1.28Z"/><path class="cls-1" d="M38.33,26.63h-.54v1.21h-.34v-2.96h.8c.13,0,.25.02.36.06s.21.09.29.16c.08.07.15.16.2.28.05.11.07.24.07.39,0,.1-.01.18-.04.26s-.06.15-.11.22-.1.12-.16.17c-.06.05-.13.09-.21.13l.58,1.26v.02h-.37l-.53-1.21ZM37.78,26.32h.46c.08,0,.15-.01.22-.04.07-.03.13-.06.18-.11s.09-.11.12-.17c.03-.07.04-.15.04-.24,0-.09-.01-.18-.04-.25-.03-.07-.07-.13-.12-.18-.05-.05-.11-.08-.18-.11s-.15-.04-.23-.04h-.45v1.13Z"/><path class="cls-1" d="M41.56,25.2h-.84v2.64h-.34v-2.64h-.84v-.32h2.02v.32Z"/><path class="cls-1" d="M43.45,27.09c0-.09-.02-.17-.06-.23s-.09-.11-.15-.16c-.06-.04-.13-.08-.2-.11s-.14-.05-.21-.08c-.1-.03-.19-.07-.29-.12-.1-.05-.19-.11-.27-.17s-.15-.15-.2-.24c-.05-.09-.08-.2-.08-.33s.03-.24.08-.34.12-.18.2-.25c.08-.07.18-.12.28-.16.11-.04.21-.05.32-.05.12,0,.23.02.34.06.11.04.21.1.29.18.08.08.15.17.2.28s.08.23.08.37h-.36c0-.09-.03-.16-.06-.23-.03-.07-.07-.13-.11-.18-.05-.05-.1-.09-.17-.12-.07-.03-.14-.04-.22-.04-.07,0-.13.01-.19.03s-.12.05-.17.09-.09.09-.12.15-.04.13-.04.21c0,.09.02.16.06.22.04.06.09.11.15.15s.12.07.19.1c.07.03.13.05.2.07.07.02.14.05.2.08.07.03.13.06.2.1.06.04.12.08.18.13s.1.1.14.16c.04.06.07.13.1.2.02.07.03.15.03.24,0,.13-.03.25-.08.35-.05.1-.12.18-.21.25-.09.07-.18.12-.29.15-.11.03-.22.05-.33.05-.12,0-.24-.02-.35-.06-.12-.04-.22-.1-.31-.18-.09-.08-.17-.17-.22-.28-.06-.11-.09-.24-.09-.38h.35c.01.09.03.17.07.24.04.07.08.13.13.18.05.05.12.09.19.11.07.02.15.04.23.04.07,0,.13,0,.2-.03.07-.02.12-.05.17-.09.05-.04.09-.09.13-.15.03-.06.05-.13.05-.21Z"/><path class="cls-1" d="M46.58,27.84v-2.96h.63c.19,0,.36.04.51.1.15.07.27.16.38.28.1.12.18.26.24.43.05.17.08.35.08.56v.22c0,.2-.03.39-.08.56-.05.17-.13.31-.24.43-.1.12-.23.21-.38.28-.15.07-.32.1-.51.1h-.63ZM46.93,25.19v2.34h.28c.15,0,.27-.03.38-.08.11-.05.2-.13.27-.22s.12-.21.16-.34.05-.27.05-.42v-.22c0-.15-.02-.29-.05-.42-.04-.13-.09-.24-.16-.33-.07-.09-.16-.17-.27-.22s-.23-.08-.38-.09h-.28Z"/><path class="cls-1" d="M50.62,24.88v2c0,.14-.02.27-.07.39-.04.12-.1.23-.18.32-.08.09-.17.16-.28.21-.11.05-.23.08-.36.08s-.25-.03-.36-.08c-.11-.05-.2-.12-.28-.21-.08-.09-.14-.2-.18-.32-.04-.12-.07-.25-.07-.39v-2h.33v2c0,.09.02.17.05.25.02.08.06.15.1.22s.1.11.17.15.15.06.23.06.17-.02.23-.06c.07-.04.12-.09.17-.15.05-.06.08-.13.1-.22.02-.08.04-.17.04-.25v-2h.34Z"/><path class="cls-1" d="M52.11,26.63h-.54v1.21h-.34v-2.96h.8c.13,0,.25.02.36.06s.21.09.29.16c.08.07.15.16.2.28.05.11.07.24.07.39,0,.1-.01.18-.04.26s-.06.15-.11.22-.1.12-.16.17c-.06.05-.13.09-.21.13l.58,1.26v.02h-.37l-.53-1.21ZM51.57,26.32h.46c.08,0,.15-.01.22-.04.07-.03.13-.06.18-.11s.09-.11.12-.17c.03-.07.04-.15.04-.24,0-.09-.01-.18-.04-.25-.03-.07-.07-.13-.12-.18-.05-.05-.11-.08-.18-.11s-.15-.04-.23-.04h-.45v1.13Z"/><path class="cls-1" d="M54.81,27.07h-.91l-.22.77h-.35l.88-2.96h.29l.86,2.96h-.34l-.21-.77ZM53.99,26.74h.72l-.36-1.28-.36,1.28Z"/><path class="cls-1" d="M55.8,27.84v-2.96h.81c.11,0,.22.02.33.05.11.03.2.08.29.14s.15.14.2.24c.05.1.07.22.07.36,0,.08-.01.15-.03.21s-.05.12-.09.17c-.04.05-.08.1-.13.13s-.11.07-.16.1c.07.02.14.06.2.1.06.04.11.09.16.15.04.06.08.13.1.2.02.08.04.16.04.25,0,.14-.02.26-.07.37s-.12.19-.2.27c-.08.07-.18.13-.29.16s-.22.06-.34.06h-.87ZM56.15,26.14h.48c.06,0,.13-.01.19-.03.06-.02.12-.05.17-.09.05-.04.09-.09.12-.15s.04-.13.04-.2c0-.08-.01-.15-.04-.21s-.07-.11-.12-.14c-.05-.04-.11-.06-.17-.08s-.13-.03-.2-.03h-.47v.94ZM56.15,26.45v1.06h.53c.07,0,.14-.01.21-.04.06-.02.12-.06.17-.1.05-.04.09-.1.12-.16s.04-.14.04-.22c0-.08-.01-.16-.04-.22s-.06-.12-.11-.17c-.05-.05-.1-.08-.17-.1-.06-.02-.13-.04-.21-.04h-.55Z"/><path class="cls-1" d="M58.49,27.52h1.33v.32h-1.68v-2.96h.35v2.64Z"/><path class="cls-1" d="M61.9,26.47h-1.14v1.05h1.33v.32h-1.67v-2.96h1.65v.32h-1.31v.95h1.14v.32Z"/><path class="cls-1" d="M64.12,27.09c0-.09-.02-.17-.06-.23s-.09-.11-.15-.16c-.06-.04-.13-.08-.2-.11s-.14-.05-.21-.08c-.1-.03-.19-.07-.29-.12-.1-.05-.19-.11-.27-.17s-.15-.15-.2-.24c-.05-.09-.08-.2-.08-.33s.03-.24.08-.34.12-.18.2-.25c.08-.07.18-.12.28-.16.11-.04.21-.05.32-.05.12,0,.23.02.34.06.11.04.21.1.29.18.08.08.15.17.2.28s.08.23.08.37h-.36c0-.09-.03-.16-.06-.23-.03-.07-.07-.13-.11-.18-.05-.05-.1-.09-.17-.12-.07-.03-.14-.04-.22-.04-.07,0-.13.01-.19.03s-.12.05-.17.09-.09.09-.12.15-.04.13-.04.21c0,.09.02.16.06.22.04.06.09.11.15.15s.12.07.19.1c.07.03.13.05.2.07.07.02.14.05.2.08.07.03.13.06.2.1.06.04.12.08.18.13s.1.1.14.16c.04.06.07.13.1.2.02.07.03.15.03.24,0,.13-.03.25-.08.35-.05.1-.12.18-.21.25-.09.07-.18.12-.29.15-.11.03-.22.05-.33.05-.12,0-.24-.02-.35-.06-.12-.04-.22-.1-.31-.18-.09-.08-.17-.17-.22-.28-.06-.11-.09-.24-.09-.38h.35c.01.09.03.17.07.24.04.07.08.13.13.18.05.05.12.09.19.11.07.02.15.04.23.04.07,0,.13,0,.2-.03.07-.02.12-.05.17-.09.05-.04.09-.09.13-.15.03-.06.05-.13.05-.21Z"/></g></svg>