<?xml version="1.0" encoding="UTF-8"?><svg id="Calque_2" xmlns="http://www.w3.org/2000/svg" viewBox="0 0 126.76 27.09"><defs><style>.cls-1{fill:#fff;stroke-width:0px;}</style></defs><g id="Calque_1-2"><path class="cls-1" d="M10.7,27.09c-2.1,0-4.11-.28-6.04-.84-1.93-.56-3.49-1.29-4.66-2.19l2.06-4.56c1.1.8,2.42,1.45,3.97,1.96,1.55.51,3.11.77,4.68.77,1.2,0,2.16-.13,2.9-.37.74-.25,1.28-.58,1.63-.99.35-.41.52-.89.52-1.44,0-.7-.27-1.25-.82-1.67-.55-.41-1.28-.75-2.19-1.01-.91-.26-1.9-.51-2.97-.75-1.07-.24-2.15-.52-3.24-.86-1.09-.34-2.08-.79-2.99-1.35-.91-.56-1.63-1.3-2.17-2.21-.54-.91-.8-2.05-.8-3.42,0-1.5.4-2.86,1.2-4.1.8-1.23,2.01-2.22,3.65-2.96,1.63-.74,3.69-1.1,6.15-1.1,1.65,0,3.27.2,4.88.6,1.61.4,3.01.97,4.21,1.72l-1.91,4.56c-1.17-.67-2.38-1.18-3.63-1.52-1.25-.34-2.44-.51-3.59-.51s-2.16.13-2.88.39c-.72.26-1.25.62-1.59,1.07-.34.45-.51.95-.51,1.5,0,.7.27,1.26.82,1.68.55.42,1.27.76,2.17.99.9.24,1.9.47,2.99.71,1.1.24,2.18.53,3.26.88,1.07.35,2.06.79,2.96,1.33s1.63,1.26,2.19,2.17c.56.91.84,2.04.84,3.39,0,1.47-.41,2.82-1.22,4.04-.81,1.22-2.04,2.21-3.69,2.96-1.65.75-3.7,1.12-6.17,1.12Z"/><path class="cls-1" d="M31.95,21.78h14.26v4.86h-20.28V.45h19.79v4.86h-13.77v16.46ZM31.5,10.96h12.61v4.75h-12.61v-4.75Z"/><path class="cls-1" d="M57.06,21.78h14.26v4.86h-20.28V.45h19.79v4.86h-13.77v16.46ZM56.61,10.96h12.61v4.75h-12.61v-4.75Z"/><path class="cls-1" d="M76.14,26.64V.45h11.9c2.84,0,5.35.54,7.52,1.63,2.17,1.09,3.87,2.61,5.09,4.56,1.22,1.96,1.83,4.26,1.83,6.9s-.61,4.95-1.83,6.9c-1.22,1.96-2.92,3.48-5.09,4.56-2.17,1.09-4.68,1.63-7.52,1.63h-11.9ZM82.24,21.7h5.5c1.75,0,3.26-.33,4.55-.99,1.28-.66,2.28-1.61,2.99-2.84.71-1.23,1.07-2.68,1.07-4.32s-.36-3.12-1.07-4.34c-.71-1.22-1.71-2.16-2.99-2.83-1.29-.66-2.8-.99-4.55-.99h-5.5v16.31Z"/><path class="cls-1" d="M115.68,27.09c-2.1,0-4.11-.28-6.04-.84-1.93-.56-3.49-1.29-4.66-2.19l2.06-4.56c1.1.8,2.42,1.45,3.97,1.96,1.55.51,3.11.77,4.68.77,1.2,0,2.16-.13,2.9-.37.74-.25,1.28-.58,1.63-.99.35-.41.52-.89.52-1.44,0-.7-.27-1.25-.82-1.67-.55-.41-1.28-.75-2.19-1.01-.91-.26-1.9-.51-2.97-.75-1.07-.24-2.15-.52-3.24-.86-1.09-.34-2.08-.79-2.99-1.35-.91-.56-1.63-1.3-2.17-2.21-.54-.91-.8-2.05-.8-3.42,0-1.5.4-2.86,1.2-4.1.8-1.23,2.01-2.22,3.65-2.96,1.63-.74,3.69-1.1,6.15-1.1,1.65,0,3.27.2,4.88.6,1.61.4,3.01.97,4.21,1.72l-1.91,4.56c-1.17-.67-2.38-1.18-3.63-1.52-1.25-.34-2.44-.51-3.59-.51s-2.16.13-2.88.39c-.72.26-1.25.62-1.59,1.07-.34.45-.51.95-.51,1.5,0,.7.27,1.26.82,1.68.55.42,1.27.76,2.17.99.9.24,1.9.47,2.99.71,1.1.24,2.18.53,3.26.88,1.07.35,2.06.79,2.96,1.33.9.54,1.63,1.26,2.19,2.17.56.91.84,2.04.84,3.39,0,1.47-.41,2.82-1.22,4.04-.81,1.22-2.04,2.21-3.69,2.96-1.65.75-3.7,1.12-6.17,1.12Z"/></g></svg>