<?xml version="1.0" encoding="UTF-8"?><svg id="Calque_2" xmlns="http://www.w3.org/2000/svg" viewBox="0 0 30.98 32.59"><defs><style>.cls-1{fill:#000;}.cls-1,.cls-2{stroke-width:0px;}.cls-2{fill:#f3c0d5;}</style></defs><g id="Calque_1-2"><path class="cls-2" d="M14.17,3.26c-4.01,2.56-6.72,6.77-8.45,11.2-1.5,3.83-2.3,8.35-.28,11.94,6.54,11.63,19.99,4.74,23.98-3.34C35.02,11.72,24.54-3.34,14.17,3.26Z"/><path class="cls-1" d="M29.64,29.13l-1.26-15.71h0s-.01-.08-.02-.11c0,0,0,0,0-.01,0-.01-.01-.03-.02-.04,0,0,0,0,0-.01,0-.01-.01-.03-.02-.04,0,0,0,0,0,0,0-.01-.02-.03-.03-.04,0,0,0,0,0,0,0-.01-.02-.02-.03-.03,0,0,0,0-.01-.01,0,0-.02-.02-.03-.02,0,0,0,0-.01,0-.02-.01-.03-.02-.05-.03l-12.84-7.01v-2.56h4.93c.26,0,.47-.21.47-.47V.47c0-.26-.21-.47-.47-.47h-5.4c-.26,0-.47.21-.47.47v5.55L1.51,13.04s-.03.02-.05.03c0,0,0,0-.01,0-.01,0-.02.02-.03.02,0,0,0,0-.01.01-.01,0-.02.02-.03.03,0,0,0,0,0,0-.01.01-.02.03-.03.04,0,0,0,0,0,0,0,.01-.01.02-.02.04,0,0,0,0,0,.01,0,.01-.01.03-.02.04,0,0,0,0,0,.01-.01.03-.02.07-.02.11h0S0,29.13,0,29.13c-.01.13.03.26.12.36.09.1.22.15.35.15h28.69c.13,0,.26-.06.35-.15.09-.1.13-.23.12-.36ZM15.29.95h4.45v1.58h-4.45V.95ZM21.57,12.98l-4.48-4.9,8.96,4.9h-4.48ZM14.82,8.64c-.26,0-.47.21-.47.47v3.87h-5l5.47-5.98,5.47,5.98h-5v-3.87c0-.26-.21-.47-.47-.47ZM3.59,12.98l8.96-4.9-4.48,4.9H3.59ZM14.82,18.29c1.56,0,2.85,1.15,3.08,2.64h-6.16c.23-1.49,1.52-2.64,3.08-2.64ZM11.71,21.87h6.23v6.82h-6.23v-6.82ZM22.45,28.69l-.54-13.36c-.01-.26-.23-.46-.49-.45-.26.01-.46.23-.45.49l.53,13.32h-2.62v-7.29c0-2.08-1.57-3.8-3.59-4.03v-2.02c0-.26-.21-.47-.47-.47s-.47.21-.47.47v2.02c-2.02.24-3.59,1.95-3.59,4.03v7.29h-2.62l.53-13.32c.01-.26-.19-.48-.45-.49-.26,0-.48.19-.49.45l-.54,13.36H.99l1.19-14.76h25.3l1.19,14.76h-6.21Z"/></g></svg>