<?xml version="1.0" encoding="UTF-8"?><svg id="Calque_2" xmlns="http://www.w3.org/2000/svg" viewBox="0 0 50.21 58.06"><defs><style>.cls-1{fill:#000;}.cls-1,.cls-2{stroke-width:0px;}.cls-2{fill:#f3c0d5;}</style></defs><g id="Calque_1-2"><path class="cls-2" d="M18.66,3.03C11.13,7.82,6.04,15.73,2.79,24.05-.02,31.24-1.52,39.72,2.27,46.45c12.27,21.82,37.51,8.9,45.01-6.27C57.79,18.9,38.11-9.36,18.66,3.03Z"/><path class="cls-1" d="M47.57,51.88l-1.83-22.79h0c0-.06-.02-.11-.03-.16,0,0,0-.01,0-.02,0-.02-.01-.04-.02-.06,0,0,0-.01,0-.02,0-.02-.02-.04-.03-.05,0,0,0,0,0-.01-.01-.02-.03-.04-.05-.06,0,0,0,0,0,0-.01-.02-.03-.03-.04-.05,0,0-.01-.01-.02-.02-.01-.01-.03-.02-.04-.04,0,0-.01,0-.02-.01-.02-.02-.05-.03-.07-.04l-18.62-10.17v-3.71h7.15c.38,0,.69-.31.69-.69v-3.66c0-.38-.31-.69-.69-.69h-7.83c-.38,0-.69.31-.69.69v8.05L6.78,28.54s-.05.03-.07.04c0,0-.01,0-.02.01-.01.01-.03.02-.04.04,0,0-.01.01-.02.02-.02.01-.03.03-.04.05,0,0,0,0,0,.01-.02.02-.03.04-.05.06,0,0,0,0,0,.01-.01.02-.02.04-.03.05,0,0,0,.01,0,.02,0,.02-.02.04-.02.06,0,0,0,.01,0,.02-.02.05-.03.1-.03.16h0s-1.83,22.79-1.83,22.79c-.02.19.05.38.18.52.13.14.31.22.5.22h41.62c.19,0,.37-.08.5-.22.13-.14.2-.33.18-.52ZM26.77,11h6.46v2.29h-6.46v-2.29ZM35.87,28.46l-6.5-7.11,13,7.11h-6.5ZM26.08,22.15c-.38,0-.69.31-.69.69v5.62h-7.25l7.93-8.67,7.93,8.67h-7.25v-5.62c0-.38-.31-.69-.69-.69ZM9.79,28.46l13-7.11-6.5,7.11h-6.5ZM26.08,36.15c2.26,0,4.13,1.66,4.46,3.83h-8.93c.33-2.17,2.21-3.83,4.46-3.83ZM21.56,41.36h9.03v9.89h-9.03v-9.89ZM37.14,51.25l-.78-19.38c-.02-.38-.33-.67-.71-.66-.38.02-.67.33-.66.71l.78,19.33h-3.8v-10.58c0-3.01-2.28-5.51-5.2-5.85v-2.93c0-.38-.31-.69-.69-.69s-.69.31-.69.69v2.93c-2.92.34-5.2,2.83-5.2,5.85v10.58h-3.8l.78-19.33c.02-.38-.28-.7-.66-.71-.38-.01-.7.28-.71.66l-.78,19.38H6.01l1.72-21.41h36.69l1.72,21.41h-9Z"/></g></svg>