<?xml version="1.0" encoding="UTF-8"?><svg id="Calque_2" xmlns="http://www.w3.org/2000/svg" viewBox="0 0 40.83 45.44"><defs><style>.cls-1{fill:#1a171b;}.cls-1,.cls-2{stroke-width:0px;}.cls-2{fill:#a7d1a7;}</style></defs><g id="Calque_1-2"><path class="cls-2" d="M19.52,1.17C13.02,3.81,7.98,9.2,4.3,15.16,1.11,20.32-1.25,26.65.72,32.38c6.39,18.59,27.71,12.18,35.64,1.52,11.13-14.95-.07-39.55-16.85-32.73Z"/><path class="cls-1" d="M20.26,29.19c-6.14,0-11.13-4.99-11.13-11.13s4.99-11.13,11.13-11.13,11.13,4.99,11.13,11.13-4.99,11.13-11.13,11.13ZM20.26,9.28c-4.84,0-8.78,3.94-8.78,8.78s3.94,8.78,8.78,8.78,8.78-3.94,8.78-8.78-3.94-8.78-8.78-8.78Z"/><path class="cls-1" d="M20.26,36.4c-3.3,0-6.22-2.72-7.45-6.92-.18-.62.18-1.28.8-1.46.62-.18,1.28.18,1.46.8.93,3.17,2.96,5.22,5.19,5.22s4.26-2.05,5.19-5.23c.18-.62.84-.98,1.46-.8.62.18.98.84.8,1.46-1.23,4.21-4.15,6.93-7.45,6.93Z"/><path class="cls-1" d="M36.63,45.44c-.65,0-1.18-.53-1.18-1.18,0-8.38-6.82-15.2-15.2-15.2s-15.2,6.82-15.2,15.2c0,.65-.53,1.18-1.18,1.18s-1.18-.53-1.18-1.18c0-9.68,7.88-17.56,17.56-17.56s17.56,7.88,17.56,17.56c0,.65-.53,1.18-1.18,1.18Z"/></g></svg>