<?xml version="1.0" encoding="UTF-8"?><svg id="Calque_2" xmlns="http://www.w3.org/2000/svg" viewBox="0 0 34.6 29.04"><defs><style>.cls-1{fill:#010101;}.cls-1,.cls-2,.cls-3{stroke-width:0px;}.cls-2{fill:none;}.cls-3{fill:#fed16a;}</style></defs><g id="Calque_1-2"><path class="cls-3" d="M14.02,1.46c-3.63,2.31-6.08,6.13-7.65,10.14-1.36,3.47-2.08,7.56-.25,10.81,5.92,10.53,18.09,4.29,21.71-3.03C32.89,9.12,23.4-4.52,14.02,1.46Z"/><path class="cls-2" d="M12.2,13.26s-.06-.04-.09-.05c0,.03,0,.06,0,.09.03-.01.05-.02.08-.04Z"/><path class="cls-1" d="M1.33,16.6c.51.97.83,2.02,1.35,2.99.89,1.65,1.8,2.13,3.65,1.9,2.71-.32,5.27-1.18,7.78-2.23.37-.16.73-.35,1.11-.48,1.41-.46,1.88-.12,1.64,1.33-.35,2.1-.81,4.18-1.15,6.29-.1.64-.54,1.46.3,1.86.71.33,1.31-.23,1.85-.66.6-.48.96-1.14,1.28-1.82,1.25-2.72,2.64-5.38,3.76-8.16.79-1.97,1.98-3.38,3.98-4.26,2.36-1.04,4.75-2.1,6.77-3.78.26-.22.57-.4.95-.23v-1.04c-.3.13-.58.05-.8-.14-2.6-2.21-5.36-1.63-8.11-.42-1.47.65-2.97,1.25-4.41,1.98-1.34.69-2.69.79-4.17.34-1.98-.6-3.93-1.33-5.95-1.8-.97-.22-1.94-.33-2.88.08-1.09.46-1.18,1.01-.25,1.73,1.01.77,2.18,1.29,3.19,2.07.55.42.86.76.91,1.05.03.02.06.04.09.05-.03.01-.05.02-.08.04,0,.35-.37.66-1.11,1.04-.36.18-.78.25-1.11.47-2.32,1.55-4.46,1.54-6.47-.57-1.01-1.06-2.28-.3-3.43-.39v1.38c.91,0,1.03.8,1.33,1.37ZM8.41,9.01c3.24-.11,5.7,1.32,8.57,1.91-3.19,2.07-4.1,1.86-8.57-1.91ZM4.09,15.91c1.45,1.23,2.74,1.38,4.52.54,5.92-2.78,11.93-5.38,17.91-8.03,2.8-1.24,4.71-1.08,6.49.5-2.38,1.79-5.05,2.99-7.69,4.2-1.22.56-2,1.3-2.54,2.56-1.32,3.12-2.8,6.17-4.23,9.24-.41.87-.78,1.8-2.06,2.41.67-3.7,1.31-7.19,1.99-10.96-1.86.79-3.46,1.49-5.07,2.16-2.29.95-4.62,1.76-7.09,2.07-1.38.17-2.43-.11-2.95-1.66-.49-1.46-1.24-2.84-1.92-4.33,1.31-.35,1.94.7,2.64,1.29Z"/><path class="cls-1" d="M6.73,21.92c3.45-.43,6.57-1.89,9.87-3.21-.07.51-.1.9-.17,1.29-.45,2.43-.89,4.86-1.37,7.28-.12.61-.13,1.14.38,1.56.52.43.97.05,1.44-.12,1.41-.51,2.18-1.63,2.77-2.91,1.47-3.17,2.95-6.34,4.37-9.54.4-.89.95-1.44,1.84-1.88,3.03-1.48,6.2-2.72,8.73-5.05-.38-.17-.69.01-.95.23-2.02,1.68-4.4,2.74-6.77,3.78-2.01.88-3.19,2.29-3.98,4.26-1.12,2.78-2.51,5.43-3.76,8.16-.31.68-.68,1.35-1.28,1.82-.54.43-1.14.99-1.85.66-.84-.4-.4-1.22-.3-1.86.34-2.1.8-4.19,1.15-6.29.24-1.45-.23-1.79-1.64-1.33-.38.13-.74.33-1.11.48-2.51,1.05-5.06,1.91-7.78,2.23-1.85.22-2.76-.25-3.65-1.9-.52-.97-.84-2.02-1.35-2.99-.3-.57-.42-1.37-1.33-1.37,1,1.2,1.38,2.71,2.03,4.09,1.18,2.49,1.97,2.95,4.7,2.61Z"/><path class="cls-1" d="M26.7,6.88c-2.19.85-4.33,1.85-6.46,2.84-.79.37-1.48.41-2.31.14-2.18-.72-4.39-1.36-6.59-2.02-1.13-.34-2.26-.43-3.37.09-.55.26-1.3.34-1.38,1.13-.08.77.56,1.07,1.09,1.4,1.43.89,2.86,1.77,4.43,2.75-.05-.3-.36-.63-.91-1.05-1.01-.77-2.18-1.3-3.19-2.07-.93-.71-.83-1.26.25-1.73.95-.4,1.91-.3,2.88-.08,2.02.46,3.97,1.2,5.95,1.8,1.48.45,2.83.34,4.17-.34,1.44-.74,2.94-1.33,4.41-1.98,2.75-1.21,5.51-1.8,8.11.42.22.19.51.27.8.14-2.28-2.42-5.02-2.55-7.9-1.43Z"/><path class="cls-1" d="M3.43,14.24c2,2.11,4.15,2.12,6.47.57.33-.22.75-.29,1.11-.47.75-.38,1.11-.69,1.11-1.04-.92.42-1.7.7-2.39,1.13-2.19,1.38-4.16,1.47-6.07-.57-1.12-1.2-2.44-1.06-3.67-.01,1.15.09,2.42-.67,3.43.39Z"/></g></svg>