<?xml version="1.0" encoding="UTF-8"?><svg id="Calque_2" xmlns="http://www.w3.org/2000/svg" viewBox="0 0 58.74 51.86"><defs><style>.cls-1{fill:#73b4bb;}.cls-1,.cls-2{stroke-width:0px;}.cls-2{fill:#060606;fill-rule:evenodd;}</style></defs><g id="Calque_1-2"><path class="cls-1" d="M4.04,33.91c5.5,7.03,13.87,11.32,22.46,13.75,7.43,2.1,16.01,2.77,22.35-1.65,20.53-14.33,5.23-38.19-10.6-44.19C16.04-6.58-10.18,15.74,4.04,33.91Z"/><path class="cls-2" d="M27.53,8.51c-7.35,0-13.34,5.98-13.34,13.34,0,2,1.62,3.62,3.62,3.62s3.62-1.62,3.62-3.62c0-3.36,2.74-6.1,6.1-6.1s6.1,2.74,6.1,6.1-2.74,6.15-6.1,6.15c-2,0-3.62,1.62-3.62,3.62v7.11c0,2,1.62,3.62,3.62,3.62s3.62-1.62,3.62-3.62v-3.99c2.61-.74,4.97-2.29,6.71-4.42,1.94-2.38,3.01-5.39,3.01-8.47,0-7.35-5.98-13.34-13.34-13.34ZM29.9,32.92c-.48.1-.82.52-.82,1.01v4.8c0,.86-.7,1.55-1.55,1.55s-1.55-.7-1.55-1.55v-7.11c0-.86.7-1.55,1.55-1.55,4.5,0,8.17-3.69,8.17-8.22s-3.66-8.17-8.17-8.17-8.17,3.66-8.17,8.17c0,.86-.7,1.55-1.55,1.55s-1.55-.7-1.55-1.55c0-6.21,5.06-11.27,11.27-11.27s11.27,5.06,11.27,11.27c0,5.3-3.74,9.96-8.9,11.07ZM23.91,47.83c0-2,1.62-3.62,3.62-3.62s3.62,1.62,3.62,3.62v.41c0,2-1.62,3.62-3.62,3.62s-3.62-1.62-3.62-3.62v-.41ZM27.53,49.79c.86,0,1.55-.7,1.55-1.55v-.41c0-.86-.7-1.55-1.55-1.55s-1.55.7-1.55,1.55v.41c0,.86.7,1.55,1.55,1.55Z"/></g></svg>