<?xml version="1.0" encoding="UTF-8"?><svg id="Calque_2" xmlns="http://www.w3.org/2000/svg" xmlns:xlink="http://www.w3.org/1999/xlink" viewBox="0 0 58.74 49.29"><defs><style>.cls-1{clip-path:url(#clippath);}.cls-2{fill:none;}.cls-2,.cls-3,.cls-4{stroke-width:0px;}.cls-5{clip-path:url(#clippath-1);}.cls-3{fill:#060606;}.cls-4{fill:#f9dae8;}</style><clipPath id="clippath"><rect class="cls-2" x="10.19" y="5.47" width="38.36" height="38.36"/></clipPath><clipPath id="clippath-1"><rect class="cls-2" x="10.19" y="5.47" width="38.36" height="38.36"/></clipPath></defs><g id="Calque_1-2"><path class="cls-4" d="M4.04,33.91c5.5,7.03,13.87,11.32,22.46,13.75,7.43,2.1,16.01,2.77,22.35-1.65,20.53-14.33,5.23-38.19-10.6-44.19C16.04-6.58-10.18,15.74,4.04,33.91Z"/><g class="cls-1"><g class="cls-5"><path class="cls-3" d="M48.47,27.47l-4.48-7.8.39.08c.33.07.66-.14.73-.47.07-.33-.14-.66-.47-.73l-7.17-1.54c-.31-.07-.61.11-.71.41l-2.25,6.98c-.1.32.07.67.39.77.06.02.13.03.19.03.26,0,.5-.17.58-.42l.11-.36,3.92,6.82h-8.14c-.34,0-.61.27-.61.61s.27.61.61.61h8.84l2.04,3.56-2.01,3.48h-8.87c-.34,0-.61.27-.61.61s.27.61.61.61h9.23c.22,0,.42-.12.53-.31l7.15-12.35c.11-.19.11-.42,0-.61ZM43.16,34.81l-6.87-11.95,1.46-4.52,4.63.99,4.86,8.45-4.07,7.04Z"/><path class="cls-3" d="M32.45,35.58l-4.92-5.44c-.23-.25-.61-.27-.86-.04-.25.23-.27.61-.04.86l.26.29h-7.85l4.11-7.15c.17-.29.07-.67-.23-.84-.29-.17-.67-.07-.84.23l-4.46,7.76h-4.1l-2.01-3.48,4.49-7.8c.17-.29.07-.67-.23-.84-.29-.17-.67-.07-.84.23l-4.66,8.11c-.11.19-.11.42,0,.61l7.15,12.35c.11.19.31.31.53.31h8.93l-.26.29c-.23.25-.21.64.04.86.12.11.26.16.41.16.17,0,.33-.07.45-.2l4.92-5.44c.21-.23.21-.59,0-.82ZM27.99,39.51h-9.69l-4.07-7.04h3.75s0,0,0,0,0,0,0,0h10.01l3.18,3.52-3.18,3.52Z"/><path class="cls-3" d="M18.24,22.29c.08.26.32.42.58.42.04,0,.09,0,.13-.01l7.17-1.54c.33-.07.54-.4.47-.73-.07-.33-.4-.54-.73-.47l-.39.08,3.89-6.77,4.07,7.09c.11.2.32.31.53.31.1,0,.21-.03.3-.08.29-.17.39-.54.23-.84l-4.43-7.71,2.05-3.57h4.01l4.46,7.76c.17.29.54.39.84.23.29-.17.39-.54.23-.84l-4.63-8.06c-.11-.19-.31-.31-.53-.31h-14.25c-.22,0-.42.12-.53.31l-4.44,7.73-.11-.36c-.1-.32-.45-.5-.77-.39-.32.1-.5.45-.39.77l2.25,6.98ZM22.6,8.47h8.12l-6.85,11.92-4.63.99-1.46-4.52,4.82-8.39Z"/></g></g></g></svg>