<?xml version="1.0" encoding="UTF-8"?><svg id="Calque_2" xmlns="http://www.w3.org/2000/svg" viewBox="0 0 27.32 33.53"><defs><style>.cls-1{fill:#f3c0d5;}.cls-1,.cls-2{stroke-width:0px;}.cls-2{fill:#050505;}</style></defs><g id="Calque_1-2"><path class="cls-1" d="M10.15,2.53C6.05,5.14,3.29,9.44,1.52,13.97,0,17.88-.83,22.5,1.23,26.16c6.68,11.88,20.41,4.84,24.49-3.41C31.45,11.17,20.74-4.21,10.15,2.53Z"/><path class="cls-2" d="M24.74,31.99c-.89-.72-1.76-1.46-2.7-2.25,0-.03,0-.06,0-.09,1.45-1.05,2.39-2.32,2.39-4.15-.02-6.31.01-12.62-.02-18.92-.01-2.1-1.25-3.89-3.31-4.26-1.6-.29-2.58-1.07-3.38-2.32h-2.01c-.88.56-.87,2.09-2.36,2.04-.96-.03-1.78-.03-2.23-1.11-.17-.4-.73-.63-1.11-.93h-1.68c-.86.5-.83,1.86-2.09,2.03-3.31.46-4.61,2.02-4.62,5.38,0,5.64.06,11.28-.03,16.92-.03,2.19.41,4.03,2.43,5.28,0,.04,0,.08,0,.13-.96.81-1.82,1.55-2.71,2.26-.54.43-.82.89-.35,1.53h.67c2.39-2.72,5.3-3.86,8.98-3.41,2.47.3,5.01.16,7.51.02,1.68-.1,3.01.32,4.16,1.53.65.68,1.42,1.24,2.14,1.86h.67c.46-.64.19-1.1-.35-1.54ZM16.71,1.36c.58,0,.89.37,1,.92-.04.64-.37,1.05-1.02,1.05-.57,0-.95-.34-.98-.91-.03-.65.34-1.05,1-1.06ZM9.18,1.33c.72.04,1.13.37,1.14,1.02,0,.57-.35.95-.91.98-.65.04-1.04-.34-1.06-1-.02-.59.4-.86.84-1ZM6.46,28.82c-2.23-.02-3.47-1.33-3.49-3.59-.02-3.07,0-6.14,0-9.21,0-3.07-.02-6.14,0-9.21.02-1.94,1.15-3.22,2.96-3.43.66-.08,1.24-.06,1.79.55.99,1.08,2.13,1.01,3.24.04,1.05-.91,3.06-.88,4.16.05.99.84,2.1,1.03,3,.09.98-1.02,1.95-.87,3.01-.43,1.32.55,1.95,1.61,1.95,3.03,0,3.52,0,7.03,0,10.55,0,2.62.01,5.25,0,7.87-.02,2.38-1.23,3.67-3.56,3.69-4.35.04-8.71.04-13.06,0Z"/><path class="cls-2" d="M19.4,8.74c-.77-.03-1.09-.17-1.03-1.01.09-1.18-.56-1.71-1.73-1.71-2.45.02-4.91,0-7.36,0-1,0-1.64.47-1.59,1.5.05.92-.19,1.25-1.17,1.22-1.5-.05-2.23.8-2.21,2.3.02,1.56-.02,3.12,0,4.69.03,1.65.69,2.34,2.33,2.36,2.12.03,4.24,0,6.36,0,2.06,0,4.13.02,6.19,0,1.87-.02,2.52-.67,2.54-2.49.02-1.45.02-2.9,0-4.35-.02-1.82-.55-2.44-2.34-2.51ZM9.85,7.38c1.11,0,2.22,0,3.33,0,1,0,2,0,2.99,0,.43,0,.89-.1.89.61,0,.61-.24.74-.78.73-2.16-.02-4.32-.02-6.48,0-.51,0-.82-.06-.81-.71,0-.7.42-.64.87-.64ZM20.41,15.54c.04.97-.38,1.26-1.29,1.24-2.06-.04-4.12-.01-6.18-.01-1.95,0-3.9-.05-5.85.02-1.06.03-1.53-.27-1.46-1.41.08-1.33.07-2.68,0-4.01-.06-1.06.39-1.33,1.37-1.32,4.01.04,8.02.04,12.03,0,.98,0,1.43.25,1.38,1.32-.07,1.39-.06,2.79,0,4.18Z"/><path class="cls-2" d="M7.14,21.46c-1.5-.09-2.81,1.13-2.83,2.64-.02,1.44,1.15,2.67,2.6,2.71,1.43.04,2.69-1.12,2.75-2.56.07-1.43-1.08-2.7-2.52-2.79ZM8.3,24.27c-.06.76-.59,1.16-1.38,1.22-.81-.15-1.33-.61-1.25-1.47.07-.76.58-1.23,1.36-1.19.86.05,1.34.59,1.27,1.44Z"/><path class="cls-2" d="M19.17,21.46c-1.44-.06-2.7,1.08-2.79,2.52-.09,1.5,1.13,2.81,2.64,2.83,1.44.02,2.67-1.17,2.71-2.6.04-1.44-1.12-2.68-2.56-2.75ZM19.1,25.48c-.83-.09-1.37-.51-1.36-1.37,0-.77.49-1.27,1.26-1.29.86-.02,1.37.49,1.37,1.34,0,.78-.51,1.19-1.27,1.32Z"/></g></svg>