<?xml version="1.0" encoding="UTF-8"?><svg id="Calque_2" xmlns="http://www.w3.org/2000/svg" viewBox="0 0 84.67 79.04"><defs><style>.cls-1{fill:#f9dae8;}.cls-1,.cls-2{stroke-width:0px;}.cls-2{fill:#000;fill-rule:evenodd;}</style></defs><g id="Calque_1-2"><path class="cls-1" d="M78.86,56.86c-7.93,10.13-19.99,16.32-32.37,19.82-10.72,3.03-23.08,4-32.21-2.38C-15.32,53.65,6.74,19.25,29.56,10.62,61.56-1.49,99.35,30.68,78.86,56.86Z"/><path class="cls-2" d="M22.15,60.8c3.17-1.76,7.98-3.15,13.71-4.05v-6.77c-5.61-.39-10.99-2-15.53-4.79-.14-.09-.26-.19-.35-.32-.04-.05-.08-.11-.11-.17-.02-.05-.04-.09-.06-.14-.07-.18-.09-.37-.07-.57.05-.48.38-.88.84-1.04,4.32-1.44,6.5-3.81,8.83-7.18-2.15-.65-4.13-1.55-5.93-2.66-.4-.25-.62-.7-.58-1.16.04-.46.34-.87.77-1.04,3.46-1.4,5.96-3.68,8.36-7.72-.89-.3-1.78-.65-2.67-1.05-.46-.21-.92-.44-1.38-.67-.45-.23-.89-.48-1.34-.74-.13-.07-.24-.17-.33-.28-.04-.05-.07-.09-.1-.14-.03-.05-.06-.1-.08-.15-.08-.18-.12-.38-.1-.59.03-.47.32-.88.76-1.06,5.25-2.2,8.8-6.53,10.84-13.25.16-.51.62-.86,1.15-.88.53-.01,1.02.31,1.2.81,1.31,3.55,4.5,8.59,7.7,10.46,0-.27.02-.54.04-.81.61-8.17,7.15-14.82,14.58-14.82,6.5,0,11.72,5.11,12.48,12.03,5.56,1.4,9.3,7.02,8.82,13.5-.32,4.29-2.45,8.25-5.6,10.79.43,1.96.43,3.68,0,5.25-.79,2.93-2.93,5.18-5.88,6.15-1.02.34-2.08.5-3.13.5-1.5,0-2.96-.34-4.19-.99v9.28c6.89.93,12.59,2.56,16.03,4.7.17.11.31.25.41.42.23.39.24.88-.01,1.29-.23.38-.64.59-1.05.59-.22,0-.45-.06-.65-.19-5.07-3.15-16.2-5.19-28.37-5.19s-22.42,1.86-27.8,4.85c-.6.33-1.36.12-1.69-.48-.33-.6-.12-1.36.48-1.69h0ZM49.24,46.01c-.31-.13-.61-.28-.9-.44-2.47-1.34-4.39-3.6-5.55-6.53-1.35-3.39-1.56-7.44-.57-11.12.98-3.65,3.03-6.62,5.83-8.47-.07-.33-.13-.66-.18-.99-3.69-1.33-6.95-5.73-8.9-9.52-2.01,4.87-5.02,8.47-8.96,10.74,1.41.67,2.82,1.19,4.2,1.56.37.1.67.36.82.71.01.03.03.07.04.1l.02.07s.02.07.03.11c.05.27,0,.56-.13.81-2.39,4.4-4.9,7.24-8.13,9.09,1.5.72,3.12,1.29,4.85,1.7.39.09.72.37.87.75.15.38.1.8-.12,1.14-2.45,3.73-4.61,6.64-8.6,8.59,7.41,3.68,16.74,4.31,25.4,1.71h0ZM53.72,46.97c.12,0,.25,0,.37,0,.99,0,2.02-.1,3.08-.31-.03,1.79-.07,3.56-.1,4.94v.42c-.04,1.49-.07,2.78-.08,3.76-1.91-.1-3.86-.15-5.85-.15-1.39,0-2.77.03-4.12.08-1.2.04-2.39.11-3.56.19v-6.15c3.13-.39,6.25-1.17,9.25-2.32.26-.1.46-.27.6-.48.13,0,.27.01.4.02h0ZM40.98,50v6.12c-.9.09-1.78.18-2.64.29v-6.34h.18c.82,0,1.64-.03,2.47-.08h0ZM64.81,44.34v-11.94c4.98-1.53,8.88-3.17,10.48-7.74.23-.65-.11-1.36-.76-1.58-.65-.23-1.36.11-1.58.76-1.18,3.38-4.21,4.73-8.39,6.04-1.62-4.26-.29-13.32,2.03-17.57.21-.38.2-.82,0-1.18-.11-.21-.28-.39-.5-.51-.6-.33-1.36-.11-1.68.49-1.16,2.12-2.08,5.18-2.6,8.38-1.28-1.17-1.99-2.29-2.24-4.2-.09-.68-.71-1.16-1.39-1.07-.68.09-1.16.71-1.07,1.39.39,3.06,1.79,4.75,3.93,6.5.13.11.28.18.43.23-.26,3.3-.04,6.48.87,8.68l-.02,25.18c-.32-.03-.64-.07-.97-.1-.29-.03-.58-.05-.88-.08-.33-.03-.65-.06-.99-.08,0-.91.03-2.14.06-3.56v-.29s.02-.44.02-.44c.29-12.58.06-14.12-.96-14.76-.99-.62-1.88-.97-2.66-1.28-1.71-.67-2.94-1.16-4.6-4.41-.31-.61-1.06-.85-1.67-.54-.26.13-.45.34-.56.58-.16.34-.16.74.02,1.09,2.08,4.09,3.94,4.82,5.9,5.59.63.25,1.27.5,1.95.9.17.81.22,2.91.22,5.3-8.03,1.84-11.13-3.56-12.1-6-2.24-5.63-.77-13.81,4.98-17,.09-.05.17-.11.24-.18.05-.05.1-.1.14-.15.04-.05.08-.11.11-.17.15-.28.19-.61.1-.93-.21-.74-.36-1.49-.43-2.27v-.11c-.02-.12-.03-.24-.04-.37-.04-.64-.04-1.28.01-1.94.52-6.91,5.95-12.53,12.1-12.53,5.45,0,9.78,4.57,10.07,10.63.01.27.12.53.28.73.09.11.19.2.31.27.14.09.29.14.46.17,4.81.76,8.11,5.51,7.7,11.06-.36,4.83-3.42,9.15-7.62,10.73-.64.24-.96.96-.72,1.6.06.15.14.29.25.41.08.09.17.16.27.22.31.19.71.24,1.08.1.26-.1.51-.2.76-.31.2-.09.4-.19.6-.29.16,1.16.12,2.2-.14,3.13-.78,2.89-3.01,4.02-4.26,4.44-2.18.72-4.58.41-6.1-.8-.08-.06-.16-.11-.25-.15-.06-.03-.12-.05-.19-.07h0Z"/></g></svg>