<?xml version="1.0" encoding="UTF-8"?><svg id="Calque_2" xmlns="http://www.w3.org/2000/svg" viewBox="0 0 43.44 50.24"><defs><style>.cls-1{fill:#f4e8d3;}.cls-1,.cls-2{stroke-width:0px;}.cls-2{fill:#000;fill-rule:evenodd;}</style></defs><g id="Calque_1-2"><path class="cls-1" d="M27.3,2.62c6.51,4.15,10.91,10.99,13.72,18.19,2.43,6.23,3.73,13.56.45,19.38-10.62,18.88-32.45,7.7-38.94-5.43C-6.56,16.35,10.46-8.1,27.3,2.62Z"/><path class="cls-2" d="M2.17,44.4c1.8-1,4.53-1.79,7.78-2.3v-3.84c-3.18-.22-6.23-1.13-8.81-2.72-.08-.05-.14-.11-.2-.18-.02-.03-.04-.06-.06-.1-.01-.03-.02-.05-.03-.08-.04-.1-.05-.21-.04-.32.03-.27.22-.5.48-.59,2.45-.82,3.69-2.16,5.01-4.07-1.22-.37-2.34-.88-3.36-1.51-.22-.14-.35-.39-.33-.66.02-.26.19-.49.44-.59,1.96-.8,3.38-2.09,4.74-4.38-.5-.17-1.01-.37-1.51-.6-.26-.12-.52-.25-.78-.38-.25-.13-.51-.27-.76-.42-.07-.04-.13-.1-.18-.16-.02-.03-.04-.05-.06-.08-.02-.03-.03-.06-.04-.08-.05-.1-.07-.22-.06-.33.02-.27.18-.5.43-.6,2.98-1.25,4.99-3.7,6.15-7.51.09-.29.35-.49.65-.5.3,0,.58.18.68.46.74,2.01,2.55,4.87,4.36,5.93,0-.15.01-.31.02-.46.35-4.63,4.06-8.41,8.27-8.41,3.69,0,6.65,2.9,7.07,6.82,3.15.8,5.27,3.98,5,7.65-.18,2.43-1.39,4.68-3.18,6.12.24,1.11.24,2.09,0,2.98-.45,1.66-1.66,2.93-3.33,3.49-.58.19-1.18.29-1.77.29-.85,0-1.68-.19-2.38-.56v5.26c3.91.53,7.14,1.45,9.09,2.66.1.06.18.14.23.24.13.22.14.5,0,.73-.13.21-.36.33-.6.33-.13,0-.26-.03-.37-.11-2.87-1.79-9.19-2.94-16.09-2.94s-12.71,1.05-15.76,2.75c-.34.19-.77.07-.96-.27-.19-.34-.07-.77.27-.96h0ZM17.54,36c-.17-.08-.34-.16-.51-.25-1.4-.76-2.49-2.04-3.15-3.7-.76-1.92-.88-4.22-.32-6.31.55-2.07,1.72-3.75,3.3-4.8-.04-.19-.08-.37-.1-.56-2.09-.75-3.94-3.25-5.05-5.4-1.14,2.76-2.84,4.8-5.08,6.09.8.38,1.6.68,2.38.88.21.05.38.2.47.4,0,.02.02.04.02.06v.04s.02.04.03.06c.03.16,0,.32-.07.46-1.35,2.5-2.78,4.1-4.61,5.15.85.41,1.77.73,2.75.96.22.05.41.21.49.43.08.21.06.45-.07.65-1.39,2.11-2.62,3.77-4.88,4.87,4.2,2.09,9.49,2.44,14.4.97h0ZM20.08,36.55c.07,0,.14,0,.21,0,.56,0,1.15-.06,1.75-.18-.01,1.02-.04,2.02-.06,2.8v.24c-.02.84-.04,1.58-.04,2.13-1.08-.06-2.19-.09-3.32-.09-.79,0-1.57.01-2.34.04-.68.03-1.36.06-2.02.11v-3.49c1.77-.22,3.54-.66,5.25-1.32.14-.06.26-.15.34-.27.08,0,.15,0,.23,0h0ZM12.86,38.27v3.47c-.51.05-1.01.1-1.5.17v-3.59h.1c.47,0,.93-.01,1.4-.04h0ZM26.36,35.06v-6.77c2.82-.87,5.04-1.8,5.94-4.39.13-.37-.07-.77-.43-.9-.37-.13-.77.07-.9.43-.67,1.91-2.39,2.68-4.76,3.42-.92-2.42-.16-7.55,1.15-9.96.12-.22.11-.47,0-.67-.06-.12-.16-.22-.28-.29-.34-.19-.77-.06-.96.28-.66,1.2-1.18,2.94-1.47,4.75-.73-.67-1.13-1.3-1.27-2.38-.05-.39-.4-.66-.79-.61-.39.05-.66.4-.61.79.22,1.73,1.02,2.7,2.23,3.68.07.06.16.1.24.13-.15,1.87-.02,3.68.49,4.92v14.28c-.19-.02-.38-.04-.56-.06-.16-.02-.33-.03-.5-.05-.19-.02-.37-.03-.56-.05,0-.52.02-1.21.04-2.02v-.17s0-.25,0-.25c.16-7.14.04-8.01-.54-8.37-.56-.35-1.07-.55-1.51-.73-.97-.38-1.67-.66-2.61-2.5-.18-.35-.6-.48-.95-.31-.14.07-.25.19-.32.33-.09.19-.09.42,0,.62,1.18,2.32,2.23,2.73,3.35,3.17.35.14.72.28,1.11.51.1.46.13,1.65.12,3.01-4.55,1.05-6.31-2.02-6.86-3.4-1.27-3.19-.44-7.83,2.82-9.64.05-.03.1-.06.14-.1.03-.03.05-.05.08-.09.02-.03.04-.06.06-.1.09-.16.11-.35.06-.53-.12-.42-.2-.85-.25-1.28v-.06c-.01-.07-.02-.14-.02-.21-.02-.36-.02-.73,0-1.1.29-3.92,3.37-7.1,6.86-7.1,3.09,0,5.55,2.59,5.71,6.03,0,.16.07.3.16.41.05.06.11.11.17.15.08.05.17.08.26.1,2.73.43,4.6,3.13,4.37,6.27-.21,2.74-1.94,5.19-4.32,6.09-.36.14-.55.54-.41.91.03.09.08.17.14.23.05.05.1.09.15.12.18.11.4.13.61.05.15-.05.29-.11.43-.18.12-.05.23-.11.34-.17.09.66.07,1.25-.08,1.77-.44,1.64-1.7,2.28-2.42,2.52-1.24.41-2.6.23-3.46-.45-.04-.03-.09-.06-.14-.09-.03-.02-.07-.03-.11-.04h0Z"/></g></svg>